M48
;GenerationSoftware,Autodesk,EAGLE,9.6.2*%
;CreationDate,2020-08-15T21:38:39Z*%
FMAT,2
ICI,OFF
METRIC,TZ,000.000
T11C0.350
T10C0.400
T9C0.500
T8C0.600
T7C0.813
T6C1.000
T5C1.016
T4C1.100
T3C2.800
T2C3.000
%
G90
M71
T2
X3000Y3000
X96410Y64570
X58410Y64570
X112000Y67000
X20410Y64570
X3000Y67000
X112000Y3000
T3
X34036Y21590
T4
X36449Y5588
X31877Y5588
X34163Y5588
T5
X58420Y5080
X15240Y6350
X60960Y5080
X63500Y5080
X55880Y5080
X10160Y3810
X12700Y3810
X15240Y3810
X17780Y3810
X20320Y3810
X10160Y6350
X12700Y6350
X17780Y6350
X20320Y6350
X69978Y15222
X72518Y15222
X46924Y14340
X49464Y14340
T6
X27510Y40630
X27510Y35550
X27510Y38090
X27510Y48250
X27510Y43170
X27510Y45710
X2740Y40630
X27510Y33010
X27510Y30470
X27510Y27930
X27510Y25390
X27510Y22850
X27510Y20310
X2740Y38090
X57140Y60960
X54600Y60960
X2740Y55870
X2740Y53330
X2740Y50790
X2740Y48250
X2740Y45710
X2740Y43170
X104855Y64530
X27510Y50790
X2740Y35550
X2740Y33010
X2740Y30470
X2740Y27930
X2740Y25390
X2740Y22850
X2740Y20310
X27510Y55870
X27510Y53330
X62220Y60960
X59680Y60960
X17065Y57930
X15795Y60130
X14525Y62330
X13255Y64530
X103585Y62330
X102315Y60130
X101045Y57930
T7
X110490Y40640
X54610Y21590
X113030Y40640
X105410Y33020
X107950Y33020
X102870Y33020
X100330Y33020
X113030Y33020
X110490Y33020
X97790Y33020
X95250Y33020
X105410Y40640
X54610Y24130
X64770Y21590
X27940Y6350
X27940Y3810
X64770Y24130
X95250Y40640
X97790Y40640
X100330Y40640
X102870Y40640
X107950Y40640
T8
X57190Y17240
X62190Y13240
X62190Y15240
X62190Y17240
X57190Y13240
X57190Y15240
T9
X76200Y38735
X76200Y25400
X24130Y66040
X34290Y63500
X81280Y46990
X81280Y62230
T10
X81280Y38735
X81280Y27940
T11
X100330Y27830
X25400Y13970
X3810Y13970
X87630Y10160
X105410Y27830
X100330Y45720
X106680Y45720
X22860Y22860
X15240Y52070
X7620Y53340
X90170Y59690
X92710Y57150
X48260Y62230
X41910Y64770
M30