G04 EAGLE Gerber RS-274X export*
G75*
%MOMM*%
%FSLAX34Y34*%
%LPD*%
%IN*%
%IPPOS*%
%AMOC8*
5,1,8,0,0,1.08239X$1,22.5*%
G01*
%ADD10C,0.254000*%


D10*
X0Y0D02*
X1150000Y0D01*
X1150000Y700000D01*
X0Y700000D01*
X0Y0D01*
X326360Y215400D02*
X326431Y214403D01*
X326574Y213413D01*
X326786Y212436D01*
X327068Y211476D01*
X327417Y210539D01*
X327833Y209629D01*
X328312Y208752D01*
X328853Y207910D01*
X329452Y207110D01*
X330107Y206354D01*
X330814Y205647D01*
X331570Y204992D01*
X332370Y204393D01*
X333212Y203852D01*
X334089Y203373D01*
X334999Y202957D01*
X335936Y202608D01*
X336896Y202326D01*
X337873Y202114D01*
X338863Y201971D01*
X339860Y201900D01*
X340860Y201900D01*
X341858Y201971D01*
X342847Y202114D01*
X343825Y202326D01*
X344784Y202608D01*
X345721Y202957D01*
X346631Y203373D01*
X347508Y203852D01*
X348350Y204393D01*
X349150Y204992D01*
X349906Y205647D01*
X350613Y206354D01*
X351268Y207110D01*
X351867Y207910D01*
X352408Y208752D01*
X352887Y209629D01*
X353303Y210539D01*
X353652Y211476D01*
X353934Y212436D01*
X354146Y213413D01*
X354289Y214403D01*
X354360Y215400D01*
X354360Y216400D01*
X354289Y217398D01*
X354146Y218387D01*
X353934Y219365D01*
X353652Y220324D01*
X353303Y221261D01*
X352887Y222171D01*
X352408Y223048D01*
X351867Y223890D01*
X351268Y224690D01*
X350613Y225446D01*
X349906Y226153D01*
X349150Y226808D01*
X348350Y227407D01*
X347508Y227948D01*
X346631Y228427D01*
X345721Y228843D01*
X344784Y229192D01*
X343825Y229474D01*
X342847Y229686D01*
X341858Y229829D01*
X340860Y229900D01*
X339860Y229900D01*
X338863Y229829D01*
X337873Y229686D01*
X336896Y229474D01*
X335936Y229192D01*
X334999Y228843D01*
X334089Y228427D01*
X333212Y227948D01*
X332370Y227407D01*
X331570Y226808D01*
X330814Y226153D01*
X330107Y225446D01*
X329452Y224690D01*
X328853Y223890D01*
X328312Y223048D01*
X327833Y222171D01*
X327417Y221261D01*
X327068Y220324D01*
X326786Y219365D01*
X326574Y218387D01*
X326431Y217398D01*
X326360Y216400D01*
X326360Y215400D01*
M02*
