G04 EAGLE Gerber RS-274X export*
G75*
%MOMM*%
%FSLAX34Y34*%
%LPD*%
%INSilkscreen Bottom*%
%IPPOS*%
%AMOC8*
5,1,8,0,0,1.08239X$1,22.5*%
G01*
%ADD10C,0.127000*%
%ADD11C,0.101600*%
%ADD12C,0.304800*%
%ADD13C,0.609600*%
%ADD14C,0.152400*%
%ADD15R,0.863600X0.609600*%
%ADD16C,0.254000*%


D10*
X881805Y437764D02*
X1106805Y827476D01*
X1092637Y835656D01*
X1085137Y822665D01*
X1005137Y684101D01*
X955137Y597499D01*
X875137Y458935D01*
X867637Y445944D01*
X881805Y437764D01*
X968905Y588626D02*
X1019705Y676614D01*
X968905Y588626D02*
X990902Y575926D01*
X995347Y583625D01*
X999157Y590224D01*
X1008047Y605622D01*
X1011857Y612221D01*
X1020747Y627619D01*
X1024557Y634218D01*
X1033447Y649616D01*
X1037257Y656215D01*
X1041702Y663914D01*
X1019705Y676614D01*
X1037257Y656215D02*
X1042756Y653040D01*
X1038946Y646441D02*
X1033447Y649616D01*
X1024557Y634218D02*
X1030056Y631043D01*
X1017356Y609046D02*
X1011857Y612221D01*
X999157Y590224D02*
X1004656Y587049D01*
X1026246Y624444D02*
X1020747Y627619D01*
X1008047Y605622D02*
X1013546Y602447D01*
X1000846Y580450D02*
X995347Y583625D01*
X875137Y458935D02*
X771214Y518935D01*
X851214Y657499D01*
X955137Y597499D01*
X1005137Y684101D02*
X901214Y744101D01*
X981214Y882665D01*
X1085137Y822665D01*
D11*
X998497Y646485D02*
X1005805Y642266D01*
X1005902Y642208D01*
X1005997Y642146D01*
X1006090Y642081D01*
X1006180Y642013D01*
X1006268Y641942D01*
X1006354Y641867D01*
X1006437Y641790D01*
X1006517Y641710D01*
X1006594Y641627D01*
X1006669Y641541D01*
X1006740Y641453D01*
X1006808Y641363D01*
X1006873Y641270D01*
X1006935Y641175D01*
X1006993Y641078D01*
X1007048Y640979D01*
X1007099Y640878D01*
X1007147Y640775D01*
X1007192Y640671D01*
X1007232Y640565D01*
X1007269Y640458D01*
X1007302Y640350D01*
X1007332Y640240D01*
X1007357Y640130D01*
X1007379Y640019D01*
X1007396Y639907D01*
X1007410Y639794D01*
X1007420Y639681D01*
X1007426Y639568D01*
X1007428Y639455D01*
X1007426Y639342D01*
X1007420Y639229D01*
X1007410Y639116D01*
X1007396Y639003D01*
X1007379Y638891D01*
X1007357Y638780D01*
X1007332Y638670D01*
X1007302Y638560D01*
X1007269Y638452D01*
X1007232Y638345D01*
X1007192Y638239D01*
X1007147Y638135D01*
X1007099Y638032D01*
X1007048Y637931D01*
X1006993Y637832D01*
X1006935Y637735D01*
X1006873Y637640D01*
X1006808Y637547D01*
X1006740Y637457D01*
X1006669Y637369D01*
X1006594Y637283D01*
X1006517Y637200D01*
X1006437Y637120D01*
X1006354Y637043D01*
X1006268Y636968D01*
X1006180Y636897D01*
X1006090Y636829D01*
X1005997Y636764D01*
X1005902Y636702D01*
X1005805Y636644D01*
X1005706Y636589D01*
X1005605Y636538D01*
X1005502Y636490D01*
X1005398Y636445D01*
X1005292Y636405D01*
X1005185Y636368D01*
X1005077Y636335D01*
X1004967Y636305D01*
X1004857Y636280D01*
X1004746Y636258D01*
X1004634Y636241D01*
X1004521Y636227D01*
X1004408Y636217D01*
X1004295Y636211D01*
X1004182Y636209D01*
X1004069Y636211D01*
X1003956Y636217D01*
X1003843Y636227D01*
X1003730Y636241D01*
X1003618Y636258D01*
X1003507Y636280D01*
X1003397Y636305D01*
X1003287Y636335D01*
X1003179Y636368D01*
X1003072Y636405D01*
X1002966Y636445D01*
X1002862Y636490D01*
X1002759Y636538D01*
X1002658Y636589D01*
X1002559Y636644D01*
X1002560Y636645D02*
X995252Y640864D01*
X991350Y634106D02*
X1001469Y628264D01*
X996409Y631185D02*
X996377Y633077D01*
X996378Y633077D02*
X996374Y633163D01*
X996367Y633250D01*
X996356Y633336D01*
X996341Y633422D01*
X996322Y633507D01*
X996299Y633591D01*
X996273Y633673D01*
X996243Y633755D01*
X996209Y633835D01*
X996172Y633914D01*
X996131Y633990D01*
X996087Y634065D01*
X996040Y634138D01*
X995989Y634209D01*
X995935Y634277D01*
X995879Y634343D01*
X995819Y634406D01*
X995757Y634466D01*
X995692Y634524D01*
X995624Y634579D01*
X995554Y634630D01*
X995482Y634679D01*
X995408Y634724D01*
X995331Y634765D01*
X995253Y634804D01*
X995174Y634838D01*
X995092Y634870D01*
X995010Y634897D01*
X994926Y634921D01*
X994842Y634941D01*
X994756Y634957D01*
X994670Y634969D01*
X994584Y634978D01*
X994497Y634982D01*
X994410Y634983D01*
X994323Y634980D01*
X994237Y634972D01*
X994151Y634961D01*
X994065Y634947D01*
X993980Y634928D01*
X993896Y634905D01*
X993813Y634879D01*
X993732Y634849D01*
X993651Y634816D01*
X993573Y634779D01*
X993496Y634738D01*
X993421Y634694D01*
X993348Y634647D01*
X993277Y634597D01*
X993209Y634543D01*
X993143Y634486D01*
X993080Y634427D01*
X993019Y634364D01*
X992961Y634300D01*
X992962Y634300D02*
X992871Y634190D01*
X992783Y634077D01*
X992698Y633962D01*
X992617Y633845D01*
X992539Y633726D01*
X992464Y633604D01*
X992393Y633481D01*
X992325Y633356D01*
X992260Y633228D01*
X992200Y633099D01*
X992142Y632969D01*
X992089Y632837D01*
X992039Y632703D01*
X991993Y632568D01*
X991950Y632432D01*
X991912Y632295D01*
X991877Y632156D01*
X991846Y632017D01*
X991819Y631877D01*
X991795Y631736D01*
X991776Y631595D01*
X991761Y631453D01*
X991749Y631311D01*
X991742Y631169D01*
X991738Y631026D01*
X991739Y630883D01*
X996409Y631185D02*
X996441Y629293D01*
X996441Y629292D02*
X996445Y629206D01*
X996452Y629119D01*
X996463Y629033D01*
X996478Y628947D01*
X996497Y628862D01*
X996520Y628778D01*
X996546Y628696D01*
X996576Y628614D01*
X996610Y628534D01*
X996647Y628455D01*
X996688Y628379D01*
X996732Y628304D01*
X996779Y628231D01*
X996830Y628160D01*
X996884Y628092D01*
X996940Y628026D01*
X997000Y627963D01*
X997062Y627902D01*
X997127Y627845D01*
X997195Y627790D01*
X997265Y627739D01*
X997337Y627690D01*
X997411Y627645D01*
X997488Y627604D01*
X997566Y627565D01*
X997645Y627531D01*
X997727Y627499D01*
X997809Y627472D01*
X997893Y627448D01*
X997977Y627428D01*
X998063Y627412D01*
X998149Y627400D01*
X998235Y627391D01*
X998322Y627387D01*
X998409Y627386D01*
X998496Y627389D01*
X998582Y627397D01*
X998668Y627408D01*
X998754Y627422D01*
X998839Y627441D01*
X998923Y627464D01*
X999006Y627490D01*
X999087Y627520D01*
X999168Y627553D01*
X999246Y627590D01*
X999323Y627631D01*
X999398Y627675D01*
X999471Y627722D01*
X999542Y627773D01*
X999610Y627826D01*
X999676Y627883D01*
X999739Y627942D01*
X999800Y628005D01*
X999858Y628070D01*
X999857Y628070D02*
X999948Y628180D01*
X1000036Y628292D01*
X1000121Y628407D01*
X1000202Y628524D01*
X1000280Y628644D01*
X1000355Y628765D01*
X1000426Y628889D01*
X1000494Y629014D01*
X1000558Y629141D01*
X1000619Y629270D01*
X1000677Y629401D01*
X1000730Y629533D01*
X1000780Y629667D01*
X1000826Y629802D01*
X1000869Y629938D01*
X1000907Y630075D01*
X1000942Y630213D01*
X1000973Y630353D01*
X1001000Y630493D01*
X1001024Y630633D01*
X1001043Y630775D01*
X1001058Y630917D01*
X1001070Y631059D01*
X1001077Y631201D01*
X1001081Y631344D01*
X1001080Y631486D01*
X985853Y624585D02*
X985802Y624492D01*
X985753Y624397D01*
X985709Y624300D01*
X985668Y624202D01*
X985630Y624102D01*
X985596Y624001D01*
X985566Y623898D01*
X985540Y623795D01*
X985517Y623690D01*
X985499Y623585D01*
X985484Y623480D01*
X985473Y623374D01*
X985465Y623267D01*
X985462Y623161D01*
X985463Y623054D01*
X985467Y622947D01*
X985476Y622841D01*
X985488Y622735D01*
X985504Y622629D01*
X985524Y622525D01*
X985548Y622421D01*
X985576Y622318D01*
X985607Y622216D01*
X985642Y622115D01*
X985681Y622015D01*
X985723Y621917D01*
X985769Y621821D01*
X985819Y621727D01*
X985871Y621634D01*
X985927Y621543D01*
X985987Y621454D01*
X986049Y621368D01*
X986115Y621284D01*
X986184Y621202D01*
X986256Y621123D01*
X986330Y621047D01*
X986407Y620973D01*
X986487Y620903D01*
X986570Y620835D01*
X986655Y620770D01*
X986742Y620709D01*
X986831Y620650D01*
X986922Y620595D01*
X985853Y624586D02*
X985915Y624690D01*
X985980Y624792D01*
X986049Y624892D01*
X986121Y624989D01*
X986196Y625084D01*
X986274Y625176D01*
X986355Y625266D01*
X986439Y625354D01*
X986526Y625438D01*
X986615Y625520D01*
X986707Y625599D01*
X986801Y625674D01*
X986898Y625747D01*
X986997Y625816D01*
X987098Y625883D01*
X987202Y625946D01*
X987307Y626005D01*
X987414Y626062D01*
X987523Y626114D01*
X987634Y626163D01*
X987746Y626209D01*
X987859Y626251D01*
X987974Y626289D01*
X988090Y626324D01*
X988207Y626355D01*
X988325Y626381D01*
X988444Y626405D01*
X988563Y626424D01*
X988683Y626439D01*
X988804Y626451D01*
X988925Y626459D01*
X989046Y626463D01*
X989167Y626462D01*
X989288Y626458D01*
X989408Y626451D01*
X989529Y626439D01*
X989649Y626423D01*
X989768Y626404D01*
X989887Y626380D01*
X989378Y620304D02*
X989271Y620274D01*
X989164Y620249D01*
X989055Y620227D01*
X988946Y620209D01*
X988837Y620195D01*
X988727Y620185D01*
X988617Y620178D01*
X988506Y620176D01*
X988396Y620177D01*
X988285Y620183D01*
X988175Y620192D01*
X988066Y620205D01*
X987957Y620222D01*
X987848Y620243D01*
X987740Y620267D01*
X987634Y620296D01*
X987528Y620328D01*
X987424Y620364D01*
X987320Y620403D01*
X987219Y620446D01*
X987119Y620493D01*
X987020Y620543D01*
X986924Y620596D01*
X989377Y620303D02*
X997757Y621836D01*
X994512Y616214D01*
D10*
X299295Y437764D02*
X74295Y827476D01*
X299295Y437764D02*
X313463Y445944D01*
X305963Y458935D01*
X225963Y597499D01*
X175963Y684101D01*
X95963Y822665D01*
X88463Y835656D01*
X74295Y827476D01*
X161395Y676614D02*
X212195Y588626D01*
X161395Y676614D02*
X139398Y663914D01*
X143843Y656215D01*
X147653Y649616D01*
X156543Y634218D01*
X160353Y627619D01*
X169243Y612221D01*
X173053Y605622D01*
X181943Y590224D01*
X185753Y583625D01*
X190198Y575926D01*
X212195Y588626D01*
X185753Y583625D02*
X180254Y580450D01*
X176444Y587049D02*
X181943Y590224D01*
X173053Y605622D02*
X167554Y602447D01*
X154854Y624444D02*
X160353Y627619D01*
X147653Y649616D02*
X142154Y646441D01*
X163744Y609046D02*
X169243Y612221D01*
X156543Y634218D02*
X151044Y631043D01*
X138344Y653040D02*
X143843Y656215D01*
X95963Y822665D02*
X199887Y882665D01*
X279887Y744101D01*
X175963Y684101D01*
X225963Y597499D02*
X329886Y657499D01*
X409886Y518935D01*
X305963Y458935D01*
D11*
X142843Y587975D02*
X147063Y595283D01*
X142844Y587975D02*
X142786Y587878D01*
X142724Y587783D01*
X142659Y587690D01*
X142591Y587600D01*
X142520Y587512D01*
X142445Y587426D01*
X142368Y587343D01*
X142288Y587263D01*
X142205Y587186D01*
X142119Y587111D01*
X142031Y587040D01*
X141941Y586972D01*
X141848Y586907D01*
X141753Y586845D01*
X141656Y586787D01*
X141557Y586732D01*
X141456Y586681D01*
X141353Y586633D01*
X141249Y586588D01*
X141143Y586548D01*
X141036Y586511D01*
X140928Y586478D01*
X140818Y586448D01*
X140708Y586423D01*
X140597Y586401D01*
X140485Y586384D01*
X140372Y586370D01*
X140259Y586360D01*
X140146Y586354D01*
X140033Y586352D01*
X139920Y586354D01*
X139807Y586360D01*
X139694Y586370D01*
X139581Y586384D01*
X139469Y586401D01*
X139358Y586423D01*
X139248Y586448D01*
X139138Y586478D01*
X139030Y586511D01*
X138923Y586548D01*
X138817Y586588D01*
X138713Y586633D01*
X138610Y586681D01*
X138509Y586732D01*
X138410Y586787D01*
X138313Y586845D01*
X138218Y586907D01*
X138125Y586972D01*
X138035Y587040D01*
X137947Y587111D01*
X137861Y587186D01*
X137778Y587263D01*
X137698Y587343D01*
X137621Y587426D01*
X137546Y587512D01*
X137475Y587600D01*
X137407Y587690D01*
X137342Y587783D01*
X137280Y587878D01*
X137222Y587975D01*
X137167Y588074D01*
X137116Y588175D01*
X137068Y588278D01*
X137023Y588382D01*
X136983Y588488D01*
X136946Y588595D01*
X136913Y588703D01*
X136883Y588813D01*
X136858Y588923D01*
X136836Y589034D01*
X136819Y589146D01*
X136805Y589259D01*
X136795Y589372D01*
X136789Y589485D01*
X136787Y589598D01*
X136789Y589711D01*
X136795Y589824D01*
X136805Y589937D01*
X136819Y590050D01*
X136836Y590162D01*
X136858Y590273D01*
X136883Y590383D01*
X136913Y590493D01*
X136946Y590601D01*
X136983Y590708D01*
X137023Y590814D01*
X137068Y590918D01*
X137116Y591021D01*
X137167Y591122D01*
X137222Y591221D01*
X141441Y598529D01*
X134683Y602430D02*
X128841Y592312D01*
X131762Y597371D02*
X133654Y597403D01*
X133655Y597402D02*
X133741Y597406D01*
X133828Y597413D01*
X133914Y597424D01*
X134000Y597439D01*
X134085Y597458D01*
X134169Y597481D01*
X134251Y597507D01*
X134333Y597537D01*
X134413Y597571D01*
X134492Y597608D01*
X134568Y597649D01*
X134643Y597693D01*
X134716Y597740D01*
X134787Y597791D01*
X134855Y597845D01*
X134921Y597901D01*
X134984Y597961D01*
X135044Y598023D01*
X135102Y598088D01*
X135157Y598156D01*
X135208Y598226D01*
X135257Y598298D01*
X135302Y598372D01*
X135343Y598449D01*
X135382Y598527D01*
X135416Y598606D01*
X135448Y598688D01*
X135475Y598770D01*
X135499Y598854D01*
X135519Y598938D01*
X135535Y599024D01*
X135547Y599110D01*
X135556Y599196D01*
X135560Y599283D01*
X135561Y599370D01*
X135558Y599457D01*
X135550Y599543D01*
X135539Y599629D01*
X135525Y599715D01*
X135506Y599800D01*
X135483Y599884D01*
X135457Y599967D01*
X135427Y600048D01*
X135394Y600129D01*
X135357Y600207D01*
X135316Y600284D01*
X135272Y600359D01*
X135225Y600432D01*
X135175Y600503D01*
X135121Y600571D01*
X135064Y600637D01*
X135005Y600700D01*
X134942Y600761D01*
X134878Y600819D01*
X134877Y600819D02*
X134767Y600910D01*
X134655Y600998D01*
X134540Y601082D01*
X134423Y601164D01*
X134303Y601242D01*
X134182Y601317D01*
X134058Y601388D01*
X133933Y601456D01*
X133806Y601520D01*
X133677Y601581D01*
X133546Y601639D01*
X133414Y601692D01*
X133280Y601742D01*
X133145Y601788D01*
X133009Y601831D01*
X132872Y601869D01*
X132734Y601904D01*
X132594Y601935D01*
X132454Y601962D01*
X132314Y601986D01*
X132172Y602005D01*
X132030Y602020D01*
X131888Y602032D01*
X131746Y602039D01*
X131603Y602043D01*
X131461Y602042D01*
X131762Y597371D02*
X129870Y597339D01*
X129784Y597335D01*
X129697Y597328D01*
X129611Y597317D01*
X129525Y597302D01*
X129440Y597283D01*
X129356Y597260D01*
X129274Y597234D01*
X129192Y597204D01*
X129112Y597170D01*
X129033Y597133D01*
X128957Y597092D01*
X128882Y597048D01*
X128809Y597001D01*
X128738Y596950D01*
X128670Y596896D01*
X128604Y596840D01*
X128541Y596780D01*
X128480Y596718D01*
X128423Y596653D01*
X128368Y596585D01*
X128317Y596515D01*
X128268Y596443D01*
X128223Y596369D01*
X128182Y596292D01*
X128143Y596214D01*
X128109Y596135D01*
X128077Y596053D01*
X128050Y595971D01*
X128026Y595887D01*
X128006Y595803D01*
X127990Y595717D01*
X127978Y595631D01*
X127969Y595545D01*
X127965Y595458D01*
X127964Y595371D01*
X127967Y595284D01*
X127975Y595198D01*
X127986Y595112D01*
X128000Y595026D01*
X128019Y594941D01*
X128042Y594857D01*
X128068Y594774D01*
X128098Y594693D01*
X128131Y594612D01*
X128168Y594534D01*
X128209Y594457D01*
X128253Y594382D01*
X128300Y594309D01*
X128351Y594238D01*
X128404Y594170D01*
X128461Y594104D01*
X128520Y594041D01*
X128583Y593980D01*
X128648Y593922D01*
X128647Y593923D02*
X128757Y593832D01*
X128869Y593744D01*
X128984Y593659D01*
X129101Y593578D01*
X129221Y593500D01*
X129342Y593425D01*
X129466Y593354D01*
X129591Y593286D01*
X129718Y593222D01*
X129847Y593161D01*
X129978Y593103D01*
X130110Y593050D01*
X130244Y593000D01*
X130379Y592954D01*
X130515Y592911D01*
X130652Y592873D01*
X130790Y592838D01*
X130930Y592807D01*
X131070Y592780D01*
X131210Y592756D01*
X131352Y592737D01*
X131494Y592722D01*
X131636Y592710D01*
X131778Y592703D01*
X131921Y592699D01*
X132063Y592700D01*
X122413Y596023D02*
X119602Y597646D01*
X119602Y597645D02*
X119505Y597703D01*
X119410Y597765D01*
X119317Y597830D01*
X119227Y597898D01*
X119139Y597969D01*
X119053Y598044D01*
X118970Y598121D01*
X118890Y598201D01*
X118813Y598284D01*
X118738Y598370D01*
X118667Y598458D01*
X118599Y598548D01*
X118534Y598641D01*
X118472Y598736D01*
X118414Y598833D01*
X118359Y598932D01*
X118308Y599033D01*
X118260Y599136D01*
X118215Y599240D01*
X118175Y599346D01*
X118138Y599453D01*
X118105Y599561D01*
X118075Y599671D01*
X118050Y599781D01*
X118028Y599892D01*
X118011Y600004D01*
X117997Y600117D01*
X117987Y600230D01*
X117981Y600343D01*
X117979Y600456D01*
X117981Y600569D01*
X117987Y600682D01*
X117997Y600795D01*
X118011Y600908D01*
X118028Y601020D01*
X118050Y601131D01*
X118075Y601241D01*
X118105Y601351D01*
X118138Y601459D01*
X118175Y601566D01*
X118215Y601672D01*
X118260Y601776D01*
X118308Y601879D01*
X118359Y601980D01*
X118414Y602079D01*
X118472Y602176D01*
X118534Y602271D01*
X118599Y602364D01*
X118667Y602454D01*
X118738Y602542D01*
X118813Y602628D01*
X118890Y602711D01*
X118970Y602791D01*
X119053Y602868D01*
X119139Y602943D01*
X119227Y603014D01*
X119317Y603082D01*
X119410Y603147D01*
X119505Y603209D01*
X119602Y603267D01*
X119701Y603322D01*
X119802Y603373D01*
X119905Y603421D01*
X120009Y603466D01*
X120115Y603506D01*
X120222Y603543D01*
X120330Y603576D01*
X120440Y603606D01*
X120550Y603631D01*
X120661Y603653D01*
X120773Y603670D01*
X120886Y603684D01*
X120999Y603694D01*
X121112Y603700D01*
X121225Y603702D01*
X121338Y603700D01*
X121451Y603694D01*
X121564Y603684D01*
X121677Y603670D01*
X121789Y603653D01*
X121900Y603631D01*
X122010Y603606D01*
X122120Y603576D01*
X122228Y603543D01*
X122335Y603506D01*
X122441Y603466D01*
X122545Y603421D01*
X122648Y603373D01*
X122749Y603322D01*
X122848Y603267D01*
X124882Y608089D02*
X128255Y606141D01*
X124883Y608089D02*
X124794Y608138D01*
X124704Y608183D01*
X124613Y608225D01*
X124519Y608263D01*
X124425Y608297D01*
X124329Y608328D01*
X124232Y608355D01*
X124134Y608378D01*
X124035Y608398D01*
X123935Y608413D01*
X123835Y608425D01*
X123735Y608433D01*
X123634Y608437D01*
X123534Y608437D01*
X123433Y608433D01*
X123333Y608425D01*
X123233Y608413D01*
X123133Y608398D01*
X123034Y608378D01*
X122936Y608355D01*
X122839Y608328D01*
X122743Y608297D01*
X122649Y608263D01*
X122555Y608225D01*
X122464Y608183D01*
X122374Y608138D01*
X122286Y608089D01*
X122199Y608037D01*
X122115Y607982D01*
X122033Y607923D01*
X121954Y607861D01*
X121876Y607797D01*
X121802Y607729D01*
X121730Y607658D01*
X121661Y607585D01*
X121595Y607509D01*
X121531Y607431D01*
X121471Y607350D01*
X121414Y607267D01*
X121361Y607182D01*
X121310Y607095D01*
X121263Y607006D01*
X121220Y606915D01*
X121180Y606822D01*
X121144Y606728D01*
X121111Y606633D01*
X121082Y606536D01*
X121057Y606439D01*
X121036Y606340D01*
X121018Y606241D01*
X121005Y606141D01*
X120995Y606041D01*
X120989Y605941D01*
X120987Y605840D01*
X120989Y605739D01*
X120995Y605639D01*
X121005Y605539D01*
X121018Y605439D01*
X121036Y605340D01*
X121057Y605241D01*
X121082Y605144D01*
X121111Y605047D01*
X121144Y604952D01*
X121180Y604858D01*
X121220Y604765D01*
X121263Y604674D01*
X121310Y604585D01*
X121361Y604498D01*
X121414Y604413D01*
X121471Y604330D01*
X121531Y604249D01*
X121595Y604171D01*
X121661Y604095D01*
X121730Y604022D01*
X121802Y603951D01*
X121876Y603883D01*
X121954Y603819D01*
X122033Y603757D01*
X122115Y603698D01*
X122199Y603643D01*
X122286Y603591D01*
X122286Y603592D02*
X124534Y602293D01*
D12*
X309880Y130810D02*
X374650Y130810D01*
X309880Y130810D02*
X309880Y194310D01*
X374650Y194310D01*
X374650Y130810D01*
X368300Y187960D02*
X314960Y187960D01*
X314960Y135890D01*
X368300Y135890D01*
X368300Y187960D01*
X365760Y168910D02*
X365602Y168893D01*
X365444Y168871D01*
X365287Y168845D01*
X365131Y168816D01*
X364975Y168782D01*
X364821Y168745D01*
X364667Y168704D01*
X364514Y168659D01*
X364363Y168610D01*
X364213Y168557D01*
X364064Y168501D01*
X363916Y168441D01*
X363770Y168377D01*
X363626Y168310D01*
X363484Y168239D01*
X363343Y168165D01*
X363204Y168087D01*
X363067Y168006D01*
X362933Y167921D01*
X362800Y167833D01*
X362670Y167742D01*
X362542Y167647D01*
X362416Y167550D01*
X362293Y167449D01*
X362172Y167345D01*
X362054Y167238D01*
X361939Y167129D01*
X361826Y167016D01*
X361717Y166901D01*
X361610Y166783D01*
X361506Y166662D01*
X361405Y166539D01*
X361308Y166414D01*
X361213Y166286D01*
X361122Y166155D01*
X361034Y166023D01*
X360949Y165888D01*
X360868Y165751D01*
X360790Y165612D01*
X360716Y165472D01*
X360645Y165329D01*
X360578Y165185D01*
X360514Y165039D01*
X360454Y164892D01*
X360398Y164743D01*
X360345Y164593D01*
X360297Y164441D01*
X360252Y164289D01*
X360210Y164135D01*
X360173Y163980D01*
X360140Y163825D01*
X360110Y163668D01*
X360084Y163511D01*
X360063Y163354D01*
X360045Y163195D01*
X360031Y163037D01*
X360021Y162878D01*
X360015Y162719D01*
X360013Y162560D01*
X360015Y162401D01*
X360021Y162242D01*
X360031Y162083D01*
X360045Y161925D01*
X360063Y161766D01*
X360084Y161609D01*
X360110Y161452D01*
X360140Y161295D01*
X360173Y161140D01*
X360210Y160985D01*
X360252Y160831D01*
X360297Y160679D01*
X360345Y160527D01*
X360398Y160377D01*
X360454Y160228D01*
X360514Y160081D01*
X360578Y159935D01*
X360645Y159791D01*
X360716Y159648D01*
X360790Y159508D01*
X360868Y159369D01*
X360949Y159232D01*
X361034Y159097D01*
X361122Y158965D01*
X361213Y158834D01*
X361308Y158706D01*
X361405Y158581D01*
X361506Y158458D01*
X361610Y158337D01*
X361717Y158219D01*
X361826Y158104D01*
X361939Y157991D01*
X362054Y157882D01*
X362172Y157775D01*
X362293Y157671D01*
X362416Y157570D01*
X362542Y157473D01*
X362670Y157378D01*
X362800Y157287D01*
X362933Y157199D01*
X363067Y157114D01*
X363204Y157033D01*
X363343Y156955D01*
X363484Y156881D01*
X363626Y156810D01*
X363770Y156743D01*
X363916Y156679D01*
X364064Y156619D01*
X364213Y156563D01*
X364363Y156510D01*
X364514Y156461D01*
X364667Y156416D01*
X364821Y156375D01*
X364975Y156338D01*
X365131Y156304D01*
X365287Y156275D01*
X365444Y156249D01*
X365602Y156227D01*
X365760Y156210D01*
X317500Y156210D02*
X317658Y156227D01*
X317816Y156249D01*
X317973Y156275D01*
X318129Y156304D01*
X318285Y156338D01*
X318439Y156375D01*
X318593Y156416D01*
X318746Y156461D01*
X318897Y156510D01*
X319047Y156563D01*
X319196Y156619D01*
X319344Y156679D01*
X319490Y156743D01*
X319634Y156810D01*
X319776Y156881D01*
X319917Y156955D01*
X320056Y157033D01*
X320193Y157114D01*
X320327Y157199D01*
X320460Y157287D01*
X320590Y157378D01*
X320718Y157473D01*
X320844Y157570D01*
X320967Y157671D01*
X321088Y157775D01*
X321206Y157882D01*
X321321Y157991D01*
X321434Y158104D01*
X321543Y158219D01*
X321650Y158337D01*
X321754Y158458D01*
X321855Y158581D01*
X321952Y158706D01*
X322047Y158834D01*
X322138Y158965D01*
X322226Y159097D01*
X322311Y159232D01*
X322392Y159369D01*
X322470Y159508D01*
X322544Y159648D01*
X322615Y159791D01*
X322682Y159935D01*
X322746Y160081D01*
X322806Y160228D01*
X322862Y160377D01*
X322915Y160527D01*
X322963Y160679D01*
X323008Y160831D01*
X323050Y160985D01*
X323087Y161140D01*
X323120Y161295D01*
X323150Y161452D01*
X323176Y161609D01*
X323197Y161766D01*
X323215Y161925D01*
X323229Y162083D01*
X323239Y162242D01*
X323245Y162401D01*
X323247Y162560D01*
X323245Y162719D01*
X323239Y162878D01*
X323229Y163037D01*
X323215Y163195D01*
X323197Y163354D01*
X323176Y163511D01*
X323150Y163668D01*
X323120Y163825D01*
X323087Y163980D01*
X323050Y164135D01*
X323008Y164289D01*
X322963Y164441D01*
X322915Y164593D01*
X322862Y164743D01*
X322806Y164892D01*
X322746Y165039D01*
X322682Y165185D01*
X322615Y165329D01*
X322544Y165472D01*
X322470Y165612D01*
X322392Y165751D01*
X322311Y165888D01*
X322226Y166023D01*
X322138Y166155D01*
X322047Y166286D01*
X321952Y166414D01*
X321855Y166539D01*
X321754Y166662D01*
X321650Y166783D01*
X321543Y166901D01*
X321434Y167016D01*
X321321Y167129D01*
X321206Y167238D01*
X321088Y167345D01*
X320967Y167449D01*
X320844Y167550D01*
X320718Y167647D01*
X320590Y167742D01*
X320460Y167833D01*
X320327Y167921D01*
X320193Y168006D01*
X320056Y168087D01*
X319917Y168165D01*
X319776Y168239D01*
X319634Y168310D01*
X319490Y168377D01*
X319344Y168441D01*
X319196Y168501D01*
X319047Y168557D01*
X318897Y168610D01*
X318746Y168659D01*
X318593Y168704D01*
X318439Y168745D01*
X318285Y168782D01*
X318129Y168816D01*
X317973Y168845D01*
X317816Y168871D01*
X317658Y168893D01*
X317500Y168910D01*
X374650Y195580D02*
X374650Y231140D01*
X368300Y237490D01*
X316230Y237490D01*
X309880Y231140D01*
X309880Y194310D01*
D13*
X365760Y128270D02*
X365760Y72390D01*
X342900Y72390D02*
X342900Y128270D01*
X320040Y128270D02*
X320040Y72390D01*
D11*
X371348Y78006D02*
X383032Y78006D01*
X371348Y76708D02*
X371348Y79304D01*
X383032Y79304D02*
X383032Y76708D01*
X383032Y84286D02*
X371348Y84286D01*
X371348Y90777D02*
X383032Y84286D01*
X383032Y90777D02*
X371348Y90777D01*
X353709Y83199D02*
X353709Y81252D01*
X353709Y83199D02*
X347218Y83199D01*
X347218Y79304D01*
X347220Y79205D01*
X347226Y79105D01*
X347235Y79006D01*
X347248Y78908D01*
X347265Y78810D01*
X347286Y78712D01*
X347311Y78616D01*
X347339Y78521D01*
X347371Y78427D01*
X347406Y78334D01*
X347445Y78242D01*
X347488Y78152D01*
X347533Y78064D01*
X347583Y77977D01*
X347635Y77893D01*
X347691Y77810D01*
X347749Y77730D01*
X347811Y77652D01*
X347876Y77577D01*
X347944Y77504D01*
X348014Y77434D01*
X348087Y77366D01*
X348162Y77301D01*
X348240Y77239D01*
X348320Y77181D01*
X348403Y77125D01*
X348487Y77073D01*
X348574Y77023D01*
X348662Y76978D01*
X348752Y76935D01*
X348844Y76896D01*
X348937Y76861D01*
X349031Y76829D01*
X349126Y76801D01*
X349222Y76776D01*
X349320Y76755D01*
X349418Y76738D01*
X349516Y76725D01*
X349615Y76716D01*
X349715Y76710D01*
X349814Y76708D01*
X356306Y76708D01*
X356405Y76710D01*
X356505Y76716D01*
X356604Y76725D01*
X356702Y76738D01*
X356800Y76755D01*
X356898Y76776D01*
X356994Y76801D01*
X357089Y76829D01*
X357183Y76861D01*
X357276Y76896D01*
X357368Y76935D01*
X357458Y76978D01*
X357546Y77023D01*
X357633Y77073D01*
X357717Y77125D01*
X357800Y77181D01*
X357880Y77239D01*
X357958Y77301D01*
X358033Y77366D01*
X358106Y77434D01*
X358176Y77504D01*
X358244Y77577D01*
X358309Y77652D01*
X358371Y77730D01*
X358429Y77810D01*
X358485Y77893D01*
X358537Y77977D01*
X358587Y78064D01*
X358632Y78152D01*
X358675Y78242D01*
X358714Y78334D01*
X358749Y78426D01*
X358781Y78521D01*
X358809Y78616D01*
X358834Y78712D01*
X358855Y78810D01*
X358872Y78908D01*
X358885Y79006D01*
X358894Y79105D01*
X358900Y79205D01*
X358902Y79304D01*
X358902Y83199D01*
X358902Y88900D02*
X347218Y88900D01*
X347218Y95391D02*
X358902Y88900D01*
X358902Y95391D02*
X347218Y95391D01*
X347218Y101092D02*
X358902Y101092D01*
X358902Y104337D01*
X358900Y104450D01*
X358894Y104563D01*
X358884Y104676D01*
X358870Y104789D01*
X358853Y104901D01*
X358831Y105012D01*
X358806Y105122D01*
X358776Y105232D01*
X358743Y105340D01*
X358706Y105447D01*
X358666Y105553D01*
X358621Y105657D01*
X358573Y105760D01*
X358522Y105861D01*
X358467Y105960D01*
X358409Y106057D01*
X358347Y106152D01*
X358282Y106245D01*
X358214Y106335D01*
X358143Y106423D01*
X358068Y106509D01*
X357991Y106592D01*
X357911Y106672D01*
X357828Y106749D01*
X357742Y106824D01*
X357654Y106895D01*
X357564Y106963D01*
X357471Y107028D01*
X357376Y107090D01*
X357279Y107148D01*
X357180Y107203D01*
X357079Y107254D01*
X356976Y107302D01*
X356872Y107347D01*
X356766Y107387D01*
X356659Y107424D01*
X356551Y107457D01*
X356441Y107487D01*
X356331Y107512D01*
X356220Y107534D01*
X356108Y107551D01*
X355995Y107565D01*
X355882Y107575D01*
X355769Y107581D01*
X355656Y107583D01*
X350464Y107583D01*
X350351Y107581D01*
X350238Y107575D01*
X350125Y107565D01*
X350012Y107551D01*
X349900Y107534D01*
X349789Y107512D01*
X349679Y107487D01*
X349569Y107457D01*
X349461Y107424D01*
X349354Y107387D01*
X349248Y107347D01*
X349144Y107302D01*
X349041Y107254D01*
X348940Y107203D01*
X348841Y107148D01*
X348744Y107090D01*
X348649Y107028D01*
X348556Y106963D01*
X348466Y106895D01*
X348378Y106824D01*
X348292Y106749D01*
X348209Y106672D01*
X348129Y106592D01*
X348052Y106509D01*
X347977Y106423D01*
X347906Y106335D01*
X347838Y106245D01*
X347773Y106152D01*
X347711Y106057D01*
X347653Y105960D01*
X347598Y105861D01*
X347547Y105760D01*
X347499Y105657D01*
X347454Y105553D01*
X347414Y105447D01*
X347377Y105340D01*
X347344Y105232D01*
X347314Y105122D01*
X347289Y105012D01*
X347267Y104901D01*
X347250Y104789D01*
X347236Y104676D01*
X347226Y104563D01*
X347220Y104450D01*
X347218Y104337D01*
X347218Y101092D01*
X332796Y76708D02*
X327604Y76708D01*
X332796Y76708D02*
X332909Y76710D01*
X333022Y76716D01*
X333135Y76726D01*
X333248Y76740D01*
X333360Y76757D01*
X333471Y76779D01*
X333581Y76804D01*
X333691Y76834D01*
X333799Y76867D01*
X333906Y76904D01*
X334012Y76944D01*
X334116Y76989D01*
X334219Y77037D01*
X334320Y77088D01*
X334419Y77143D01*
X334516Y77201D01*
X334611Y77263D01*
X334704Y77328D01*
X334794Y77396D01*
X334882Y77467D01*
X334968Y77542D01*
X335051Y77619D01*
X335131Y77699D01*
X335208Y77782D01*
X335283Y77868D01*
X335354Y77956D01*
X335422Y78046D01*
X335487Y78139D01*
X335549Y78234D01*
X335607Y78331D01*
X335662Y78430D01*
X335713Y78531D01*
X335761Y78634D01*
X335806Y78738D01*
X335846Y78844D01*
X335883Y78951D01*
X335916Y79059D01*
X335946Y79169D01*
X335971Y79279D01*
X335993Y79390D01*
X336010Y79502D01*
X336024Y79615D01*
X336034Y79728D01*
X336040Y79841D01*
X336042Y79954D01*
X336040Y80067D01*
X336034Y80180D01*
X336024Y80293D01*
X336010Y80406D01*
X335993Y80518D01*
X335971Y80629D01*
X335946Y80739D01*
X335916Y80849D01*
X335883Y80957D01*
X335846Y81064D01*
X335806Y81170D01*
X335761Y81274D01*
X335713Y81377D01*
X335662Y81478D01*
X335607Y81577D01*
X335549Y81674D01*
X335487Y81769D01*
X335422Y81862D01*
X335354Y81952D01*
X335283Y82040D01*
X335208Y82126D01*
X335131Y82209D01*
X335051Y82289D01*
X334968Y82366D01*
X334882Y82441D01*
X334794Y82512D01*
X334704Y82580D01*
X334611Y82645D01*
X334516Y82707D01*
X334419Y82765D01*
X334320Y82820D01*
X334219Y82871D01*
X334116Y82919D01*
X334012Y82964D01*
X333906Y83004D01*
X333799Y83041D01*
X333691Y83074D01*
X333581Y83104D01*
X333471Y83129D01*
X333360Y83151D01*
X333248Y83168D01*
X333135Y83182D01*
X333022Y83192D01*
X332909Y83198D01*
X332796Y83200D01*
X332796Y83199D02*
X327604Y83199D01*
X327604Y83200D02*
X327491Y83198D01*
X327378Y83192D01*
X327265Y83182D01*
X327152Y83168D01*
X327040Y83151D01*
X326929Y83129D01*
X326819Y83104D01*
X326709Y83074D01*
X326601Y83041D01*
X326494Y83004D01*
X326388Y82964D01*
X326284Y82919D01*
X326181Y82871D01*
X326080Y82820D01*
X325981Y82765D01*
X325884Y82707D01*
X325789Y82645D01*
X325696Y82580D01*
X325606Y82512D01*
X325518Y82441D01*
X325432Y82366D01*
X325349Y82289D01*
X325269Y82209D01*
X325192Y82126D01*
X325117Y82040D01*
X325046Y81952D01*
X324978Y81862D01*
X324913Y81769D01*
X324851Y81674D01*
X324793Y81577D01*
X324738Y81478D01*
X324687Y81377D01*
X324639Y81274D01*
X324594Y81170D01*
X324554Y81064D01*
X324517Y80957D01*
X324484Y80849D01*
X324454Y80739D01*
X324429Y80629D01*
X324407Y80518D01*
X324390Y80406D01*
X324376Y80293D01*
X324366Y80180D01*
X324360Y80067D01*
X324358Y79954D01*
X324360Y79841D01*
X324366Y79728D01*
X324376Y79615D01*
X324390Y79502D01*
X324407Y79390D01*
X324429Y79279D01*
X324454Y79169D01*
X324484Y79059D01*
X324517Y78951D01*
X324554Y78844D01*
X324594Y78738D01*
X324639Y78634D01*
X324687Y78531D01*
X324738Y78430D01*
X324793Y78331D01*
X324851Y78234D01*
X324913Y78139D01*
X324978Y78046D01*
X325046Y77956D01*
X325117Y77868D01*
X325192Y77782D01*
X325269Y77699D01*
X325349Y77619D01*
X325432Y77542D01*
X325518Y77467D01*
X325606Y77396D01*
X325696Y77328D01*
X325789Y77263D01*
X325884Y77201D01*
X325981Y77143D01*
X326080Y77088D01*
X326181Y77037D01*
X326284Y76989D01*
X326388Y76944D01*
X326494Y76904D01*
X326601Y76867D01*
X326709Y76834D01*
X326819Y76804D01*
X326929Y76779D01*
X327040Y76757D01*
X327152Y76740D01*
X327265Y76726D01*
X327378Y76716D01*
X327491Y76710D01*
X327604Y76708D01*
X327604Y88519D02*
X336042Y88519D01*
X327604Y88519D02*
X327491Y88521D01*
X327378Y88527D01*
X327265Y88537D01*
X327152Y88551D01*
X327040Y88568D01*
X326929Y88590D01*
X326819Y88615D01*
X326709Y88645D01*
X326601Y88678D01*
X326494Y88715D01*
X326388Y88755D01*
X326284Y88800D01*
X326181Y88848D01*
X326080Y88899D01*
X325981Y88954D01*
X325884Y89012D01*
X325789Y89074D01*
X325696Y89139D01*
X325606Y89207D01*
X325518Y89278D01*
X325432Y89353D01*
X325349Y89430D01*
X325269Y89510D01*
X325192Y89593D01*
X325117Y89679D01*
X325046Y89767D01*
X324978Y89857D01*
X324913Y89950D01*
X324851Y90045D01*
X324793Y90142D01*
X324738Y90241D01*
X324687Y90342D01*
X324639Y90445D01*
X324594Y90549D01*
X324554Y90655D01*
X324517Y90762D01*
X324484Y90870D01*
X324454Y90980D01*
X324429Y91090D01*
X324407Y91201D01*
X324390Y91313D01*
X324376Y91426D01*
X324366Y91539D01*
X324360Y91652D01*
X324358Y91765D01*
X324360Y91878D01*
X324366Y91991D01*
X324376Y92104D01*
X324390Y92217D01*
X324407Y92329D01*
X324429Y92440D01*
X324454Y92550D01*
X324484Y92660D01*
X324517Y92768D01*
X324554Y92875D01*
X324594Y92981D01*
X324639Y93085D01*
X324687Y93188D01*
X324738Y93289D01*
X324793Y93388D01*
X324851Y93485D01*
X324913Y93580D01*
X324978Y93673D01*
X325046Y93763D01*
X325117Y93851D01*
X325192Y93937D01*
X325269Y94020D01*
X325349Y94100D01*
X325432Y94177D01*
X325518Y94252D01*
X325606Y94323D01*
X325696Y94391D01*
X325789Y94456D01*
X325884Y94518D01*
X325981Y94576D01*
X326080Y94631D01*
X326181Y94682D01*
X326284Y94730D01*
X326388Y94775D01*
X326494Y94815D01*
X326601Y94852D01*
X326709Y94885D01*
X326819Y94915D01*
X326929Y94940D01*
X327040Y94962D01*
X327152Y94979D01*
X327265Y94993D01*
X327378Y95003D01*
X327491Y95009D01*
X327604Y95011D01*
X327604Y95010D02*
X336042Y95010D01*
X336042Y102813D02*
X324358Y102813D01*
X336042Y99568D02*
X336042Y106059D01*
X361301Y248299D02*
X363248Y248299D01*
X361301Y248299D02*
X361301Y241808D01*
X365196Y241808D01*
X365295Y241810D01*
X365395Y241816D01*
X365494Y241825D01*
X365592Y241838D01*
X365690Y241855D01*
X365788Y241876D01*
X365884Y241901D01*
X365979Y241929D01*
X366073Y241961D01*
X366166Y241996D01*
X366258Y242035D01*
X366348Y242078D01*
X366436Y242123D01*
X366523Y242173D01*
X366607Y242225D01*
X366690Y242281D01*
X366770Y242339D01*
X366848Y242401D01*
X366923Y242466D01*
X366996Y242534D01*
X367066Y242604D01*
X367134Y242677D01*
X367199Y242752D01*
X367261Y242830D01*
X367319Y242910D01*
X367375Y242993D01*
X367427Y243077D01*
X367477Y243164D01*
X367522Y243252D01*
X367565Y243342D01*
X367604Y243434D01*
X367639Y243527D01*
X367671Y243621D01*
X367699Y243716D01*
X367724Y243812D01*
X367745Y243910D01*
X367762Y244008D01*
X367775Y244106D01*
X367784Y244205D01*
X367790Y244305D01*
X367792Y244404D01*
X367792Y250896D01*
X367790Y250995D01*
X367784Y251095D01*
X367775Y251194D01*
X367762Y251292D01*
X367745Y251390D01*
X367724Y251488D01*
X367699Y251584D01*
X367671Y251679D01*
X367639Y251773D01*
X367604Y251866D01*
X367565Y251958D01*
X367522Y252048D01*
X367477Y252136D01*
X367427Y252223D01*
X367375Y252307D01*
X367319Y252390D01*
X367261Y252470D01*
X367199Y252548D01*
X367134Y252623D01*
X367066Y252696D01*
X366996Y252766D01*
X366923Y252834D01*
X366848Y252899D01*
X366770Y252961D01*
X366690Y253019D01*
X366607Y253075D01*
X366523Y253127D01*
X366436Y253177D01*
X366348Y253222D01*
X366258Y253265D01*
X366166Y253304D01*
X366073Y253339D01*
X365979Y253371D01*
X365884Y253399D01*
X365788Y253424D01*
X365690Y253445D01*
X365592Y253462D01*
X365494Y253475D01*
X365395Y253484D01*
X365295Y253490D01*
X365196Y253492D01*
X361301Y253492D01*
X355600Y253492D02*
X355600Y241808D01*
X349109Y241808D02*
X355600Y253492D01*
X349109Y253492D02*
X349109Y241808D01*
X343408Y241808D02*
X343408Y253492D01*
X340163Y253492D01*
X340050Y253490D01*
X339937Y253484D01*
X339824Y253474D01*
X339711Y253460D01*
X339599Y253443D01*
X339488Y253421D01*
X339378Y253396D01*
X339268Y253366D01*
X339160Y253333D01*
X339053Y253296D01*
X338947Y253256D01*
X338843Y253211D01*
X338740Y253163D01*
X338639Y253112D01*
X338540Y253057D01*
X338443Y252999D01*
X338348Y252937D01*
X338255Y252872D01*
X338165Y252804D01*
X338077Y252733D01*
X337991Y252658D01*
X337908Y252581D01*
X337828Y252501D01*
X337751Y252418D01*
X337676Y252332D01*
X337605Y252244D01*
X337537Y252154D01*
X337472Y252061D01*
X337410Y251966D01*
X337352Y251869D01*
X337297Y251770D01*
X337246Y251669D01*
X337198Y251566D01*
X337153Y251462D01*
X337113Y251356D01*
X337076Y251249D01*
X337043Y251141D01*
X337013Y251031D01*
X336988Y250921D01*
X336966Y250810D01*
X336949Y250698D01*
X336935Y250585D01*
X336925Y250472D01*
X336919Y250359D01*
X336917Y250246D01*
X336917Y245054D01*
X336919Y244941D01*
X336925Y244828D01*
X336935Y244715D01*
X336949Y244602D01*
X336966Y244490D01*
X336988Y244379D01*
X337013Y244269D01*
X337043Y244159D01*
X337076Y244051D01*
X337113Y243944D01*
X337153Y243838D01*
X337198Y243734D01*
X337246Y243631D01*
X337297Y243530D01*
X337352Y243431D01*
X337410Y243334D01*
X337472Y243239D01*
X337537Y243146D01*
X337605Y243056D01*
X337676Y242968D01*
X337751Y242882D01*
X337828Y242799D01*
X337908Y242719D01*
X337991Y242642D01*
X338077Y242567D01*
X338165Y242496D01*
X338255Y242428D01*
X338348Y242363D01*
X338443Y242301D01*
X338540Y242243D01*
X338639Y242188D01*
X338740Y242137D01*
X338843Y242089D01*
X338947Y242044D01*
X339053Y242004D01*
X339160Y241967D01*
X339268Y241934D01*
X339378Y241904D01*
X339488Y241879D01*
X339599Y241857D01*
X339711Y241840D01*
X339824Y241826D01*
X339937Y241816D01*
X340050Y241810D01*
X340163Y241808D01*
X343408Y241808D01*
X362712Y151892D02*
X362712Y150594D01*
X362712Y151892D02*
X356221Y151892D01*
X359466Y140208D01*
X351282Y143454D02*
X351280Y143567D01*
X351274Y143680D01*
X351264Y143793D01*
X351250Y143906D01*
X351233Y144018D01*
X351211Y144129D01*
X351186Y144239D01*
X351156Y144349D01*
X351123Y144457D01*
X351086Y144564D01*
X351046Y144670D01*
X351001Y144774D01*
X350953Y144877D01*
X350902Y144978D01*
X350847Y145077D01*
X350789Y145174D01*
X350727Y145269D01*
X350662Y145362D01*
X350594Y145452D01*
X350523Y145540D01*
X350448Y145626D01*
X350371Y145709D01*
X350291Y145789D01*
X350208Y145866D01*
X350122Y145941D01*
X350034Y146012D01*
X349944Y146080D01*
X349851Y146145D01*
X349756Y146207D01*
X349659Y146265D01*
X349560Y146320D01*
X349459Y146371D01*
X349356Y146419D01*
X349252Y146464D01*
X349146Y146504D01*
X349039Y146541D01*
X348931Y146574D01*
X348821Y146604D01*
X348711Y146629D01*
X348600Y146651D01*
X348488Y146668D01*
X348375Y146682D01*
X348262Y146692D01*
X348149Y146698D01*
X348036Y146700D01*
X347923Y146698D01*
X347810Y146692D01*
X347697Y146682D01*
X347584Y146668D01*
X347472Y146651D01*
X347361Y146629D01*
X347251Y146604D01*
X347141Y146574D01*
X347033Y146541D01*
X346926Y146504D01*
X346820Y146464D01*
X346716Y146419D01*
X346613Y146371D01*
X346512Y146320D01*
X346413Y146265D01*
X346316Y146207D01*
X346221Y146145D01*
X346128Y146080D01*
X346038Y146012D01*
X345950Y145941D01*
X345864Y145866D01*
X345781Y145789D01*
X345701Y145709D01*
X345624Y145626D01*
X345549Y145540D01*
X345478Y145452D01*
X345410Y145362D01*
X345345Y145269D01*
X345283Y145174D01*
X345225Y145077D01*
X345170Y144978D01*
X345119Y144877D01*
X345071Y144774D01*
X345026Y144670D01*
X344986Y144564D01*
X344949Y144457D01*
X344916Y144349D01*
X344886Y144239D01*
X344861Y144129D01*
X344839Y144018D01*
X344822Y143906D01*
X344808Y143793D01*
X344798Y143680D01*
X344792Y143567D01*
X344790Y143454D01*
X344792Y143341D01*
X344798Y143228D01*
X344808Y143115D01*
X344822Y143002D01*
X344839Y142890D01*
X344861Y142779D01*
X344886Y142669D01*
X344916Y142559D01*
X344949Y142451D01*
X344986Y142344D01*
X345026Y142238D01*
X345071Y142134D01*
X345119Y142031D01*
X345170Y141930D01*
X345225Y141831D01*
X345283Y141734D01*
X345345Y141639D01*
X345410Y141546D01*
X345478Y141456D01*
X345549Y141368D01*
X345624Y141282D01*
X345701Y141199D01*
X345781Y141119D01*
X345864Y141042D01*
X345950Y140967D01*
X346038Y140896D01*
X346128Y140828D01*
X346221Y140763D01*
X346316Y140701D01*
X346413Y140643D01*
X346512Y140588D01*
X346613Y140537D01*
X346716Y140489D01*
X346820Y140444D01*
X346926Y140404D01*
X347033Y140367D01*
X347141Y140334D01*
X347251Y140304D01*
X347361Y140279D01*
X347472Y140257D01*
X347584Y140240D01*
X347697Y140226D01*
X347810Y140216D01*
X347923Y140210D01*
X348036Y140208D01*
X348149Y140210D01*
X348262Y140216D01*
X348375Y140226D01*
X348488Y140240D01*
X348600Y140257D01*
X348711Y140279D01*
X348821Y140304D01*
X348931Y140334D01*
X349039Y140367D01*
X349146Y140404D01*
X349252Y140444D01*
X349356Y140489D01*
X349459Y140537D01*
X349560Y140588D01*
X349659Y140643D01*
X349756Y140701D01*
X349851Y140763D01*
X349944Y140828D01*
X350034Y140896D01*
X350122Y140967D01*
X350208Y141042D01*
X350291Y141119D01*
X350371Y141199D01*
X350448Y141282D01*
X350523Y141368D01*
X350594Y141456D01*
X350662Y141546D01*
X350727Y141639D01*
X350789Y141734D01*
X350847Y141831D01*
X350902Y141930D01*
X350953Y142031D01*
X351001Y142134D01*
X351046Y142238D01*
X351086Y142344D01*
X351123Y142451D01*
X351156Y142559D01*
X351186Y142669D01*
X351211Y142779D01*
X351233Y142890D01*
X351250Y143002D01*
X351264Y143115D01*
X351274Y143228D01*
X351280Y143341D01*
X351282Y143454D01*
X350632Y149296D02*
X350630Y149397D01*
X350624Y149497D01*
X350614Y149597D01*
X350601Y149697D01*
X350583Y149796D01*
X350562Y149895D01*
X350537Y149992D01*
X350508Y150089D01*
X350475Y150184D01*
X350439Y150278D01*
X350399Y150370D01*
X350356Y150461D01*
X350309Y150550D01*
X350259Y150637D01*
X350205Y150723D01*
X350148Y150806D01*
X350088Y150886D01*
X350025Y150965D01*
X349958Y151041D01*
X349889Y151114D01*
X349817Y151184D01*
X349743Y151252D01*
X349666Y151317D01*
X349586Y151378D01*
X349504Y151437D01*
X349420Y151492D01*
X349334Y151544D01*
X349246Y151593D01*
X349156Y151638D01*
X349064Y151680D01*
X348971Y151718D01*
X348876Y151752D01*
X348781Y151783D01*
X348684Y151810D01*
X348586Y151833D01*
X348487Y151853D01*
X348387Y151868D01*
X348287Y151880D01*
X348187Y151888D01*
X348086Y151892D01*
X347986Y151892D01*
X347885Y151888D01*
X347785Y151880D01*
X347685Y151868D01*
X347585Y151853D01*
X347486Y151833D01*
X347388Y151810D01*
X347291Y151783D01*
X347196Y151752D01*
X347101Y151718D01*
X347008Y151680D01*
X346916Y151638D01*
X346826Y151593D01*
X346738Y151544D01*
X346652Y151492D01*
X346568Y151437D01*
X346486Y151378D01*
X346406Y151317D01*
X346329Y151252D01*
X346255Y151184D01*
X346183Y151114D01*
X346114Y151041D01*
X346047Y150965D01*
X345984Y150886D01*
X345924Y150806D01*
X345867Y150723D01*
X345813Y150637D01*
X345763Y150550D01*
X345716Y150461D01*
X345673Y150370D01*
X345633Y150278D01*
X345597Y150184D01*
X345564Y150089D01*
X345535Y149992D01*
X345510Y149895D01*
X345489Y149796D01*
X345471Y149697D01*
X345458Y149597D01*
X345448Y149497D01*
X345442Y149397D01*
X345440Y149296D01*
X345442Y149195D01*
X345448Y149095D01*
X345458Y148995D01*
X345471Y148895D01*
X345489Y148796D01*
X345510Y148697D01*
X345535Y148600D01*
X345564Y148503D01*
X345597Y148408D01*
X345633Y148314D01*
X345673Y148222D01*
X345716Y148131D01*
X345763Y148042D01*
X345813Y147955D01*
X345867Y147869D01*
X345924Y147786D01*
X345984Y147706D01*
X346047Y147627D01*
X346114Y147551D01*
X346183Y147478D01*
X346255Y147408D01*
X346329Y147340D01*
X346406Y147275D01*
X346486Y147214D01*
X346568Y147155D01*
X346652Y147100D01*
X346738Y147048D01*
X346826Y146999D01*
X346916Y146954D01*
X347008Y146912D01*
X347101Y146874D01*
X347196Y146840D01*
X347291Y146809D01*
X347388Y146782D01*
X347486Y146759D01*
X347585Y146739D01*
X347685Y146724D01*
X347785Y146712D01*
X347885Y146704D01*
X347986Y146700D01*
X348086Y146700D01*
X348187Y146704D01*
X348287Y146712D01*
X348387Y146724D01*
X348487Y146739D01*
X348586Y146759D01*
X348684Y146782D01*
X348781Y146809D01*
X348876Y146840D01*
X348971Y146874D01*
X349064Y146912D01*
X349156Y146954D01*
X349246Y146999D01*
X349334Y147048D01*
X349420Y147100D01*
X349504Y147155D01*
X349586Y147214D01*
X349666Y147275D01*
X349743Y147340D01*
X349817Y147408D01*
X349889Y147478D01*
X349958Y147551D01*
X350025Y147627D01*
X350088Y147706D01*
X350148Y147786D01*
X350205Y147869D01*
X350259Y147955D01*
X350309Y148042D01*
X350356Y148131D01*
X350399Y148222D01*
X350439Y148314D01*
X350475Y148408D01*
X350508Y148503D01*
X350537Y148600D01*
X350562Y148697D01*
X350583Y148796D01*
X350601Y148895D01*
X350614Y148995D01*
X350624Y149095D01*
X350630Y149195D01*
X350632Y149296D01*
X339853Y146050D02*
X339850Y146280D01*
X339842Y146510D01*
X339828Y146739D01*
X339809Y146968D01*
X339784Y147197D01*
X339754Y147425D01*
X339719Y147652D01*
X339678Y147878D01*
X339632Y148103D01*
X339580Y148327D01*
X339523Y148550D01*
X339461Y148771D01*
X339393Y148991D01*
X339320Y149209D01*
X339242Y149425D01*
X339159Y149639D01*
X339071Y149852D01*
X338978Y150062D01*
X338879Y150269D01*
X338846Y150359D01*
X338810Y150448D01*
X338770Y150536D01*
X338726Y150621D01*
X338679Y150705D01*
X338629Y150787D01*
X338575Y150867D01*
X338519Y150944D01*
X338459Y151020D01*
X338396Y151093D01*
X338331Y151163D01*
X338262Y151231D01*
X338191Y151295D01*
X338118Y151357D01*
X338042Y151416D01*
X337964Y151472D01*
X337883Y151525D01*
X337801Y151574D01*
X337717Y151620D01*
X337630Y151663D01*
X337543Y151702D01*
X337453Y151738D01*
X337363Y151770D01*
X337271Y151798D01*
X337178Y151823D01*
X337084Y151844D01*
X336990Y151861D01*
X336895Y151875D01*
X336799Y151884D01*
X336703Y151890D01*
X336607Y151892D01*
X336511Y151890D01*
X336415Y151884D01*
X336319Y151875D01*
X336224Y151861D01*
X336130Y151844D01*
X336036Y151823D01*
X335943Y151798D01*
X335851Y151770D01*
X335761Y151738D01*
X335671Y151702D01*
X335584Y151663D01*
X335497Y151620D01*
X335413Y151574D01*
X335331Y151525D01*
X335250Y151472D01*
X335172Y151416D01*
X335096Y151357D01*
X335023Y151295D01*
X334952Y151231D01*
X334883Y151163D01*
X334818Y151093D01*
X334755Y151020D01*
X334695Y150945D01*
X334639Y150867D01*
X334585Y150787D01*
X334535Y150705D01*
X334488Y150621D01*
X334445Y150536D01*
X334404Y150448D01*
X334368Y150359D01*
X334335Y150269D01*
X334236Y150061D01*
X334143Y149851D01*
X334055Y149639D01*
X333972Y149425D01*
X333894Y149208D01*
X333821Y148990D01*
X333753Y148771D01*
X333691Y148549D01*
X333634Y148327D01*
X333582Y148103D01*
X333536Y147878D01*
X333495Y147652D01*
X333460Y147424D01*
X333430Y147197D01*
X333405Y146968D01*
X333386Y146739D01*
X333372Y146510D01*
X333364Y146280D01*
X333361Y146050D01*
X339852Y146050D02*
X339849Y145820D01*
X339841Y145590D01*
X339827Y145361D01*
X339808Y145132D01*
X339783Y144903D01*
X339753Y144675D01*
X339718Y144448D01*
X339677Y144222D01*
X339631Y143997D01*
X339579Y143773D01*
X339522Y143550D01*
X339460Y143329D01*
X339392Y143109D01*
X339319Y142891D01*
X339241Y142675D01*
X339158Y142461D01*
X339070Y142249D01*
X338977Y142038D01*
X338878Y141831D01*
X338879Y141831D02*
X338846Y141741D01*
X338810Y141652D01*
X338769Y141564D01*
X338726Y141479D01*
X338679Y141395D01*
X338629Y141313D01*
X338575Y141233D01*
X338519Y141156D01*
X338459Y141080D01*
X338396Y141007D01*
X338331Y140937D01*
X338262Y140869D01*
X338191Y140805D01*
X338118Y140743D01*
X338042Y140684D01*
X337964Y140628D01*
X337883Y140575D01*
X337801Y140526D01*
X337717Y140480D01*
X337630Y140437D01*
X337543Y140398D01*
X337453Y140362D01*
X337363Y140330D01*
X337271Y140302D01*
X337178Y140277D01*
X337084Y140256D01*
X336990Y140239D01*
X336895Y140225D01*
X336799Y140216D01*
X336703Y140210D01*
X336607Y140208D01*
X334335Y141831D02*
X334236Y142038D01*
X334143Y142249D01*
X334055Y142461D01*
X333972Y142675D01*
X333894Y142891D01*
X333821Y143109D01*
X333753Y143329D01*
X333691Y143550D01*
X333634Y143773D01*
X333582Y143997D01*
X333536Y144222D01*
X333495Y144448D01*
X333460Y144675D01*
X333430Y144903D01*
X333405Y145132D01*
X333386Y145361D01*
X333372Y145590D01*
X333364Y145820D01*
X333361Y146050D01*
X334335Y141831D02*
X334368Y141741D01*
X334404Y141652D01*
X334445Y141564D01*
X334488Y141479D01*
X334535Y141395D01*
X334585Y141313D01*
X334639Y141233D01*
X334695Y141155D01*
X334755Y141080D01*
X334818Y141007D01*
X334883Y140937D01*
X334952Y140869D01*
X335023Y140805D01*
X335096Y140743D01*
X335172Y140684D01*
X335250Y140628D01*
X335331Y140575D01*
X335413Y140526D01*
X335497Y140480D01*
X335584Y140437D01*
X335671Y140398D01*
X335761Y140362D01*
X335851Y140330D01*
X335943Y140302D01*
X336036Y140277D01*
X336130Y140256D01*
X336224Y140239D01*
X336319Y140225D01*
X336415Y140216D01*
X336511Y140210D01*
X336607Y140208D01*
X339203Y142804D02*
X334010Y149296D01*
X328422Y140208D02*
X324527Y140208D01*
X324428Y140210D01*
X324328Y140216D01*
X324229Y140225D01*
X324131Y140238D01*
X324033Y140255D01*
X323935Y140276D01*
X323839Y140301D01*
X323744Y140329D01*
X323650Y140361D01*
X323557Y140396D01*
X323465Y140435D01*
X323375Y140478D01*
X323287Y140523D01*
X323200Y140573D01*
X323116Y140625D01*
X323033Y140681D01*
X322953Y140739D01*
X322875Y140801D01*
X322800Y140866D01*
X322727Y140934D01*
X322657Y141004D01*
X322589Y141077D01*
X322524Y141152D01*
X322462Y141230D01*
X322404Y141310D01*
X322348Y141393D01*
X322296Y141477D01*
X322246Y141564D01*
X322201Y141652D01*
X322158Y141742D01*
X322119Y141834D01*
X322084Y141927D01*
X322052Y142021D01*
X322024Y142116D01*
X321999Y142212D01*
X321978Y142310D01*
X321961Y142408D01*
X321948Y142506D01*
X321939Y142605D01*
X321933Y142705D01*
X321931Y142804D01*
X321931Y144103D01*
X321933Y144202D01*
X321939Y144302D01*
X321948Y144401D01*
X321961Y144499D01*
X321978Y144597D01*
X321999Y144695D01*
X322024Y144791D01*
X322052Y144886D01*
X322084Y144980D01*
X322119Y145073D01*
X322158Y145165D01*
X322201Y145255D01*
X322246Y145343D01*
X322296Y145430D01*
X322348Y145514D01*
X322404Y145597D01*
X322462Y145677D01*
X322524Y145755D01*
X322589Y145830D01*
X322657Y145903D01*
X322727Y145973D01*
X322800Y146041D01*
X322875Y146106D01*
X322953Y146168D01*
X323033Y146226D01*
X323116Y146282D01*
X323200Y146334D01*
X323287Y146384D01*
X323375Y146429D01*
X323465Y146472D01*
X323557Y146511D01*
X323650Y146546D01*
X323744Y146578D01*
X323839Y146606D01*
X323935Y146631D01*
X324033Y146652D01*
X324131Y146669D01*
X324229Y146682D01*
X324328Y146691D01*
X324428Y146697D01*
X324527Y146699D01*
X328422Y146699D01*
X328422Y151892D01*
X321931Y151892D01*
X391104Y133858D02*
X399542Y133858D01*
X391104Y133858D02*
X390991Y133860D01*
X390878Y133866D01*
X390765Y133876D01*
X390652Y133890D01*
X390540Y133907D01*
X390429Y133929D01*
X390319Y133954D01*
X390209Y133984D01*
X390101Y134017D01*
X389994Y134054D01*
X389888Y134094D01*
X389784Y134139D01*
X389681Y134187D01*
X389580Y134238D01*
X389481Y134293D01*
X389384Y134351D01*
X389289Y134413D01*
X389196Y134478D01*
X389106Y134546D01*
X389018Y134617D01*
X388932Y134692D01*
X388849Y134769D01*
X388769Y134849D01*
X388692Y134932D01*
X388617Y135018D01*
X388546Y135106D01*
X388478Y135196D01*
X388413Y135289D01*
X388351Y135384D01*
X388293Y135481D01*
X388238Y135580D01*
X388187Y135681D01*
X388139Y135784D01*
X388094Y135888D01*
X388054Y135994D01*
X388017Y136101D01*
X387984Y136209D01*
X387954Y136319D01*
X387929Y136429D01*
X387907Y136540D01*
X387890Y136652D01*
X387876Y136765D01*
X387866Y136878D01*
X387860Y136991D01*
X387858Y137104D01*
X387860Y137217D01*
X387866Y137330D01*
X387876Y137443D01*
X387890Y137556D01*
X387907Y137668D01*
X387929Y137779D01*
X387954Y137889D01*
X387984Y137999D01*
X388017Y138107D01*
X388054Y138214D01*
X388094Y138320D01*
X388139Y138424D01*
X388187Y138527D01*
X388238Y138628D01*
X388293Y138727D01*
X388351Y138824D01*
X388413Y138919D01*
X388478Y139012D01*
X388546Y139102D01*
X388617Y139190D01*
X388692Y139276D01*
X388769Y139359D01*
X388849Y139439D01*
X388932Y139516D01*
X389018Y139591D01*
X389106Y139662D01*
X389196Y139730D01*
X389289Y139795D01*
X389384Y139857D01*
X389481Y139915D01*
X389580Y139970D01*
X389681Y140021D01*
X389784Y140069D01*
X389888Y140114D01*
X389994Y140154D01*
X390101Y140191D01*
X390209Y140224D01*
X390319Y140254D01*
X390429Y140279D01*
X390540Y140301D01*
X390652Y140318D01*
X390765Y140332D01*
X390878Y140342D01*
X390991Y140348D01*
X391104Y140350D01*
X391104Y140349D02*
X399542Y140349D01*
X399542Y148153D02*
X387858Y148153D01*
X393700Y148153D02*
X394674Y146530D01*
X394673Y146529D02*
X394720Y146456D01*
X394769Y146385D01*
X394822Y146315D01*
X394878Y146249D01*
X394937Y146185D01*
X394998Y146123D01*
X395062Y146065D01*
X395129Y146009D01*
X395198Y145957D01*
X395270Y145907D01*
X395344Y145861D01*
X395419Y145818D01*
X395497Y145779D01*
X395576Y145743D01*
X395657Y145711D01*
X395739Y145682D01*
X395822Y145657D01*
X395906Y145636D01*
X395991Y145619D01*
X396077Y145605D01*
X396163Y145596D01*
X396250Y145590D01*
X396337Y145588D01*
X396424Y145590D01*
X396511Y145596D01*
X396597Y145606D01*
X396683Y145619D01*
X396768Y145637D01*
X396852Y145658D01*
X396935Y145683D01*
X397018Y145712D01*
X397098Y145744D01*
X397177Y145780D01*
X397255Y145819D01*
X397330Y145862D01*
X397404Y145909D01*
X397475Y145958D01*
X397545Y146011D01*
X397611Y146066D01*
X397675Y146125D01*
X397737Y146186D01*
X397796Y146251D01*
X397851Y146317D01*
X397904Y146386D01*
X397954Y146458D01*
X398000Y146531D01*
X398043Y146607D01*
X398082Y146684D01*
X398118Y146763D01*
X398151Y146844D01*
X398179Y146926D01*
X398205Y147009D01*
X398226Y147093D01*
X398243Y147179D01*
X398244Y147179D02*
X398268Y147319D01*
X398288Y147461D01*
X398304Y147602D01*
X398315Y147744D01*
X398323Y147887D01*
X398327Y148029D01*
X398328Y148172D01*
X398324Y148315D01*
X398316Y148457D01*
X398304Y148599D01*
X398288Y148741D01*
X398269Y148882D01*
X398245Y149023D01*
X398218Y149163D01*
X398186Y149302D01*
X398151Y149440D01*
X398112Y149578D01*
X398069Y149714D01*
X398023Y149848D01*
X397972Y149982D01*
X397919Y150114D01*
X397861Y150244D01*
X397800Y150373D01*
X397735Y150500D01*
X397667Y150626D01*
X397595Y150749D01*
X393700Y148153D02*
X392726Y149775D01*
X392727Y149776D02*
X392680Y149849D01*
X392631Y149920D01*
X392578Y149990D01*
X392522Y150056D01*
X392463Y150120D01*
X392402Y150182D01*
X392338Y150240D01*
X392271Y150296D01*
X392202Y150348D01*
X392130Y150398D01*
X392056Y150444D01*
X391981Y150487D01*
X391903Y150526D01*
X391824Y150562D01*
X391743Y150594D01*
X391661Y150623D01*
X391578Y150648D01*
X391494Y150669D01*
X391409Y150686D01*
X391323Y150700D01*
X391237Y150709D01*
X391150Y150715D01*
X391063Y150717D01*
X390976Y150715D01*
X390889Y150709D01*
X390803Y150699D01*
X390717Y150686D01*
X390632Y150668D01*
X390548Y150647D01*
X390465Y150622D01*
X390382Y150593D01*
X390302Y150561D01*
X390223Y150525D01*
X390145Y150486D01*
X390070Y150443D01*
X389996Y150396D01*
X389925Y150347D01*
X389855Y150294D01*
X389789Y150239D01*
X389725Y150180D01*
X389663Y150119D01*
X389604Y150054D01*
X389549Y149988D01*
X389496Y149919D01*
X389446Y149847D01*
X389400Y149774D01*
X389357Y149698D01*
X389318Y149621D01*
X389282Y149542D01*
X389249Y149461D01*
X389221Y149379D01*
X389195Y149296D01*
X389174Y149212D01*
X389157Y149127D01*
X389156Y149126D02*
X389132Y148986D01*
X389112Y148844D01*
X389096Y148703D01*
X389085Y148561D01*
X389077Y148418D01*
X389073Y148276D01*
X389072Y148133D01*
X389076Y147990D01*
X389084Y147848D01*
X389096Y147706D01*
X389112Y147564D01*
X389131Y147423D01*
X389155Y147282D01*
X389182Y147142D01*
X389214Y147003D01*
X389249Y146865D01*
X389288Y146727D01*
X389331Y146591D01*
X389377Y146457D01*
X389428Y146323D01*
X389481Y146191D01*
X389539Y146061D01*
X389600Y145932D01*
X389665Y145805D01*
X389733Y145679D01*
X389805Y145556D01*
X398244Y155575D02*
X399542Y155575D01*
X399542Y162066D01*
X387858Y158821D01*
D14*
X626110Y252730D02*
X626210Y252728D01*
X626309Y252722D01*
X626409Y252712D01*
X626507Y252699D01*
X626606Y252681D01*
X626703Y252660D01*
X626799Y252635D01*
X626895Y252606D01*
X626989Y252573D01*
X627082Y252537D01*
X627173Y252497D01*
X627263Y252453D01*
X627351Y252406D01*
X627437Y252356D01*
X627521Y252302D01*
X627603Y252245D01*
X627682Y252185D01*
X627760Y252121D01*
X627834Y252055D01*
X627906Y251986D01*
X627975Y251914D01*
X628041Y251840D01*
X628105Y251762D01*
X628165Y251683D01*
X628222Y251601D01*
X628276Y251517D01*
X628326Y251431D01*
X628373Y251343D01*
X628417Y251253D01*
X628457Y251162D01*
X628493Y251069D01*
X628526Y250975D01*
X628555Y250879D01*
X628580Y250783D01*
X628601Y250686D01*
X628619Y250587D01*
X628632Y250489D01*
X628642Y250389D01*
X628648Y250290D01*
X628650Y250190D01*
X628650Y232410D02*
X628648Y232310D01*
X628642Y232211D01*
X628632Y232111D01*
X628619Y232013D01*
X628601Y231914D01*
X628580Y231817D01*
X628555Y231721D01*
X628526Y231625D01*
X628493Y231531D01*
X628457Y231438D01*
X628417Y231347D01*
X628373Y231257D01*
X628326Y231169D01*
X628276Y231083D01*
X628222Y230999D01*
X628165Y230917D01*
X628105Y230838D01*
X628041Y230760D01*
X627975Y230686D01*
X627906Y230614D01*
X627834Y230545D01*
X627760Y230479D01*
X627682Y230415D01*
X627603Y230355D01*
X627521Y230298D01*
X627437Y230244D01*
X627351Y230194D01*
X627263Y230147D01*
X627173Y230103D01*
X627082Y230063D01*
X626989Y230027D01*
X626895Y229994D01*
X626799Y229965D01*
X626703Y229940D01*
X626606Y229919D01*
X626507Y229901D01*
X626409Y229888D01*
X626309Y229878D01*
X626210Y229872D01*
X626110Y229870D01*
X567690Y229870D02*
X567590Y229872D01*
X567491Y229878D01*
X567391Y229888D01*
X567293Y229901D01*
X567194Y229919D01*
X567097Y229940D01*
X567001Y229965D01*
X566905Y229994D01*
X566811Y230027D01*
X566718Y230063D01*
X566627Y230103D01*
X566537Y230147D01*
X566449Y230194D01*
X566363Y230244D01*
X566279Y230298D01*
X566197Y230355D01*
X566118Y230415D01*
X566040Y230479D01*
X565966Y230545D01*
X565894Y230614D01*
X565825Y230686D01*
X565759Y230760D01*
X565695Y230838D01*
X565635Y230917D01*
X565578Y230999D01*
X565524Y231083D01*
X565474Y231169D01*
X565427Y231257D01*
X565383Y231347D01*
X565343Y231438D01*
X565307Y231531D01*
X565274Y231625D01*
X565245Y231721D01*
X565220Y231817D01*
X565199Y231914D01*
X565181Y232013D01*
X565168Y232111D01*
X565158Y232211D01*
X565152Y232310D01*
X565150Y232410D01*
X565150Y250190D02*
X565152Y250290D01*
X565158Y250389D01*
X565168Y250489D01*
X565181Y250587D01*
X565199Y250686D01*
X565220Y250783D01*
X565245Y250879D01*
X565274Y250975D01*
X565307Y251069D01*
X565343Y251162D01*
X565383Y251253D01*
X565427Y251343D01*
X565474Y251431D01*
X565524Y251517D01*
X565578Y251601D01*
X565635Y251683D01*
X565695Y251762D01*
X565759Y251840D01*
X565825Y251914D01*
X565894Y251986D01*
X565966Y252055D01*
X566040Y252121D01*
X566118Y252185D01*
X566197Y252245D01*
X566279Y252302D01*
X566363Y252356D01*
X566449Y252406D01*
X566537Y252453D01*
X566627Y252497D01*
X566718Y252537D01*
X566811Y252573D01*
X566905Y252606D01*
X567001Y252635D01*
X567097Y252660D01*
X567194Y252681D01*
X567293Y252699D01*
X567391Y252712D01*
X567491Y252722D01*
X567590Y252728D01*
X567690Y252730D01*
X628650Y250190D02*
X628650Y232410D01*
X626110Y252730D02*
X622300Y252730D01*
X621030Y251460D01*
X622300Y229870D02*
X626110Y229870D01*
X622300Y229870D02*
X621030Y231140D01*
X572770Y251460D02*
X571500Y252730D01*
X572770Y251460D02*
X621030Y251460D01*
X572770Y231140D02*
X571500Y229870D01*
X572770Y231140D02*
X621030Y231140D01*
X571500Y252730D02*
X567690Y252730D01*
X567690Y229870D02*
X571500Y229870D01*
X565150Y232410D02*
X565150Y250190D01*
D15*
X560832Y241300D03*
X632968Y241300D03*
D10*
X626745Y257175D02*
X626745Y268605D01*
X623570Y268605D01*
X623459Y268603D01*
X623349Y268597D01*
X623238Y268588D01*
X623128Y268574D01*
X623019Y268557D01*
X622910Y268536D01*
X622802Y268511D01*
X622695Y268482D01*
X622589Y268450D01*
X622484Y268414D01*
X622381Y268374D01*
X622279Y268331D01*
X622178Y268284D01*
X622079Y268233D01*
X621983Y268180D01*
X621888Y268123D01*
X621795Y268062D01*
X621704Y267999D01*
X621615Y267932D01*
X621529Y267862D01*
X621446Y267789D01*
X621364Y267714D01*
X621286Y267636D01*
X621211Y267554D01*
X621138Y267471D01*
X621068Y267385D01*
X621001Y267296D01*
X620938Y267205D01*
X620877Y267112D01*
X620820Y267018D01*
X620767Y266921D01*
X620716Y266822D01*
X620669Y266721D01*
X620626Y266619D01*
X620586Y266516D01*
X620550Y266411D01*
X620518Y266305D01*
X620489Y266198D01*
X620464Y266090D01*
X620443Y265981D01*
X620426Y265872D01*
X620412Y265762D01*
X620403Y265651D01*
X620397Y265541D01*
X620395Y265430D01*
X620397Y265319D01*
X620403Y265209D01*
X620412Y265098D01*
X620426Y264988D01*
X620443Y264879D01*
X620464Y264770D01*
X620489Y264662D01*
X620518Y264555D01*
X620550Y264449D01*
X620586Y264344D01*
X620626Y264241D01*
X620669Y264139D01*
X620716Y264038D01*
X620767Y263939D01*
X620820Y263843D01*
X620877Y263748D01*
X620938Y263655D01*
X621001Y263564D01*
X621068Y263475D01*
X621138Y263389D01*
X621211Y263306D01*
X621286Y263224D01*
X621364Y263146D01*
X621446Y263071D01*
X621529Y262998D01*
X621615Y262928D01*
X621704Y262861D01*
X621795Y262798D01*
X621888Y262737D01*
X621983Y262680D01*
X622079Y262627D01*
X622178Y262576D01*
X622279Y262529D01*
X622381Y262486D01*
X622484Y262446D01*
X622589Y262410D01*
X622695Y262378D01*
X622802Y262349D01*
X622910Y262324D01*
X623019Y262303D01*
X623128Y262286D01*
X623238Y262272D01*
X623349Y262263D01*
X623459Y262257D01*
X623570Y262255D01*
X626745Y262255D01*
X622935Y262255D02*
X620395Y257175D01*
X615398Y266065D02*
X612223Y268605D01*
X612223Y257175D01*
X615398Y257175D02*
X609048Y257175D01*
D14*
X565150Y207010D02*
X565152Y206910D01*
X565158Y206811D01*
X565168Y206711D01*
X565181Y206613D01*
X565199Y206514D01*
X565220Y206417D01*
X565245Y206321D01*
X565274Y206225D01*
X565307Y206131D01*
X565343Y206038D01*
X565383Y205947D01*
X565427Y205857D01*
X565474Y205769D01*
X565524Y205683D01*
X565578Y205599D01*
X565635Y205517D01*
X565695Y205438D01*
X565759Y205360D01*
X565825Y205286D01*
X565894Y205214D01*
X565966Y205145D01*
X566040Y205079D01*
X566118Y205015D01*
X566197Y204955D01*
X566279Y204898D01*
X566363Y204844D01*
X566449Y204794D01*
X566537Y204747D01*
X566627Y204703D01*
X566718Y204663D01*
X566811Y204627D01*
X566905Y204594D01*
X567001Y204565D01*
X567097Y204540D01*
X567194Y204519D01*
X567293Y204501D01*
X567391Y204488D01*
X567491Y204478D01*
X567590Y204472D01*
X567690Y204470D01*
X565150Y224790D02*
X565152Y224890D01*
X565158Y224989D01*
X565168Y225089D01*
X565181Y225187D01*
X565199Y225286D01*
X565220Y225383D01*
X565245Y225479D01*
X565274Y225575D01*
X565307Y225669D01*
X565343Y225762D01*
X565383Y225853D01*
X565427Y225943D01*
X565474Y226031D01*
X565524Y226117D01*
X565578Y226201D01*
X565635Y226283D01*
X565695Y226362D01*
X565759Y226440D01*
X565825Y226514D01*
X565894Y226586D01*
X565966Y226655D01*
X566040Y226721D01*
X566118Y226785D01*
X566197Y226845D01*
X566279Y226902D01*
X566363Y226956D01*
X566449Y227006D01*
X566537Y227053D01*
X566627Y227097D01*
X566718Y227137D01*
X566811Y227173D01*
X566905Y227206D01*
X567001Y227235D01*
X567097Y227260D01*
X567194Y227281D01*
X567293Y227299D01*
X567391Y227312D01*
X567491Y227322D01*
X567590Y227328D01*
X567690Y227330D01*
X626110Y227330D02*
X626210Y227328D01*
X626309Y227322D01*
X626409Y227312D01*
X626507Y227299D01*
X626606Y227281D01*
X626703Y227260D01*
X626799Y227235D01*
X626895Y227206D01*
X626989Y227173D01*
X627082Y227137D01*
X627173Y227097D01*
X627263Y227053D01*
X627351Y227006D01*
X627437Y226956D01*
X627521Y226902D01*
X627603Y226845D01*
X627682Y226785D01*
X627760Y226721D01*
X627834Y226655D01*
X627906Y226586D01*
X627975Y226514D01*
X628041Y226440D01*
X628105Y226362D01*
X628165Y226283D01*
X628222Y226201D01*
X628276Y226117D01*
X628326Y226031D01*
X628373Y225943D01*
X628417Y225853D01*
X628457Y225762D01*
X628493Y225669D01*
X628526Y225575D01*
X628555Y225479D01*
X628580Y225383D01*
X628601Y225286D01*
X628619Y225187D01*
X628632Y225089D01*
X628642Y224989D01*
X628648Y224890D01*
X628650Y224790D01*
X628650Y207010D02*
X628648Y206910D01*
X628642Y206811D01*
X628632Y206711D01*
X628619Y206613D01*
X628601Y206514D01*
X628580Y206417D01*
X628555Y206321D01*
X628526Y206225D01*
X628493Y206131D01*
X628457Y206038D01*
X628417Y205947D01*
X628373Y205857D01*
X628326Y205769D01*
X628276Y205683D01*
X628222Y205599D01*
X628165Y205517D01*
X628105Y205438D01*
X628041Y205360D01*
X627975Y205286D01*
X627906Y205214D01*
X627834Y205145D01*
X627760Y205079D01*
X627682Y205015D01*
X627603Y204955D01*
X627521Y204898D01*
X627437Y204844D01*
X627351Y204794D01*
X627263Y204747D01*
X627173Y204703D01*
X627082Y204663D01*
X626989Y204627D01*
X626895Y204594D01*
X626799Y204565D01*
X626703Y204540D01*
X626606Y204519D01*
X626507Y204501D01*
X626409Y204488D01*
X626309Y204478D01*
X626210Y204472D01*
X626110Y204470D01*
X565150Y207010D02*
X565150Y224790D01*
X567690Y204470D02*
X571500Y204470D01*
X572770Y205740D01*
X571500Y227330D02*
X567690Y227330D01*
X571500Y227330D02*
X572770Y226060D01*
X621030Y205740D02*
X622300Y204470D01*
X621030Y205740D02*
X572770Y205740D01*
X621030Y226060D02*
X622300Y227330D01*
X621030Y226060D02*
X572770Y226060D01*
X622300Y204470D02*
X626110Y204470D01*
X626110Y227330D02*
X622300Y227330D01*
X628650Y224790D02*
X628650Y207010D01*
D15*
X632968Y215900D03*
X560832Y215900D03*
D10*
X584752Y200025D02*
X584752Y188595D01*
X584752Y200025D02*
X581577Y200025D01*
X581466Y200023D01*
X581356Y200017D01*
X581245Y200008D01*
X581135Y199994D01*
X581026Y199977D01*
X580917Y199956D01*
X580809Y199931D01*
X580702Y199902D01*
X580596Y199870D01*
X580491Y199834D01*
X580388Y199794D01*
X580286Y199751D01*
X580185Y199704D01*
X580086Y199653D01*
X579990Y199600D01*
X579895Y199543D01*
X579802Y199482D01*
X579711Y199419D01*
X579622Y199352D01*
X579536Y199282D01*
X579453Y199209D01*
X579371Y199134D01*
X579293Y199056D01*
X579218Y198974D01*
X579145Y198891D01*
X579075Y198805D01*
X579008Y198716D01*
X578945Y198625D01*
X578884Y198532D01*
X578827Y198438D01*
X578774Y198341D01*
X578723Y198242D01*
X578676Y198141D01*
X578633Y198039D01*
X578593Y197936D01*
X578557Y197831D01*
X578525Y197725D01*
X578496Y197618D01*
X578471Y197510D01*
X578450Y197401D01*
X578433Y197292D01*
X578419Y197182D01*
X578410Y197071D01*
X578404Y196961D01*
X578402Y196850D01*
X578404Y196739D01*
X578410Y196629D01*
X578419Y196518D01*
X578433Y196408D01*
X578450Y196299D01*
X578471Y196190D01*
X578496Y196082D01*
X578525Y195975D01*
X578557Y195869D01*
X578593Y195764D01*
X578633Y195661D01*
X578676Y195559D01*
X578723Y195458D01*
X578774Y195359D01*
X578827Y195263D01*
X578884Y195168D01*
X578945Y195075D01*
X579008Y194984D01*
X579075Y194895D01*
X579145Y194809D01*
X579218Y194726D01*
X579293Y194644D01*
X579371Y194566D01*
X579453Y194491D01*
X579536Y194418D01*
X579622Y194348D01*
X579711Y194281D01*
X579802Y194218D01*
X579895Y194157D01*
X579990Y194100D01*
X580086Y194047D01*
X580185Y193996D01*
X580286Y193949D01*
X580388Y193906D01*
X580491Y193866D01*
X580596Y193830D01*
X580702Y193798D01*
X580809Y193769D01*
X580917Y193744D01*
X581026Y193723D01*
X581135Y193706D01*
X581245Y193692D01*
X581356Y193683D01*
X581466Y193677D01*
X581577Y193675D01*
X584752Y193675D01*
X580942Y193675D02*
X578402Y188595D01*
X567055Y197168D02*
X567057Y197272D01*
X567063Y197377D01*
X567072Y197481D01*
X567085Y197584D01*
X567103Y197687D01*
X567123Y197789D01*
X567148Y197891D01*
X567176Y197991D01*
X567208Y198091D01*
X567244Y198189D01*
X567283Y198286D01*
X567325Y198381D01*
X567371Y198475D01*
X567421Y198567D01*
X567473Y198657D01*
X567529Y198745D01*
X567589Y198831D01*
X567651Y198915D01*
X567716Y198996D01*
X567784Y199075D01*
X567856Y199152D01*
X567929Y199225D01*
X568006Y199297D01*
X568085Y199365D01*
X568166Y199430D01*
X568250Y199492D01*
X568336Y199552D01*
X568424Y199608D01*
X568514Y199660D01*
X568606Y199710D01*
X568700Y199756D01*
X568795Y199798D01*
X568892Y199837D01*
X568990Y199873D01*
X569090Y199905D01*
X569190Y199933D01*
X569292Y199958D01*
X569394Y199978D01*
X569497Y199996D01*
X569600Y200009D01*
X569704Y200018D01*
X569809Y200024D01*
X569913Y200026D01*
X569913Y200025D02*
X570031Y200023D01*
X570150Y200017D01*
X570268Y200008D01*
X570385Y199995D01*
X570502Y199977D01*
X570619Y199957D01*
X570735Y199932D01*
X570850Y199904D01*
X570963Y199871D01*
X571076Y199836D01*
X571188Y199796D01*
X571298Y199754D01*
X571407Y199707D01*
X571515Y199657D01*
X571620Y199604D01*
X571724Y199547D01*
X571826Y199487D01*
X571926Y199424D01*
X572024Y199357D01*
X572120Y199288D01*
X572213Y199215D01*
X572304Y199139D01*
X572393Y199061D01*
X572479Y198979D01*
X572562Y198895D01*
X572643Y198809D01*
X572720Y198719D01*
X572795Y198628D01*
X572867Y198534D01*
X572936Y198437D01*
X573001Y198339D01*
X573064Y198238D01*
X573123Y198135D01*
X573179Y198031D01*
X573231Y197925D01*
X573280Y197817D01*
X573325Y197708D01*
X573367Y197597D01*
X573405Y197485D01*
X568007Y194946D02*
X567931Y195021D01*
X567856Y195100D01*
X567785Y195181D01*
X567716Y195265D01*
X567651Y195351D01*
X567589Y195439D01*
X567529Y195529D01*
X567473Y195621D01*
X567420Y195716D01*
X567371Y195812D01*
X567325Y195910D01*
X567282Y196009D01*
X567243Y196110D01*
X567208Y196212D01*
X567176Y196315D01*
X567148Y196419D01*
X567123Y196524D01*
X567102Y196631D01*
X567085Y196737D01*
X567072Y196844D01*
X567063Y196952D01*
X567057Y197060D01*
X567055Y197168D01*
X568008Y194945D02*
X573405Y188595D01*
X567055Y188595D01*
D14*
X264160Y72390D02*
X264160Y29210D01*
X294640Y29210D02*
X294640Y72390D01*
X292100Y26670D02*
X266700Y26670D01*
X266700Y74930D02*
X292100Y74930D01*
X264160Y29210D02*
X264162Y29110D01*
X264168Y29011D01*
X264178Y28911D01*
X264191Y28813D01*
X264209Y28714D01*
X264230Y28617D01*
X264255Y28521D01*
X264284Y28425D01*
X264317Y28331D01*
X264353Y28238D01*
X264393Y28147D01*
X264437Y28057D01*
X264484Y27969D01*
X264534Y27883D01*
X264588Y27799D01*
X264645Y27717D01*
X264705Y27638D01*
X264769Y27560D01*
X264835Y27486D01*
X264904Y27414D01*
X264976Y27345D01*
X265050Y27279D01*
X265128Y27215D01*
X265207Y27155D01*
X265289Y27098D01*
X265373Y27044D01*
X265459Y26994D01*
X265547Y26947D01*
X265637Y26903D01*
X265728Y26863D01*
X265821Y26827D01*
X265915Y26794D01*
X266011Y26765D01*
X266107Y26740D01*
X266204Y26719D01*
X266303Y26701D01*
X266401Y26688D01*
X266501Y26678D01*
X266600Y26672D01*
X266700Y26670D01*
X264160Y72390D02*
X264162Y72490D01*
X264168Y72589D01*
X264178Y72689D01*
X264191Y72787D01*
X264209Y72886D01*
X264230Y72983D01*
X264255Y73079D01*
X264284Y73175D01*
X264317Y73269D01*
X264353Y73362D01*
X264393Y73453D01*
X264437Y73543D01*
X264484Y73631D01*
X264534Y73717D01*
X264588Y73801D01*
X264645Y73883D01*
X264705Y73962D01*
X264769Y74040D01*
X264835Y74114D01*
X264904Y74186D01*
X264976Y74255D01*
X265050Y74321D01*
X265128Y74385D01*
X265207Y74445D01*
X265289Y74502D01*
X265373Y74556D01*
X265459Y74606D01*
X265547Y74653D01*
X265637Y74697D01*
X265728Y74737D01*
X265821Y74773D01*
X265915Y74806D01*
X266011Y74835D01*
X266107Y74860D01*
X266204Y74881D01*
X266303Y74899D01*
X266401Y74912D01*
X266501Y74922D01*
X266600Y74928D01*
X266700Y74930D01*
X294640Y29210D02*
X294638Y29110D01*
X294632Y29011D01*
X294622Y28911D01*
X294609Y28813D01*
X294591Y28714D01*
X294570Y28617D01*
X294545Y28521D01*
X294516Y28425D01*
X294483Y28331D01*
X294447Y28238D01*
X294407Y28147D01*
X294363Y28057D01*
X294316Y27969D01*
X294266Y27883D01*
X294212Y27799D01*
X294155Y27717D01*
X294095Y27638D01*
X294031Y27560D01*
X293965Y27486D01*
X293896Y27414D01*
X293824Y27345D01*
X293750Y27279D01*
X293672Y27215D01*
X293593Y27155D01*
X293511Y27098D01*
X293427Y27044D01*
X293341Y26994D01*
X293253Y26947D01*
X293163Y26903D01*
X293072Y26863D01*
X292979Y26827D01*
X292885Y26794D01*
X292789Y26765D01*
X292693Y26740D01*
X292596Y26719D01*
X292497Y26701D01*
X292399Y26688D01*
X292299Y26678D01*
X292200Y26672D01*
X292100Y26670D01*
X294640Y72390D02*
X294638Y72490D01*
X294632Y72589D01*
X294622Y72689D01*
X294609Y72787D01*
X294591Y72886D01*
X294570Y72983D01*
X294545Y73079D01*
X294516Y73175D01*
X294483Y73269D01*
X294447Y73362D01*
X294407Y73453D01*
X294363Y73543D01*
X294316Y73631D01*
X294266Y73717D01*
X294212Y73801D01*
X294155Y73883D01*
X294095Y73962D01*
X294031Y74040D01*
X293965Y74114D01*
X293896Y74186D01*
X293824Y74255D01*
X293750Y74321D01*
X293672Y74385D01*
X293593Y74445D01*
X293511Y74502D01*
X293427Y74556D01*
X293341Y74606D01*
X293253Y74653D01*
X293163Y74697D01*
X293072Y74737D01*
X292979Y74773D01*
X292885Y74806D01*
X292789Y74835D01*
X292693Y74860D01*
X292596Y74881D01*
X292497Y74899D01*
X292399Y74912D01*
X292299Y74922D01*
X292200Y74928D01*
X292100Y74930D01*
X279400Y48260D02*
X279400Y46990D01*
D16*
X279400Y48260D02*
X271780Y48260D01*
X279400Y48260D02*
X287020Y48260D01*
X279400Y53340D02*
X271780Y53340D01*
X279400Y53340D02*
X287020Y53340D01*
D14*
X279400Y53340D02*
X279400Y54610D01*
D10*
X249555Y55843D02*
X249555Y53303D01*
X249557Y53203D01*
X249563Y53104D01*
X249573Y53004D01*
X249586Y52906D01*
X249604Y52807D01*
X249625Y52710D01*
X249650Y52614D01*
X249679Y52518D01*
X249712Y52424D01*
X249748Y52331D01*
X249788Y52240D01*
X249832Y52150D01*
X249879Y52062D01*
X249929Y51976D01*
X249983Y51892D01*
X250040Y51810D01*
X250100Y51731D01*
X250164Y51653D01*
X250230Y51579D01*
X250299Y51507D01*
X250371Y51438D01*
X250445Y51372D01*
X250523Y51308D01*
X250602Y51248D01*
X250684Y51191D01*
X250768Y51137D01*
X250854Y51087D01*
X250942Y51040D01*
X251032Y50996D01*
X251123Y50956D01*
X251216Y50920D01*
X251310Y50887D01*
X251406Y50858D01*
X251502Y50833D01*
X251599Y50812D01*
X251698Y50794D01*
X251796Y50781D01*
X251896Y50771D01*
X251995Y50765D01*
X252095Y50763D01*
X258445Y50763D01*
X258545Y50765D01*
X258644Y50771D01*
X258744Y50781D01*
X258842Y50794D01*
X258941Y50812D01*
X259038Y50833D01*
X259134Y50858D01*
X259230Y50887D01*
X259324Y50920D01*
X259417Y50956D01*
X259508Y50996D01*
X259598Y51040D01*
X259686Y51087D01*
X259772Y51137D01*
X259856Y51191D01*
X259938Y51248D01*
X260017Y51308D01*
X260095Y51372D01*
X260169Y51438D01*
X260241Y51507D01*
X260310Y51579D01*
X260376Y51653D01*
X260440Y51731D01*
X260500Y51810D01*
X260557Y51892D01*
X260611Y51976D01*
X260661Y52062D01*
X260708Y52150D01*
X260752Y52240D01*
X260792Y52331D01*
X260828Y52424D01*
X260861Y52518D01*
X260890Y52614D01*
X260915Y52710D01*
X260936Y52807D01*
X260954Y52906D01*
X260967Y53004D01*
X260977Y53104D01*
X260983Y53203D01*
X260985Y53303D01*
X260985Y55843D01*
X260986Y63818D02*
X260984Y63922D01*
X260978Y64027D01*
X260969Y64131D01*
X260956Y64234D01*
X260938Y64337D01*
X260918Y64439D01*
X260893Y64541D01*
X260865Y64641D01*
X260833Y64741D01*
X260797Y64839D01*
X260758Y64936D01*
X260716Y65031D01*
X260670Y65125D01*
X260620Y65217D01*
X260568Y65307D01*
X260512Y65395D01*
X260452Y65481D01*
X260390Y65565D01*
X260325Y65646D01*
X260257Y65725D01*
X260185Y65802D01*
X260112Y65875D01*
X260035Y65947D01*
X259956Y66015D01*
X259875Y66080D01*
X259791Y66142D01*
X259705Y66202D01*
X259617Y66258D01*
X259527Y66310D01*
X259435Y66360D01*
X259341Y66406D01*
X259246Y66448D01*
X259149Y66487D01*
X259051Y66523D01*
X258951Y66555D01*
X258851Y66583D01*
X258749Y66608D01*
X258647Y66628D01*
X258544Y66646D01*
X258441Y66659D01*
X258337Y66668D01*
X258232Y66674D01*
X258128Y66676D01*
X260985Y63818D02*
X260983Y63700D01*
X260977Y63581D01*
X260968Y63463D01*
X260955Y63346D01*
X260937Y63229D01*
X260917Y63112D01*
X260892Y62996D01*
X260864Y62881D01*
X260831Y62768D01*
X260796Y62655D01*
X260756Y62543D01*
X260714Y62433D01*
X260667Y62324D01*
X260617Y62216D01*
X260564Y62111D01*
X260507Y62007D01*
X260447Y61905D01*
X260384Y61805D01*
X260317Y61707D01*
X260248Y61611D01*
X260175Y61518D01*
X260099Y61427D01*
X260021Y61338D01*
X259939Y61252D01*
X259855Y61169D01*
X259769Y61088D01*
X259679Y61011D01*
X259588Y60936D01*
X259494Y60864D01*
X259397Y60795D01*
X259299Y60730D01*
X259198Y60667D01*
X259095Y60608D01*
X258991Y60552D01*
X258885Y60500D01*
X258777Y60451D01*
X258668Y60406D01*
X258557Y60364D01*
X258445Y60326D01*
X255906Y65723D02*
X255981Y65799D01*
X256060Y65874D01*
X256141Y65945D01*
X256225Y66014D01*
X256311Y66079D01*
X256399Y66141D01*
X256489Y66201D01*
X256581Y66257D01*
X256676Y66310D01*
X256772Y66359D01*
X256870Y66405D01*
X256969Y66448D01*
X257070Y66487D01*
X257172Y66522D01*
X257275Y66554D01*
X257379Y66582D01*
X257484Y66607D01*
X257591Y66628D01*
X257697Y66645D01*
X257804Y66658D01*
X257912Y66667D01*
X258020Y66673D01*
X258128Y66675D01*
X255905Y65723D02*
X249555Y60325D01*
X249555Y66675D01*
X359100Y650240D02*
X809100Y650240D01*
X809100Y666600D01*
X794100Y666600D01*
X634100Y666600D01*
X534100Y666600D01*
X374100Y666600D01*
X359100Y666600D01*
X359100Y650240D01*
X533300Y650240D02*
X634900Y650240D01*
X533300Y650240D02*
X533300Y624840D01*
X542190Y624840D01*
X549810Y624840D01*
X567590Y624840D01*
X575210Y624840D01*
X592990Y624840D01*
X600610Y624840D01*
X618390Y624840D01*
X626010Y624840D01*
X634900Y624840D01*
X634900Y650240D01*
X626010Y624840D02*
X626010Y618490D01*
X618390Y618490D02*
X618390Y624840D01*
X600610Y624840D02*
X600610Y618490D01*
X575210Y618490D02*
X575210Y624840D01*
X549810Y624840D02*
X549810Y618490D01*
X592990Y618490D02*
X592990Y624840D01*
X567590Y624840D02*
X567590Y618490D01*
X542190Y618490D02*
X542190Y624840D01*
X374100Y666600D02*
X374100Y786600D01*
X534100Y786600D01*
X534100Y666600D01*
X634100Y666600D02*
X634100Y786600D01*
X794100Y786600D01*
X794100Y666600D01*
D11*
X598204Y590042D02*
X598204Y581604D01*
X598202Y581491D01*
X598196Y581378D01*
X598186Y581265D01*
X598172Y581152D01*
X598155Y581040D01*
X598133Y580929D01*
X598108Y580819D01*
X598078Y580709D01*
X598045Y580601D01*
X598008Y580494D01*
X597968Y580388D01*
X597923Y580284D01*
X597875Y580181D01*
X597824Y580080D01*
X597769Y579981D01*
X597711Y579884D01*
X597649Y579789D01*
X597584Y579696D01*
X597516Y579606D01*
X597445Y579518D01*
X597370Y579432D01*
X597293Y579349D01*
X597213Y579269D01*
X597130Y579192D01*
X597044Y579117D01*
X596956Y579046D01*
X596866Y578978D01*
X596773Y578913D01*
X596678Y578851D01*
X596581Y578793D01*
X596482Y578738D01*
X596381Y578687D01*
X596278Y578639D01*
X596174Y578594D01*
X596068Y578554D01*
X595961Y578517D01*
X595853Y578484D01*
X595743Y578454D01*
X595633Y578429D01*
X595522Y578407D01*
X595410Y578390D01*
X595297Y578376D01*
X595184Y578366D01*
X595071Y578360D01*
X594958Y578358D01*
X594845Y578360D01*
X594732Y578366D01*
X594619Y578376D01*
X594506Y578390D01*
X594394Y578407D01*
X594283Y578429D01*
X594173Y578454D01*
X594063Y578484D01*
X593955Y578517D01*
X593848Y578554D01*
X593742Y578594D01*
X593638Y578639D01*
X593535Y578687D01*
X593434Y578738D01*
X593335Y578793D01*
X593238Y578851D01*
X593143Y578913D01*
X593050Y578978D01*
X592960Y579046D01*
X592872Y579117D01*
X592786Y579192D01*
X592703Y579269D01*
X592623Y579349D01*
X592546Y579432D01*
X592471Y579518D01*
X592400Y579606D01*
X592332Y579696D01*
X592267Y579789D01*
X592205Y579884D01*
X592147Y579981D01*
X592092Y580080D01*
X592041Y580181D01*
X591993Y580284D01*
X591948Y580388D01*
X591908Y580494D01*
X591871Y580601D01*
X591838Y580709D01*
X591808Y580819D01*
X591783Y580929D01*
X591761Y581040D01*
X591744Y581152D01*
X591730Y581265D01*
X591720Y581378D01*
X591714Y581491D01*
X591712Y581604D01*
X591713Y581604D02*
X591713Y590042D01*
X583910Y590042D02*
X583910Y578358D01*
X583910Y584200D02*
X585532Y585174D01*
X585533Y585173D02*
X585606Y585220D01*
X585677Y585269D01*
X585747Y585322D01*
X585813Y585378D01*
X585877Y585437D01*
X585939Y585498D01*
X585997Y585562D01*
X586053Y585629D01*
X586105Y585698D01*
X586155Y585770D01*
X586201Y585844D01*
X586244Y585919D01*
X586283Y585997D01*
X586319Y586076D01*
X586351Y586157D01*
X586380Y586239D01*
X586405Y586322D01*
X586426Y586406D01*
X586443Y586491D01*
X586457Y586577D01*
X586466Y586663D01*
X586472Y586750D01*
X586474Y586837D01*
X586472Y586924D01*
X586466Y587011D01*
X586456Y587097D01*
X586443Y587183D01*
X586425Y587268D01*
X586404Y587352D01*
X586379Y587435D01*
X586350Y587518D01*
X586318Y587598D01*
X586282Y587677D01*
X586243Y587755D01*
X586200Y587830D01*
X586153Y587904D01*
X586104Y587975D01*
X586051Y588045D01*
X585996Y588111D01*
X585937Y588175D01*
X585876Y588237D01*
X585811Y588296D01*
X585745Y588351D01*
X585676Y588404D01*
X585604Y588454D01*
X585531Y588500D01*
X585455Y588543D01*
X585378Y588582D01*
X585299Y588618D01*
X585218Y588651D01*
X585136Y588679D01*
X585053Y588705D01*
X584969Y588726D01*
X584883Y588743D01*
X584883Y588744D02*
X584743Y588768D01*
X584601Y588788D01*
X584460Y588804D01*
X584318Y588815D01*
X584175Y588823D01*
X584033Y588827D01*
X583890Y588828D01*
X583747Y588824D01*
X583605Y588816D01*
X583463Y588804D01*
X583321Y588788D01*
X583180Y588769D01*
X583039Y588745D01*
X582899Y588718D01*
X582760Y588686D01*
X582622Y588651D01*
X582484Y588612D01*
X582348Y588569D01*
X582214Y588523D01*
X582080Y588472D01*
X581948Y588419D01*
X581818Y588361D01*
X581689Y588300D01*
X581562Y588235D01*
X581436Y588167D01*
X581313Y588095D01*
X583910Y584200D02*
X582287Y583226D01*
X582286Y583227D02*
X582213Y583180D01*
X582142Y583131D01*
X582072Y583078D01*
X582006Y583022D01*
X581942Y582963D01*
X581880Y582902D01*
X581822Y582838D01*
X581766Y582771D01*
X581714Y582702D01*
X581664Y582630D01*
X581618Y582556D01*
X581575Y582481D01*
X581536Y582403D01*
X581500Y582324D01*
X581468Y582243D01*
X581439Y582161D01*
X581414Y582078D01*
X581393Y581994D01*
X581376Y581909D01*
X581362Y581823D01*
X581353Y581737D01*
X581347Y581650D01*
X581345Y581563D01*
X581347Y581476D01*
X581353Y581389D01*
X581363Y581303D01*
X581376Y581217D01*
X581394Y581132D01*
X581415Y581048D01*
X581440Y580965D01*
X581469Y580882D01*
X581501Y580802D01*
X581537Y580723D01*
X581576Y580645D01*
X581619Y580570D01*
X581666Y580496D01*
X581715Y580425D01*
X581768Y580355D01*
X581823Y580289D01*
X581882Y580225D01*
X581943Y580163D01*
X582008Y580104D01*
X582074Y580049D01*
X582143Y579996D01*
X582215Y579946D01*
X582288Y579900D01*
X582364Y579857D01*
X582441Y579818D01*
X582520Y579782D01*
X582601Y579749D01*
X582683Y579721D01*
X582766Y579695D01*
X582850Y579674D01*
X582935Y579657D01*
X582936Y579656D02*
X583076Y579632D01*
X583218Y579612D01*
X583359Y579596D01*
X583501Y579585D01*
X583644Y579577D01*
X583786Y579573D01*
X583929Y579572D01*
X584072Y579576D01*
X584214Y579584D01*
X584356Y579596D01*
X584498Y579612D01*
X584639Y579631D01*
X584780Y579655D01*
X584920Y579682D01*
X585059Y579714D01*
X585197Y579749D01*
X585335Y579788D01*
X585471Y579831D01*
X585605Y579877D01*
X585739Y579928D01*
X585871Y579981D01*
X586002Y580039D01*
X586130Y580100D01*
X586257Y580165D01*
X586383Y580233D01*
X586506Y580305D01*
X576488Y581604D02*
X576486Y581717D01*
X576480Y581830D01*
X576470Y581943D01*
X576456Y582056D01*
X576439Y582168D01*
X576417Y582279D01*
X576392Y582389D01*
X576362Y582499D01*
X576329Y582607D01*
X576292Y582714D01*
X576252Y582820D01*
X576207Y582924D01*
X576159Y583027D01*
X576108Y583128D01*
X576053Y583227D01*
X575995Y583324D01*
X575933Y583419D01*
X575868Y583512D01*
X575800Y583602D01*
X575729Y583690D01*
X575654Y583776D01*
X575577Y583859D01*
X575497Y583939D01*
X575414Y584016D01*
X575328Y584091D01*
X575240Y584162D01*
X575150Y584230D01*
X575057Y584295D01*
X574962Y584357D01*
X574865Y584415D01*
X574766Y584470D01*
X574665Y584521D01*
X574562Y584569D01*
X574458Y584614D01*
X574352Y584654D01*
X574245Y584691D01*
X574137Y584724D01*
X574027Y584754D01*
X573917Y584779D01*
X573806Y584801D01*
X573694Y584818D01*
X573581Y584832D01*
X573468Y584842D01*
X573355Y584848D01*
X573242Y584850D01*
X573129Y584848D01*
X573016Y584842D01*
X572903Y584832D01*
X572790Y584818D01*
X572678Y584801D01*
X572567Y584779D01*
X572457Y584754D01*
X572347Y584724D01*
X572239Y584691D01*
X572132Y584654D01*
X572026Y584614D01*
X571922Y584569D01*
X571819Y584521D01*
X571718Y584470D01*
X571619Y584415D01*
X571522Y584357D01*
X571427Y584295D01*
X571334Y584230D01*
X571244Y584162D01*
X571156Y584091D01*
X571070Y584016D01*
X570987Y583939D01*
X570907Y583859D01*
X570830Y583776D01*
X570755Y583690D01*
X570684Y583602D01*
X570616Y583512D01*
X570551Y583419D01*
X570489Y583324D01*
X570431Y583227D01*
X570376Y583128D01*
X570325Y583027D01*
X570277Y582924D01*
X570232Y582820D01*
X570192Y582714D01*
X570155Y582607D01*
X570122Y582499D01*
X570092Y582389D01*
X570067Y582279D01*
X570045Y582168D01*
X570028Y582056D01*
X570014Y581943D01*
X570004Y581830D01*
X569998Y581717D01*
X569996Y581604D01*
X569998Y581491D01*
X570004Y581378D01*
X570014Y581265D01*
X570028Y581152D01*
X570045Y581040D01*
X570067Y580929D01*
X570092Y580819D01*
X570122Y580709D01*
X570155Y580601D01*
X570192Y580494D01*
X570232Y580388D01*
X570277Y580284D01*
X570325Y580181D01*
X570376Y580080D01*
X570431Y579981D01*
X570489Y579884D01*
X570551Y579789D01*
X570616Y579696D01*
X570684Y579606D01*
X570755Y579518D01*
X570830Y579432D01*
X570907Y579349D01*
X570987Y579269D01*
X571070Y579192D01*
X571156Y579117D01*
X571244Y579046D01*
X571334Y578978D01*
X571427Y578913D01*
X571522Y578851D01*
X571619Y578793D01*
X571718Y578738D01*
X571819Y578687D01*
X571922Y578639D01*
X572026Y578594D01*
X572132Y578554D01*
X572239Y578517D01*
X572347Y578484D01*
X572457Y578454D01*
X572567Y578429D01*
X572678Y578407D01*
X572790Y578390D01*
X572903Y578376D01*
X573016Y578366D01*
X573129Y578360D01*
X573242Y578358D01*
X573355Y578360D01*
X573468Y578366D01*
X573581Y578376D01*
X573694Y578390D01*
X573806Y578407D01*
X573917Y578429D01*
X574027Y578454D01*
X574137Y578484D01*
X574245Y578517D01*
X574352Y578554D01*
X574458Y578594D01*
X574562Y578639D01*
X574665Y578687D01*
X574766Y578738D01*
X574865Y578793D01*
X574962Y578851D01*
X575057Y578913D01*
X575150Y578978D01*
X575240Y579046D01*
X575328Y579117D01*
X575414Y579192D01*
X575497Y579269D01*
X575577Y579349D01*
X575654Y579432D01*
X575729Y579518D01*
X575800Y579606D01*
X575868Y579696D01*
X575933Y579789D01*
X575995Y579884D01*
X576053Y579981D01*
X576108Y580080D01*
X576159Y580181D01*
X576207Y580284D01*
X576252Y580388D01*
X576292Y580494D01*
X576329Y580601D01*
X576362Y580709D01*
X576392Y580819D01*
X576417Y580929D01*
X576439Y581040D01*
X576456Y581152D01*
X576470Y581265D01*
X576480Y581378D01*
X576486Y581491D01*
X576488Y581604D01*
X575838Y587446D02*
X575836Y587547D01*
X575830Y587647D01*
X575820Y587747D01*
X575807Y587847D01*
X575789Y587946D01*
X575768Y588045D01*
X575743Y588142D01*
X575714Y588239D01*
X575681Y588334D01*
X575645Y588428D01*
X575605Y588520D01*
X575562Y588611D01*
X575515Y588700D01*
X575465Y588787D01*
X575411Y588873D01*
X575354Y588956D01*
X575294Y589036D01*
X575231Y589115D01*
X575164Y589191D01*
X575095Y589264D01*
X575023Y589334D01*
X574949Y589402D01*
X574872Y589467D01*
X574792Y589528D01*
X574710Y589587D01*
X574626Y589642D01*
X574540Y589694D01*
X574452Y589743D01*
X574362Y589788D01*
X574270Y589830D01*
X574177Y589868D01*
X574082Y589902D01*
X573987Y589933D01*
X573890Y589960D01*
X573792Y589983D01*
X573693Y590003D01*
X573593Y590018D01*
X573493Y590030D01*
X573393Y590038D01*
X573292Y590042D01*
X573192Y590042D01*
X573091Y590038D01*
X572991Y590030D01*
X572891Y590018D01*
X572791Y590003D01*
X572692Y589983D01*
X572594Y589960D01*
X572497Y589933D01*
X572402Y589902D01*
X572307Y589868D01*
X572214Y589830D01*
X572122Y589788D01*
X572032Y589743D01*
X571944Y589694D01*
X571858Y589642D01*
X571774Y589587D01*
X571692Y589528D01*
X571612Y589467D01*
X571535Y589402D01*
X571461Y589334D01*
X571389Y589264D01*
X571320Y589191D01*
X571253Y589115D01*
X571190Y589036D01*
X571130Y588956D01*
X571073Y588873D01*
X571019Y588787D01*
X570969Y588700D01*
X570922Y588611D01*
X570879Y588520D01*
X570839Y588428D01*
X570803Y588334D01*
X570770Y588239D01*
X570741Y588142D01*
X570716Y588045D01*
X570695Y587946D01*
X570677Y587847D01*
X570664Y587747D01*
X570654Y587647D01*
X570648Y587547D01*
X570646Y587446D01*
X570648Y587345D01*
X570654Y587245D01*
X570664Y587145D01*
X570677Y587045D01*
X570695Y586946D01*
X570716Y586847D01*
X570741Y586750D01*
X570770Y586653D01*
X570803Y586558D01*
X570839Y586464D01*
X570879Y586372D01*
X570922Y586281D01*
X570969Y586192D01*
X571019Y586105D01*
X571073Y586019D01*
X571130Y585936D01*
X571190Y585856D01*
X571253Y585777D01*
X571320Y585701D01*
X571389Y585628D01*
X571461Y585558D01*
X571535Y585490D01*
X571612Y585425D01*
X571692Y585364D01*
X571774Y585305D01*
X571858Y585250D01*
X571944Y585198D01*
X572032Y585149D01*
X572122Y585104D01*
X572214Y585062D01*
X572307Y585024D01*
X572402Y584990D01*
X572497Y584959D01*
X572594Y584932D01*
X572692Y584909D01*
X572791Y584889D01*
X572891Y584874D01*
X572991Y584862D01*
X573091Y584854D01*
X573192Y584850D01*
X573292Y584850D01*
X573393Y584854D01*
X573493Y584862D01*
X573593Y584874D01*
X573693Y584889D01*
X573792Y584909D01*
X573890Y584932D01*
X573987Y584959D01*
X574082Y584990D01*
X574177Y585024D01*
X574270Y585062D01*
X574362Y585104D01*
X574452Y585149D01*
X574540Y585198D01*
X574626Y585250D01*
X574710Y585305D01*
X574792Y585364D01*
X574872Y585425D01*
X574949Y585490D01*
X575023Y585558D01*
X575095Y585628D01*
X575164Y585701D01*
X575231Y585777D01*
X575294Y585856D01*
X575354Y585936D01*
X575411Y586019D01*
X575465Y586105D01*
X575515Y586192D01*
X575562Y586281D01*
X575605Y586372D01*
X575645Y586464D01*
X575681Y586558D01*
X575714Y586653D01*
X575743Y586750D01*
X575768Y586847D01*
X575789Y586946D01*
X575807Y587045D01*
X575820Y587145D01*
X575830Y587245D01*
X575836Y587345D01*
X575838Y587446D01*
M02*
