G04 EAGLE Gerber RS-274X export*
G75*
%MOMM*%
%FSLAX34Y34*%
%LPD*%
%INBottom Copper*%
%IPPOS*%
%AMOC8*
5,1,8,0,0,1.08239X$1,22.5*%
G01*
%ADD10C,1.320800*%
%ADD11R,1.508000X1.508000*%
%ADD12C,1.508000*%
%ADD13R,1.930400X1.930400*%
%ADD14C,1.930400*%
%ADD15C,1.524000*%
%ADD16P,1.429621X8X202.500000*%
%ADD17P,1.429621X8X22.500000*%
%ADD18P,1.732040X8X292.500000*%
%ADD19R,1.508000X1.508000*%
%ADD20P,1.649562X8X22.500000*%
%ADD21C,1.108000*%
%ADD22C,2.000000*%
%ADD23P,4.346878X8X22.500000*%
%ADD24C,1.000000*%
%ADD25C,1.500000*%
%ADD26C,0.500000*%

G36*
X1136120Y11435D02*
X1136120Y11435D01*
X1136170Y11433D01*
X1136342Y11455D01*
X1136515Y11471D01*
X1136563Y11484D01*
X1136613Y11490D01*
X1136778Y11543D01*
X1136946Y11589D01*
X1136991Y11611D01*
X1137038Y11626D01*
X1137192Y11707D01*
X1137348Y11782D01*
X1137389Y11812D01*
X1137433Y11835D01*
X1137570Y11942D01*
X1137710Y12044D01*
X1137745Y12080D01*
X1137784Y12111D01*
X1137900Y12241D01*
X1138020Y12366D01*
X1138047Y12408D01*
X1138081Y12446D01*
X1138171Y12594D01*
X1138267Y12738D01*
X1138287Y12784D01*
X1138313Y12827D01*
X1138375Y12989D01*
X1138444Y13149D01*
X1138455Y13197D01*
X1138473Y13244D01*
X1138506Y13415D01*
X1138545Y13584D01*
X1138548Y13634D01*
X1138557Y13683D01*
X1138569Y13930D01*
X1138569Y225857D01*
X1138557Y225993D01*
X1138554Y226130D01*
X1138537Y226215D01*
X1138529Y226302D01*
X1138493Y226434D01*
X1138466Y226568D01*
X1138434Y226648D01*
X1138411Y226732D01*
X1138352Y226856D01*
X1138301Y226983D01*
X1138255Y227057D01*
X1138218Y227135D01*
X1138137Y227246D01*
X1138065Y227362D01*
X1138007Y227426D01*
X1137956Y227497D01*
X1137857Y227592D01*
X1137765Y227693D01*
X1137696Y227746D01*
X1137634Y227807D01*
X1137520Y227882D01*
X1137411Y227966D01*
X1137334Y228006D01*
X1137262Y228054D01*
X1137136Y228108D01*
X1137014Y228171D01*
X1136931Y228196D01*
X1136851Y228231D01*
X1136718Y228262D01*
X1136587Y228302D01*
X1136501Y228312D01*
X1136416Y228332D01*
X1136280Y228339D01*
X1136144Y228355D01*
X1136057Y228350D01*
X1135970Y228354D01*
X1135835Y228336D01*
X1135698Y228328D01*
X1135613Y228308D01*
X1135527Y228296D01*
X1135397Y228255D01*
X1135264Y228223D01*
X1135185Y228187D01*
X1135102Y228161D01*
X1134981Y228097D01*
X1134856Y228041D01*
X1134784Y227992D01*
X1134707Y227952D01*
X1134599Y227867D01*
X1134486Y227790D01*
X1134385Y227698D01*
X1134356Y227676D01*
X1134340Y227658D01*
X1134303Y227624D01*
X997681Y91002D01*
X993087Y89099D01*
X885816Y89099D01*
X885674Y89086D01*
X885531Y89083D01*
X885452Y89067D01*
X885372Y89059D01*
X885233Y89021D01*
X885093Y88992D01*
X884977Y88951D01*
X884941Y88941D01*
X884917Y88929D01*
X884860Y88909D01*
X879284Y86599D01*
X873316Y86599D01*
X867803Y88883D01*
X863583Y93103D01*
X861299Y98616D01*
X861299Y104584D01*
X863583Y110097D01*
X867803Y114317D01*
X873316Y116601D01*
X879284Y116601D01*
X884860Y114291D01*
X884997Y114248D01*
X885131Y114197D01*
X885210Y114182D01*
X885286Y114158D01*
X885428Y114140D01*
X885569Y114113D01*
X885692Y114107D01*
X885730Y114102D01*
X885757Y114104D01*
X885816Y114101D01*
X984387Y114101D01*
X984573Y114117D01*
X984759Y114129D01*
X984795Y114137D01*
X984832Y114141D01*
X985012Y114190D01*
X985193Y114234D01*
X985227Y114249D01*
X985262Y114259D01*
X985431Y114340D01*
X985601Y114416D01*
X985632Y114436D01*
X985665Y114452D01*
X985816Y114562D01*
X985971Y114667D01*
X986008Y114701D01*
X986027Y114714D01*
X986052Y114741D01*
X986154Y114833D01*
X1117067Y245746D01*
X1117187Y245889D01*
X1117311Y246029D01*
X1117330Y246060D01*
X1117354Y246089D01*
X1117446Y246251D01*
X1117543Y246410D01*
X1117556Y246445D01*
X1117574Y246477D01*
X1117636Y246653D01*
X1117703Y246827D01*
X1117710Y246864D01*
X1117723Y246899D01*
X1117752Y247083D01*
X1117787Y247266D01*
X1117790Y247316D01*
X1117793Y247340D01*
X1117792Y247377D01*
X1117799Y247513D01*
X1117799Y284822D01*
X1117787Y284959D01*
X1117784Y285095D01*
X1117767Y285180D01*
X1117759Y285267D01*
X1117723Y285399D01*
X1117696Y285533D01*
X1117664Y285614D01*
X1117641Y285698D01*
X1117582Y285821D01*
X1117531Y285948D01*
X1117485Y286022D01*
X1117448Y286101D01*
X1117367Y286212D01*
X1117295Y286328D01*
X1117237Y286392D01*
X1117186Y286463D01*
X1117087Y286557D01*
X1116995Y286659D01*
X1116926Y286712D01*
X1116864Y286772D01*
X1116750Y286848D01*
X1116641Y286931D01*
X1116564Y286971D01*
X1116492Y287019D01*
X1116366Y287074D01*
X1116244Y287136D01*
X1116161Y287162D01*
X1116081Y287196D01*
X1115948Y287227D01*
X1115817Y287267D01*
X1115731Y287278D01*
X1115646Y287298D01*
X1115510Y287304D01*
X1115374Y287321D01*
X1115287Y287315D01*
X1115200Y287320D01*
X1115065Y287302D01*
X1114928Y287294D01*
X1114843Y287273D01*
X1114757Y287262D01*
X1114627Y287220D01*
X1114494Y287188D01*
X1114415Y287153D01*
X1114332Y287126D01*
X1114211Y287062D01*
X1114086Y287007D01*
X1114014Y286958D01*
X1113937Y286917D01*
X1113829Y286833D01*
X1113716Y286756D01*
X1113615Y286664D01*
X1113586Y286641D01*
X1113570Y286624D01*
X1113533Y286590D01*
X1072465Y245522D01*
X1068789Y243999D01*
X912411Y243999D01*
X908735Y245522D01*
X860190Y294067D01*
X860046Y294187D01*
X859907Y294311D01*
X859875Y294330D01*
X859847Y294354D01*
X859685Y294446D01*
X859525Y294543D01*
X859491Y294556D01*
X859458Y294574D01*
X859282Y294636D01*
X859108Y294703D01*
X859072Y294710D01*
X859037Y294723D01*
X858853Y294752D01*
X858670Y294787D01*
X858619Y294790D01*
X858596Y294793D01*
X858559Y294792D01*
X858422Y294799D01*
X824649Y294799D01*
X824512Y294787D01*
X824376Y294784D01*
X824291Y294767D01*
X824204Y294759D01*
X824072Y294723D01*
X823938Y294696D01*
X823857Y294664D01*
X823773Y294641D01*
X823650Y294582D01*
X823523Y294531D01*
X823449Y294485D01*
X823370Y294448D01*
X823259Y294367D01*
X823143Y294295D01*
X823079Y294237D01*
X823008Y294186D01*
X822914Y294087D01*
X822812Y293995D01*
X822759Y293926D01*
X822699Y293864D01*
X822623Y293750D01*
X822540Y293641D01*
X822500Y293564D01*
X822452Y293492D01*
X822398Y293366D01*
X822335Y293244D01*
X822309Y293161D01*
X822275Y293081D01*
X822244Y292948D01*
X822204Y292817D01*
X822193Y292731D01*
X822174Y292646D01*
X822167Y292510D01*
X822151Y292374D01*
X822156Y292287D01*
X822151Y292200D01*
X822169Y292065D01*
X822177Y291928D01*
X822198Y291843D01*
X822209Y291757D01*
X822251Y291627D01*
X822283Y291494D01*
X822318Y291415D01*
X822345Y291332D01*
X822409Y291211D01*
X822464Y291086D01*
X822513Y291014D01*
X822554Y290937D01*
X822639Y290829D01*
X822715Y290716D01*
X822807Y290615D01*
X822830Y290586D01*
X822848Y290570D01*
X822881Y290533D01*
X825517Y287897D01*
X827801Y282384D01*
X827801Y276416D01*
X825517Y270903D01*
X821297Y266683D01*
X815784Y264399D01*
X809816Y264399D01*
X804303Y266683D01*
X802319Y268667D01*
X802175Y268787D01*
X802036Y268911D01*
X802004Y268930D01*
X801976Y268954D01*
X801813Y269046D01*
X801654Y269143D01*
X801620Y269156D01*
X801587Y269174D01*
X801411Y269236D01*
X801237Y269303D01*
X801201Y269310D01*
X801166Y269323D01*
X800982Y269352D01*
X800798Y269387D01*
X800748Y269390D01*
X800725Y269393D01*
X800688Y269392D01*
X800551Y269399D01*
X640178Y269399D01*
X639992Y269383D01*
X639806Y269371D01*
X639770Y269363D01*
X639733Y269359D01*
X639552Y269310D01*
X639372Y269266D01*
X639338Y269251D01*
X639302Y269241D01*
X639134Y269160D01*
X638963Y269084D01*
X638933Y269064D01*
X638899Y269048D01*
X638748Y268938D01*
X638594Y268833D01*
X638556Y268799D01*
X638537Y268786D01*
X638512Y268759D01*
X638410Y268667D01*
X551765Y182022D01*
X548089Y180499D01*
X361376Y180499D01*
X361190Y180483D01*
X361004Y180471D01*
X360968Y180463D01*
X360931Y180459D01*
X360751Y180410D01*
X360570Y180366D01*
X360536Y180351D01*
X360501Y180341D01*
X360332Y180260D01*
X360162Y180184D01*
X360131Y180164D01*
X360098Y180148D01*
X359947Y180038D01*
X359792Y179933D01*
X359755Y179899D01*
X359736Y179886D01*
X359710Y179859D01*
X359609Y179767D01*
X316131Y136290D01*
X316012Y136146D01*
X315888Y136007D01*
X315869Y135975D01*
X315845Y135947D01*
X315753Y135785D01*
X315656Y135625D01*
X315642Y135591D01*
X315624Y135558D01*
X315562Y135382D01*
X315495Y135208D01*
X315488Y135172D01*
X315476Y135137D01*
X315446Y134953D01*
X315411Y134770D01*
X315409Y134719D01*
X315405Y134696D01*
X315406Y134659D01*
X315399Y134522D01*
X315399Y74235D01*
X315400Y74228D01*
X315399Y74222D01*
X315420Y74008D01*
X315439Y73790D01*
X315441Y73783D01*
X315442Y73777D01*
X315500Y73567D01*
X315558Y73359D01*
X315560Y73353D01*
X315562Y73347D01*
X315656Y73153D01*
X315751Y72956D01*
X315755Y72951D01*
X315758Y72945D01*
X315886Y72769D01*
X316013Y72594D01*
X316017Y72590D01*
X316021Y72585D01*
X316181Y72433D01*
X316335Y72285D01*
X316340Y72281D01*
X316345Y72277D01*
X316527Y72157D01*
X316707Y72038D01*
X316713Y72035D01*
X316718Y72031D01*
X316801Y71993D01*
X317528Y71265D01*
X317672Y71145D01*
X317811Y71021D01*
X317843Y71002D01*
X317871Y70978D01*
X318033Y70886D01*
X318193Y70789D01*
X318227Y70776D01*
X318260Y70758D01*
X318436Y70696D01*
X318610Y70629D01*
X318646Y70622D01*
X318681Y70609D01*
X318865Y70580D01*
X319048Y70545D01*
X319099Y70542D01*
X319122Y70539D01*
X319159Y70540D01*
X319296Y70533D01*
X329417Y70533D01*
X331255Y69771D01*
X332661Y68365D01*
X332779Y68080D01*
X332848Y67948D01*
X332909Y67813D01*
X332951Y67751D01*
X332987Y67684D01*
X333078Y67567D01*
X333161Y67445D01*
X333214Y67391D01*
X333261Y67331D01*
X333371Y67232D01*
X333475Y67127D01*
X333537Y67084D01*
X333593Y67033D01*
X333720Y66956D01*
X333841Y66871D01*
X333910Y66839D01*
X333974Y66799D01*
X334112Y66745D01*
X334246Y66683D01*
X334320Y66664D01*
X334390Y66636D01*
X334535Y66608D01*
X334679Y66571D01*
X334754Y66565D01*
X334828Y66550D01*
X334976Y66548D01*
X335124Y66537D01*
X335199Y66545D01*
X335275Y66544D01*
X335421Y66568D01*
X335568Y66583D01*
X335641Y66604D01*
X335716Y66617D01*
X335855Y66667D01*
X335997Y66708D01*
X336101Y66755D01*
X336136Y66767D01*
X336161Y66782D01*
X336223Y66809D01*
X336950Y67179D01*
X338775Y67773D01*
X338881Y67789D01*
X338881Y56130D01*
X338885Y56080D01*
X338883Y56030D01*
X338899Y55907D01*
X338893Y55877D01*
X338881Y55630D01*
X338881Y43971D01*
X338775Y43987D01*
X336950Y44581D01*
X336223Y44951D01*
X336085Y45006D01*
X335952Y45069D01*
X335879Y45089D01*
X335809Y45117D01*
X335664Y45147D01*
X335521Y45186D01*
X335445Y45192D01*
X335371Y45207D01*
X335223Y45211D01*
X335075Y45223D01*
X335000Y45216D01*
X334924Y45218D01*
X334778Y45195D01*
X334631Y45181D01*
X334558Y45160D01*
X334483Y45149D01*
X334343Y45100D01*
X334201Y45060D01*
X334133Y45027D01*
X334061Y45002D01*
X333932Y44930D01*
X333799Y44865D01*
X333738Y44820D01*
X333672Y44783D01*
X333558Y44688D01*
X333438Y44601D01*
X333386Y44546D01*
X333328Y44498D01*
X333233Y44385D01*
X333131Y44277D01*
X333089Y44214D01*
X333040Y44156D01*
X332967Y44028D01*
X332885Y43904D01*
X332836Y43801D01*
X332818Y43769D01*
X332808Y43741D01*
X332779Y43680D01*
X332661Y43395D01*
X331255Y41989D01*
X329417Y41227D01*
X308123Y41227D01*
X306285Y41989D01*
X304879Y43395D01*
X304117Y45233D01*
X304117Y51000D01*
X304113Y51050D01*
X304115Y51100D01*
X304093Y51272D01*
X304077Y51445D01*
X304064Y51493D01*
X304058Y51543D01*
X304005Y51708D01*
X303959Y51876D01*
X303937Y51921D01*
X303922Y51968D01*
X303841Y52122D01*
X303766Y52278D01*
X303736Y52319D01*
X303713Y52363D01*
X303606Y52500D01*
X303504Y52640D01*
X303468Y52675D01*
X303437Y52714D01*
X303307Y52830D01*
X303182Y52950D01*
X303140Y52977D01*
X303102Y53011D01*
X302954Y53101D01*
X302810Y53197D01*
X302764Y53217D01*
X302721Y53243D01*
X302559Y53305D01*
X302399Y53374D01*
X302351Y53385D01*
X302304Y53403D01*
X302133Y53436D01*
X301964Y53475D01*
X301914Y53478D01*
X301865Y53487D01*
X301618Y53499D01*
X288822Y53499D01*
X288636Y53483D01*
X288450Y53471D01*
X288414Y53463D01*
X288377Y53459D01*
X288197Y53410D01*
X288016Y53366D01*
X287982Y53351D01*
X287946Y53341D01*
X287778Y53260D01*
X287607Y53184D01*
X287577Y53164D01*
X287543Y53148D01*
X287392Y53038D01*
X287238Y52933D01*
X287201Y52900D01*
X287181Y52886D01*
X287156Y52859D01*
X287054Y52767D01*
X285115Y50828D01*
X285083Y50789D01*
X285046Y50756D01*
X284940Y50618D01*
X284829Y50485D01*
X284804Y50441D01*
X284773Y50402D01*
X284694Y50248D01*
X284608Y50097D01*
X284591Y50049D01*
X284568Y50005D01*
X284517Y49839D01*
X284460Y49675D01*
X284452Y49626D01*
X284437Y49578D01*
X284417Y49406D01*
X284389Y49234D01*
X284390Y49184D01*
X284384Y49134D01*
X284394Y48961D01*
X284398Y48788D01*
X284408Y48739D01*
X284411Y48688D01*
X284452Y48520D01*
X284486Y48350D01*
X284505Y48303D01*
X284516Y48254D01*
X284587Y48096D01*
X284651Y47934D01*
X284677Y47892D01*
X284698Y47846D01*
X284795Y47703D01*
X284887Y47555D01*
X284921Y47518D01*
X284949Y47477D01*
X285115Y47293D01*
X289942Y42467D01*
X289942Y40599D01*
X279400Y40599D01*
X268858Y40599D01*
X268858Y42467D01*
X273685Y47293D01*
X273717Y47332D01*
X273754Y47365D01*
X273860Y47503D01*
X273971Y47636D01*
X273996Y47680D01*
X274027Y47719D01*
X274106Y47873D01*
X274192Y48024D01*
X274209Y48072D01*
X274232Y48116D01*
X274283Y48282D01*
X274340Y48446D01*
X274348Y48495D01*
X274363Y48543D01*
X274384Y48715D01*
X274411Y48887D01*
X274410Y48937D01*
X274416Y48987D01*
X274406Y49160D01*
X274402Y49334D01*
X274392Y49383D01*
X274389Y49433D01*
X274348Y49601D01*
X274314Y49771D01*
X274295Y49818D01*
X274284Y49867D01*
X274213Y50025D01*
X274149Y50187D01*
X274122Y50229D01*
X274102Y50275D01*
X274005Y50418D01*
X273913Y50566D01*
X273879Y50603D01*
X273851Y50644D01*
X273685Y50828D01*
X271746Y52767D01*
X271602Y52887D01*
X271463Y53011D01*
X271431Y53030D01*
X271403Y53054D01*
X271240Y53146D01*
X271081Y53243D01*
X271047Y53256D01*
X271014Y53274D01*
X270839Y53336D01*
X270664Y53403D01*
X270628Y53410D01*
X270593Y53423D01*
X270409Y53452D01*
X270225Y53487D01*
X270175Y53490D01*
X270152Y53493D01*
X270115Y53492D01*
X269978Y53499D01*
X212083Y53499D01*
X211897Y53483D01*
X211711Y53471D01*
X211675Y53463D01*
X211638Y53459D01*
X211458Y53410D01*
X211277Y53366D01*
X211243Y53351D01*
X211207Y53341D01*
X211039Y53260D01*
X210869Y53184D01*
X210838Y53164D01*
X210805Y53148D01*
X210653Y53038D01*
X210499Y52933D01*
X210462Y52900D01*
X210443Y52886D01*
X210417Y52859D01*
X210316Y52767D01*
X208376Y50828D01*
X208344Y50789D01*
X208307Y50756D01*
X208201Y50618D01*
X208090Y50485D01*
X208065Y50441D01*
X208034Y50402D01*
X207955Y50248D01*
X207869Y50097D01*
X207852Y50049D01*
X207829Y50005D01*
X207779Y49839D01*
X207721Y49675D01*
X207713Y49626D01*
X207698Y49578D01*
X207678Y49406D01*
X207650Y49234D01*
X207651Y49184D01*
X207645Y49134D01*
X207656Y48961D01*
X207659Y48788D01*
X207669Y48739D01*
X207672Y48688D01*
X207713Y48520D01*
X207747Y48350D01*
X207766Y48303D01*
X207778Y48254D01*
X207848Y48096D01*
X207912Y47934D01*
X207939Y47892D01*
X207959Y47846D01*
X208056Y47703D01*
X208148Y47555D01*
X208182Y47518D01*
X208210Y47477D01*
X208376Y47293D01*
X213361Y42309D01*
X213361Y40639D01*
X203240Y40639D01*
X203190Y40635D01*
X203140Y40637D01*
X202969Y40615D01*
X202795Y40599D01*
X202747Y40586D01*
X202697Y40580D01*
X202532Y40527D01*
X202365Y40481D01*
X202319Y40459D01*
X202272Y40444D01*
X202119Y40363D01*
X201962Y40288D01*
X201921Y40258D01*
X201877Y40235D01*
X201741Y40128D01*
X201600Y40026D01*
X201565Y39990D01*
X201526Y39959D01*
X201476Y39902D01*
X201446Y39878D01*
X201330Y39748D01*
X201210Y39623D01*
X201183Y39582D01*
X201149Y39544D01*
X201059Y39396D01*
X200963Y39251D01*
X200943Y39205D01*
X200917Y39163D01*
X200855Y39001D01*
X200786Y38841D01*
X200775Y38793D01*
X200757Y38746D01*
X200724Y38575D01*
X200685Y38406D01*
X200682Y38356D01*
X200673Y38307D01*
X200661Y38060D01*
X200661Y27939D01*
X198991Y27939D01*
X194007Y32924D01*
X193968Y32956D01*
X193935Y32993D01*
X193797Y33099D01*
X193664Y33210D01*
X193621Y33235D01*
X193581Y33266D01*
X193426Y33345D01*
X193276Y33431D01*
X193228Y33448D01*
X193184Y33471D01*
X193018Y33521D01*
X192854Y33579D01*
X192805Y33587D01*
X192757Y33602D01*
X192585Y33622D01*
X192413Y33650D01*
X192363Y33649D01*
X192313Y33655D01*
X192140Y33644D01*
X191966Y33641D01*
X191917Y33631D01*
X191867Y33628D01*
X191699Y33587D01*
X191529Y33553D01*
X191482Y33534D01*
X191433Y33522D01*
X191275Y33452D01*
X191113Y33388D01*
X191071Y33361D01*
X191025Y33341D01*
X190882Y33244D01*
X190734Y33152D01*
X190697Y33118D01*
X190656Y33090D01*
X190472Y32924D01*
X183028Y25479D01*
X172572Y25479D01*
X166867Y31184D01*
X166829Y31217D01*
X166795Y31254D01*
X166658Y31360D01*
X166524Y31471D01*
X166481Y31495D01*
X166441Y31526D01*
X166287Y31606D01*
X166136Y31692D01*
X166089Y31708D01*
X166044Y31731D01*
X165879Y31782D01*
X165715Y31840D01*
X165665Y31848D01*
X165617Y31862D01*
X165445Y31883D01*
X165274Y31910D01*
X165223Y31909D01*
X165174Y31915D01*
X165000Y31905D01*
X164827Y31901D01*
X164778Y31892D01*
X164728Y31889D01*
X164559Y31847D01*
X164389Y31813D01*
X164343Y31795D01*
X164294Y31783D01*
X164135Y31712D01*
X163974Y31648D01*
X163931Y31622D01*
X163886Y31602D01*
X163742Y31504D01*
X163595Y31412D01*
X163558Y31379D01*
X163516Y31351D01*
X163333Y31184D01*
X157628Y25479D01*
X147172Y25479D01*
X141467Y31184D01*
X141429Y31217D01*
X141395Y31254D01*
X141258Y31360D01*
X141124Y31471D01*
X141081Y31495D01*
X141041Y31526D01*
X140887Y31606D01*
X140736Y31692D01*
X140689Y31708D01*
X140644Y31731D01*
X140479Y31782D01*
X140315Y31840D01*
X140265Y31848D01*
X140217Y31862D01*
X140045Y31883D01*
X139874Y31910D01*
X139823Y31909D01*
X139774Y31915D01*
X139600Y31905D01*
X139427Y31901D01*
X139378Y31892D01*
X139328Y31889D01*
X139159Y31847D01*
X138989Y31813D01*
X138943Y31795D01*
X138894Y31783D01*
X138735Y31712D01*
X138574Y31648D01*
X138531Y31622D01*
X138486Y31602D01*
X138342Y31504D01*
X138195Y31412D01*
X138158Y31379D01*
X138116Y31351D01*
X137933Y31184D01*
X132228Y25479D01*
X121772Y25479D01*
X116067Y31184D01*
X116029Y31217D01*
X115995Y31254D01*
X115858Y31360D01*
X115724Y31471D01*
X115681Y31495D01*
X115641Y31526D01*
X115487Y31606D01*
X115336Y31692D01*
X115289Y31708D01*
X115244Y31731D01*
X115079Y31782D01*
X114915Y31840D01*
X114865Y31848D01*
X114817Y31862D01*
X114645Y31883D01*
X114474Y31910D01*
X114423Y31909D01*
X114374Y31915D01*
X114200Y31905D01*
X114027Y31901D01*
X113978Y31892D01*
X113928Y31889D01*
X113759Y31847D01*
X113589Y31813D01*
X113543Y31795D01*
X113494Y31783D01*
X113335Y31712D01*
X113174Y31648D01*
X113131Y31622D01*
X113086Y31602D01*
X112942Y31504D01*
X112795Y31412D01*
X112758Y31379D01*
X112716Y31351D01*
X112533Y31184D01*
X106828Y25479D01*
X96372Y25479D01*
X88979Y32872D01*
X88979Y39078D01*
X88963Y39264D01*
X88951Y39450D01*
X88943Y39486D01*
X88939Y39523D01*
X88890Y39703D01*
X88846Y39884D01*
X88831Y39918D01*
X88821Y39954D01*
X88740Y40122D01*
X88664Y40292D01*
X88644Y40323D01*
X88628Y40356D01*
X88518Y40508D01*
X88413Y40662D01*
X88380Y40699D01*
X88366Y40718D01*
X88339Y40744D01*
X88247Y40845D01*
X82541Y46551D01*
X81399Y49308D01*
X81399Y186358D01*
X81383Y186544D01*
X81371Y186730D01*
X81363Y186766D01*
X81359Y186803D01*
X81310Y186983D01*
X81266Y187164D01*
X81251Y187198D01*
X81241Y187233D01*
X81160Y187402D01*
X81084Y187572D01*
X81064Y187603D01*
X81048Y187636D01*
X80982Y187726D01*
X80974Y187741D01*
X80938Y187788D01*
X80833Y187942D01*
X80799Y187979D01*
X80786Y187998D01*
X80759Y188024D01*
X80708Y188080D01*
X80698Y188092D01*
X80691Y188099D01*
X80667Y188125D01*
X43122Y225671D01*
X42975Y225793D01*
X42831Y225920D01*
X42804Y225936D01*
X42779Y225957D01*
X42613Y226051D01*
X42449Y226150D01*
X42419Y226162D01*
X42391Y226178D01*
X42210Y226241D01*
X42031Y226309D01*
X42000Y226315D01*
X41969Y226326D01*
X41780Y226356D01*
X41592Y226391D01*
X41560Y226391D01*
X41528Y226397D01*
X41337Y226393D01*
X41146Y226394D01*
X41114Y226388D01*
X41082Y226388D01*
X40894Y226350D01*
X40706Y226317D01*
X40675Y226306D01*
X40644Y226299D01*
X40466Y226229D01*
X40286Y226163D01*
X40259Y226146D01*
X40228Y226135D01*
X40066Y226033D01*
X39901Y225937D01*
X39877Y225915D01*
X39849Y225898D01*
X39708Y225770D01*
X39562Y225645D01*
X39542Y225620D01*
X39518Y225599D01*
X39401Y225447D01*
X39281Y225298D01*
X39265Y225270D01*
X39246Y225245D01*
X39163Y225084D01*
X39146Y225059D01*
X39134Y225031D01*
X39066Y224907D01*
X39050Y224866D01*
X39041Y224848D01*
X39030Y224814D01*
X38978Y224676D01*
X38699Y223820D01*
X37828Y222110D01*
X36700Y220557D01*
X35450Y219307D01*
X35418Y219268D01*
X35381Y219235D01*
X35275Y219097D01*
X35163Y218964D01*
X35139Y218920D01*
X35108Y218881D01*
X35029Y218726D01*
X34943Y218576D01*
X34926Y218528D01*
X34903Y218484D01*
X34852Y218318D01*
X34795Y218154D01*
X34787Y218105D01*
X34772Y218057D01*
X34751Y217885D01*
X34724Y217713D01*
X34725Y217663D01*
X34719Y217613D01*
X34729Y217440D01*
X34733Y217266D01*
X34743Y217218D01*
X34746Y217167D01*
X34787Y216998D01*
X34821Y216829D01*
X34840Y216782D01*
X34851Y216733D01*
X34922Y216575D01*
X34986Y216413D01*
X35012Y216371D01*
X35033Y216325D01*
X35130Y216182D01*
X35222Y216034D01*
X35256Y215997D01*
X35284Y215956D01*
X35450Y215772D01*
X39822Y211400D01*
X42053Y206015D01*
X42053Y200185D01*
X39822Y194800D01*
X38133Y193111D01*
X38036Y192995D01*
X37984Y192940D01*
X37967Y192916D01*
X37889Y192828D01*
X37870Y192796D01*
X37846Y192768D01*
X37754Y192606D01*
X37657Y192446D01*
X37644Y192412D01*
X37626Y192379D01*
X37564Y192203D01*
X37497Y192029D01*
X37490Y191993D01*
X37477Y191958D01*
X37448Y191774D01*
X37413Y191591D01*
X37410Y191540D01*
X37407Y191517D01*
X37408Y191480D01*
X37401Y191343D01*
X37401Y157200D01*
X37405Y157150D01*
X37403Y157100D01*
X37425Y156928D01*
X37441Y156755D01*
X37454Y156707D01*
X37460Y156657D01*
X37513Y156492D01*
X37559Y156324D01*
X37581Y156279D01*
X37596Y156232D01*
X37677Y156078D01*
X37752Y155922D01*
X37782Y155881D01*
X37805Y155837D01*
X37912Y155700D01*
X38014Y155560D01*
X38050Y155525D01*
X38081Y155486D01*
X38211Y155370D01*
X38336Y155250D01*
X38378Y155223D01*
X38416Y155189D01*
X38564Y155099D01*
X38708Y155003D01*
X38754Y154983D01*
X38797Y154957D01*
X38959Y154895D01*
X39119Y154826D01*
X39167Y154815D01*
X39214Y154797D01*
X39385Y154764D01*
X39554Y154725D01*
X39604Y154722D01*
X39653Y154713D01*
X39900Y154701D01*
X41084Y154701D01*
X46597Y152417D01*
X50817Y148197D01*
X53101Y142684D01*
X53101Y136716D01*
X50817Y131203D01*
X46597Y126983D01*
X41084Y124699D01*
X35116Y124699D01*
X29603Y126983D01*
X25383Y131203D01*
X23099Y136716D01*
X23099Y139522D01*
X23083Y139708D01*
X23071Y139894D01*
X23063Y139930D01*
X23059Y139967D01*
X23010Y140148D01*
X22966Y140328D01*
X22951Y140362D01*
X22941Y140398D01*
X22860Y140566D01*
X22784Y140737D01*
X22764Y140767D01*
X22748Y140801D01*
X22638Y140952D01*
X22533Y141106D01*
X22499Y141144D01*
X22486Y141163D01*
X22459Y141188D01*
X22367Y141290D01*
X18922Y144735D01*
X17399Y148411D01*
X17399Y191343D01*
X17383Y191529D01*
X17371Y191715D01*
X17363Y191751D01*
X17359Y191788D01*
X17310Y191968D01*
X17266Y192149D01*
X17251Y192183D01*
X17241Y192219D01*
X17160Y192387D01*
X17084Y192558D01*
X17064Y192588D01*
X17048Y192622D01*
X16938Y192773D01*
X16833Y192927D01*
X16800Y192964D01*
X16786Y192984D01*
X16759Y193009D01*
X16687Y193088D01*
X16685Y193091D01*
X16684Y193092D01*
X16667Y193111D01*
X15697Y194081D01*
X15592Y194168D01*
X15494Y194263D01*
X15421Y194311D01*
X15354Y194367D01*
X15235Y194435D01*
X15122Y194510D01*
X15042Y194545D01*
X14966Y194588D01*
X14837Y194633D01*
X14711Y194687D01*
X14627Y194707D01*
X14545Y194736D01*
X14410Y194758D01*
X14276Y194789D01*
X14190Y194793D01*
X14104Y194807D01*
X13967Y194804D01*
X13830Y194811D01*
X13744Y194799D01*
X13657Y194798D01*
X13523Y194771D01*
X13387Y194753D01*
X13304Y194727D01*
X13219Y194709D01*
X13092Y194659D01*
X12962Y194617D01*
X12885Y194577D01*
X12804Y194545D01*
X12688Y194472D01*
X12567Y194408D01*
X12498Y194354D01*
X12425Y194309D01*
X12323Y194217D01*
X12216Y194132D01*
X12158Y194067D01*
X12094Y194009D01*
X12010Y193900D01*
X11919Y193798D01*
X11874Y193724D01*
X11821Y193655D01*
X11758Y193533D01*
X11687Y193416D01*
X11656Y193335D01*
X11616Y193258D01*
X11576Y193127D01*
X11527Y192999D01*
X11510Y192914D01*
X11485Y192831D01*
X11469Y192695D01*
X11443Y192561D01*
X11436Y192424D01*
X11432Y192387D01*
X11433Y192364D01*
X11431Y192313D01*
X11431Y13930D01*
X11435Y13880D01*
X11433Y13830D01*
X11455Y13658D01*
X11471Y13485D01*
X11484Y13437D01*
X11490Y13387D01*
X11543Y13222D01*
X11589Y13054D01*
X11611Y13009D01*
X11626Y12962D01*
X11707Y12808D01*
X11782Y12652D01*
X11812Y12611D01*
X11835Y12567D01*
X11942Y12430D01*
X12044Y12290D01*
X12080Y12255D01*
X12111Y12216D01*
X12241Y12100D01*
X12366Y11980D01*
X12408Y11953D01*
X12446Y11919D01*
X12594Y11829D01*
X12738Y11733D01*
X12784Y11713D01*
X12827Y11687D01*
X12989Y11625D01*
X13149Y11556D01*
X13197Y11545D01*
X13244Y11527D01*
X13415Y11494D01*
X13584Y11455D01*
X13634Y11452D01*
X13683Y11443D01*
X13930Y11431D01*
X1136070Y11431D01*
X1136120Y11435D01*
G37*
G36*
X190600Y69695D02*
X190600Y69695D01*
X190773Y69699D01*
X190822Y69708D01*
X190872Y69711D01*
X191041Y69753D01*
X191211Y69787D01*
X191257Y69805D01*
X191306Y69817D01*
X191465Y69888D01*
X191626Y69952D01*
X191669Y69978D01*
X191714Y69998D01*
X191858Y70096D01*
X192005Y70188D01*
X192042Y70221D01*
X192084Y70249D01*
X192267Y70416D01*
X197972Y76121D01*
X208428Y76121D01*
X210316Y74233D01*
X210459Y74113D01*
X210598Y73989D01*
X210630Y73970D01*
X210658Y73946D01*
X210820Y73854D01*
X210980Y73757D01*
X211015Y73744D01*
X211047Y73726D01*
X211223Y73664D01*
X211397Y73597D01*
X211433Y73590D01*
X211468Y73577D01*
X211652Y73548D01*
X211836Y73513D01*
X211886Y73510D01*
X211909Y73507D01*
X211946Y73508D01*
X212083Y73501D01*
X269978Y73501D01*
X270164Y73517D01*
X270350Y73529D01*
X270386Y73537D01*
X270423Y73541D01*
X270604Y73590D01*
X270784Y73634D01*
X270818Y73649D01*
X270854Y73659D01*
X271022Y73740D01*
X271193Y73816D01*
X271223Y73836D01*
X271257Y73852D01*
X271408Y73962D01*
X271562Y74067D01*
X271600Y74101D01*
X271619Y74114D01*
X271644Y74141D01*
X271746Y74233D01*
X274015Y76502D01*
X284785Y76502D01*
X287054Y74233D01*
X287198Y74113D01*
X287337Y73989D01*
X287369Y73970D01*
X287397Y73946D01*
X287559Y73854D01*
X287719Y73757D01*
X287753Y73744D01*
X287786Y73726D01*
X287962Y73664D01*
X288136Y73597D01*
X288172Y73590D01*
X288207Y73577D01*
X288391Y73548D01*
X288575Y73513D01*
X288625Y73510D01*
X288648Y73507D01*
X288685Y73508D01*
X288822Y73501D01*
X292899Y73501D01*
X292948Y73505D01*
X292998Y73503D01*
X293170Y73525D01*
X293343Y73541D01*
X293392Y73554D01*
X293441Y73560D01*
X293606Y73613D01*
X293774Y73659D01*
X293819Y73681D01*
X293867Y73696D01*
X294020Y73777D01*
X294177Y73852D01*
X294217Y73882D01*
X294262Y73905D01*
X294398Y74012D01*
X294539Y74114D01*
X294573Y74150D01*
X294613Y74181D01*
X294728Y74311D01*
X294848Y74436D01*
X294876Y74478D01*
X294909Y74516D01*
X294999Y74664D01*
X295095Y74808D01*
X295115Y74854D01*
X295141Y74897D01*
X295204Y75059D01*
X295272Y75219D01*
X295284Y75267D01*
X295302Y75314D01*
X295334Y75485D01*
X295374Y75654D01*
X295376Y75704D01*
X295386Y75753D01*
X295398Y76000D01*
X295398Y127200D01*
X295393Y127250D01*
X295396Y127300D01*
X295373Y127472D01*
X295358Y127645D01*
X295345Y127693D01*
X295338Y127743D01*
X295285Y127908D01*
X295239Y128076D01*
X295218Y128121D01*
X295203Y128168D01*
X295121Y128322D01*
X295046Y128478D01*
X295017Y128519D01*
X294993Y128563D01*
X294886Y128700D01*
X294784Y128840D01*
X294748Y128875D01*
X294717Y128914D01*
X294587Y129030D01*
X294462Y129150D01*
X294420Y129177D01*
X294383Y129211D01*
X294235Y129301D01*
X294090Y129397D01*
X294044Y129417D01*
X294001Y129443D01*
X293839Y129505D01*
X293680Y129574D01*
X293631Y129585D01*
X293584Y129603D01*
X293413Y129636D01*
X293245Y129675D01*
X293195Y129678D01*
X293146Y129687D01*
X292899Y129699D01*
X266249Y129699D01*
X266063Y129683D01*
X265877Y129671D01*
X265841Y129663D01*
X265804Y129659D01*
X265624Y129610D01*
X265443Y129566D01*
X265409Y129551D01*
X265373Y129541D01*
X265204Y129460D01*
X265034Y129384D01*
X265004Y129364D01*
X264970Y129348D01*
X264819Y129238D01*
X264665Y129133D01*
X264628Y129100D01*
X264608Y129086D01*
X264583Y129059D01*
X264481Y128967D01*
X262497Y126983D01*
X256984Y124699D01*
X251016Y124699D01*
X245503Y126983D01*
X241283Y131203D01*
X238999Y136716D01*
X238999Y142684D01*
X241283Y148197D01*
X245503Y152417D01*
X251016Y154701D01*
X256984Y154701D01*
X262497Y152417D01*
X264481Y150433D01*
X264625Y150313D01*
X264764Y150189D01*
X264796Y150170D01*
X264824Y150146D01*
X264987Y150054D01*
X265146Y149957D01*
X265180Y149944D01*
X265213Y149926D01*
X265389Y149864D01*
X265563Y149797D01*
X265599Y149790D01*
X265634Y149777D01*
X265818Y149748D01*
X266002Y149713D01*
X266052Y149710D01*
X266075Y149707D01*
X266112Y149708D01*
X266249Y149701D01*
X300221Y149701D01*
X300407Y149717D01*
X300593Y149729D01*
X300629Y149737D01*
X300666Y149741D01*
X300846Y149790D01*
X301027Y149834D01*
X301061Y149849D01*
X301096Y149859D01*
X301265Y149940D01*
X301435Y150016D01*
X301466Y150036D01*
X301499Y150052D01*
X301650Y150162D01*
X301805Y150267D01*
X301842Y150301D01*
X301861Y150314D01*
X301887Y150341D01*
X301988Y150433D01*
X339028Y187473D01*
X339116Y187578D01*
X339211Y187676D01*
X339259Y187749D01*
X339314Y187816D01*
X339382Y187934D01*
X339458Y188048D01*
X339492Y188128D01*
X339535Y188204D01*
X339581Y188333D01*
X339635Y188459D01*
X339654Y188543D01*
X339683Y188625D01*
X339705Y188761D01*
X339736Y188894D01*
X339740Y188980D01*
X339754Y189066D01*
X339751Y189203D01*
X339758Y189340D01*
X339747Y189426D01*
X339745Y189513D01*
X339718Y189647D01*
X339700Y189783D01*
X339674Y189866D01*
X339657Y189951D01*
X339606Y190078D01*
X339565Y190208D01*
X339524Y190285D01*
X339492Y190366D01*
X339420Y190482D01*
X339356Y190603D01*
X339302Y190671D01*
X339256Y190745D01*
X339164Y190847D01*
X339080Y190954D01*
X339014Y191012D01*
X338956Y191076D01*
X338848Y191160D01*
X338745Y191251D01*
X338671Y191296D01*
X338602Y191349D01*
X338480Y191412D01*
X338364Y191483D01*
X338283Y191514D01*
X338205Y191554D01*
X338075Y191594D01*
X337947Y191643D01*
X337861Y191660D01*
X337778Y191685D01*
X337643Y191701D01*
X337508Y191727D01*
X337371Y191734D01*
X337335Y191738D01*
X337311Y191737D01*
X337261Y191739D01*
X337179Y191739D01*
X331034Y193386D01*
X325525Y196567D01*
X321027Y201065D01*
X317846Y206574D01*
X316199Y212719D01*
X316199Y219081D01*
X317846Y225226D01*
X321027Y230735D01*
X325525Y235233D01*
X331034Y238414D01*
X337179Y240061D01*
X343541Y240061D01*
X349686Y238414D01*
X355195Y235233D01*
X359693Y230735D01*
X362874Y225226D01*
X364521Y219081D01*
X364521Y212719D01*
X362874Y206574D01*
X361532Y204250D01*
X361518Y204219D01*
X361500Y204192D01*
X361424Y204017D01*
X361344Y203844D01*
X361336Y203812D01*
X361323Y203781D01*
X361279Y203596D01*
X361231Y203412D01*
X361229Y203379D01*
X361221Y203346D01*
X361212Y203157D01*
X361197Y202967D01*
X361201Y202933D01*
X361199Y202900D01*
X361224Y202712D01*
X361243Y202522D01*
X361253Y202490D01*
X361257Y202457D01*
X361315Y202276D01*
X361367Y202093D01*
X361382Y202063D01*
X361392Y202032D01*
X361482Y201863D01*
X361566Y201693D01*
X361586Y201666D01*
X361602Y201637D01*
X361719Y201487D01*
X361833Y201335D01*
X361857Y201312D01*
X361878Y201286D01*
X362020Y201159D01*
X362159Y201030D01*
X362187Y201012D01*
X362212Y200989D01*
X362375Y200890D01*
X362534Y200787D01*
X362565Y200775D01*
X362594Y200757D01*
X362771Y200689D01*
X362947Y200616D01*
X362979Y200609D01*
X363010Y200597D01*
X363197Y200561D01*
X363383Y200520D01*
X363416Y200519D01*
X363449Y200513D01*
X363696Y200501D01*
X539054Y200501D01*
X539190Y200513D01*
X539327Y200516D01*
X539412Y200533D01*
X539499Y200541D01*
X539631Y200577D01*
X539765Y200604D01*
X539846Y200636D01*
X539930Y200659D01*
X540053Y200718D01*
X540180Y200769D01*
X540254Y200815D01*
X540332Y200852D01*
X540443Y200933D01*
X540559Y201005D01*
X540624Y201063D01*
X540694Y201114D01*
X540789Y201213D01*
X540890Y201305D01*
X540944Y201374D01*
X541004Y201436D01*
X541079Y201550D01*
X541163Y201659D01*
X541203Y201736D01*
X541251Y201808D01*
X541305Y201934D01*
X541368Y202056D01*
X541393Y202139D01*
X541428Y202219D01*
X541459Y202352D01*
X541499Y202483D01*
X541509Y202569D01*
X541529Y202654D01*
X541536Y202790D01*
X541552Y202926D01*
X541547Y203013D01*
X541551Y203100D01*
X541534Y203235D01*
X541525Y203372D01*
X541505Y203457D01*
X541494Y203543D01*
X541452Y203673D01*
X541420Y203806D01*
X541384Y203885D01*
X541358Y203968D01*
X541294Y204089D01*
X541238Y204214D01*
X541190Y204286D01*
X541149Y204363D01*
X541064Y204471D01*
X540987Y204584D01*
X540896Y204685D01*
X540873Y204714D01*
X540855Y204730D01*
X540821Y204767D01*
X534495Y211093D01*
X534495Y220707D01*
X535367Y221579D01*
X535487Y221722D01*
X535611Y221862D01*
X535630Y221893D01*
X535654Y221922D01*
X535746Y222084D01*
X535843Y222243D01*
X535856Y222278D01*
X535874Y222310D01*
X535936Y222486D01*
X536003Y222660D01*
X536010Y222696D01*
X536023Y222731D01*
X536052Y222916D01*
X536087Y223099D01*
X536090Y223149D01*
X536093Y223172D01*
X536092Y223209D01*
X536099Y223346D01*
X536099Y233854D01*
X536083Y234040D01*
X536071Y234226D01*
X536063Y234262D01*
X536059Y234299D01*
X536010Y234479D01*
X535966Y234660D01*
X535951Y234694D01*
X535941Y234730D01*
X535899Y234817D01*
X535894Y234832D01*
X535868Y234881D01*
X535860Y234898D01*
X535784Y235068D01*
X535764Y235099D01*
X535748Y235132D01*
X535701Y235197D01*
X535685Y235227D01*
X535624Y235304D01*
X535533Y235438D01*
X535499Y235475D01*
X535486Y235494D01*
X535459Y235520D01*
X535425Y235557D01*
X535409Y235578D01*
X535396Y235589D01*
X535367Y235621D01*
X534495Y236493D01*
X534495Y237726D01*
X534479Y237912D01*
X534467Y238098D01*
X534459Y238134D01*
X534455Y238171D01*
X534406Y238352D01*
X534362Y238532D01*
X534347Y238566D01*
X534337Y238602D01*
X534256Y238770D01*
X534180Y238941D01*
X534160Y238971D01*
X534144Y239005D01*
X534034Y239156D01*
X533929Y239310D01*
X533895Y239348D01*
X533882Y239367D01*
X533855Y239392D01*
X533763Y239494D01*
X517290Y255967D01*
X517146Y256087D01*
X517007Y256211D01*
X516975Y256230D01*
X516947Y256254D01*
X516785Y256346D01*
X516625Y256443D01*
X516591Y256456D01*
X516558Y256474D01*
X516382Y256536D01*
X516208Y256603D01*
X516172Y256610D01*
X516137Y256623D01*
X515953Y256652D01*
X515770Y256687D01*
X515719Y256690D01*
X515696Y256693D01*
X515659Y256692D01*
X515522Y256699D01*
X366311Y256699D01*
X362635Y258222D01*
X359471Y261386D01*
X359470Y261387D01*
X326890Y293967D01*
X326746Y294087D01*
X326607Y294211D01*
X326575Y294230D01*
X326547Y294254D01*
X326385Y294346D01*
X326225Y294443D01*
X326191Y294456D01*
X326158Y294474D01*
X325982Y294536D01*
X325808Y294603D01*
X325772Y294610D01*
X325737Y294623D01*
X325553Y294652D01*
X325370Y294687D01*
X325319Y294690D01*
X325296Y294693D01*
X325259Y294692D01*
X325122Y294699D01*
X286857Y294699D01*
X286670Y294683D01*
X286484Y294671D01*
X286449Y294663D01*
X286412Y294659D01*
X286231Y294610D01*
X286050Y294566D01*
X286017Y294551D01*
X285981Y294541D01*
X285812Y294460D01*
X285642Y294384D01*
X285612Y294364D01*
X285578Y294348D01*
X285427Y294238D01*
X285273Y294133D01*
X285235Y294099D01*
X285216Y294086D01*
X285191Y294059D01*
X285089Y293967D01*
X284889Y293767D01*
X284857Y293729D01*
X284820Y293695D01*
X284714Y293558D01*
X284603Y293424D01*
X284578Y293381D01*
X284548Y293341D01*
X284468Y293187D01*
X284382Y293036D01*
X284366Y292989D01*
X284343Y292944D01*
X284292Y292779D01*
X284234Y292614D01*
X284226Y292565D01*
X284211Y292517D01*
X284191Y292345D01*
X284163Y292173D01*
X284164Y292123D01*
X284158Y292074D01*
X284169Y291901D01*
X284172Y291727D01*
X284182Y291678D01*
X284185Y291628D01*
X284226Y291459D01*
X284261Y291289D01*
X284279Y291243D01*
X284291Y291194D01*
X284361Y291035D01*
X284425Y290874D01*
X284452Y290831D01*
X284472Y290786D01*
X284570Y290642D01*
X284662Y290495D01*
X284695Y290457D01*
X284723Y290416D01*
X284889Y290233D01*
X287522Y287600D01*
X289753Y282215D01*
X289753Y276385D01*
X287522Y271000D01*
X284889Y268367D01*
X284857Y268329D01*
X284820Y268295D01*
X284714Y268158D01*
X284603Y268024D01*
X284578Y267981D01*
X284548Y267941D01*
X284468Y267787D01*
X284382Y267636D01*
X284366Y267589D01*
X284343Y267544D01*
X284292Y267379D01*
X284234Y267215D01*
X284226Y267165D01*
X284211Y267117D01*
X284191Y266945D01*
X284163Y266774D01*
X284164Y266723D01*
X284158Y266674D01*
X284169Y266500D01*
X284172Y266327D01*
X284182Y266278D01*
X284185Y266228D01*
X284226Y266059D01*
X284261Y265889D01*
X284279Y265843D01*
X284291Y265794D01*
X284361Y265635D01*
X284425Y265474D01*
X284452Y265431D01*
X284472Y265386D01*
X284570Y265242D01*
X284662Y265095D01*
X284695Y265058D01*
X284723Y265016D01*
X284889Y264833D01*
X287522Y262200D01*
X289753Y256815D01*
X289753Y250985D01*
X287522Y245600D01*
X284889Y242967D01*
X284857Y242929D01*
X284820Y242895D01*
X284714Y242758D01*
X284603Y242624D01*
X284578Y242581D01*
X284548Y242541D01*
X284468Y242387D01*
X284382Y242236D01*
X284366Y242189D01*
X284343Y242144D01*
X284292Y241979D01*
X284234Y241815D01*
X284226Y241765D01*
X284211Y241717D01*
X284191Y241545D01*
X284163Y241374D01*
X284164Y241323D01*
X284158Y241274D01*
X284169Y241100D01*
X284172Y240927D01*
X284182Y240878D01*
X284185Y240828D01*
X284226Y240659D01*
X284261Y240489D01*
X284279Y240443D01*
X284291Y240394D01*
X284361Y240235D01*
X284425Y240074D01*
X284452Y240031D01*
X284472Y239986D01*
X284570Y239842D01*
X284662Y239695D01*
X284695Y239658D01*
X284723Y239616D01*
X284889Y239433D01*
X287522Y236800D01*
X289753Y231415D01*
X289753Y225585D01*
X287522Y220200D01*
X284889Y217567D01*
X284857Y217529D01*
X284820Y217495D01*
X284714Y217358D01*
X284603Y217224D01*
X284578Y217181D01*
X284548Y217141D01*
X284468Y216987D01*
X284382Y216836D01*
X284366Y216789D01*
X284343Y216744D01*
X284292Y216579D01*
X284234Y216415D01*
X284226Y216365D01*
X284211Y216317D01*
X284191Y216145D01*
X284163Y215974D01*
X284164Y215923D01*
X284158Y215874D01*
X284169Y215700D01*
X284172Y215527D01*
X284182Y215478D01*
X284185Y215428D01*
X284226Y215259D01*
X284261Y215089D01*
X284279Y215043D01*
X284291Y214994D01*
X284361Y214835D01*
X284425Y214674D01*
X284452Y214631D01*
X284472Y214586D01*
X284570Y214442D01*
X284662Y214295D01*
X284695Y214258D01*
X284723Y214216D01*
X284889Y214033D01*
X287522Y211400D01*
X289753Y206015D01*
X289753Y200185D01*
X287522Y194800D01*
X283400Y190678D01*
X278015Y188447D01*
X272185Y188447D01*
X266800Y190678D01*
X265111Y192367D01*
X264968Y192487D01*
X264828Y192611D01*
X264796Y192630D01*
X264768Y192654D01*
X264605Y192746D01*
X264446Y192843D01*
X264412Y192856D01*
X264380Y192874D01*
X264203Y192936D01*
X264029Y193003D01*
X263993Y193010D01*
X263958Y193023D01*
X263774Y193052D01*
X263591Y193087D01*
X263540Y193090D01*
X263517Y193093D01*
X263480Y193092D01*
X263343Y193099D01*
X252111Y193099D01*
X248435Y194622D01*
X230190Y212867D01*
X230046Y212987D01*
X229907Y213111D01*
X229875Y213130D01*
X229847Y213154D01*
X229685Y213246D01*
X229525Y213343D01*
X229491Y213356D01*
X229458Y213374D01*
X229282Y213436D01*
X229108Y213503D01*
X229072Y213510D01*
X229037Y213523D01*
X228853Y213552D01*
X228670Y213587D01*
X228619Y213590D01*
X228596Y213593D01*
X228559Y213592D01*
X228422Y213599D01*
X225616Y213599D01*
X220103Y215883D01*
X215883Y220103D01*
X213599Y225616D01*
X213599Y231584D01*
X215883Y237097D01*
X220103Y241317D01*
X225616Y243601D01*
X231584Y243601D01*
X237097Y241317D01*
X241317Y237097D01*
X243601Y231584D01*
X243601Y228778D01*
X243617Y228592D01*
X243629Y228406D01*
X243637Y228370D01*
X243641Y228333D01*
X243690Y228152D01*
X243734Y227972D01*
X243749Y227938D01*
X243759Y227902D01*
X243840Y227734D01*
X243916Y227563D01*
X243936Y227533D01*
X243952Y227499D01*
X244062Y227348D01*
X244167Y227194D01*
X244201Y227156D01*
X244214Y227137D01*
X244241Y227112D01*
X244333Y227010D01*
X257510Y213833D01*
X257654Y213713D01*
X257793Y213589D01*
X257825Y213570D01*
X257853Y213546D01*
X258015Y213454D01*
X258175Y213357D01*
X258209Y213344D01*
X258242Y213326D01*
X258418Y213264D01*
X258592Y213197D01*
X258628Y213190D01*
X258663Y213177D01*
X258847Y213148D01*
X259030Y213113D01*
X259081Y213110D01*
X259104Y213107D01*
X259141Y213108D01*
X259278Y213101D01*
X263343Y213101D01*
X263529Y213117D01*
X263715Y213129D01*
X263751Y213137D01*
X263788Y213141D01*
X263969Y213190D01*
X264149Y213234D01*
X264183Y213249D01*
X264219Y213259D01*
X264387Y213340D01*
X264558Y213416D01*
X264588Y213436D01*
X264622Y213452D01*
X264773Y213562D01*
X264927Y213667D01*
X264965Y213701D01*
X264984Y213714D01*
X265009Y213741D01*
X265111Y213833D01*
X265311Y214033D01*
X265343Y214071D01*
X265380Y214105D01*
X265486Y214242D01*
X265597Y214376D01*
X265622Y214419D01*
X265652Y214459D01*
X265732Y214613D01*
X265818Y214764D01*
X265834Y214811D01*
X265857Y214856D01*
X265908Y215021D01*
X265966Y215185D01*
X265974Y215235D01*
X265989Y215283D01*
X266009Y215455D01*
X266037Y215626D01*
X266036Y215676D01*
X266042Y215726D01*
X266031Y215900D01*
X266028Y216073D01*
X266018Y216122D01*
X266015Y216172D01*
X265974Y216341D01*
X265939Y216511D01*
X265921Y216557D01*
X265909Y216606D01*
X265839Y216765D01*
X265775Y216926D01*
X265748Y216969D01*
X265728Y217014D01*
X265630Y217158D01*
X265538Y217305D01*
X265505Y217342D01*
X265477Y217384D01*
X265311Y217567D01*
X262678Y220200D01*
X260447Y225585D01*
X260447Y231415D01*
X262678Y236800D01*
X265311Y239433D01*
X265343Y239471D01*
X265380Y239505D01*
X265486Y239643D01*
X265597Y239776D01*
X265622Y239819D01*
X265652Y239859D01*
X265732Y240013D01*
X265818Y240164D01*
X265834Y240211D01*
X265857Y240256D01*
X265908Y240421D01*
X265966Y240585D01*
X265974Y240635D01*
X265989Y240683D01*
X266009Y240855D01*
X266037Y241026D01*
X266036Y241076D01*
X266042Y241126D01*
X266031Y241300D01*
X266028Y241473D01*
X266018Y241522D01*
X266015Y241572D01*
X265974Y241741D01*
X265939Y241911D01*
X265921Y241957D01*
X265909Y242006D01*
X265839Y242165D01*
X265775Y242326D01*
X265748Y242369D01*
X265728Y242414D01*
X265630Y242558D01*
X265539Y242705D01*
X265505Y242742D01*
X265477Y242784D01*
X265311Y242967D01*
X262678Y245600D01*
X260447Y250985D01*
X260447Y256815D01*
X262678Y262200D01*
X265311Y264833D01*
X265343Y264871D01*
X265380Y264905D01*
X265486Y265043D01*
X265597Y265176D01*
X265622Y265219D01*
X265652Y265259D01*
X265732Y265413D01*
X265818Y265564D01*
X265834Y265611D01*
X265857Y265656D01*
X265908Y265821D01*
X265966Y265985D01*
X265974Y266035D01*
X265989Y266083D01*
X266009Y266254D01*
X266037Y266426D01*
X266036Y266476D01*
X266042Y266526D01*
X266031Y266700D01*
X266028Y266873D01*
X266018Y266922D01*
X266015Y266972D01*
X265974Y267141D01*
X265939Y267311D01*
X265921Y267357D01*
X265909Y267406D01*
X265839Y267565D01*
X265775Y267726D01*
X265748Y267769D01*
X265728Y267814D01*
X265630Y267958D01*
X265539Y268105D01*
X265505Y268142D01*
X265477Y268184D01*
X265311Y268367D01*
X262678Y271000D01*
X260447Y276385D01*
X260447Y282215D01*
X262678Y287600D01*
X265311Y290233D01*
X265343Y290271D01*
X265380Y290305D01*
X265486Y290443D01*
X265597Y290576D01*
X265622Y290619D01*
X265652Y290659D01*
X265732Y290813D01*
X265818Y290964D01*
X265834Y291011D01*
X265857Y291056D01*
X265908Y291221D01*
X265966Y291385D01*
X265974Y291435D01*
X265989Y291483D01*
X266009Y291655D01*
X266037Y291826D01*
X266036Y291876D01*
X266042Y291926D01*
X266031Y292100D01*
X266028Y292273D01*
X266018Y292322D01*
X266015Y292372D01*
X265974Y292541D01*
X265939Y292711D01*
X265921Y292757D01*
X265909Y292806D01*
X265839Y292965D01*
X265775Y293126D01*
X265748Y293168D01*
X265728Y293214D01*
X265630Y293358D01*
X265539Y293505D01*
X265505Y293542D01*
X265477Y293584D01*
X265311Y293767D01*
X262678Y296400D01*
X260447Y301785D01*
X260447Y307615D01*
X262678Y313000D01*
X265311Y315633D01*
X265343Y315671D01*
X265380Y315705D01*
X265486Y315843D01*
X265597Y315976D01*
X265622Y316019D01*
X265652Y316059D01*
X265732Y316213D01*
X265818Y316364D01*
X265834Y316411D01*
X265857Y316456D01*
X265908Y316621D01*
X265966Y316785D01*
X265974Y316835D01*
X265989Y316883D01*
X266009Y317055D01*
X266037Y317226D01*
X266036Y317276D01*
X266042Y317326D01*
X266031Y317500D01*
X266028Y317673D01*
X266018Y317722D01*
X266015Y317772D01*
X265974Y317941D01*
X265939Y318111D01*
X265921Y318157D01*
X265909Y318206D01*
X265839Y318365D01*
X265775Y318526D01*
X265748Y318569D01*
X265728Y318614D01*
X265630Y318758D01*
X265539Y318905D01*
X265505Y318942D01*
X265477Y318984D01*
X265311Y319167D01*
X262678Y321800D01*
X260447Y327185D01*
X260447Y333015D01*
X262678Y338400D01*
X265311Y341033D01*
X265343Y341071D01*
X265380Y341105D01*
X265486Y341243D01*
X265597Y341376D01*
X265622Y341419D01*
X265652Y341459D01*
X265732Y341613D01*
X265818Y341764D01*
X265834Y341811D01*
X265857Y341856D01*
X265908Y342021D01*
X265966Y342185D01*
X265974Y342235D01*
X265989Y342283D01*
X266009Y342455D01*
X266037Y342626D01*
X266036Y342676D01*
X266042Y342726D01*
X266031Y342900D01*
X266028Y343073D01*
X266018Y343122D01*
X266015Y343172D01*
X265974Y343341D01*
X265939Y343511D01*
X265921Y343557D01*
X265909Y343606D01*
X265839Y343765D01*
X265775Y343926D01*
X265748Y343969D01*
X265728Y344014D01*
X265630Y344158D01*
X265539Y344305D01*
X265505Y344342D01*
X265477Y344384D01*
X265311Y344567D01*
X262678Y347200D01*
X260447Y352585D01*
X260447Y358415D01*
X262678Y363800D01*
X265311Y366433D01*
X265343Y366471D01*
X265380Y366505D01*
X265486Y366643D01*
X265597Y366776D01*
X265622Y366819D01*
X265652Y366859D01*
X265732Y367013D01*
X265818Y367164D01*
X265834Y367211D01*
X265857Y367256D01*
X265908Y367421D01*
X265966Y367585D01*
X265974Y367635D01*
X265989Y367683D01*
X266009Y367855D01*
X266037Y368026D01*
X266036Y368076D01*
X266042Y368126D01*
X266031Y368300D01*
X266028Y368473D01*
X266018Y368522D01*
X266015Y368572D01*
X265974Y368741D01*
X265939Y368911D01*
X265921Y368957D01*
X265909Y369006D01*
X265839Y369165D01*
X265775Y369326D01*
X265748Y369369D01*
X265728Y369414D01*
X265630Y369558D01*
X265539Y369705D01*
X265505Y369742D01*
X265477Y369784D01*
X265311Y369967D01*
X262678Y372600D01*
X260447Y377985D01*
X260447Y383815D01*
X262678Y389200D01*
X265311Y391833D01*
X265343Y391871D01*
X265380Y391905D01*
X265486Y392043D01*
X265597Y392176D01*
X265622Y392219D01*
X265652Y392259D01*
X265732Y392413D01*
X265818Y392564D01*
X265834Y392611D01*
X265857Y392656D01*
X265908Y392821D01*
X265966Y392985D01*
X265974Y393035D01*
X265989Y393083D01*
X266009Y393255D01*
X266037Y393426D01*
X266036Y393476D01*
X266042Y393526D01*
X266031Y393700D01*
X266028Y393873D01*
X266018Y393922D01*
X266015Y393972D01*
X265974Y394141D01*
X265939Y394311D01*
X265921Y394357D01*
X265909Y394406D01*
X265839Y394565D01*
X265775Y394726D01*
X265748Y394768D01*
X265728Y394814D01*
X265630Y394958D01*
X265539Y395105D01*
X265505Y395142D01*
X265477Y395184D01*
X265311Y395367D01*
X262678Y398000D01*
X260447Y403385D01*
X260447Y409215D01*
X262678Y414600D01*
X265311Y417233D01*
X265343Y417271D01*
X265380Y417305D01*
X265486Y417443D01*
X265597Y417576D01*
X265622Y417619D01*
X265652Y417659D01*
X265732Y417813D01*
X265818Y417964D01*
X265834Y418011D01*
X265857Y418056D01*
X265908Y418221D01*
X265966Y418385D01*
X265974Y418435D01*
X265989Y418483D01*
X266009Y418655D01*
X266037Y418826D01*
X266036Y418876D01*
X266042Y418926D01*
X266031Y419099D01*
X266028Y419273D01*
X266018Y419322D01*
X266015Y419372D01*
X265974Y419541D01*
X265939Y419711D01*
X265921Y419757D01*
X265909Y419806D01*
X265839Y419965D01*
X265775Y420126D01*
X265748Y420168D01*
X265728Y420214D01*
X265630Y420358D01*
X265539Y420505D01*
X265505Y420542D01*
X265477Y420584D01*
X265311Y420767D01*
X262678Y423400D01*
X260447Y428785D01*
X260447Y434615D01*
X262678Y440000D01*
X265311Y442633D01*
X265343Y442671D01*
X265380Y442705D01*
X265486Y442842D01*
X265597Y442976D01*
X265622Y443019D01*
X265652Y443059D01*
X265732Y443213D01*
X265818Y443364D01*
X265834Y443411D01*
X265857Y443456D01*
X265908Y443621D01*
X265966Y443785D01*
X265974Y443835D01*
X265989Y443883D01*
X266009Y444055D01*
X266037Y444226D01*
X266036Y444276D01*
X266042Y444326D01*
X266031Y444500D01*
X266028Y444673D01*
X266018Y444722D01*
X266015Y444772D01*
X265974Y444941D01*
X265939Y445111D01*
X265921Y445157D01*
X265909Y445206D01*
X265839Y445365D01*
X265775Y445526D01*
X265748Y445568D01*
X265728Y445614D01*
X265630Y445758D01*
X265539Y445905D01*
X265505Y445942D01*
X265477Y445984D01*
X265311Y446167D01*
X262678Y448800D01*
X260447Y454185D01*
X260447Y460015D01*
X262678Y465400D01*
X265311Y468033D01*
X265343Y468071D01*
X265380Y468105D01*
X265486Y468243D01*
X265597Y468376D01*
X265622Y468419D01*
X265652Y468459D01*
X265732Y468613D01*
X265818Y468764D01*
X265834Y468811D01*
X265857Y468856D01*
X265908Y469021D01*
X265966Y469185D01*
X265974Y469235D01*
X265989Y469283D01*
X266009Y469455D01*
X266037Y469626D01*
X266036Y469676D01*
X266042Y469726D01*
X266031Y469900D01*
X266028Y470073D01*
X266018Y470122D01*
X266015Y470172D01*
X265974Y470341D01*
X265939Y470511D01*
X265921Y470557D01*
X265909Y470606D01*
X265839Y470765D01*
X265775Y470926D01*
X265748Y470969D01*
X265728Y471014D01*
X265630Y471158D01*
X265539Y471305D01*
X265505Y471342D01*
X265477Y471384D01*
X265311Y471567D01*
X262678Y474200D01*
X260447Y479585D01*
X260447Y485415D01*
X262678Y490800D01*
X265311Y493433D01*
X265343Y493471D01*
X265380Y493505D01*
X265486Y493643D01*
X265597Y493776D01*
X265622Y493819D01*
X265652Y493859D01*
X265732Y494013D01*
X265818Y494164D01*
X265834Y494211D01*
X265857Y494256D01*
X265908Y494421D01*
X265966Y494585D01*
X265974Y494635D01*
X265989Y494683D01*
X266009Y494855D01*
X266037Y495026D01*
X266036Y495076D01*
X266042Y495126D01*
X266031Y495300D01*
X266028Y495473D01*
X266018Y495522D01*
X266015Y495572D01*
X265974Y495741D01*
X265939Y495911D01*
X265921Y495957D01*
X265909Y496006D01*
X265839Y496165D01*
X265775Y496326D01*
X265748Y496369D01*
X265728Y496414D01*
X265630Y496558D01*
X265539Y496705D01*
X265505Y496742D01*
X265477Y496784D01*
X265311Y496967D01*
X262678Y499600D01*
X260447Y504985D01*
X260447Y510815D01*
X262678Y516200D01*
X265311Y518833D01*
X265343Y518871D01*
X265380Y518905D01*
X265486Y519043D01*
X265597Y519176D01*
X265622Y519219D01*
X265652Y519259D01*
X265732Y519413D01*
X265818Y519564D01*
X265834Y519611D01*
X265857Y519656D01*
X265908Y519821D01*
X265966Y519985D01*
X265974Y520035D01*
X265989Y520083D01*
X266009Y520255D01*
X266037Y520426D01*
X266036Y520476D01*
X266042Y520526D01*
X266031Y520700D01*
X266028Y520873D01*
X266018Y520922D01*
X266015Y520972D01*
X265974Y521141D01*
X265939Y521311D01*
X265921Y521357D01*
X265909Y521406D01*
X265839Y521565D01*
X265775Y521726D01*
X265748Y521769D01*
X265728Y521814D01*
X265630Y521958D01*
X265539Y522105D01*
X265505Y522142D01*
X265477Y522184D01*
X265311Y522367D01*
X262678Y525000D01*
X260447Y530385D01*
X260447Y536215D01*
X262678Y541600D01*
X265311Y544233D01*
X265343Y544271D01*
X265380Y544305D01*
X265486Y544443D01*
X265597Y544576D01*
X265622Y544619D01*
X265652Y544659D01*
X265732Y544813D01*
X265818Y544964D01*
X265834Y545011D01*
X265857Y545056D01*
X265908Y545221D01*
X265966Y545385D01*
X265974Y545435D01*
X265989Y545483D01*
X266009Y545655D01*
X266037Y545826D01*
X266036Y545876D01*
X266042Y545926D01*
X266031Y546100D01*
X266028Y546273D01*
X266018Y546322D01*
X266015Y546372D01*
X265974Y546541D01*
X265939Y546711D01*
X265921Y546757D01*
X265909Y546806D01*
X265839Y546965D01*
X265775Y547126D01*
X265748Y547169D01*
X265728Y547214D01*
X265630Y547358D01*
X265539Y547505D01*
X265505Y547542D01*
X265477Y547584D01*
X265311Y547767D01*
X262678Y550400D01*
X260447Y555785D01*
X260447Y561615D01*
X262678Y567000D01*
X266800Y571122D01*
X272185Y573353D01*
X278015Y573353D01*
X283400Y571122D01*
X285089Y569433D01*
X285233Y569313D01*
X285372Y569189D01*
X285404Y569170D01*
X285432Y569146D01*
X285594Y569054D01*
X285754Y568957D01*
X285788Y568944D01*
X285821Y568926D01*
X285997Y568864D01*
X286171Y568797D01*
X286207Y568790D01*
X286242Y568777D01*
X286426Y568748D01*
X286609Y568713D01*
X286660Y568710D01*
X286683Y568707D01*
X286720Y568708D01*
X286857Y568701D01*
X655122Y568701D01*
X655308Y568717D01*
X655494Y568729D01*
X655530Y568737D01*
X655567Y568741D01*
X655748Y568790D01*
X655928Y568834D01*
X655962Y568849D01*
X655998Y568859D01*
X656166Y568940D01*
X656337Y569016D01*
X656367Y569036D01*
X656401Y569052D01*
X656552Y569162D01*
X656706Y569267D01*
X656744Y569301D01*
X656763Y569314D01*
X656788Y569341D01*
X656890Y569433D01*
X692835Y605378D01*
X696511Y606901D01*
X889451Y606901D01*
X889637Y606917D01*
X889823Y606929D01*
X889859Y606937D01*
X889896Y606941D01*
X890077Y606990D01*
X890257Y607034D01*
X890291Y607049D01*
X890327Y607059D01*
X890495Y607140D01*
X890666Y607216D01*
X890696Y607236D01*
X890730Y607252D01*
X890881Y607362D01*
X891035Y607467D01*
X891073Y607501D01*
X891091Y607514D01*
X891117Y607541D01*
X891219Y607633D01*
X893203Y609617D01*
X898716Y611901D01*
X904684Y611901D01*
X910197Y609617D01*
X914417Y605397D01*
X916701Y599884D01*
X916701Y593916D01*
X914417Y588403D01*
X911781Y585767D01*
X911694Y585662D01*
X911599Y585564D01*
X911551Y585491D01*
X911495Y585424D01*
X911428Y585306D01*
X911352Y585192D01*
X911317Y585112D01*
X911274Y585036D01*
X911229Y584907D01*
X911175Y584781D01*
X911155Y584697D01*
X911126Y584615D01*
X911104Y584479D01*
X911074Y584346D01*
X911069Y584260D01*
X911055Y584174D01*
X911058Y584037D01*
X911051Y583900D01*
X911063Y583814D01*
X911064Y583727D01*
X911091Y583593D01*
X911109Y583457D01*
X911135Y583374D01*
X911153Y583289D01*
X911203Y583162D01*
X911245Y583032D01*
X911285Y582955D01*
X911317Y582874D01*
X911390Y582758D01*
X911454Y582637D01*
X911508Y582569D01*
X911554Y582495D01*
X911645Y582393D01*
X911730Y582286D01*
X911795Y582228D01*
X911853Y582164D01*
X911962Y582080D01*
X912064Y581989D01*
X912139Y581944D01*
X912207Y581891D01*
X912329Y581828D01*
X912446Y581757D01*
X912527Y581726D01*
X912604Y581686D01*
X912735Y581646D01*
X912863Y581597D01*
X912948Y581580D01*
X913031Y581555D01*
X913167Y581539D01*
X913301Y581513D01*
X913438Y581506D01*
X913475Y581502D01*
X913498Y581503D01*
X913549Y581501D01*
X914851Y581501D01*
X915037Y581517D01*
X915223Y581529D01*
X915259Y581537D01*
X915296Y581541D01*
X915477Y581590D01*
X915657Y581634D01*
X915691Y581649D01*
X915727Y581659D01*
X915895Y581740D01*
X916066Y581816D01*
X916096Y581836D01*
X916130Y581852D01*
X916281Y581962D01*
X916435Y582067D01*
X916473Y582101D01*
X916491Y582114D01*
X916517Y582141D01*
X916619Y582233D01*
X918603Y584217D01*
X924116Y586501D01*
X930084Y586501D01*
X935597Y584217D01*
X939817Y579997D01*
X942101Y574484D01*
X942101Y568516D01*
X939817Y563003D01*
X937181Y560367D01*
X937094Y560262D01*
X936999Y560164D01*
X936951Y560091D01*
X936895Y560024D01*
X936828Y559906D01*
X936752Y559792D01*
X936717Y559712D01*
X936674Y559636D01*
X936629Y559507D01*
X936575Y559381D01*
X936555Y559297D01*
X936526Y559215D01*
X936504Y559079D01*
X936474Y558946D01*
X936469Y558860D01*
X936455Y558774D01*
X936458Y558637D01*
X936451Y558500D01*
X936463Y558414D01*
X936464Y558327D01*
X936491Y558193D01*
X936509Y558057D01*
X936535Y557974D01*
X936553Y557889D01*
X936603Y557762D01*
X936645Y557632D01*
X936685Y557555D01*
X936717Y557474D01*
X936790Y557358D01*
X936854Y557237D01*
X936908Y557169D01*
X936954Y557095D01*
X937045Y556993D01*
X937130Y556886D01*
X937195Y556828D01*
X937253Y556764D01*
X937362Y556680D01*
X937464Y556589D01*
X937539Y556544D01*
X937607Y556491D01*
X937729Y556428D01*
X937846Y556357D01*
X937927Y556326D01*
X938004Y556286D01*
X938135Y556246D01*
X938263Y556197D01*
X938348Y556180D01*
X938431Y556155D01*
X938567Y556139D01*
X938701Y556113D01*
X938838Y556106D01*
X938875Y556102D01*
X938898Y556103D01*
X938949Y556101D01*
X1056089Y556101D01*
X1059765Y554578D01*
X1062930Y551413D01*
X1134303Y480040D01*
X1134408Y479953D01*
X1134506Y479858D01*
X1134579Y479810D01*
X1134646Y479754D01*
X1134764Y479687D01*
X1134878Y479611D01*
X1134958Y479576D01*
X1135034Y479533D01*
X1135163Y479488D01*
X1135289Y479434D01*
X1135373Y479414D01*
X1135455Y479385D01*
X1135591Y479363D01*
X1135724Y479332D01*
X1135810Y479328D01*
X1135896Y479314D01*
X1136033Y479317D01*
X1136170Y479310D01*
X1136256Y479322D01*
X1136343Y479323D01*
X1136477Y479350D01*
X1136613Y479368D01*
X1136696Y479394D01*
X1136781Y479412D01*
X1136908Y479462D01*
X1137038Y479504D01*
X1137115Y479544D01*
X1137196Y479576D01*
X1137312Y479649D01*
X1137433Y479713D01*
X1137501Y479767D01*
X1137575Y479813D01*
X1137677Y479904D01*
X1137784Y479989D01*
X1137842Y480054D01*
X1137906Y480112D01*
X1137990Y480221D01*
X1138081Y480323D01*
X1138126Y480397D01*
X1138179Y480466D01*
X1138242Y480588D01*
X1138313Y480705D01*
X1138344Y480786D01*
X1138384Y480863D01*
X1138424Y480994D01*
X1138473Y481122D01*
X1138490Y481207D01*
X1138515Y481290D01*
X1138531Y481426D01*
X1138557Y481560D01*
X1138564Y481697D01*
X1138568Y481734D01*
X1138567Y481757D01*
X1138569Y481808D01*
X1138569Y686070D01*
X1138565Y686120D01*
X1138567Y686170D01*
X1138545Y686342D01*
X1138529Y686515D01*
X1138516Y686563D01*
X1138510Y686613D01*
X1138457Y686778D01*
X1138411Y686946D01*
X1138389Y686991D01*
X1138374Y687038D01*
X1138293Y687192D01*
X1138218Y687348D01*
X1138188Y687389D01*
X1138165Y687433D01*
X1138058Y687570D01*
X1137956Y687710D01*
X1137920Y687745D01*
X1137889Y687784D01*
X1137759Y687900D01*
X1137634Y688020D01*
X1137592Y688047D01*
X1137554Y688081D01*
X1137406Y688171D01*
X1137262Y688267D01*
X1137216Y688287D01*
X1137173Y688313D01*
X1137011Y688375D01*
X1136851Y688444D01*
X1136803Y688455D01*
X1136756Y688473D01*
X1136585Y688506D01*
X1136416Y688545D01*
X1136366Y688548D01*
X1136317Y688557D01*
X1136070Y688569D01*
X13930Y688569D01*
X13880Y688565D01*
X13830Y688567D01*
X13658Y688545D01*
X13485Y688529D01*
X13437Y688516D01*
X13387Y688510D01*
X13222Y688457D01*
X13054Y688411D01*
X13009Y688389D01*
X12962Y688374D01*
X12808Y688293D01*
X12652Y688218D01*
X12611Y688188D01*
X12567Y688165D01*
X12430Y688058D01*
X12290Y687956D01*
X12255Y687920D01*
X12216Y687889D01*
X12100Y687759D01*
X11980Y687634D01*
X11953Y687592D01*
X11919Y687554D01*
X11829Y687406D01*
X11733Y687262D01*
X11713Y687216D01*
X11687Y687173D01*
X11625Y687011D01*
X11556Y686851D01*
X11545Y686803D01*
X11527Y686756D01*
X11494Y686585D01*
X11455Y686416D01*
X11452Y686366D01*
X11443Y686317D01*
X11431Y686070D01*
X11431Y569487D01*
X11443Y569350D01*
X11446Y569214D01*
X11463Y569128D01*
X11471Y569042D01*
X11507Y568910D01*
X11534Y568776D01*
X11566Y568695D01*
X11589Y568611D01*
X11648Y568488D01*
X11699Y568360D01*
X11745Y568287D01*
X11782Y568208D01*
X11863Y568097D01*
X11935Y567981D01*
X11993Y567917D01*
X12044Y567846D01*
X12143Y567751D01*
X12235Y567650D01*
X12304Y567597D01*
X12366Y567537D01*
X12480Y567461D01*
X12589Y567378D01*
X12666Y567338D01*
X12738Y567290D01*
X12864Y567235D01*
X12986Y567173D01*
X13069Y567147D01*
X13149Y567113D01*
X13282Y567082D01*
X13413Y567041D01*
X13499Y567031D01*
X13584Y567011D01*
X13720Y567005D01*
X13856Y566988D01*
X13943Y566994D01*
X14030Y566989D01*
X14165Y567007D01*
X14302Y567015D01*
X14387Y567036D01*
X14473Y567047D01*
X14603Y567088D01*
X14736Y567121D01*
X14815Y567156D01*
X14898Y567183D01*
X15019Y567247D01*
X15144Y567302D01*
X15216Y567351D01*
X15293Y567392D01*
X15401Y567476D01*
X15514Y567553D01*
X15615Y567645D01*
X15644Y567668D01*
X15660Y567686D01*
X15697Y567719D01*
X19100Y571122D01*
X24485Y573353D01*
X30315Y573353D01*
X35700Y571122D01*
X39822Y567000D01*
X42053Y561615D01*
X42053Y555785D01*
X39822Y550400D01*
X37189Y547767D01*
X37157Y547729D01*
X37120Y547695D01*
X37014Y547558D01*
X36903Y547424D01*
X36878Y547381D01*
X36848Y547341D01*
X36768Y547187D01*
X36682Y547036D01*
X36666Y546989D01*
X36643Y546944D01*
X36592Y546779D01*
X36534Y546615D01*
X36526Y546565D01*
X36511Y546517D01*
X36491Y546345D01*
X36463Y546174D01*
X36464Y546124D01*
X36458Y546074D01*
X36469Y545900D01*
X36472Y545727D01*
X36482Y545678D01*
X36485Y545628D01*
X36526Y545459D01*
X36561Y545289D01*
X36579Y545243D01*
X36591Y545194D01*
X36661Y545035D01*
X36725Y544874D01*
X36752Y544831D01*
X36772Y544786D01*
X36870Y544642D01*
X36962Y544495D01*
X36995Y544458D01*
X37023Y544416D01*
X37189Y544233D01*
X37389Y544033D01*
X37533Y543913D01*
X37672Y543789D01*
X37704Y543770D01*
X37732Y543746D01*
X37894Y543654D01*
X38054Y543557D01*
X38088Y543544D01*
X38121Y543526D01*
X38296Y543464D01*
X38471Y543397D01*
X38507Y543390D01*
X38542Y543377D01*
X38726Y543348D01*
X38909Y543313D01*
X38960Y543310D01*
X38983Y543307D01*
X39020Y543308D01*
X39157Y543301D01*
X63851Y543301D01*
X64037Y543317D01*
X64223Y543329D01*
X64259Y543337D01*
X64296Y543341D01*
X64477Y543390D01*
X64657Y543434D01*
X64691Y543449D01*
X64727Y543459D01*
X64895Y543540D01*
X65066Y543616D01*
X65096Y543636D01*
X65130Y543652D01*
X65281Y543762D01*
X65435Y543867D01*
X65473Y543901D01*
X65491Y543914D01*
X65517Y543941D01*
X65619Y544033D01*
X67703Y546117D01*
X73216Y548401D01*
X79184Y548401D01*
X84697Y546117D01*
X88917Y541897D01*
X91201Y536384D01*
X91201Y530416D01*
X88917Y524903D01*
X86181Y522167D01*
X86094Y522062D01*
X85999Y521964D01*
X85951Y521891D01*
X85895Y521824D01*
X85828Y521706D01*
X85752Y521592D01*
X85717Y521512D01*
X85674Y521436D01*
X85629Y521307D01*
X85575Y521181D01*
X85555Y521097D01*
X85526Y521015D01*
X85504Y520879D01*
X85474Y520746D01*
X85469Y520660D01*
X85455Y520574D01*
X85458Y520437D01*
X85451Y520300D01*
X85463Y520214D01*
X85464Y520127D01*
X85491Y519993D01*
X85509Y519857D01*
X85535Y519774D01*
X85553Y519689D01*
X85603Y519562D01*
X85645Y519432D01*
X85685Y519355D01*
X85717Y519274D01*
X85790Y519158D01*
X85854Y519037D01*
X85908Y518969D01*
X85954Y518895D01*
X86045Y518793D01*
X86130Y518686D01*
X86195Y518628D01*
X86253Y518564D01*
X86362Y518480D01*
X86464Y518389D01*
X86539Y518344D01*
X86607Y518291D01*
X86729Y518228D01*
X86846Y518157D01*
X86927Y518126D01*
X87004Y518086D01*
X87135Y518046D01*
X87263Y517997D01*
X87348Y517980D01*
X87431Y517955D01*
X87567Y517939D01*
X87701Y517913D01*
X87838Y517906D01*
X87875Y517902D01*
X87898Y517903D01*
X87949Y517901D01*
X134422Y517901D01*
X134608Y517917D01*
X134794Y517929D01*
X134830Y517937D01*
X134867Y517941D01*
X135048Y517990D01*
X135228Y518034D01*
X135262Y518049D01*
X135298Y518059D01*
X135466Y518140D01*
X135637Y518216D01*
X135667Y518236D01*
X135701Y518252D01*
X135852Y518362D01*
X136006Y518467D01*
X136044Y518501D01*
X136063Y518514D01*
X136088Y518541D01*
X136190Y518633D01*
X136667Y519110D01*
X136787Y519254D01*
X136911Y519393D01*
X136930Y519425D01*
X136954Y519453D01*
X137046Y519615D01*
X137143Y519775D01*
X137156Y519809D01*
X137174Y519842D01*
X137236Y520018D01*
X137303Y520192D01*
X137310Y520228D01*
X137323Y520263D01*
X137352Y520447D01*
X137387Y520630D01*
X137390Y520681D01*
X137393Y520704D01*
X137392Y520741D01*
X137399Y520878D01*
X137399Y523684D01*
X139683Y529197D01*
X143903Y533417D01*
X149416Y535701D01*
X155384Y535701D01*
X160897Y533417D01*
X165117Y529197D01*
X167401Y523684D01*
X167401Y517778D01*
X167413Y517641D01*
X167416Y517505D01*
X167433Y517420D01*
X167441Y517333D01*
X167477Y517201D01*
X167504Y517067D01*
X167536Y516986D01*
X167559Y516902D01*
X167618Y516779D01*
X167669Y516652D01*
X167715Y516578D01*
X167752Y516499D01*
X167833Y516388D01*
X167905Y516272D01*
X167963Y516208D01*
X168014Y516137D01*
X168113Y516043D01*
X168205Y515941D01*
X168274Y515888D01*
X168336Y515828D01*
X168450Y515752D01*
X168559Y515669D01*
X168636Y515629D01*
X168708Y515581D01*
X168834Y515526D01*
X168956Y515464D01*
X169039Y515438D01*
X169119Y515404D01*
X169252Y515373D01*
X169383Y515333D01*
X169469Y515322D01*
X169554Y515302D01*
X169690Y515296D01*
X169826Y515279D01*
X169913Y515285D01*
X170000Y515280D01*
X170135Y515298D01*
X170272Y515306D01*
X170357Y515327D01*
X170443Y515338D01*
X170573Y515380D01*
X170706Y515412D01*
X170786Y515447D01*
X170868Y515474D01*
X170989Y515538D01*
X171114Y515593D01*
X171186Y515642D01*
X171263Y515683D01*
X171371Y515767D01*
X171484Y515844D01*
X171585Y515936D01*
X171614Y515959D01*
X171630Y515976D01*
X171667Y516010D01*
X192467Y536810D01*
X192587Y536954D01*
X192711Y537093D01*
X192730Y537125D01*
X192754Y537153D01*
X192846Y537316D01*
X192943Y537475D01*
X192956Y537509D01*
X192974Y537542D01*
X193036Y537718D01*
X193103Y537892D01*
X193110Y537928D01*
X193123Y537963D01*
X193152Y538147D01*
X193187Y538330D01*
X193190Y538381D01*
X193193Y538404D01*
X193192Y538441D01*
X193199Y538578D01*
X193199Y573489D01*
X194722Y577165D01*
X241985Y624428D01*
X245661Y625951D01*
X382172Y625951D01*
X382358Y625967D01*
X382544Y625979D01*
X382580Y625987D01*
X382617Y625991D01*
X382798Y626040D01*
X382978Y626084D01*
X383012Y626099D01*
X383048Y626109D01*
X383216Y626190D01*
X383387Y626266D01*
X383417Y626286D01*
X383451Y626302D01*
X383602Y626412D01*
X383756Y626517D01*
X383794Y626551D01*
X383813Y626564D01*
X383838Y626591D01*
X383940Y626683D01*
X403367Y646110D01*
X403487Y646254D01*
X403611Y646393D01*
X403630Y646425D01*
X403654Y646453D01*
X403746Y646615D01*
X403843Y646775D01*
X403856Y646809D01*
X403874Y646842D01*
X403936Y647018D01*
X404003Y647192D01*
X404010Y647228D01*
X404023Y647263D01*
X404052Y647447D01*
X404087Y647630D01*
X404090Y647681D01*
X404093Y647704D01*
X404092Y647741D01*
X404099Y647878D01*
X404099Y650684D01*
X406383Y656197D01*
X410603Y660417D01*
X416116Y662701D01*
X422084Y662701D01*
X427597Y660417D01*
X431817Y656197D01*
X434101Y650684D01*
X434101Y644716D01*
X431817Y639203D01*
X427597Y634983D01*
X422084Y632699D01*
X419278Y632699D01*
X419092Y632683D01*
X418906Y632671D01*
X418870Y632663D01*
X418833Y632659D01*
X418652Y632610D01*
X418472Y632566D01*
X418438Y632551D01*
X418402Y632541D01*
X418234Y632460D01*
X418063Y632384D01*
X418033Y632364D01*
X417999Y632348D01*
X417848Y632238D01*
X417694Y632133D01*
X417656Y632099D01*
X417637Y632086D01*
X417612Y632059D01*
X417510Y631967D01*
X396710Y611167D01*
X396623Y611062D01*
X396528Y610964D01*
X396480Y610891D01*
X396424Y610824D01*
X396356Y610706D01*
X396281Y610592D01*
X396246Y610512D01*
X396203Y610436D01*
X396158Y610307D01*
X396104Y610181D01*
X396084Y610097D01*
X396055Y610015D01*
X396033Y609879D01*
X396002Y609746D01*
X395998Y609660D01*
X395984Y609574D01*
X395987Y609437D01*
X395980Y609300D01*
X395992Y609214D01*
X395993Y609127D01*
X396020Y608993D01*
X396038Y608857D01*
X396064Y608774D01*
X396082Y608689D01*
X396132Y608562D01*
X396174Y608432D01*
X396214Y608355D01*
X396246Y608274D01*
X396319Y608158D01*
X396383Y608037D01*
X396437Y607969D01*
X396483Y607895D01*
X396574Y607793D01*
X396659Y607686D01*
X396724Y607628D01*
X396782Y607564D01*
X396891Y607480D01*
X396993Y607389D01*
X397067Y607344D01*
X397136Y607291D01*
X397258Y607228D01*
X397375Y607157D01*
X397456Y607126D01*
X397533Y607086D01*
X397664Y607046D01*
X397792Y606997D01*
X397877Y606980D01*
X397960Y606955D01*
X398096Y606939D01*
X398230Y606913D01*
X398367Y606906D01*
X398404Y606902D01*
X398427Y606903D01*
X398478Y606901D01*
X452022Y606901D01*
X452208Y606917D01*
X452394Y606929D01*
X452430Y606937D01*
X452467Y606941D01*
X452648Y606990D01*
X452828Y607034D01*
X452862Y607049D01*
X452898Y607059D01*
X453066Y607140D01*
X453237Y607216D01*
X453267Y607236D01*
X453301Y607252D01*
X453452Y607362D01*
X453606Y607467D01*
X453644Y607501D01*
X453663Y607514D01*
X453688Y607541D01*
X453790Y607633D01*
X466867Y620710D01*
X466987Y620854D01*
X467111Y620993D01*
X467130Y621025D01*
X467154Y621053D01*
X467246Y621215D01*
X467343Y621375D01*
X467356Y621409D01*
X467374Y621442D01*
X467436Y621618D01*
X467503Y621792D01*
X467510Y621828D01*
X467523Y621863D01*
X467552Y622047D01*
X467587Y622230D01*
X467590Y622281D01*
X467593Y622304D01*
X467592Y622341D01*
X467599Y622478D01*
X467599Y625284D01*
X469883Y630797D01*
X474103Y635017D01*
X479616Y637301D01*
X485584Y637301D01*
X491097Y635017D01*
X495317Y630797D01*
X497601Y625284D01*
X497601Y619316D01*
X495317Y613803D01*
X491097Y609583D01*
X485584Y607299D01*
X482778Y607299D01*
X482592Y607283D01*
X482406Y607271D01*
X482370Y607263D01*
X482333Y607259D01*
X482152Y607210D01*
X481972Y607166D01*
X481938Y607151D01*
X481902Y607141D01*
X481734Y607060D01*
X481563Y606984D01*
X481533Y606964D01*
X481499Y606948D01*
X481348Y606838D01*
X481194Y606733D01*
X481156Y606699D01*
X481137Y606686D01*
X481112Y606659D01*
X481010Y606567D01*
X462865Y588422D01*
X459189Y586899D01*
X265528Y586899D01*
X265342Y586883D01*
X265156Y586871D01*
X265120Y586863D01*
X265083Y586859D01*
X264902Y586810D01*
X264722Y586766D01*
X264688Y586751D01*
X264652Y586741D01*
X264484Y586660D01*
X264313Y586584D01*
X264283Y586564D01*
X264249Y586548D01*
X264098Y586438D01*
X263944Y586333D01*
X263906Y586299D01*
X263887Y586286D01*
X263862Y586259D01*
X263760Y586167D01*
X239333Y561740D01*
X239213Y561596D01*
X239089Y561457D01*
X239070Y561425D01*
X239046Y561397D01*
X238954Y561235D01*
X238857Y561075D01*
X238844Y561041D01*
X238826Y561008D01*
X238764Y560832D01*
X238697Y560658D01*
X238690Y560622D01*
X238677Y560587D01*
X238648Y560403D01*
X238613Y560220D01*
X238610Y560169D01*
X238607Y560146D01*
X238608Y560109D01*
X238601Y559972D01*
X238601Y518711D01*
X237078Y515035D01*
X170665Y448622D01*
X166989Y447099D01*
X39157Y447099D01*
X38971Y447083D01*
X38785Y447071D01*
X38749Y447063D01*
X38712Y447059D01*
X38531Y447010D01*
X38351Y446966D01*
X38317Y446951D01*
X38281Y446941D01*
X38113Y446860D01*
X37942Y446784D01*
X37912Y446764D01*
X37878Y446748D01*
X37727Y446638D01*
X37573Y446533D01*
X37535Y446499D01*
X37516Y446486D01*
X37491Y446459D01*
X37389Y446367D01*
X37189Y446167D01*
X37157Y446129D01*
X37120Y446095D01*
X37014Y445958D01*
X36903Y445824D01*
X36878Y445781D01*
X36848Y445741D01*
X36768Y445587D01*
X36682Y445436D01*
X36666Y445389D01*
X36643Y445344D01*
X36592Y445179D01*
X36534Y445015D01*
X36526Y444965D01*
X36511Y444917D01*
X36491Y444745D01*
X36463Y444574D01*
X36464Y444523D01*
X36458Y444474D01*
X36469Y444300D01*
X36472Y444127D01*
X36482Y444078D01*
X36485Y444028D01*
X36526Y443859D01*
X36561Y443689D01*
X36579Y443643D01*
X36591Y443594D01*
X36661Y443435D01*
X36725Y443274D01*
X36752Y443231D01*
X36772Y443186D01*
X36870Y443042D01*
X36962Y442895D01*
X36995Y442858D01*
X37023Y442816D01*
X37189Y442633D01*
X39822Y440000D01*
X42053Y434615D01*
X42053Y428690D01*
X42069Y428504D01*
X42081Y428318D01*
X42089Y428282D01*
X42093Y428245D01*
X42142Y428065D01*
X42186Y427884D01*
X42201Y427850D01*
X42211Y427814D01*
X42292Y427646D01*
X42368Y427476D01*
X42388Y427445D01*
X42404Y427412D01*
X42514Y427261D01*
X42619Y427106D01*
X42653Y427069D01*
X42666Y427050D01*
X42693Y427024D01*
X42785Y426923D01*
X181697Y288010D01*
X184159Y285549D01*
X185301Y282792D01*
X185301Y74883D01*
X185317Y74697D01*
X185329Y74511D01*
X185337Y74475D01*
X185341Y74438D01*
X185390Y74258D01*
X185434Y74077D01*
X185449Y74043D01*
X185459Y74007D01*
X185540Y73839D01*
X185616Y73669D01*
X185636Y73638D01*
X185652Y73605D01*
X185762Y73453D01*
X185867Y73299D01*
X185901Y73262D01*
X185914Y73243D01*
X185941Y73217D01*
X186033Y73116D01*
X188733Y70416D01*
X188771Y70384D01*
X188805Y70346D01*
X188943Y70240D01*
X189076Y70129D01*
X189119Y70105D01*
X189159Y70074D01*
X189313Y69994D01*
X189464Y69908D01*
X189511Y69892D01*
X189556Y69869D01*
X189721Y69818D01*
X189885Y69760D01*
X189935Y69752D01*
X189983Y69738D01*
X190155Y69717D01*
X190326Y69690D01*
X190376Y69691D01*
X190426Y69685D01*
X190600Y69695D01*
G37*
G36*
X1041285Y264013D02*
X1041285Y264013D01*
X1041422Y264016D01*
X1041507Y264033D01*
X1041593Y264041D01*
X1041725Y264077D01*
X1041859Y264104D01*
X1041940Y264136D01*
X1042024Y264159D01*
X1042148Y264218D01*
X1042275Y264269D01*
X1042348Y264315D01*
X1042427Y264352D01*
X1042538Y264433D01*
X1042654Y264505D01*
X1042718Y264563D01*
X1042789Y264614D01*
X1042883Y264713D01*
X1042985Y264805D01*
X1043038Y264874D01*
X1043098Y264936D01*
X1043174Y265050D01*
X1043257Y265159D01*
X1043297Y265236D01*
X1043345Y265308D01*
X1043400Y265434D01*
X1043462Y265556D01*
X1043488Y265639D01*
X1043522Y265719D01*
X1043553Y265852D01*
X1043594Y265983D01*
X1043604Y266069D01*
X1043624Y266154D01*
X1043630Y266290D01*
X1043647Y266426D01*
X1043641Y266513D01*
X1043646Y266600D01*
X1043628Y266735D01*
X1043620Y266872D01*
X1043599Y266957D01*
X1043588Y267043D01*
X1043547Y267173D01*
X1043514Y267306D01*
X1043479Y267385D01*
X1043452Y267468D01*
X1043388Y267589D01*
X1043333Y267714D01*
X1043284Y267786D01*
X1043243Y267863D01*
X1043159Y267971D01*
X1043082Y268084D01*
X1042990Y268185D01*
X1042967Y268214D01*
X1042950Y268230D01*
X1042916Y268267D01*
X1041383Y269800D01*
X1039099Y275313D01*
X1039099Y281281D01*
X1041383Y286794D01*
X1045603Y291014D01*
X1051116Y293298D01*
X1053922Y293298D01*
X1054108Y293315D01*
X1054294Y293326D01*
X1054330Y293334D01*
X1054367Y293338D01*
X1054548Y293387D01*
X1054728Y293431D01*
X1054762Y293446D01*
X1054798Y293456D01*
X1054966Y293537D01*
X1055137Y293613D01*
X1055167Y293634D01*
X1055201Y293650D01*
X1055352Y293759D01*
X1055506Y293864D01*
X1055544Y293898D01*
X1055563Y293911D01*
X1055588Y293938D01*
X1055690Y294030D01*
X1068767Y307108D01*
X1068864Y307223D01*
X1068916Y307278D01*
X1068933Y307303D01*
X1069011Y307390D01*
X1069030Y307422D01*
X1069054Y307450D01*
X1069146Y307612D01*
X1069243Y307772D01*
X1069256Y307807D01*
X1069274Y307839D01*
X1069336Y308015D01*
X1069403Y308189D01*
X1069410Y308225D01*
X1069423Y308260D01*
X1069452Y308444D01*
X1069487Y308628D01*
X1069490Y308678D01*
X1069493Y308701D01*
X1069492Y308738D01*
X1069499Y308875D01*
X1069499Y316918D01*
X1069486Y317061D01*
X1069483Y317204D01*
X1069467Y317283D01*
X1069459Y317363D01*
X1069421Y317501D01*
X1069392Y317641D01*
X1069351Y317758D01*
X1069341Y317794D01*
X1069329Y317818D01*
X1069309Y317875D01*
X1067725Y321699D01*
X1067720Y321709D01*
X1067716Y321720D01*
X1067616Y321907D01*
X1067518Y322095D01*
X1067511Y322104D01*
X1067506Y322113D01*
X1067375Y322279D01*
X1067244Y322447D01*
X1067235Y322455D01*
X1067228Y322464D01*
X1067070Y322602D01*
X1066911Y322745D01*
X1066901Y322751D01*
X1066893Y322759D01*
X1066713Y322867D01*
X1066530Y322979D01*
X1066520Y322984D01*
X1066510Y322989D01*
X1066313Y323064D01*
X1066114Y323142D01*
X1066103Y323144D01*
X1066093Y323148D01*
X1065884Y323187D01*
X1065676Y323228D01*
X1065665Y323228D01*
X1065654Y323230D01*
X1065441Y323232D01*
X1065229Y323235D01*
X1065218Y323233D01*
X1065207Y323233D01*
X1064997Y323196D01*
X1064789Y323162D01*
X1064778Y323158D01*
X1064767Y323156D01*
X1064567Y323082D01*
X1064368Y323011D01*
X1064358Y323006D01*
X1064348Y323002D01*
X1064165Y322894D01*
X1063981Y322789D01*
X1063972Y322781D01*
X1063962Y322775D01*
X1063802Y322637D01*
X1063640Y322500D01*
X1063632Y322492D01*
X1063624Y322484D01*
X1063490Y322320D01*
X1063355Y322156D01*
X1063349Y322146D01*
X1063342Y322137D01*
X1063240Y321951D01*
X1063136Y321767D01*
X1063133Y321756D01*
X1063127Y321746D01*
X1063039Y321515D01*
X1062575Y320086D01*
X1061921Y318803D01*
X1061075Y317639D01*
X1060057Y316621D01*
X1058893Y315775D01*
X1057610Y315121D01*
X1056599Y314793D01*
X1056599Y330200D01*
X1056599Y345607D01*
X1057610Y345279D01*
X1058893Y344625D01*
X1060057Y343779D01*
X1061075Y342761D01*
X1061921Y341597D01*
X1062575Y340314D01*
X1063039Y338885D01*
X1063044Y338875D01*
X1063046Y338864D01*
X1063131Y338671D01*
X1063215Y338475D01*
X1063221Y338465D01*
X1063225Y338455D01*
X1063343Y338279D01*
X1063460Y338102D01*
X1063468Y338093D01*
X1063474Y338084D01*
X1063623Y337931D01*
X1063769Y337778D01*
X1063778Y337772D01*
X1063786Y337763D01*
X1063959Y337640D01*
X1064129Y337515D01*
X1064140Y337510D01*
X1064149Y337503D01*
X1064341Y337413D01*
X1064531Y337320D01*
X1064542Y337317D01*
X1064553Y337312D01*
X1064759Y337257D01*
X1064962Y337200D01*
X1064973Y337199D01*
X1064984Y337196D01*
X1065198Y337178D01*
X1065406Y337158D01*
X1065418Y337159D01*
X1065429Y337158D01*
X1065640Y337178D01*
X1065851Y337197D01*
X1065863Y337200D01*
X1065874Y337201D01*
X1066076Y337257D01*
X1066283Y337313D01*
X1066293Y337318D01*
X1066304Y337321D01*
X1066494Y337414D01*
X1066686Y337505D01*
X1066695Y337512D01*
X1066705Y337517D01*
X1066877Y337642D01*
X1067049Y337766D01*
X1067057Y337774D01*
X1067066Y337780D01*
X1067211Y337933D01*
X1067360Y338087D01*
X1067366Y338096D01*
X1067374Y338104D01*
X1067489Y338280D01*
X1067608Y338458D01*
X1067613Y338468D01*
X1067619Y338478D01*
X1067725Y338701D01*
X1069662Y343377D01*
X1072927Y346642D01*
X1077192Y348409D01*
X1081808Y348409D01*
X1086073Y346642D01*
X1089338Y343377D01*
X1089891Y342043D01*
X1089954Y341921D01*
X1090009Y341796D01*
X1090058Y341724D01*
X1090098Y341647D01*
X1090182Y341539D01*
X1090258Y341425D01*
X1090319Y341363D01*
X1090372Y341294D01*
X1090474Y341203D01*
X1090570Y341105D01*
X1090640Y341054D01*
X1090705Y340996D01*
X1090822Y340924D01*
X1090933Y340845D01*
X1091011Y340808D01*
X1091086Y340762D01*
X1091213Y340712D01*
X1091337Y340654D01*
X1091421Y340631D01*
X1091502Y340599D01*
X1091636Y340573D01*
X1091768Y340537D01*
X1091855Y340530D01*
X1091940Y340513D01*
X1092077Y340511D01*
X1092213Y340500D01*
X1092300Y340508D01*
X1092387Y340507D01*
X1092522Y340529D01*
X1092658Y340542D01*
X1092741Y340565D01*
X1092827Y340580D01*
X1092956Y340626D01*
X1093088Y340663D01*
X1093166Y340701D01*
X1093248Y340730D01*
X1093367Y340798D01*
X1093490Y340858D01*
X1093560Y340909D01*
X1093635Y340953D01*
X1093740Y341041D01*
X1093850Y341122D01*
X1093910Y341185D01*
X1093976Y341241D01*
X1094064Y341346D01*
X1094158Y341446D01*
X1094206Y341518D01*
X1094261Y341585D01*
X1094328Y341704D01*
X1094403Y341819D01*
X1094462Y341943D01*
X1094480Y341975D01*
X1094487Y341997D01*
X1094509Y342043D01*
X1095062Y343378D01*
X1098327Y346642D01*
X1102592Y348409D01*
X1107208Y348409D01*
X1111473Y346642D01*
X1114738Y343378D01*
X1115291Y342043D01*
X1115355Y341921D01*
X1115409Y341796D01*
X1115458Y341724D01*
X1115498Y341647D01*
X1115582Y341539D01*
X1115658Y341425D01*
X1115719Y341363D01*
X1115772Y341294D01*
X1115874Y341203D01*
X1115970Y341105D01*
X1116040Y341054D01*
X1116105Y340996D01*
X1116222Y340924D01*
X1116333Y340845D01*
X1116411Y340808D01*
X1116485Y340762D01*
X1116613Y340712D01*
X1116737Y340654D01*
X1116821Y340631D01*
X1116901Y340599D01*
X1117036Y340573D01*
X1117168Y340537D01*
X1117255Y340530D01*
X1117340Y340513D01*
X1117477Y340511D01*
X1117613Y340500D01*
X1117700Y340508D01*
X1117786Y340507D01*
X1117922Y340529D01*
X1118058Y340542D01*
X1118141Y340565D01*
X1118227Y340580D01*
X1118356Y340626D01*
X1118488Y340663D01*
X1118566Y340701D01*
X1118648Y340730D01*
X1118766Y340798D01*
X1118889Y340858D01*
X1118960Y340909D01*
X1119035Y340953D01*
X1119140Y341041D01*
X1119250Y341122D01*
X1119310Y341185D01*
X1119376Y341241D01*
X1119464Y341347D01*
X1119558Y341446D01*
X1119605Y341518D01*
X1119661Y341585D01*
X1119728Y341705D01*
X1119803Y341819D01*
X1119862Y341942D01*
X1119880Y341975D01*
X1119887Y341997D01*
X1119909Y342043D01*
X1120462Y343377D01*
X1123727Y346642D01*
X1127992Y348409D01*
X1132608Y348409D01*
X1135114Y347371D01*
X1135203Y347343D01*
X1135289Y347306D01*
X1135415Y347277D01*
X1135540Y347238D01*
X1135633Y347226D01*
X1135724Y347205D01*
X1135854Y347198D01*
X1135983Y347182D01*
X1136077Y347187D01*
X1136170Y347183D01*
X1136299Y347200D01*
X1136429Y347207D01*
X1136520Y347228D01*
X1136613Y347240D01*
X1136737Y347280D01*
X1136864Y347310D01*
X1136949Y347348D01*
X1137038Y347376D01*
X1137153Y347437D01*
X1137273Y347489D01*
X1137351Y347541D01*
X1137433Y347585D01*
X1137536Y347666D01*
X1137644Y347738D01*
X1137711Y347803D01*
X1137784Y347861D01*
X1137871Y347959D01*
X1137964Y348050D01*
X1138019Y348126D01*
X1138081Y348196D01*
X1138148Y348307D01*
X1138224Y348413D01*
X1138264Y348497D01*
X1138313Y348577D01*
X1138360Y348699D01*
X1138415Y348817D01*
X1138440Y348907D01*
X1138473Y348994D01*
X1138498Y349122D01*
X1138532Y349248D01*
X1138539Y349341D01*
X1138557Y349433D01*
X1138569Y349680D01*
X1138569Y386920D01*
X1138561Y387013D01*
X1138562Y387107D01*
X1138541Y387235D01*
X1138529Y387365D01*
X1138505Y387455D01*
X1138489Y387547D01*
X1138445Y387670D01*
X1138411Y387796D01*
X1138370Y387880D01*
X1138339Y387968D01*
X1138274Y388081D01*
X1138218Y388198D01*
X1138163Y388274D01*
X1138116Y388355D01*
X1138032Y388454D01*
X1137956Y388560D01*
X1137888Y388625D01*
X1137828Y388696D01*
X1137728Y388779D01*
X1137634Y388870D01*
X1137556Y388921D01*
X1137484Y388981D01*
X1137370Y389045D01*
X1137262Y389117D01*
X1137176Y389154D01*
X1137094Y389200D01*
X1136971Y389242D01*
X1136851Y389294D01*
X1136761Y389315D01*
X1136672Y389346D01*
X1136543Y389366D01*
X1136416Y389395D01*
X1136323Y389400D01*
X1136231Y389414D01*
X1136100Y389411D01*
X1135970Y389417D01*
X1135878Y389405D01*
X1135784Y389403D01*
X1135656Y389376D01*
X1135527Y389360D01*
X1135438Y389331D01*
X1135347Y389312D01*
X1135114Y389229D01*
X1132608Y388191D01*
X1127992Y388191D01*
X1123727Y389958D01*
X1120462Y393222D01*
X1119909Y394557D01*
X1119846Y394679D01*
X1119791Y394804D01*
X1119742Y394876D01*
X1119702Y394953D01*
X1119618Y395061D01*
X1119542Y395175D01*
X1119481Y395237D01*
X1119428Y395306D01*
X1119326Y395397D01*
X1119230Y395495D01*
X1119160Y395546D01*
X1119095Y395604D01*
X1118978Y395676D01*
X1118867Y395755D01*
X1118789Y395792D01*
X1118715Y395838D01*
X1118587Y395888D01*
X1118463Y395946D01*
X1118379Y395969D01*
X1118299Y396001D01*
X1118164Y396027D01*
X1118032Y396063D01*
X1117946Y396070D01*
X1117860Y396087D01*
X1117723Y396089D01*
X1117587Y396100D01*
X1117500Y396092D01*
X1117414Y396093D01*
X1117279Y396071D01*
X1117142Y396058D01*
X1117059Y396035D01*
X1116973Y396020D01*
X1116844Y395974D01*
X1116712Y395937D01*
X1116634Y395899D01*
X1116552Y395870D01*
X1116434Y395802D01*
X1116311Y395742D01*
X1116240Y395691D01*
X1116165Y395647D01*
X1116060Y395559D01*
X1115950Y395478D01*
X1115890Y395415D01*
X1115824Y395359D01*
X1115736Y395253D01*
X1115642Y395154D01*
X1115595Y395082D01*
X1115539Y395015D01*
X1115472Y394895D01*
X1115397Y394781D01*
X1115338Y394657D01*
X1115320Y394625D01*
X1115313Y394603D01*
X1115291Y394557D01*
X1114738Y393222D01*
X1111473Y389958D01*
X1107208Y388191D01*
X1102592Y388191D01*
X1098327Y389958D01*
X1095062Y393222D01*
X1094509Y394557D01*
X1094446Y394679D01*
X1094391Y394804D01*
X1094342Y394876D01*
X1094302Y394953D01*
X1094218Y395061D01*
X1094142Y395175D01*
X1094081Y395237D01*
X1094028Y395306D01*
X1093926Y395397D01*
X1093830Y395495D01*
X1093760Y395546D01*
X1093695Y395604D01*
X1093578Y395676D01*
X1093467Y395755D01*
X1093389Y395792D01*
X1093315Y395838D01*
X1093187Y395888D01*
X1093063Y395946D01*
X1092979Y395969D01*
X1092899Y396001D01*
X1092764Y396027D01*
X1092632Y396063D01*
X1092546Y396070D01*
X1092460Y396087D01*
X1092323Y396089D01*
X1092187Y396100D01*
X1092100Y396092D01*
X1092014Y396093D01*
X1091879Y396071D01*
X1091742Y396058D01*
X1091659Y396035D01*
X1091573Y396020D01*
X1091444Y395974D01*
X1091312Y395937D01*
X1091234Y395899D01*
X1091152Y395870D01*
X1091034Y395802D01*
X1090911Y395742D01*
X1090840Y395691D01*
X1090765Y395647D01*
X1090660Y395559D01*
X1090550Y395478D01*
X1090490Y395415D01*
X1090424Y395359D01*
X1090336Y395253D01*
X1090242Y395154D01*
X1090195Y395082D01*
X1090139Y395015D01*
X1090072Y394895D01*
X1089997Y394781D01*
X1089938Y394657D01*
X1089920Y394625D01*
X1089913Y394603D01*
X1089891Y394557D01*
X1089338Y393222D01*
X1086073Y389958D01*
X1081808Y388191D01*
X1077192Y388191D01*
X1072927Y389958D01*
X1069662Y393223D01*
X1067725Y397899D01*
X1067720Y397909D01*
X1067716Y397920D01*
X1067616Y398107D01*
X1067518Y398295D01*
X1067511Y398304D01*
X1067506Y398313D01*
X1067375Y398479D01*
X1067244Y398647D01*
X1067235Y398655D01*
X1067228Y398664D01*
X1067070Y398802D01*
X1066911Y398945D01*
X1066901Y398951D01*
X1066893Y398959D01*
X1066713Y399067D01*
X1066530Y399179D01*
X1066520Y399184D01*
X1066510Y399189D01*
X1066313Y399264D01*
X1066114Y399342D01*
X1066103Y399344D01*
X1066093Y399348D01*
X1065884Y399387D01*
X1065676Y399428D01*
X1065665Y399428D01*
X1065654Y399430D01*
X1065441Y399432D01*
X1065229Y399435D01*
X1065218Y399433D01*
X1065207Y399433D01*
X1064999Y399396D01*
X1064789Y399362D01*
X1064778Y399358D01*
X1064767Y399356D01*
X1064568Y399283D01*
X1064368Y399211D01*
X1064358Y399206D01*
X1064348Y399202D01*
X1064165Y399094D01*
X1063981Y398989D01*
X1063972Y398981D01*
X1063962Y398975D01*
X1063801Y398837D01*
X1063640Y398700D01*
X1063632Y398692D01*
X1063624Y398684D01*
X1063490Y398519D01*
X1063355Y398356D01*
X1063349Y398346D01*
X1063342Y398337D01*
X1063240Y398152D01*
X1063136Y397967D01*
X1063133Y397956D01*
X1063127Y397946D01*
X1063039Y397715D01*
X1062575Y396286D01*
X1061921Y395003D01*
X1061075Y393839D01*
X1060057Y392821D01*
X1058893Y391975D01*
X1057610Y391321D01*
X1056599Y390993D01*
X1056599Y406400D01*
X1056599Y421807D01*
X1057610Y421479D01*
X1058893Y420825D01*
X1060057Y419979D01*
X1061075Y418961D01*
X1061921Y417797D01*
X1062575Y416514D01*
X1063039Y415085D01*
X1063044Y415075D01*
X1063046Y415064D01*
X1063131Y414870D01*
X1063215Y414675D01*
X1063221Y414665D01*
X1063225Y414655D01*
X1063344Y414478D01*
X1063460Y414302D01*
X1063468Y414293D01*
X1063474Y414284D01*
X1063623Y414131D01*
X1063769Y413978D01*
X1063778Y413972D01*
X1063786Y413963D01*
X1063960Y413839D01*
X1064129Y413715D01*
X1064140Y413710D01*
X1064149Y413703D01*
X1064341Y413612D01*
X1064531Y413520D01*
X1064542Y413517D01*
X1064553Y413512D01*
X1064758Y413457D01*
X1064962Y413400D01*
X1064973Y413399D01*
X1064984Y413396D01*
X1065196Y413378D01*
X1065406Y413358D01*
X1065418Y413359D01*
X1065429Y413358D01*
X1065641Y413379D01*
X1065851Y413397D01*
X1065862Y413400D01*
X1065874Y413401D01*
X1066077Y413458D01*
X1066283Y413513D01*
X1066293Y413518D01*
X1066304Y413521D01*
X1066493Y413613D01*
X1066686Y413705D01*
X1066695Y413712D01*
X1066705Y413717D01*
X1066876Y413841D01*
X1067049Y413966D01*
X1067057Y413974D01*
X1067066Y413981D01*
X1067211Y414133D01*
X1067360Y414287D01*
X1067366Y414296D01*
X1067374Y414304D01*
X1067490Y414481D01*
X1067608Y414658D01*
X1067613Y414668D01*
X1067619Y414678D01*
X1067725Y414901D01*
X1069309Y418725D01*
X1069352Y418862D01*
X1069403Y418996D01*
X1069418Y419075D01*
X1069442Y419152D01*
X1069460Y419294D01*
X1069487Y419435D01*
X1069493Y419558D01*
X1069498Y419595D01*
X1069496Y419622D01*
X1069499Y419682D01*
X1069499Y439322D01*
X1069483Y439508D01*
X1069471Y439694D01*
X1069463Y439730D01*
X1069459Y439767D01*
X1069410Y439948D01*
X1069366Y440128D01*
X1069351Y440162D01*
X1069341Y440198D01*
X1069260Y440366D01*
X1069184Y440537D01*
X1069164Y440567D01*
X1069148Y440601D01*
X1069038Y440752D01*
X1068933Y440906D01*
X1068899Y440944D01*
X1068886Y440963D01*
X1068859Y440988D01*
X1068767Y441090D01*
X1068390Y441467D01*
X1068246Y441587D01*
X1068107Y441711D01*
X1068075Y441730D01*
X1068047Y441754D01*
X1067885Y441846D01*
X1067725Y441943D01*
X1067691Y441956D01*
X1067658Y441974D01*
X1067482Y442036D01*
X1067308Y442103D01*
X1067272Y442110D01*
X1067237Y442123D01*
X1067053Y442152D01*
X1066870Y442187D01*
X1066819Y442190D01*
X1066796Y442193D01*
X1066759Y442192D01*
X1066622Y442199D01*
X1063816Y442199D01*
X1058303Y444483D01*
X1054083Y448703D01*
X1051799Y454216D01*
X1051799Y460184D01*
X1054083Y465697D01*
X1058303Y469917D01*
X1063816Y472201D01*
X1069722Y472201D01*
X1069859Y472213D01*
X1069995Y472216D01*
X1070080Y472233D01*
X1070167Y472241D01*
X1070299Y472277D01*
X1070433Y472304D01*
X1070514Y472336D01*
X1070598Y472359D01*
X1070721Y472418D01*
X1070848Y472469D01*
X1070922Y472515D01*
X1071001Y472552D01*
X1071112Y472633D01*
X1071228Y472705D01*
X1071292Y472763D01*
X1071363Y472814D01*
X1071457Y472913D01*
X1071559Y473005D01*
X1071612Y473074D01*
X1071672Y473136D01*
X1071748Y473250D01*
X1071831Y473359D01*
X1071871Y473436D01*
X1071919Y473508D01*
X1071974Y473634D01*
X1072036Y473756D01*
X1072062Y473839D01*
X1072096Y473919D01*
X1072127Y474052D01*
X1072167Y474183D01*
X1072178Y474269D01*
X1072198Y474354D01*
X1072204Y474490D01*
X1072221Y474626D01*
X1072215Y474713D01*
X1072220Y474800D01*
X1072202Y474935D01*
X1072194Y475072D01*
X1072173Y475157D01*
X1072162Y475243D01*
X1072120Y475373D01*
X1072088Y475506D01*
X1072053Y475585D01*
X1072026Y475668D01*
X1071962Y475789D01*
X1071907Y475914D01*
X1071858Y475986D01*
X1071817Y476063D01*
X1071733Y476171D01*
X1071656Y476284D01*
X1071564Y476385D01*
X1071541Y476414D01*
X1071524Y476430D01*
X1071490Y476467D01*
X1037990Y509967D01*
X1037846Y510087D01*
X1037707Y510211D01*
X1037675Y510230D01*
X1037647Y510254D01*
X1037484Y510346D01*
X1037325Y510443D01*
X1037291Y510456D01*
X1037258Y510474D01*
X1037082Y510536D01*
X1036908Y510603D01*
X1036872Y510610D01*
X1036837Y510623D01*
X1036653Y510652D01*
X1036470Y510687D01*
X1036419Y510690D01*
X1036396Y510693D01*
X1036359Y510692D01*
X1036222Y510699D01*
X779878Y510699D01*
X779692Y510683D01*
X779506Y510671D01*
X779470Y510663D01*
X779433Y510659D01*
X779252Y510610D01*
X779072Y510566D01*
X779038Y510551D01*
X779002Y510541D01*
X778834Y510460D01*
X778663Y510384D01*
X778633Y510364D01*
X778599Y510348D01*
X778448Y510238D01*
X778294Y510133D01*
X778256Y510099D01*
X778237Y510086D01*
X778212Y510059D01*
X778110Y509967D01*
X691365Y423222D01*
X687689Y421699D01*
X286857Y421699D01*
X286671Y421683D01*
X286485Y421671D01*
X286449Y421663D01*
X286412Y421659D01*
X286231Y421610D01*
X286051Y421566D01*
X286017Y421551D01*
X285981Y421541D01*
X285813Y421460D01*
X285642Y421384D01*
X285612Y421364D01*
X285578Y421348D01*
X285427Y421238D01*
X285273Y421133D01*
X285235Y421099D01*
X285216Y421086D01*
X285191Y421059D01*
X285089Y420967D01*
X284889Y420767D01*
X284857Y420729D01*
X284820Y420695D01*
X284714Y420558D01*
X284603Y420424D01*
X284578Y420381D01*
X284548Y420341D01*
X284468Y420187D01*
X284382Y420036D01*
X284366Y419989D01*
X284343Y419944D01*
X284292Y419778D01*
X284234Y419615D01*
X284226Y419565D01*
X284211Y419517D01*
X284191Y419345D01*
X284163Y419174D01*
X284164Y419123D01*
X284158Y419074D01*
X284169Y418900D01*
X284172Y418727D01*
X284182Y418678D01*
X284185Y418628D01*
X284226Y418459D01*
X284261Y418289D01*
X284279Y418242D01*
X284291Y418194D01*
X284361Y418035D01*
X284425Y417874D01*
X284452Y417831D01*
X284472Y417786D01*
X284570Y417642D01*
X284662Y417495D01*
X284695Y417458D01*
X284723Y417416D01*
X284889Y417233D01*
X285090Y417033D01*
X285232Y416913D01*
X285372Y416789D01*
X285404Y416770D01*
X285432Y416746D01*
X285595Y416654D01*
X285754Y416557D01*
X285788Y416544D01*
X285821Y416526D01*
X285997Y416464D01*
X286171Y416397D01*
X286207Y416390D01*
X286242Y416377D01*
X286426Y416348D01*
X286609Y416313D01*
X286660Y416310D01*
X286683Y416307D01*
X286720Y416308D01*
X286857Y416301D01*
X705922Y416301D01*
X706108Y416317D01*
X706294Y416329D01*
X706330Y416337D01*
X706367Y416341D01*
X706548Y416390D01*
X706728Y416434D01*
X706762Y416449D01*
X706798Y416459D01*
X706966Y416540D01*
X707137Y416616D01*
X707167Y416636D01*
X707201Y416652D01*
X707352Y416762D01*
X707506Y416867D01*
X707544Y416901D01*
X707563Y416914D01*
X707570Y416922D01*
X707571Y416923D01*
X707591Y416943D01*
X707690Y417033D01*
X791270Y500613D01*
X791270Y500614D01*
X794435Y503778D01*
X798111Y505301D01*
X941789Y505301D01*
X945465Y503778D01*
X983213Y466030D01*
X983214Y466030D01*
X985877Y463366D01*
X985949Y463306D01*
X986014Y463239D01*
X986120Y463163D01*
X986220Y463080D01*
X986301Y463034D01*
X986377Y462979D01*
X986495Y462923D01*
X986608Y462859D01*
X986696Y462828D01*
X986781Y462788D01*
X986907Y462754D01*
X987030Y462711D01*
X987122Y462696D01*
X987212Y462672D01*
X987342Y462661D01*
X987471Y462640D01*
X987564Y462642D01*
X987657Y462634D01*
X987787Y462646D01*
X987917Y462649D01*
X988009Y462668D01*
X988102Y462676D01*
X988227Y462712D01*
X988355Y462737D01*
X988442Y462772D01*
X988532Y462797D01*
X988649Y462854D01*
X988770Y462902D01*
X988850Y462952D01*
X988934Y462992D01*
X989039Y463069D01*
X989150Y463138D01*
X989219Y463201D01*
X989294Y463256D01*
X989384Y463351D01*
X989481Y463438D01*
X989538Y463512D01*
X989602Y463580D01*
X989674Y463689D01*
X989753Y463792D01*
X989796Y463875D01*
X989847Y463953D01*
X989953Y464177D01*
X990583Y465697D01*
X994803Y469917D01*
X1000316Y472201D01*
X1006284Y472201D01*
X1011797Y469917D01*
X1016017Y465697D01*
X1018301Y460184D01*
X1018301Y454216D01*
X1016017Y448703D01*
X1014033Y446719D01*
X1013913Y446575D01*
X1013789Y446436D01*
X1013770Y446404D01*
X1013746Y446376D01*
X1013654Y446214D01*
X1013557Y446054D01*
X1013544Y446020D01*
X1013526Y445987D01*
X1013464Y445811D01*
X1013397Y445637D01*
X1013390Y445601D01*
X1013377Y445566D01*
X1013348Y445381D01*
X1013313Y445198D01*
X1013310Y445148D01*
X1013307Y445125D01*
X1013308Y445088D01*
X1013301Y444951D01*
X1013301Y419682D01*
X1013314Y419539D01*
X1013317Y419396D01*
X1013333Y419317D01*
X1013341Y419237D01*
X1013379Y419099D01*
X1013408Y418959D01*
X1013449Y418842D01*
X1013459Y418806D01*
X1013471Y418782D01*
X1013491Y418725D01*
X1015075Y414901D01*
X1015080Y414891D01*
X1015084Y414880D01*
X1015184Y414693D01*
X1015282Y414505D01*
X1015289Y414497D01*
X1015294Y414487D01*
X1015426Y414320D01*
X1015556Y414153D01*
X1015565Y414145D01*
X1015572Y414136D01*
X1015731Y413997D01*
X1015889Y413855D01*
X1015899Y413849D01*
X1015907Y413841D01*
X1016088Y413732D01*
X1016270Y413621D01*
X1016280Y413617D01*
X1016290Y413611D01*
X1016488Y413535D01*
X1016686Y413458D01*
X1016697Y413456D01*
X1016707Y413452D01*
X1016916Y413413D01*
X1017124Y413372D01*
X1017135Y413372D01*
X1017146Y413370D01*
X1017359Y413369D01*
X1017571Y413365D01*
X1017582Y413367D01*
X1017593Y413367D01*
X1017803Y413404D01*
X1018011Y413438D01*
X1018022Y413442D01*
X1018033Y413444D01*
X1018232Y413517D01*
X1018432Y413589D01*
X1018442Y413594D01*
X1018452Y413598D01*
X1018634Y413705D01*
X1018819Y413811D01*
X1018828Y413819D01*
X1018837Y413825D01*
X1018997Y413962D01*
X1019160Y414100D01*
X1019168Y414108D01*
X1019176Y414116D01*
X1019309Y414280D01*
X1019445Y414444D01*
X1019450Y414454D01*
X1019458Y414463D01*
X1019560Y414649D01*
X1019664Y414833D01*
X1019667Y414844D01*
X1019673Y414854D01*
X1019761Y415085D01*
X1020225Y416514D01*
X1020879Y417797D01*
X1021725Y418961D01*
X1022743Y419979D01*
X1023907Y420825D01*
X1025190Y421479D01*
X1026201Y421807D01*
X1026201Y406400D01*
X1026201Y390993D01*
X1025190Y391321D01*
X1023907Y391975D01*
X1022743Y392821D01*
X1021725Y393839D01*
X1020879Y395003D01*
X1020225Y396286D01*
X1019761Y397715D01*
X1019756Y397725D01*
X1019754Y397736D01*
X1019670Y397929D01*
X1019585Y398125D01*
X1019579Y398135D01*
X1019575Y398145D01*
X1019457Y398321D01*
X1019340Y398498D01*
X1019332Y398507D01*
X1019326Y398516D01*
X1019177Y398669D01*
X1019031Y398822D01*
X1019022Y398828D01*
X1019014Y398837D01*
X1018841Y398960D01*
X1018671Y399085D01*
X1018660Y399090D01*
X1018651Y399097D01*
X1018459Y399188D01*
X1018269Y399280D01*
X1018258Y399283D01*
X1018247Y399288D01*
X1018040Y399344D01*
X1017838Y399400D01*
X1017827Y399401D01*
X1017816Y399404D01*
X1017602Y399422D01*
X1017394Y399442D01*
X1017382Y399441D01*
X1017371Y399442D01*
X1017161Y399422D01*
X1016949Y399403D01*
X1016937Y399400D01*
X1016926Y399399D01*
X1016724Y399343D01*
X1016517Y399287D01*
X1016507Y399282D01*
X1016496Y399279D01*
X1016306Y399186D01*
X1016114Y399095D01*
X1016105Y399088D01*
X1016095Y399083D01*
X1015923Y398958D01*
X1015751Y398834D01*
X1015743Y398826D01*
X1015734Y398819D01*
X1015589Y398667D01*
X1015440Y398513D01*
X1015434Y398504D01*
X1015426Y398496D01*
X1015310Y398319D01*
X1015192Y398142D01*
X1015187Y398132D01*
X1015181Y398122D01*
X1015075Y397899D01*
X1013138Y393223D01*
X1009873Y389958D01*
X1005608Y388191D01*
X1000992Y388191D01*
X996727Y389958D01*
X993462Y393222D01*
X992909Y394557D01*
X992846Y394679D01*
X992791Y394804D01*
X992742Y394876D01*
X992702Y394953D01*
X992618Y395061D01*
X992542Y395175D01*
X992481Y395237D01*
X992428Y395306D01*
X992326Y395397D01*
X992230Y395495D01*
X992160Y395546D01*
X992095Y395604D01*
X991978Y395676D01*
X991867Y395755D01*
X991789Y395792D01*
X991715Y395838D01*
X991587Y395888D01*
X991463Y395946D01*
X991379Y395969D01*
X991299Y396001D01*
X991164Y396027D01*
X991032Y396063D01*
X990946Y396070D01*
X990860Y396087D01*
X990723Y396089D01*
X990587Y396100D01*
X990500Y396092D01*
X990414Y396093D01*
X990279Y396071D01*
X990142Y396058D01*
X990059Y396035D01*
X989973Y396020D01*
X989844Y395974D01*
X989712Y395937D01*
X989634Y395899D01*
X989552Y395870D01*
X989434Y395802D01*
X989311Y395742D01*
X989240Y395691D01*
X989165Y395647D01*
X989060Y395559D01*
X988950Y395478D01*
X988890Y395415D01*
X988824Y395359D01*
X988736Y395253D01*
X988642Y395154D01*
X988595Y395082D01*
X988539Y395015D01*
X988472Y394895D01*
X988397Y394781D01*
X988338Y394657D01*
X988320Y394625D01*
X988313Y394603D01*
X988291Y394557D01*
X987738Y393222D01*
X984473Y389958D01*
X980208Y388191D01*
X975592Y388191D01*
X971327Y389958D01*
X968062Y393222D01*
X967509Y394557D01*
X967446Y394679D01*
X967391Y394804D01*
X967342Y394876D01*
X967302Y394953D01*
X967218Y395061D01*
X967142Y395175D01*
X967081Y395237D01*
X967028Y395306D01*
X966926Y395397D01*
X966830Y395495D01*
X966760Y395546D01*
X966695Y395604D01*
X966578Y395676D01*
X966467Y395755D01*
X966389Y395792D01*
X966315Y395838D01*
X966187Y395888D01*
X966063Y395946D01*
X965979Y395969D01*
X965899Y396001D01*
X965764Y396027D01*
X965632Y396063D01*
X965546Y396070D01*
X965460Y396087D01*
X965323Y396089D01*
X965187Y396100D01*
X965100Y396092D01*
X965014Y396093D01*
X964879Y396071D01*
X964742Y396058D01*
X964659Y396035D01*
X964573Y396020D01*
X964444Y395974D01*
X964312Y395937D01*
X964234Y395899D01*
X964152Y395870D01*
X964034Y395802D01*
X963911Y395742D01*
X963840Y395691D01*
X963765Y395647D01*
X963660Y395559D01*
X963550Y395478D01*
X963490Y395415D01*
X963424Y395359D01*
X963336Y395253D01*
X963242Y395154D01*
X963195Y395082D01*
X963139Y395015D01*
X963072Y394895D01*
X962997Y394781D01*
X962938Y394657D01*
X962920Y394625D01*
X962913Y394603D01*
X962891Y394557D01*
X962338Y393222D01*
X959073Y389958D01*
X954808Y388191D01*
X950192Y388191D01*
X945927Y389958D01*
X942662Y393223D01*
X941985Y394856D01*
X941982Y394862D01*
X941980Y394868D01*
X941879Y395060D01*
X941778Y395252D01*
X941774Y395257D01*
X941771Y395263D01*
X941637Y395433D01*
X941504Y395605D01*
X941499Y395609D01*
X941495Y395614D01*
X941333Y395758D01*
X941171Y395903D01*
X941165Y395906D01*
X941161Y395911D01*
X940977Y396022D01*
X940791Y396137D01*
X940784Y396139D01*
X940779Y396143D01*
X940576Y396221D01*
X940375Y396300D01*
X940368Y396301D01*
X940362Y396303D01*
X940148Y396344D01*
X939936Y396386D01*
X939930Y396386D01*
X939923Y396387D01*
X939676Y396399D01*
X837028Y396399D01*
X836842Y396383D01*
X836656Y396371D01*
X836620Y396363D01*
X836583Y396359D01*
X836402Y396310D01*
X836222Y396266D01*
X836188Y396251D01*
X836152Y396241D01*
X835984Y396160D01*
X835813Y396084D01*
X835783Y396064D01*
X835749Y396048D01*
X835598Y395938D01*
X835444Y395833D01*
X835406Y395799D01*
X835387Y395786D01*
X835362Y395759D01*
X835260Y395667D01*
X828533Y388940D01*
X828413Y388796D01*
X828289Y388657D01*
X828270Y388625D01*
X828246Y388597D01*
X828154Y388435D01*
X828057Y388275D01*
X828044Y388241D01*
X828026Y388208D01*
X827964Y388032D01*
X827897Y387858D01*
X827890Y387822D01*
X827877Y387787D01*
X827848Y387603D01*
X827813Y387420D01*
X827810Y387369D01*
X827807Y387346D01*
X827808Y387309D01*
X827801Y387172D01*
X827801Y384366D01*
X825517Y378853D01*
X821297Y374633D01*
X815784Y372349D01*
X809816Y372349D01*
X804303Y374633D01*
X800083Y378853D01*
X797799Y384366D01*
X797799Y390334D01*
X800083Y395847D01*
X804303Y400067D01*
X809816Y402351D01*
X812622Y402351D01*
X812808Y402367D01*
X812994Y402379D01*
X813030Y402387D01*
X813067Y402391D01*
X813248Y402440D01*
X813428Y402484D01*
X813462Y402499D01*
X813498Y402509D01*
X813666Y402590D01*
X813837Y402666D01*
X813867Y402686D01*
X813901Y402702D01*
X814052Y402812D01*
X814206Y402917D01*
X814244Y402951D01*
X814263Y402964D01*
X814288Y402991D01*
X814390Y403083D01*
X826185Y414878D01*
X829861Y416401D01*
X939676Y416401D01*
X939683Y416401D01*
X939689Y416401D01*
X939903Y416421D01*
X940121Y416441D01*
X940127Y416442D01*
X940134Y416443D01*
X940338Y416500D01*
X940552Y416559D01*
X940558Y416562D01*
X940564Y416564D01*
X940755Y416657D01*
X940954Y416752D01*
X940960Y416756D01*
X940966Y416759D01*
X941138Y416885D01*
X941316Y417014D01*
X941321Y417019D01*
X941326Y417023D01*
X941475Y417179D01*
X941626Y417336D01*
X941629Y417342D01*
X941634Y417347D01*
X941752Y417527D01*
X941873Y417708D01*
X941876Y417714D01*
X941879Y417720D01*
X941985Y417944D01*
X942662Y419577D01*
X945927Y422842D01*
X950192Y424609D01*
X954808Y424609D01*
X959073Y422842D01*
X962338Y419578D01*
X962891Y418243D01*
X962955Y418121D01*
X963009Y417996D01*
X963058Y417924D01*
X963098Y417847D01*
X963182Y417739D01*
X963259Y417625D01*
X963319Y417563D01*
X963372Y417494D01*
X963474Y417403D01*
X963570Y417305D01*
X963640Y417254D01*
X963705Y417196D01*
X963822Y417124D01*
X963933Y417045D01*
X964012Y417008D01*
X964086Y416962D01*
X964213Y416912D01*
X964337Y416854D01*
X964421Y416831D01*
X964502Y416799D01*
X964636Y416773D01*
X964768Y416737D01*
X964855Y416730D01*
X964940Y416713D01*
X965077Y416711D01*
X965213Y416700D01*
X965300Y416708D01*
X965387Y416707D01*
X965521Y416729D01*
X965658Y416742D01*
X965742Y416766D01*
X965827Y416780D01*
X965956Y416826D01*
X966088Y416863D01*
X966166Y416901D01*
X966248Y416930D01*
X966367Y416998D01*
X966490Y417058D01*
X966560Y417109D01*
X966635Y417153D01*
X966740Y417241D01*
X966850Y417322D01*
X966910Y417385D01*
X966976Y417441D01*
X967064Y417547D01*
X967158Y417646D01*
X967205Y417718D01*
X967261Y417785D01*
X967328Y417905D01*
X967403Y418019D01*
X967462Y418143D01*
X967480Y418175D01*
X967487Y418197D01*
X967509Y418243D01*
X967709Y418726D01*
X967752Y418862D01*
X967803Y418996D01*
X967818Y419075D01*
X967842Y419152D01*
X967860Y419294D01*
X967887Y419435D01*
X967893Y419558D01*
X967898Y419595D01*
X967896Y419622D01*
X967899Y419682D01*
X967899Y452022D01*
X967883Y452208D01*
X967871Y452394D01*
X967863Y452430D01*
X967859Y452467D01*
X967810Y452648D01*
X967766Y452828D01*
X967751Y452862D01*
X967741Y452898D01*
X967660Y453066D01*
X967584Y453237D01*
X967564Y453267D01*
X967548Y453301D01*
X967438Y453452D01*
X967333Y453606D01*
X967299Y453644D01*
X967286Y453663D01*
X967259Y453688D01*
X967167Y453790D01*
X936390Y484567D01*
X936246Y484687D01*
X936107Y484811D01*
X936075Y484830D01*
X936047Y484854D01*
X935885Y484946D01*
X935725Y485043D01*
X935691Y485056D01*
X935658Y485074D01*
X935482Y485136D01*
X935308Y485203D01*
X935272Y485210D01*
X935237Y485223D01*
X935053Y485252D01*
X934870Y485287D01*
X934819Y485290D01*
X934796Y485293D01*
X934759Y485292D01*
X934622Y485299D01*
X805278Y485299D01*
X805092Y485283D01*
X804906Y485271D01*
X804870Y485263D01*
X804833Y485259D01*
X804652Y485210D01*
X804472Y485166D01*
X804438Y485151D01*
X804402Y485141D01*
X804234Y485060D01*
X804063Y484984D01*
X804033Y484964D01*
X803999Y484948D01*
X803848Y484838D01*
X803694Y484733D01*
X803656Y484699D01*
X803637Y484686D01*
X803612Y484659D01*
X803510Y484567D01*
X716765Y397822D01*
X713089Y396299D01*
X286857Y396299D01*
X286671Y396283D01*
X286485Y396271D01*
X286449Y396263D01*
X286412Y396259D01*
X286231Y396210D01*
X286051Y396166D01*
X286017Y396151D01*
X285981Y396141D01*
X285813Y396060D01*
X285642Y395984D01*
X285612Y395964D01*
X285578Y395948D01*
X285427Y395838D01*
X285273Y395733D01*
X285235Y395699D01*
X285216Y395686D01*
X285191Y395659D01*
X285089Y395567D01*
X284889Y395367D01*
X284857Y395329D01*
X284820Y395295D01*
X284714Y395158D01*
X284603Y395024D01*
X284578Y394981D01*
X284548Y394941D01*
X284468Y394787D01*
X284382Y394636D01*
X284366Y394589D01*
X284343Y394544D01*
X284292Y394379D01*
X284234Y394215D01*
X284226Y394165D01*
X284211Y394117D01*
X284191Y393945D01*
X284163Y393774D01*
X284164Y393724D01*
X284158Y393674D01*
X284169Y393500D01*
X284172Y393327D01*
X284182Y393278D01*
X284185Y393228D01*
X284226Y393059D01*
X284261Y392889D01*
X284279Y392843D01*
X284291Y392794D01*
X284361Y392635D01*
X284425Y392474D01*
X284452Y392431D01*
X284472Y392386D01*
X284570Y392242D01*
X284662Y392095D01*
X284695Y392058D01*
X284723Y392016D01*
X284889Y391833D01*
X285089Y391633D01*
X285233Y391513D01*
X285372Y391389D01*
X285404Y391370D01*
X285432Y391346D01*
X285594Y391254D01*
X285754Y391157D01*
X285788Y391144D01*
X285821Y391126D01*
X285996Y391064D01*
X286171Y390997D01*
X286207Y390990D01*
X286242Y390977D01*
X286426Y390948D01*
X286609Y390913D01*
X286660Y390910D01*
X286683Y390907D01*
X286720Y390908D01*
X286857Y390901D01*
X408489Y390901D01*
X412165Y389378D01*
X435210Y366333D01*
X435354Y366213D01*
X435493Y366089D01*
X435525Y366070D01*
X435553Y366046D01*
X435715Y365954D01*
X435875Y365857D01*
X435909Y365844D01*
X435942Y365826D01*
X436118Y365764D01*
X436292Y365697D01*
X436328Y365690D01*
X436363Y365677D01*
X436547Y365648D01*
X436730Y365613D01*
X436781Y365610D01*
X436804Y365607D01*
X436841Y365608D01*
X436978Y365601D01*
X890989Y365601D01*
X894665Y364078D01*
X917810Y340933D01*
X917954Y340813D01*
X918093Y340689D01*
X918125Y340670D01*
X918153Y340646D01*
X918315Y340554D01*
X918475Y340457D01*
X918509Y340444D01*
X918542Y340426D01*
X918718Y340364D01*
X918892Y340297D01*
X918928Y340290D01*
X918963Y340277D01*
X919147Y340248D01*
X919330Y340213D01*
X919381Y340210D01*
X919404Y340207D01*
X919441Y340208D01*
X919578Y340201D01*
X939676Y340201D01*
X939683Y340201D01*
X939689Y340201D01*
X939903Y340221D01*
X940121Y340241D01*
X940128Y340242D01*
X940134Y340243D01*
X940340Y340301D01*
X940552Y340359D01*
X940558Y340362D01*
X940564Y340364D01*
X940756Y340457D01*
X940955Y340552D01*
X940960Y340556D01*
X940966Y340559D01*
X941139Y340686D01*
X941316Y340814D01*
X941321Y340819D01*
X941326Y340823D01*
X941475Y340979D01*
X941626Y341136D01*
X941630Y341142D01*
X941634Y341147D01*
X941752Y341326D01*
X941873Y341508D01*
X941876Y341515D01*
X941879Y341520D01*
X941985Y341744D01*
X942662Y343378D01*
X945927Y346642D01*
X950192Y348409D01*
X954808Y348409D01*
X959073Y346642D01*
X962338Y343378D01*
X962891Y342043D01*
X962955Y341921D01*
X963009Y341796D01*
X963058Y341724D01*
X963098Y341647D01*
X963182Y341539D01*
X963258Y341425D01*
X963319Y341363D01*
X963372Y341294D01*
X963474Y341203D01*
X963570Y341105D01*
X963640Y341054D01*
X963705Y340996D01*
X963822Y340924D01*
X963933Y340845D01*
X964011Y340808D01*
X964085Y340762D01*
X964213Y340712D01*
X964337Y340654D01*
X964421Y340631D01*
X964501Y340599D01*
X964636Y340573D01*
X964768Y340537D01*
X964855Y340530D01*
X964940Y340513D01*
X965077Y340511D01*
X965213Y340500D01*
X965300Y340508D01*
X965386Y340507D01*
X965522Y340529D01*
X965658Y340542D01*
X965741Y340565D01*
X965827Y340580D01*
X965956Y340626D01*
X966088Y340663D01*
X966166Y340701D01*
X966248Y340730D01*
X966366Y340798D01*
X966489Y340858D01*
X966560Y340909D01*
X966635Y340953D01*
X966740Y341041D01*
X966850Y341122D01*
X966910Y341185D01*
X966976Y341241D01*
X967064Y341347D01*
X967158Y341446D01*
X967205Y341518D01*
X967261Y341585D01*
X967328Y341705D01*
X967403Y341819D01*
X967462Y341942D01*
X967480Y341975D01*
X967487Y341997D01*
X967509Y342043D01*
X968062Y343377D01*
X971327Y346642D01*
X975592Y348409D01*
X980208Y348409D01*
X984473Y346642D01*
X987738Y343378D01*
X988291Y342043D01*
X988355Y341921D01*
X988409Y341796D01*
X988458Y341724D01*
X988498Y341647D01*
X988582Y341539D01*
X988658Y341425D01*
X988719Y341363D01*
X988772Y341294D01*
X988874Y341203D01*
X988970Y341105D01*
X989040Y341054D01*
X989105Y340996D01*
X989222Y340924D01*
X989333Y340845D01*
X989411Y340808D01*
X989485Y340762D01*
X989613Y340712D01*
X989737Y340654D01*
X989821Y340631D01*
X989901Y340599D01*
X990036Y340573D01*
X990168Y340537D01*
X990255Y340530D01*
X990340Y340513D01*
X990477Y340511D01*
X990613Y340500D01*
X990700Y340508D01*
X990786Y340507D01*
X990922Y340529D01*
X991058Y340542D01*
X991141Y340565D01*
X991227Y340580D01*
X991356Y340626D01*
X991488Y340663D01*
X991566Y340701D01*
X991648Y340730D01*
X991766Y340798D01*
X991889Y340858D01*
X991960Y340909D01*
X992035Y340953D01*
X992140Y341041D01*
X992250Y341122D01*
X992310Y341185D01*
X992376Y341241D01*
X992464Y341347D01*
X992558Y341446D01*
X992605Y341518D01*
X992661Y341585D01*
X992728Y341705D01*
X992803Y341819D01*
X992862Y341942D01*
X992880Y341975D01*
X992887Y341997D01*
X992909Y342043D01*
X993462Y343377D01*
X996727Y346642D01*
X1000992Y348409D01*
X1005608Y348409D01*
X1009873Y346642D01*
X1013138Y343377D01*
X1015075Y338701D01*
X1015080Y338691D01*
X1015084Y338680D01*
X1015184Y338493D01*
X1015282Y338305D01*
X1015289Y338296D01*
X1015294Y338287D01*
X1015425Y338121D01*
X1015556Y337953D01*
X1015565Y337945D01*
X1015572Y337936D01*
X1015730Y337798D01*
X1015889Y337655D01*
X1015899Y337649D01*
X1015907Y337641D01*
X1016087Y337533D01*
X1016270Y337421D01*
X1016280Y337416D01*
X1016290Y337411D01*
X1016487Y337336D01*
X1016686Y337258D01*
X1016697Y337256D01*
X1016707Y337252D01*
X1016916Y337213D01*
X1017124Y337172D01*
X1017135Y337172D01*
X1017146Y337170D01*
X1017359Y337168D01*
X1017571Y337165D01*
X1017582Y337167D01*
X1017593Y337167D01*
X1017801Y337204D01*
X1018011Y337238D01*
X1018022Y337242D01*
X1018033Y337244D01*
X1018232Y337317D01*
X1018432Y337389D01*
X1018442Y337394D01*
X1018452Y337398D01*
X1018635Y337506D01*
X1018819Y337611D01*
X1018828Y337619D01*
X1018838Y337625D01*
X1018999Y337763D01*
X1019160Y337900D01*
X1019168Y337908D01*
X1019176Y337916D01*
X1019310Y338081D01*
X1019445Y338244D01*
X1019451Y338254D01*
X1019458Y338263D01*
X1019560Y338448D01*
X1019664Y338633D01*
X1019667Y338644D01*
X1019673Y338654D01*
X1019761Y338885D01*
X1020225Y340314D01*
X1020879Y341597D01*
X1021725Y342761D01*
X1022743Y343779D01*
X1023907Y344625D01*
X1025190Y345279D01*
X1026201Y345607D01*
X1026201Y330200D01*
X1026201Y314793D01*
X1025190Y315121D01*
X1023907Y315775D01*
X1022743Y316621D01*
X1021725Y317639D01*
X1020879Y318803D01*
X1020225Y320086D01*
X1019761Y321515D01*
X1019756Y321525D01*
X1019754Y321536D01*
X1019669Y321729D01*
X1019585Y321925D01*
X1019579Y321935D01*
X1019575Y321945D01*
X1019457Y322121D01*
X1019340Y322298D01*
X1019332Y322307D01*
X1019326Y322316D01*
X1019177Y322469D01*
X1019031Y322622D01*
X1019022Y322628D01*
X1019014Y322637D01*
X1018841Y322760D01*
X1018671Y322885D01*
X1018660Y322890D01*
X1018651Y322897D01*
X1018459Y322987D01*
X1018269Y323080D01*
X1018258Y323083D01*
X1018247Y323088D01*
X1018041Y323143D01*
X1017838Y323200D01*
X1017827Y323201D01*
X1017816Y323204D01*
X1017602Y323222D01*
X1017394Y323242D01*
X1017382Y323241D01*
X1017371Y323242D01*
X1017160Y323222D01*
X1016949Y323203D01*
X1016937Y323200D01*
X1016926Y323199D01*
X1016724Y323143D01*
X1016517Y323087D01*
X1016507Y323082D01*
X1016496Y323079D01*
X1016306Y322986D01*
X1016114Y322895D01*
X1016105Y322888D01*
X1016095Y322883D01*
X1015923Y322758D01*
X1015751Y322634D01*
X1015743Y322626D01*
X1015734Y322620D01*
X1015589Y322467D01*
X1015440Y322313D01*
X1015434Y322304D01*
X1015426Y322296D01*
X1015310Y322119D01*
X1015192Y321942D01*
X1015187Y321932D01*
X1015181Y321922D01*
X1015075Y321699D01*
X1013491Y317875D01*
X1013448Y317738D01*
X1013397Y317604D01*
X1013382Y317525D01*
X1013358Y317448D01*
X1013340Y317306D01*
X1013313Y317165D01*
X1013307Y317042D01*
X1013302Y317005D01*
X1013304Y316978D01*
X1013301Y316918D01*
X1013301Y290546D01*
X1013317Y290360D01*
X1013329Y290174D01*
X1013337Y290138D01*
X1013341Y290101D01*
X1013390Y289921D01*
X1013434Y289740D01*
X1013449Y289706D01*
X1013459Y289670D01*
X1013540Y289502D01*
X1013616Y289332D01*
X1013636Y289301D01*
X1013652Y289268D01*
X1013762Y289117D01*
X1013867Y288962D01*
X1013901Y288925D01*
X1013914Y288906D01*
X1013941Y288880D01*
X1014033Y288779D01*
X1016017Y286794D01*
X1018301Y281281D01*
X1018301Y275313D01*
X1016017Y269800D01*
X1014484Y268267D01*
X1014397Y268162D01*
X1014302Y268064D01*
X1014254Y267991D01*
X1014198Y267924D01*
X1014130Y267805D01*
X1014055Y267692D01*
X1014020Y267612D01*
X1013977Y267536D01*
X1013932Y267407D01*
X1013878Y267281D01*
X1013858Y267197D01*
X1013829Y267115D01*
X1013807Y266979D01*
X1013776Y266846D01*
X1013772Y266760D01*
X1013758Y266674D01*
X1013761Y266537D01*
X1013754Y266400D01*
X1013765Y266314D01*
X1013767Y266227D01*
X1013794Y266093D01*
X1013812Y265957D01*
X1013838Y265874D01*
X1013856Y265789D01*
X1013906Y265662D01*
X1013948Y265532D01*
X1013988Y265455D01*
X1014020Y265374D01*
X1014093Y265258D01*
X1014157Y265137D01*
X1014210Y265069D01*
X1014256Y264995D01*
X1014348Y264893D01*
X1014433Y264786D01*
X1014498Y264728D01*
X1014556Y264664D01*
X1014665Y264580D01*
X1014767Y264489D01*
X1014841Y264444D01*
X1014910Y264391D01*
X1015032Y264328D01*
X1015149Y264257D01*
X1015230Y264226D01*
X1015307Y264186D01*
X1015438Y264146D01*
X1015566Y264097D01*
X1015651Y264080D01*
X1015734Y264055D01*
X1015870Y264039D01*
X1016004Y264013D01*
X1016141Y264006D01*
X1016178Y264002D01*
X1016201Y264003D01*
X1016252Y264001D01*
X1041148Y264001D01*
X1041285Y264013D01*
G37*
%LPC*%
G36*
X581690Y30559D02*
X581690Y30559D01*
X577051Y32481D01*
X573501Y36031D01*
X572463Y38535D01*
X572445Y38569D01*
X572433Y38606D01*
X572342Y38767D01*
X572256Y38931D01*
X572233Y38961D01*
X572214Y38995D01*
X572095Y39137D01*
X571982Y39283D01*
X571953Y39309D01*
X571928Y39339D01*
X571787Y39458D01*
X571649Y39581D01*
X571616Y39602D01*
X571587Y39627D01*
X571426Y39719D01*
X571269Y39815D01*
X571233Y39830D01*
X571199Y39849D01*
X571025Y39911D01*
X570853Y39978D01*
X570815Y39986D01*
X570778Y39999D01*
X570596Y40028D01*
X570415Y40064D01*
X570376Y40065D01*
X570338Y40071D01*
X570153Y40068D01*
X569968Y40071D01*
X569930Y40064D01*
X569891Y40064D01*
X569709Y40028D01*
X569527Y39998D01*
X569491Y39985D01*
X569453Y39977D01*
X569280Y39909D01*
X569107Y39847D01*
X569073Y39828D01*
X569037Y39814D01*
X568880Y39717D01*
X568719Y39625D01*
X568690Y39600D01*
X568657Y39579D01*
X568519Y39456D01*
X568378Y39336D01*
X568353Y39307D01*
X568325Y39281D01*
X568211Y39134D01*
X568094Y38992D01*
X568075Y38958D01*
X568051Y38928D01*
X567928Y38713D01*
X567490Y37855D01*
X566550Y36561D01*
X565419Y35430D01*
X564125Y34490D01*
X562700Y33764D01*
X561339Y33321D01*
X561339Y50760D01*
X561337Y50788D01*
X561339Y50840D01*
X561339Y68279D01*
X562700Y67836D01*
X564125Y67110D01*
X565419Y66170D01*
X566550Y65039D01*
X567490Y63745D01*
X567928Y62887D01*
X567948Y62854D01*
X567964Y62819D01*
X568067Y62665D01*
X568165Y62509D01*
X568191Y62480D01*
X568213Y62448D01*
X568342Y62315D01*
X568466Y62179D01*
X568497Y62155D01*
X568524Y62127D01*
X568674Y62020D01*
X568821Y61908D01*
X568856Y61890D01*
X568887Y61867D01*
X569054Y61788D01*
X569219Y61704D01*
X569256Y61693D01*
X569291Y61676D01*
X569470Y61628D01*
X569646Y61575D01*
X569685Y61570D01*
X569722Y61560D01*
X569906Y61544D01*
X570090Y61523D01*
X570129Y61526D01*
X570167Y61522D01*
X570351Y61540D01*
X570536Y61552D01*
X570573Y61561D01*
X570612Y61565D01*
X570790Y61615D01*
X570970Y61659D01*
X571005Y61675D01*
X571042Y61685D01*
X571208Y61766D01*
X571377Y61842D01*
X571409Y61864D01*
X571444Y61881D01*
X571593Y61989D01*
X571746Y62094D01*
X571773Y62122D01*
X571804Y62144D01*
X571932Y62278D01*
X572063Y62408D01*
X572086Y62440D01*
X572112Y62468D01*
X572213Y62622D01*
X572320Y62774D01*
X572336Y62809D01*
X572358Y62841D01*
X572463Y63065D01*
X573501Y65569D01*
X577051Y69119D01*
X581690Y71041D01*
X586710Y71041D01*
X591349Y69119D01*
X595133Y65336D01*
X595171Y65304D01*
X595205Y65266D01*
X595343Y65160D01*
X595476Y65049D01*
X595519Y65025D01*
X595559Y64994D01*
X595713Y64914D01*
X595864Y64829D01*
X595911Y64812D01*
X595956Y64789D01*
X596121Y64738D01*
X596285Y64680D01*
X596335Y64672D01*
X596383Y64658D01*
X596555Y64637D01*
X596726Y64610D01*
X596776Y64611D01*
X596826Y64605D01*
X597000Y64615D01*
X597173Y64619D01*
X597222Y64628D01*
X597272Y64631D01*
X597441Y64673D01*
X597611Y64707D01*
X597657Y64725D01*
X597706Y64737D01*
X597865Y64808D01*
X598026Y64872D01*
X598069Y64898D01*
X598114Y64918D01*
X598258Y65016D01*
X598405Y65108D01*
X598442Y65141D01*
X598484Y65170D01*
X598667Y65336D01*
X602451Y69119D01*
X607090Y71041D01*
X612110Y71041D01*
X616749Y69119D01*
X620533Y65336D01*
X620571Y65304D01*
X620605Y65266D01*
X620743Y65160D01*
X620876Y65049D01*
X620919Y65025D01*
X620959Y64994D01*
X621113Y64914D01*
X621264Y64829D01*
X621311Y64812D01*
X621356Y64789D01*
X621521Y64738D01*
X621685Y64680D01*
X621735Y64672D01*
X621783Y64658D01*
X621955Y64637D01*
X622126Y64610D01*
X622176Y64611D01*
X622226Y64605D01*
X622400Y64615D01*
X622573Y64619D01*
X622622Y64628D01*
X622672Y64631D01*
X622841Y64673D01*
X623011Y64707D01*
X623057Y64725D01*
X623106Y64737D01*
X623265Y64808D01*
X623426Y64872D01*
X623469Y64898D01*
X623514Y64918D01*
X623658Y65016D01*
X623805Y65108D01*
X623842Y65141D01*
X623884Y65170D01*
X624067Y65336D01*
X627851Y69119D01*
X632490Y71041D01*
X637510Y71041D01*
X642149Y69119D01*
X645699Y65569D01*
X647621Y60930D01*
X647621Y40670D01*
X645699Y36031D01*
X642149Y32481D01*
X637510Y30559D01*
X632490Y30559D01*
X627851Y32481D01*
X624067Y36264D01*
X624029Y36296D01*
X623995Y36334D01*
X623858Y36440D01*
X623724Y36551D01*
X623681Y36575D01*
X623641Y36606D01*
X623487Y36686D01*
X623336Y36771D01*
X623289Y36788D01*
X623244Y36811D01*
X623079Y36862D01*
X622915Y36920D01*
X622865Y36928D01*
X622817Y36942D01*
X622645Y36963D01*
X622474Y36990D01*
X622423Y36989D01*
X622374Y36995D01*
X622200Y36985D01*
X622027Y36981D01*
X621978Y36972D01*
X621928Y36969D01*
X621759Y36927D01*
X621589Y36893D01*
X621543Y36875D01*
X621494Y36863D01*
X621335Y36792D01*
X621174Y36728D01*
X621131Y36702D01*
X621086Y36682D01*
X620942Y36584D01*
X620795Y36492D01*
X620758Y36459D01*
X620716Y36430D01*
X620533Y36264D01*
X616749Y32481D01*
X612110Y30559D01*
X607090Y30559D01*
X602451Y32481D01*
X598667Y36264D01*
X598629Y36296D01*
X598595Y36334D01*
X598458Y36440D01*
X598324Y36551D01*
X598281Y36575D01*
X598241Y36606D01*
X598087Y36686D01*
X597936Y36771D01*
X597889Y36788D01*
X597844Y36811D01*
X597679Y36862D01*
X597515Y36920D01*
X597465Y36928D01*
X597417Y36942D01*
X597245Y36963D01*
X597074Y36990D01*
X597023Y36989D01*
X596974Y36995D01*
X596800Y36985D01*
X596627Y36981D01*
X596578Y36972D01*
X596528Y36969D01*
X596359Y36927D01*
X596189Y36893D01*
X596143Y36875D01*
X596094Y36863D01*
X595935Y36792D01*
X595774Y36728D01*
X595731Y36702D01*
X595686Y36682D01*
X595542Y36584D01*
X595395Y36492D01*
X595358Y36459D01*
X595316Y36430D01*
X595133Y36264D01*
X591349Y32481D01*
X586710Y30559D01*
X581690Y30559D01*
G37*
%LPD*%
%LPC*%
G36*
X466730Y123159D02*
X466730Y123159D01*
X462091Y125081D01*
X458541Y128631D01*
X456619Y133270D01*
X456619Y153530D01*
X458541Y158169D01*
X462091Y161719D01*
X466730Y163641D01*
X471750Y163641D01*
X476389Y161719D01*
X480173Y157936D01*
X480211Y157904D01*
X480245Y157866D01*
X480383Y157760D01*
X480516Y157649D01*
X480559Y157625D01*
X480599Y157594D01*
X480753Y157514D01*
X480904Y157429D01*
X480951Y157412D01*
X480996Y157389D01*
X481161Y157338D01*
X481325Y157280D01*
X481375Y157272D01*
X481423Y157258D01*
X481595Y157237D01*
X481766Y157210D01*
X481816Y157211D01*
X481866Y157205D01*
X482040Y157215D01*
X482213Y157219D01*
X482262Y157228D01*
X482312Y157231D01*
X482481Y157273D01*
X482651Y157307D01*
X482697Y157325D01*
X482746Y157337D01*
X482905Y157408D01*
X483066Y157472D01*
X483109Y157498D01*
X483154Y157518D01*
X483298Y157616D01*
X483445Y157708D01*
X483482Y157741D01*
X483524Y157770D01*
X483707Y157936D01*
X487491Y161719D01*
X492130Y163641D01*
X497150Y163641D01*
X501789Y161719D01*
X505339Y158169D01*
X507261Y153530D01*
X507261Y133270D01*
X505339Y128631D01*
X501789Y125081D01*
X497150Y123159D01*
X492130Y123159D01*
X487491Y125081D01*
X483707Y128864D01*
X483669Y128896D01*
X483635Y128934D01*
X483498Y129040D01*
X483364Y129151D01*
X483321Y129175D01*
X483281Y129206D01*
X483127Y129286D01*
X482976Y129371D01*
X482929Y129388D01*
X482884Y129411D01*
X482719Y129462D01*
X482555Y129520D01*
X482505Y129528D01*
X482457Y129542D01*
X482285Y129563D01*
X482114Y129590D01*
X482063Y129589D01*
X482014Y129595D01*
X481840Y129585D01*
X481667Y129581D01*
X481618Y129572D01*
X481568Y129569D01*
X481399Y129527D01*
X481229Y129493D01*
X481183Y129475D01*
X481134Y129463D01*
X480975Y129392D01*
X480814Y129328D01*
X480771Y129302D01*
X480726Y129282D01*
X480582Y129184D01*
X480435Y129092D01*
X480398Y129059D01*
X480356Y129030D01*
X480173Y128864D01*
X476389Y125081D01*
X471750Y123159D01*
X466730Y123159D01*
G37*
%LPD*%
%LPC*%
G36*
X697270Y131979D02*
X697270Y131979D01*
X692631Y133901D01*
X689081Y137451D01*
X687159Y142090D01*
X687159Y162350D01*
X689081Y166989D01*
X692631Y170539D01*
X697270Y172461D01*
X702290Y172461D01*
X706929Y170539D01*
X710713Y166756D01*
X710751Y166724D01*
X710785Y166686D01*
X710923Y166580D01*
X711056Y166469D01*
X711099Y166445D01*
X711139Y166414D01*
X711293Y166334D01*
X711444Y166249D01*
X711491Y166232D01*
X711536Y166209D01*
X711701Y166158D01*
X711865Y166100D01*
X711915Y166092D01*
X711963Y166078D01*
X712135Y166057D01*
X712306Y166030D01*
X712356Y166031D01*
X712406Y166025D01*
X712580Y166035D01*
X712753Y166039D01*
X712802Y166048D01*
X712852Y166051D01*
X713021Y166093D01*
X713191Y166127D01*
X713237Y166145D01*
X713286Y166157D01*
X713445Y166228D01*
X713606Y166292D01*
X713649Y166318D01*
X713694Y166338D01*
X713838Y166436D01*
X713985Y166528D01*
X714022Y166561D01*
X714064Y166590D01*
X714247Y166756D01*
X718031Y170539D01*
X722670Y172461D01*
X727690Y172461D01*
X732329Y170539D01*
X735879Y166989D01*
X737801Y162350D01*
X737801Y142090D01*
X735879Y137451D01*
X732329Y133901D01*
X727690Y131979D01*
X722670Y131979D01*
X718031Y133901D01*
X714247Y137684D01*
X714209Y137716D01*
X714175Y137754D01*
X714038Y137860D01*
X713904Y137971D01*
X713861Y137995D01*
X713821Y138026D01*
X713667Y138106D01*
X713516Y138191D01*
X713469Y138208D01*
X713424Y138231D01*
X713259Y138282D01*
X713095Y138340D01*
X713045Y138348D01*
X712997Y138362D01*
X712825Y138383D01*
X712654Y138410D01*
X712603Y138409D01*
X712554Y138415D01*
X712380Y138405D01*
X712207Y138401D01*
X712158Y138392D01*
X712108Y138389D01*
X711939Y138347D01*
X711769Y138313D01*
X711723Y138295D01*
X711674Y138283D01*
X711515Y138212D01*
X711354Y138148D01*
X711311Y138122D01*
X711266Y138102D01*
X711122Y138004D01*
X710975Y137912D01*
X710938Y137879D01*
X710896Y137850D01*
X710713Y137684D01*
X706929Y133901D01*
X702290Y131979D01*
X697270Y131979D01*
G37*
%LPD*%
%LPC*%
G36*
X537465Y597059D02*
X537465Y597059D01*
X535627Y597821D01*
X534221Y599227D01*
X533459Y601065D01*
X533459Y618135D01*
X534221Y619973D01*
X535627Y621379D01*
X537465Y622141D01*
X554535Y622141D01*
X556373Y621379D01*
X557779Y619973D01*
X558181Y619003D01*
X558224Y618921D01*
X558259Y618834D01*
X558328Y618723D01*
X558388Y618608D01*
X558446Y618534D01*
X558495Y618454D01*
X558582Y618358D01*
X558662Y618255D01*
X558732Y618193D01*
X558795Y618123D01*
X558898Y618044D01*
X558995Y617957D01*
X559075Y617908D01*
X559149Y617851D01*
X559264Y617791D01*
X559375Y617723D01*
X559463Y617689D01*
X559546Y617646D01*
X559670Y617607D01*
X559791Y617560D01*
X559883Y617542D01*
X559973Y617515D01*
X560102Y617499D01*
X560230Y617474D01*
X560323Y617473D01*
X560416Y617462D01*
X560546Y617469D01*
X560676Y617467D01*
X560769Y617483D01*
X560862Y617488D01*
X560988Y617519D01*
X561117Y617540D01*
X561205Y617572D01*
X561296Y617594D01*
X561415Y617647D01*
X561538Y617691D01*
X561619Y617737D01*
X561704Y617775D01*
X561812Y617848D01*
X561925Y617914D01*
X561996Y617974D01*
X562074Y618026D01*
X562257Y618192D01*
X564296Y620232D01*
X568905Y622141D01*
X573895Y622141D01*
X578504Y620232D01*
X582333Y616403D01*
X582371Y616370D01*
X582405Y616333D01*
X582543Y616227D01*
X582676Y616116D01*
X582719Y616092D01*
X582759Y616061D01*
X582913Y615981D01*
X583064Y615895D01*
X583111Y615879D01*
X583156Y615856D01*
X583321Y615805D01*
X583485Y615747D01*
X583535Y615739D01*
X583583Y615725D01*
X583755Y615704D01*
X583926Y615677D01*
X583976Y615678D01*
X584026Y615672D01*
X584200Y615682D01*
X584373Y615685D01*
X584422Y615695D01*
X584472Y615698D01*
X584641Y615739D01*
X584811Y615774D01*
X584857Y615792D01*
X584906Y615804D01*
X585065Y615874D01*
X585226Y615939D01*
X585269Y615965D01*
X585314Y615985D01*
X585458Y616083D01*
X585605Y616175D01*
X585642Y616208D01*
X585684Y616236D01*
X585867Y616403D01*
X589696Y620232D01*
X594305Y622141D01*
X599295Y622141D01*
X603904Y620232D01*
X607432Y616704D01*
X608529Y614054D01*
X608547Y614020D01*
X608560Y613983D01*
X608650Y613822D01*
X608736Y613658D01*
X608760Y613628D01*
X608779Y613594D01*
X608897Y613452D01*
X609010Y613306D01*
X609039Y613280D01*
X609064Y613250D01*
X609205Y613131D01*
X609343Y613008D01*
X609376Y612987D01*
X609406Y612962D01*
X609566Y612871D01*
X609724Y612774D01*
X609760Y612759D01*
X609793Y612740D01*
X609968Y612678D01*
X610140Y612611D01*
X610178Y612603D01*
X610214Y612590D01*
X610396Y612561D01*
X610578Y612525D01*
X610617Y612524D01*
X610655Y612518D01*
X610839Y612521D01*
X611025Y612518D01*
X611063Y612525D01*
X611102Y612525D01*
X611283Y612561D01*
X611465Y612591D01*
X611502Y612604D01*
X611540Y612612D01*
X611712Y612679D01*
X611886Y612742D01*
X611919Y612761D01*
X611956Y612775D01*
X612113Y612872D01*
X612273Y612964D01*
X612303Y612989D01*
X612336Y613010D01*
X612473Y613133D01*
X612614Y613253D01*
X612639Y613282D01*
X612668Y613308D01*
X612781Y613455D01*
X612899Y613597D01*
X612918Y613631D01*
X612942Y613661D01*
X613065Y613876D01*
X613578Y614884D01*
X614511Y616167D01*
X615633Y617289D01*
X616916Y618222D01*
X618330Y618942D01*
X619701Y619387D01*
X619701Y609600D01*
X619701Y599813D01*
X618330Y600258D01*
X616916Y600978D01*
X615633Y601911D01*
X614511Y603033D01*
X613578Y604316D01*
X613065Y605324D01*
X613044Y605357D01*
X613029Y605392D01*
X612926Y605545D01*
X612827Y605702D01*
X612801Y605731D01*
X612780Y605763D01*
X612651Y605896D01*
X612526Y606032D01*
X612495Y606056D01*
X612468Y606084D01*
X612318Y606191D01*
X612171Y606303D01*
X612137Y606321D01*
X612105Y606344D01*
X611938Y606423D01*
X611774Y606507D01*
X611737Y606518D01*
X611701Y606535D01*
X611522Y606583D01*
X611346Y606636D01*
X611308Y606641D01*
X611270Y606651D01*
X611086Y606667D01*
X610902Y606688D01*
X610864Y606685D01*
X610825Y606689D01*
X610641Y606671D01*
X610457Y606659D01*
X610419Y606650D01*
X610380Y606646D01*
X610203Y606596D01*
X610023Y606552D01*
X609988Y606536D01*
X609950Y606526D01*
X609784Y606445D01*
X609615Y606369D01*
X609583Y606347D01*
X609549Y606330D01*
X609399Y606221D01*
X609247Y606117D01*
X609219Y606089D01*
X609188Y606067D01*
X609061Y605933D01*
X608929Y605803D01*
X608907Y605771D01*
X608880Y605743D01*
X608779Y605589D01*
X608672Y605437D01*
X608656Y605402D01*
X608635Y605369D01*
X608529Y605146D01*
X607432Y602496D01*
X603904Y598968D01*
X599295Y597059D01*
X594305Y597059D01*
X589696Y598968D01*
X585867Y602797D01*
X585829Y602830D01*
X585795Y602867D01*
X585658Y602973D01*
X585524Y603084D01*
X585481Y603108D01*
X585441Y603139D01*
X585287Y603219D01*
X585136Y603305D01*
X585089Y603321D01*
X585044Y603344D01*
X584879Y603395D01*
X584715Y603453D01*
X584665Y603461D01*
X584617Y603475D01*
X584445Y603496D01*
X584274Y603523D01*
X584223Y603522D01*
X584174Y603528D01*
X584000Y603518D01*
X583827Y603515D01*
X583778Y603505D01*
X583728Y603502D01*
X583559Y603461D01*
X583389Y603426D01*
X583343Y603408D01*
X583294Y603396D01*
X583135Y603326D01*
X582974Y603261D01*
X582931Y603235D01*
X582886Y603215D01*
X582742Y603117D01*
X582595Y603025D01*
X582558Y602992D01*
X582516Y602964D01*
X582333Y602797D01*
X578504Y598968D01*
X573895Y597059D01*
X568905Y597059D01*
X564296Y598968D01*
X562257Y601008D01*
X562185Y601067D01*
X562120Y601135D01*
X562014Y601210D01*
X561914Y601294D01*
X561833Y601340D01*
X561757Y601395D01*
X561639Y601450D01*
X561526Y601515D01*
X561438Y601546D01*
X561353Y601586D01*
X561228Y601620D01*
X561105Y601663D01*
X561012Y601678D01*
X560922Y601702D01*
X560792Y601713D01*
X560664Y601734D01*
X560570Y601732D01*
X560477Y601740D01*
X560347Y601727D01*
X560217Y601725D01*
X560125Y601706D01*
X560032Y601697D01*
X559907Y601662D01*
X559779Y601636D01*
X559692Y601602D01*
X559602Y601577D01*
X559485Y601520D01*
X559364Y601471D01*
X559285Y601422D01*
X559200Y601381D01*
X559095Y601304D01*
X558985Y601235D01*
X558915Y601173D01*
X558840Y601117D01*
X558750Y601023D01*
X558654Y600936D01*
X558597Y600862D01*
X558532Y600794D01*
X558460Y600685D01*
X558381Y600582D01*
X558338Y600499D01*
X558287Y600420D01*
X558181Y600197D01*
X557779Y599227D01*
X556373Y597821D01*
X554535Y597059D01*
X537465Y597059D01*
G37*
%LPD*%
%LPC*%
G36*
X160817Y576944D02*
X160817Y576944D01*
X160569Y578511D01*
X160569Y580098D01*
X160817Y581665D01*
X161308Y583174D01*
X162028Y584588D01*
X162177Y584792D01*
X162261Y584933D01*
X162352Y585070D01*
X162376Y585125D01*
X162406Y585176D01*
X162464Y585329D01*
X162529Y585480D01*
X162542Y585538D01*
X162563Y585594D01*
X162593Y585756D01*
X162630Y585915D01*
X162633Y585975D01*
X162644Y586033D01*
X162644Y586198D01*
X162652Y586361D01*
X162645Y586420D01*
X162645Y586480D01*
X162616Y586642D01*
X162595Y586804D01*
X162576Y586861D01*
X162566Y586920D01*
X162509Y587074D01*
X162459Y587230D01*
X162431Y587283D01*
X162410Y587338D01*
X162327Y587480D01*
X162250Y587625D01*
X162213Y587671D01*
X162183Y587723D01*
X162075Y587847D01*
X161974Y587976D01*
X161929Y588015D01*
X161890Y588060D01*
X161762Y588163D01*
X161639Y588272D01*
X161589Y588303D01*
X161542Y588340D01*
X161398Y588419D01*
X161258Y588504D01*
X161202Y588526D01*
X161150Y588554D01*
X160994Y588606D01*
X160841Y588665D01*
X160782Y588676D01*
X160726Y588695D01*
X160564Y588718D01*
X160402Y588748D01*
X160317Y588753D01*
X160284Y588757D01*
X160249Y588756D01*
X160155Y588761D01*
X155455Y588761D01*
X150846Y590670D01*
X147318Y594198D01*
X145409Y598807D01*
X145409Y603796D01*
X146862Y607302D01*
X146889Y607391D01*
X146926Y607477D01*
X146956Y607604D01*
X146995Y607728D01*
X147007Y607821D01*
X147028Y607912D01*
X147034Y608042D01*
X147050Y608172D01*
X147045Y608265D01*
X147050Y608358D01*
X147033Y608487D01*
X147026Y608618D01*
X147004Y608709D01*
X146992Y608801D01*
X146953Y608925D01*
X146922Y609052D01*
X146885Y609138D01*
X146857Y609227D01*
X146796Y609342D01*
X146743Y609461D01*
X146691Y609539D01*
X146647Y609622D01*
X146567Y609724D01*
X146494Y609832D01*
X146429Y609899D01*
X146371Y609973D01*
X146274Y610059D01*
X146183Y610153D01*
X146107Y610207D01*
X146037Y610269D01*
X145926Y610337D01*
X145820Y610413D01*
X145735Y610453D01*
X145655Y610501D01*
X145534Y610548D01*
X145416Y610604D01*
X145326Y610628D01*
X145239Y610662D01*
X145110Y610686D01*
X144985Y610720D01*
X144892Y610728D01*
X144800Y610746D01*
X144553Y610758D01*
X142755Y610758D01*
X138146Y612667D01*
X134618Y616195D01*
X132709Y620804D01*
X132709Y625793D01*
X133043Y626599D01*
X133053Y626631D01*
X133068Y626661D01*
X133120Y626844D01*
X133176Y627025D01*
X133181Y627058D01*
X133190Y627090D01*
X133208Y627279D01*
X133232Y627468D01*
X133230Y627502D01*
X133233Y627535D01*
X133218Y627724D01*
X133207Y627915D01*
X133200Y627947D01*
X133197Y627980D01*
X133148Y628163D01*
X133104Y628349D01*
X133091Y628380D01*
X133082Y628412D01*
X133001Y628584D01*
X132925Y628758D01*
X132906Y628786D01*
X132892Y628816D01*
X132782Y628971D01*
X132676Y629129D01*
X132652Y629153D01*
X132633Y629180D01*
X132497Y629313D01*
X132364Y629450D01*
X132337Y629469D01*
X132313Y629492D01*
X132156Y629599D01*
X132001Y629710D01*
X131971Y629724D01*
X131943Y629743D01*
X131770Y629819D01*
X131598Y629901D01*
X131565Y629909D01*
X131535Y629923D01*
X131350Y629967D01*
X131166Y630017D01*
X131133Y630020D01*
X131100Y630028D01*
X130911Y630039D01*
X130721Y630055D01*
X130688Y630051D01*
X130655Y630053D01*
X130408Y630033D01*
X129457Y629908D01*
X127535Y630423D01*
X125957Y631634D01*
X117422Y646416D01*
X117162Y648389D01*
X117677Y650310D01*
X118888Y651889D01*
X133671Y660423D01*
X135643Y660683D01*
X137565Y660168D01*
X139143Y658957D01*
X147678Y644175D01*
X147938Y642202D01*
X147423Y640281D01*
X146897Y639596D01*
X146815Y639466D01*
X146726Y639341D01*
X146696Y639278D01*
X146658Y639218D01*
X146600Y639076D01*
X146534Y638938D01*
X146516Y638870D01*
X146490Y638805D01*
X146458Y638655D01*
X146418Y638506D01*
X146412Y638436D01*
X146398Y638367D01*
X146393Y638214D01*
X146381Y638061D01*
X146387Y637991D01*
X146385Y637921D01*
X146408Y637769D01*
X146423Y637616D01*
X146442Y637549D01*
X146452Y637479D01*
X146502Y637334D01*
X146544Y637186D01*
X146574Y637123D01*
X146597Y637057D01*
X146672Y636923D01*
X146739Y636785D01*
X146781Y636728D01*
X146815Y636667D01*
X146912Y636548D01*
X147003Y636424D01*
X147054Y636376D01*
X147098Y636321D01*
X147215Y636222D01*
X147326Y636116D01*
X147385Y636078D01*
X147439Y636032D01*
X147572Y635955D01*
X147700Y635871D01*
X147794Y635827D01*
X147825Y635808D01*
X147855Y635798D01*
X147923Y635765D01*
X152354Y633930D01*
X155882Y630402D01*
X157791Y625793D01*
X157791Y620804D01*
X156338Y617298D01*
X156311Y617209D01*
X156274Y617123D01*
X156244Y616996D01*
X156205Y616872D01*
X156193Y616779D01*
X156172Y616688D01*
X156166Y616558D01*
X156150Y616428D01*
X156155Y616335D01*
X156150Y616242D01*
X156167Y616113D01*
X156174Y615982D01*
X156196Y615891D01*
X156208Y615799D01*
X156247Y615674D01*
X156278Y615548D01*
X156315Y615462D01*
X156343Y615373D01*
X156404Y615258D01*
X156457Y615139D01*
X156509Y615061D01*
X156553Y614978D01*
X156633Y614876D01*
X156706Y614768D01*
X156771Y614701D01*
X156829Y614627D01*
X156926Y614541D01*
X157017Y614447D01*
X157093Y614393D01*
X157163Y614331D01*
X157274Y614263D01*
X157380Y614187D01*
X157465Y614147D01*
X157545Y614099D01*
X157666Y614052D01*
X157784Y613996D01*
X157874Y613972D01*
X157961Y613938D01*
X158090Y613914D01*
X158215Y613880D01*
X158308Y613872D01*
X158400Y613854D01*
X158647Y613842D01*
X160445Y613842D01*
X165054Y611933D01*
X168582Y608405D01*
X170491Y603796D01*
X170491Y598807D01*
X168582Y594198D01*
X168035Y593652D01*
X167948Y593546D01*
X167853Y593448D01*
X167805Y593376D01*
X167749Y593309D01*
X167681Y593190D01*
X167606Y593076D01*
X167571Y592996D01*
X167528Y592921D01*
X167483Y592791D01*
X167429Y592666D01*
X167409Y592581D01*
X167380Y592499D01*
X167359Y592364D01*
X167328Y592231D01*
X167323Y592144D01*
X167309Y592058D01*
X167312Y591921D01*
X167305Y591785D01*
X167317Y591698D01*
X167318Y591611D01*
X167345Y591477D01*
X167363Y591342D01*
X167389Y591259D01*
X167407Y591174D01*
X167457Y591046D01*
X167499Y590916D01*
X167539Y590839D01*
X167571Y590758D01*
X167644Y590642D01*
X167708Y590521D01*
X167762Y590453D01*
X167808Y590379D01*
X167899Y590278D01*
X167984Y590170D01*
X168049Y590112D01*
X168107Y590048D01*
X168216Y589965D01*
X168318Y589874D01*
X168392Y589829D01*
X168461Y589776D01*
X168583Y589713D01*
X168700Y589642D01*
X168781Y589610D01*
X168858Y589570D01*
X168989Y589530D01*
X169117Y589481D01*
X169202Y589465D01*
X169285Y589439D01*
X169421Y589423D01*
X169555Y589397D01*
X169692Y589391D01*
X169729Y589386D01*
X169752Y589388D01*
X169803Y589385D01*
X171443Y589385D01*
X173010Y589137D01*
X174520Y588647D01*
X175934Y587926D01*
X177217Y586994D01*
X177858Y586352D01*
X169401Y581469D01*
X169400Y581469D01*
X160935Y576582D01*
X160817Y576944D01*
G37*
%LPD*%
%LPC*%
G36*
X1011571Y564176D02*
X1011571Y564176D01*
X996788Y572711D01*
X995577Y574290D01*
X995062Y576211D01*
X995322Y578184D01*
X1003857Y592966D01*
X1005435Y594177D01*
X1007357Y594692D01*
X1008308Y594567D01*
X1008341Y594565D01*
X1008374Y594559D01*
X1008564Y594556D01*
X1008754Y594548D01*
X1008787Y594553D01*
X1008821Y594552D01*
X1009008Y594583D01*
X1009197Y594610D01*
X1009228Y594620D01*
X1009261Y594625D01*
X1009440Y594689D01*
X1009621Y594749D01*
X1009651Y594765D01*
X1009682Y594776D01*
X1009846Y594870D01*
X1010014Y594961D01*
X1010040Y594982D01*
X1010069Y594999D01*
X1010214Y595121D01*
X1010363Y595240D01*
X1010385Y595265D01*
X1010410Y595287D01*
X1010531Y595433D01*
X1010657Y595577D01*
X1010674Y595605D01*
X1010695Y595631D01*
X1010788Y595797D01*
X1010886Y595960D01*
X1010897Y595991D01*
X1010914Y596020D01*
X1010976Y596201D01*
X1011043Y596378D01*
X1011049Y596411D01*
X1011060Y596443D01*
X1011089Y596631D01*
X1011123Y596818D01*
X1011123Y596851D01*
X1011128Y596884D01*
X1011123Y597074D01*
X1011124Y597264D01*
X1011118Y597297D01*
X1011117Y597331D01*
X1011078Y597517D01*
X1011045Y597704D01*
X1011033Y597735D01*
X1011026Y597768D01*
X1010943Y598001D01*
X1010609Y598807D01*
X1010609Y603796D01*
X1012518Y608405D01*
X1016046Y611933D01*
X1020655Y613842D01*
X1022453Y613842D01*
X1022546Y613851D01*
X1022639Y613849D01*
X1022767Y613870D01*
X1022897Y613882D01*
X1022988Y613907D01*
X1023080Y613922D01*
X1023202Y613966D01*
X1023328Y614001D01*
X1023412Y614041D01*
X1023500Y614072D01*
X1023613Y614137D01*
X1023731Y614194D01*
X1023807Y614249D01*
X1023888Y614295D01*
X1023987Y614379D01*
X1024093Y614456D01*
X1024157Y614523D01*
X1024229Y614583D01*
X1024312Y614684D01*
X1024402Y614778D01*
X1024454Y614856D01*
X1024514Y614928D01*
X1024577Y615041D01*
X1024649Y615150D01*
X1024687Y615236D01*
X1024732Y615317D01*
X1024775Y615440D01*
X1024826Y615560D01*
X1024848Y615651D01*
X1024878Y615739D01*
X1024898Y615868D01*
X1024928Y615995D01*
X1024932Y616088D01*
X1024947Y616181D01*
X1024943Y616311D01*
X1024950Y616441D01*
X1024938Y616534D01*
X1024935Y616627D01*
X1024909Y616755D01*
X1024892Y616884D01*
X1024864Y616973D01*
X1024845Y617065D01*
X1024762Y617298D01*
X1023309Y620804D01*
X1023309Y625793D01*
X1025218Y630402D01*
X1028746Y633930D01*
X1033355Y635839D01*
X1038055Y635839D01*
X1038218Y635854D01*
X1038382Y635861D01*
X1038440Y635874D01*
X1038500Y635879D01*
X1038658Y635923D01*
X1038818Y635959D01*
X1038873Y635982D01*
X1038931Y635998D01*
X1039079Y636069D01*
X1039230Y636133D01*
X1039279Y636165D01*
X1039333Y636191D01*
X1039466Y636287D01*
X1039604Y636377D01*
X1039647Y636418D01*
X1039695Y636453D01*
X1039809Y636571D01*
X1039928Y636684D01*
X1039963Y636732D01*
X1040005Y636775D01*
X1040095Y636912D01*
X1040193Y637044D01*
X1040219Y637097D01*
X1040252Y637147D01*
X1040317Y637298D01*
X1040389Y637445D01*
X1040405Y637502D01*
X1040429Y637557D01*
X1040466Y637717D01*
X1040511Y637875D01*
X1040517Y637934D01*
X1040530Y637992D01*
X1040538Y638156D01*
X1040554Y638319D01*
X1040549Y638379D01*
X1040552Y638438D01*
X1040531Y638601D01*
X1040518Y638765D01*
X1040502Y638822D01*
X1040495Y638881D01*
X1040445Y639038D01*
X1040402Y639196D01*
X1040377Y639250D01*
X1040359Y639307D01*
X1040282Y639452D01*
X1040212Y639600D01*
X1040165Y639672D01*
X1040150Y639702D01*
X1040128Y639729D01*
X1040077Y639808D01*
X1039928Y640012D01*
X1039208Y641426D01*
X1038717Y642935D01*
X1038469Y644502D01*
X1038469Y646089D01*
X1038717Y647656D01*
X1038835Y648018D01*
X1047300Y643131D01*
X1047301Y643131D01*
X1055758Y638248D01*
X1055117Y637606D01*
X1053834Y636674D01*
X1052420Y635953D01*
X1050910Y635463D01*
X1049343Y635215D01*
X1047703Y635215D01*
X1047566Y635203D01*
X1047430Y635200D01*
X1047345Y635183D01*
X1047258Y635175D01*
X1047126Y635139D01*
X1046992Y635112D01*
X1046911Y635079D01*
X1046827Y635056D01*
X1046704Y634997D01*
X1046577Y634947D01*
X1046503Y634901D01*
X1046424Y634863D01*
X1046313Y634783D01*
X1046197Y634711D01*
X1046133Y634652D01*
X1046062Y634601D01*
X1045968Y634503D01*
X1045866Y634411D01*
X1045813Y634342D01*
X1045753Y634279D01*
X1045677Y634165D01*
X1045594Y634057D01*
X1045554Y633980D01*
X1045506Y633907D01*
X1045452Y633782D01*
X1045389Y633660D01*
X1045363Y633577D01*
X1045329Y633497D01*
X1045298Y633364D01*
X1045258Y633233D01*
X1045247Y633146D01*
X1045228Y633062D01*
X1045221Y632925D01*
X1045205Y632789D01*
X1045210Y632703D01*
X1045205Y632616D01*
X1045223Y632480D01*
X1045231Y632344D01*
X1045252Y632259D01*
X1045263Y632173D01*
X1045305Y632043D01*
X1045337Y631909D01*
X1045372Y631830D01*
X1045399Y631747D01*
X1045463Y631626D01*
X1045518Y631501D01*
X1045567Y631429D01*
X1045608Y631352D01*
X1045693Y631245D01*
X1045769Y631132D01*
X1045861Y631030D01*
X1045884Y631001D01*
X1045901Y630986D01*
X1045935Y630948D01*
X1046482Y630402D01*
X1048391Y625793D01*
X1048391Y620804D01*
X1046482Y616195D01*
X1042954Y612667D01*
X1038345Y610758D01*
X1036547Y610758D01*
X1036454Y610749D01*
X1036361Y610751D01*
X1036233Y610730D01*
X1036103Y610718D01*
X1036012Y610693D01*
X1035920Y610678D01*
X1035798Y610634D01*
X1035672Y610599D01*
X1035588Y610559D01*
X1035500Y610527D01*
X1035387Y610463D01*
X1035269Y610406D01*
X1035193Y610351D01*
X1035112Y610305D01*
X1035013Y610221D01*
X1034907Y610144D01*
X1034843Y610077D01*
X1034771Y610017D01*
X1034688Y609916D01*
X1034598Y609822D01*
X1034546Y609744D01*
X1034486Y609672D01*
X1034423Y609559D01*
X1034351Y609450D01*
X1034313Y609364D01*
X1034268Y609283D01*
X1034225Y609160D01*
X1034174Y609040D01*
X1034152Y608949D01*
X1034122Y608861D01*
X1034102Y608732D01*
X1034072Y608605D01*
X1034068Y608512D01*
X1034053Y608419D01*
X1034057Y608289D01*
X1034050Y608159D01*
X1034062Y608066D01*
X1034065Y607973D01*
X1034091Y607845D01*
X1034108Y607716D01*
X1034136Y607627D01*
X1034155Y607535D01*
X1034238Y607302D01*
X1035691Y603796D01*
X1035691Y598807D01*
X1033782Y594198D01*
X1030254Y590670D01*
X1025823Y588835D01*
X1025688Y588764D01*
X1025548Y588700D01*
X1025490Y588660D01*
X1025428Y588628D01*
X1025306Y588533D01*
X1025180Y588446D01*
X1025131Y588397D01*
X1025075Y588353D01*
X1024973Y588239D01*
X1024864Y588131D01*
X1024824Y588073D01*
X1024777Y588021D01*
X1024696Y587890D01*
X1024609Y587764D01*
X1024580Y587700D01*
X1024543Y587640D01*
X1024487Y587498D01*
X1024423Y587358D01*
X1024406Y587290D01*
X1024380Y587224D01*
X1024351Y587074D01*
X1024313Y586925D01*
X1024308Y586855D01*
X1024294Y586786D01*
X1024292Y586632D01*
X1024281Y586480D01*
X1024289Y586410D01*
X1024288Y586339D01*
X1024313Y586188D01*
X1024329Y586035D01*
X1024349Y585968D01*
X1024361Y585899D01*
X1024412Y585754D01*
X1024456Y585607D01*
X1024487Y585544D01*
X1024511Y585478D01*
X1024587Y585345D01*
X1024656Y585208D01*
X1024715Y585122D01*
X1024734Y585091D01*
X1024754Y585067D01*
X1024797Y585004D01*
X1025323Y584319D01*
X1025838Y582398D01*
X1025578Y580425D01*
X1017043Y565643D01*
X1015465Y564432D01*
X1013543Y563917D01*
X1011571Y564176D01*
G37*
%LPD*%
%LPC*%
G36*
X619803Y121859D02*
X619803Y121859D01*
X615929Y123464D01*
X612964Y126429D01*
X611359Y130303D01*
X611359Y134497D01*
X612964Y138371D01*
X615226Y140633D01*
X615258Y140671D01*
X615295Y140705D01*
X615401Y140843D01*
X615512Y140976D01*
X615537Y141019D01*
X615568Y141059D01*
X615647Y141213D01*
X615733Y141364D01*
X615750Y141411D01*
X615773Y141456D01*
X615823Y141621D01*
X615881Y141785D01*
X615889Y141835D01*
X615904Y141883D01*
X615924Y142055D01*
X615952Y142226D01*
X615951Y142276D01*
X615957Y142326D01*
X615946Y142500D01*
X615943Y142673D01*
X615933Y142722D01*
X615930Y142772D01*
X615889Y142941D01*
X615855Y143111D01*
X615836Y143157D01*
X615824Y143206D01*
X615754Y143365D01*
X615690Y143526D01*
X615663Y143569D01*
X615643Y143614D01*
X615545Y143758D01*
X615454Y143905D01*
X615420Y143942D01*
X615392Y143984D01*
X615226Y144167D01*
X612964Y146429D01*
X611359Y150303D01*
X611359Y154497D01*
X612964Y158371D01*
X615226Y160633D01*
X615258Y160671D01*
X615295Y160705D01*
X615401Y160843D01*
X615512Y160976D01*
X615537Y161019D01*
X615568Y161059D01*
X615647Y161213D01*
X615733Y161364D01*
X615750Y161411D01*
X615773Y161456D01*
X615823Y161621D01*
X615881Y161785D01*
X615889Y161835D01*
X615904Y161883D01*
X615924Y162055D01*
X615952Y162226D01*
X615951Y162276D01*
X615957Y162326D01*
X615946Y162500D01*
X615943Y162673D01*
X615933Y162722D01*
X615930Y162772D01*
X615889Y162941D01*
X615855Y163111D01*
X615836Y163157D01*
X615824Y163206D01*
X615754Y163365D01*
X615690Y163526D01*
X615663Y163569D01*
X615643Y163614D01*
X615545Y163758D01*
X615454Y163905D01*
X615420Y163942D01*
X615392Y163984D01*
X615226Y164167D01*
X612964Y166429D01*
X611359Y170303D01*
X611359Y174497D01*
X612964Y178371D01*
X615929Y181336D01*
X619803Y182941D01*
X623997Y182941D01*
X627871Y181336D01*
X630836Y178371D01*
X632441Y174497D01*
X632441Y170303D01*
X630836Y166429D01*
X628574Y164167D01*
X628542Y164129D01*
X628505Y164095D01*
X628399Y163958D01*
X628288Y163824D01*
X628263Y163781D01*
X628232Y163741D01*
X628153Y163587D01*
X628067Y163436D01*
X628050Y163389D01*
X628027Y163344D01*
X627976Y163179D01*
X627919Y163015D01*
X627911Y162965D01*
X627896Y162917D01*
X627876Y162744D01*
X627848Y162574D01*
X627849Y162524D01*
X627843Y162474D01*
X627854Y162300D01*
X627857Y162127D01*
X627867Y162078D01*
X627870Y162028D01*
X627911Y161859D01*
X627945Y161689D01*
X627964Y161643D01*
X627976Y161594D01*
X628046Y161435D01*
X628110Y161274D01*
X628137Y161231D01*
X628157Y161186D01*
X628254Y161042D01*
X628346Y160895D01*
X628380Y160858D01*
X628408Y160816D01*
X628574Y160633D01*
X630836Y158371D01*
X632441Y154497D01*
X632441Y150303D01*
X630836Y146429D01*
X628574Y144167D01*
X628542Y144129D01*
X628505Y144095D01*
X628399Y143958D01*
X628288Y143824D01*
X628263Y143781D01*
X628232Y143741D01*
X628153Y143587D01*
X628067Y143436D01*
X628050Y143389D01*
X628027Y143344D01*
X627976Y143179D01*
X627919Y143015D01*
X627911Y142965D01*
X627896Y142917D01*
X627876Y142744D01*
X627848Y142574D01*
X627849Y142524D01*
X627843Y142474D01*
X627854Y142300D01*
X627857Y142127D01*
X627867Y142078D01*
X627870Y142028D01*
X627911Y141859D01*
X627945Y141689D01*
X627964Y141643D01*
X627976Y141594D01*
X628046Y141435D01*
X628110Y141274D01*
X628137Y141231D01*
X628157Y141186D01*
X628254Y141042D01*
X628346Y140895D01*
X628380Y140858D01*
X628408Y140816D01*
X628574Y140633D01*
X630836Y138371D01*
X632441Y134497D01*
X632441Y130303D01*
X630836Y126429D01*
X627871Y123464D01*
X623997Y121859D01*
X619803Y121859D01*
G37*
%LPD*%
%LPC*%
G36*
X569803Y121859D02*
X569803Y121859D01*
X565929Y123464D01*
X562964Y126429D01*
X561359Y130303D01*
X561359Y134497D01*
X562964Y138371D01*
X565226Y140633D01*
X565258Y140671D01*
X565295Y140705D01*
X565401Y140843D01*
X565512Y140976D01*
X565537Y141019D01*
X565568Y141059D01*
X565647Y141213D01*
X565733Y141364D01*
X565750Y141411D01*
X565773Y141456D01*
X565823Y141621D01*
X565881Y141785D01*
X565889Y141835D01*
X565904Y141883D01*
X565924Y142055D01*
X565952Y142226D01*
X565951Y142276D01*
X565957Y142326D01*
X565946Y142500D01*
X565943Y142673D01*
X565933Y142722D01*
X565930Y142772D01*
X565889Y142941D01*
X565855Y143111D01*
X565836Y143157D01*
X565824Y143206D01*
X565754Y143365D01*
X565690Y143526D01*
X565663Y143569D01*
X565643Y143614D01*
X565545Y143758D01*
X565454Y143905D01*
X565420Y143942D01*
X565392Y143984D01*
X565226Y144167D01*
X562964Y146429D01*
X561359Y150303D01*
X561359Y154497D01*
X562964Y158371D01*
X565226Y160633D01*
X565258Y160671D01*
X565295Y160705D01*
X565401Y160843D01*
X565512Y160976D01*
X565537Y161019D01*
X565568Y161059D01*
X565647Y161213D01*
X565733Y161364D01*
X565750Y161411D01*
X565773Y161456D01*
X565823Y161621D01*
X565881Y161785D01*
X565889Y161835D01*
X565904Y161883D01*
X565924Y162055D01*
X565952Y162226D01*
X565951Y162276D01*
X565957Y162326D01*
X565946Y162500D01*
X565943Y162673D01*
X565933Y162722D01*
X565930Y162772D01*
X565889Y162941D01*
X565855Y163111D01*
X565836Y163157D01*
X565824Y163206D01*
X565754Y163365D01*
X565690Y163526D01*
X565663Y163569D01*
X565643Y163614D01*
X565545Y163758D01*
X565454Y163905D01*
X565420Y163942D01*
X565392Y163984D01*
X565226Y164167D01*
X562964Y166429D01*
X561359Y170303D01*
X561359Y174497D01*
X562964Y178371D01*
X565929Y181336D01*
X569803Y182941D01*
X573997Y182941D01*
X577871Y181336D01*
X580836Y178371D01*
X582441Y174497D01*
X582441Y170303D01*
X580836Y166429D01*
X578574Y164167D01*
X578542Y164129D01*
X578505Y164095D01*
X578399Y163958D01*
X578288Y163824D01*
X578263Y163781D01*
X578232Y163741D01*
X578153Y163587D01*
X578067Y163436D01*
X578050Y163389D01*
X578027Y163344D01*
X577976Y163179D01*
X577919Y163015D01*
X577911Y162965D01*
X577896Y162917D01*
X577876Y162744D01*
X577848Y162574D01*
X577849Y162524D01*
X577843Y162474D01*
X577854Y162300D01*
X577857Y162127D01*
X577867Y162078D01*
X577870Y162028D01*
X577911Y161859D01*
X577945Y161689D01*
X577964Y161643D01*
X577976Y161594D01*
X578046Y161435D01*
X578110Y161274D01*
X578137Y161231D01*
X578157Y161186D01*
X578254Y161042D01*
X578346Y160895D01*
X578380Y160858D01*
X578408Y160816D01*
X578574Y160633D01*
X580836Y158371D01*
X582441Y154497D01*
X582441Y150303D01*
X580836Y146429D01*
X578574Y144167D01*
X578542Y144129D01*
X578505Y144095D01*
X578399Y143958D01*
X578288Y143824D01*
X578263Y143781D01*
X578232Y143741D01*
X578153Y143587D01*
X578067Y143436D01*
X578050Y143389D01*
X578027Y143344D01*
X577976Y143179D01*
X577919Y143015D01*
X577911Y142965D01*
X577896Y142917D01*
X577876Y142744D01*
X577848Y142574D01*
X577849Y142524D01*
X577843Y142474D01*
X577854Y142300D01*
X577857Y142127D01*
X577867Y142078D01*
X577870Y142028D01*
X577911Y141859D01*
X577945Y141689D01*
X577964Y141643D01*
X577976Y141594D01*
X578046Y141435D01*
X578110Y141274D01*
X578137Y141231D01*
X578157Y141186D01*
X578254Y141042D01*
X578346Y140895D01*
X578380Y140858D01*
X578408Y140816D01*
X578574Y140633D01*
X580836Y138371D01*
X582441Y134497D01*
X582441Y130303D01*
X580836Y126429D01*
X577871Y123464D01*
X573997Y121859D01*
X569803Y121859D01*
G37*
%LPD*%
%LPC*%
G36*
X353843Y41227D02*
X353843Y41227D01*
X352005Y41989D01*
X350599Y43395D01*
X350481Y43680D01*
X350412Y43812D01*
X350351Y43947D01*
X350309Y44009D01*
X350273Y44076D01*
X350182Y44193D01*
X350099Y44315D01*
X350046Y44369D01*
X349999Y44429D01*
X349889Y44528D01*
X349785Y44633D01*
X349723Y44676D01*
X349667Y44727D01*
X349540Y44804D01*
X349419Y44889D01*
X349350Y44921D01*
X349286Y44961D01*
X349148Y45015D01*
X349014Y45077D01*
X348940Y45096D01*
X348870Y45124D01*
X348725Y45152D01*
X348581Y45189D01*
X348506Y45195D01*
X348432Y45210D01*
X348284Y45212D01*
X348136Y45223D01*
X348061Y45215D01*
X347985Y45216D01*
X347839Y45192D01*
X347692Y45177D01*
X347619Y45156D01*
X347544Y45143D01*
X347405Y45093D01*
X347263Y45052D01*
X347159Y45005D01*
X347124Y44993D01*
X347099Y44978D01*
X347037Y44951D01*
X346310Y44581D01*
X344485Y43987D01*
X344379Y43971D01*
X344379Y55630D01*
X344375Y55680D01*
X344377Y55730D01*
X344361Y55853D01*
X344367Y55883D01*
X344379Y56130D01*
X344379Y67789D01*
X344485Y67773D01*
X346310Y67179D01*
X347037Y66809D01*
X347175Y66754D01*
X347308Y66691D01*
X347381Y66671D01*
X347451Y66643D01*
X347596Y66613D01*
X347739Y66574D01*
X347815Y66568D01*
X347889Y66553D01*
X348037Y66549D01*
X348185Y66537D01*
X348260Y66544D01*
X348336Y66542D01*
X348482Y66565D01*
X348629Y66579D01*
X348702Y66600D01*
X348777Y66611D01*
X348917Y66660D01*
X349059Y66700D01*
X349127Y66733D01*
X349199Y66758D01*
X349328Y66830D01*
X349461Y66895D01*
X349522Y66940D01*
X349588Y66977D01*
X349702Y67072D01*
X349822Y67159D01*
X349874Y67214D01*
X349932Y67262D01*
X350027Y67375D01*
X350129Y67483D01*
X350171Y67546D01*
X350220Y67604D01*
X350293Y67732D01*
X350375Y67856D01*
X350424Y67959D01*
X350442Y67991D01*
X350452Y68019D01*
X350481Y68080D01*
X350599Y68365D01*
X352005Y69771D01*
X353843Y70533D01*
X375137Y70533D01*
X376975Y69771D01*
X378381Y68365D01*
X379143Y66527D01*
X379143Y45233D01*
X378381Y43395D01*
X376975Y41989D01*
X375137Y41227D01*
X353843Y41227D01*
G37*
%LPD*%
%LPC*%
G36*
X642893Y204295D02*
X642893Y204295D01*
X636095Y211093D01*
X636095Y220707D01*
X642929Y227541D01*
X642974Y227545D01*
X643106Y227581D01*
X643240Y227608D01*
X643321Y227640D01*
X643405Y227663D01*
X643528Y227722D01*
X643655Y227773D01*
X643729Y227819D01*
X643807Y227856D01*
X643918Y227937D01*
X644034Y228009D01*
X644099Y228067D01*
X644169Y228118D01*
X644264Y228217D01*
X644365Y228309D01*
X644418Y228378D01*
X644479Y228440D01*
X644554Y228554D01*
X644638Y228663D01*
X644678Y228740D01*
X644726Y228812D01*
X644780Y228938D01*
X644843Y229060D01*
X644868Y229143D01*
X644903Y229223D01*
X644934Y229356D01*
X644974Y229487D01*
X644984Y229573D01*
X645004Y229658D01*
X645011Y229794D01*
X645027Y229930D01*
X645022Y230017D01*
X645026Y230104D01*
X645009Y230239D01*
X645000Y230376D01*
X644980Y230461D01*
X644969Y230547D01*
X644927Y230677D01*
X644895Y230810D01*
X644859Y230889D01*
X644833Y230972D01*
X644769Y231093D01*
X644713Y231218D01*
X644665Y231290D01*
X644624Y231367D01*
X644539Y231475D01*
X644462Y231588D01*
X644371Y231689D01*
X644348Y231718D01*
X644330Y231734D01*
X644296Y231771D01*
X638555Y237512D01*
X638555Y238801D01*
X647700Y238801D01*
X656845Y238801D01*
X656845Y237512D01*
X651104Y231771D01*
X651016Y231666D01*
X650921Y231568D01*
X650873Y231495D01*
X650817Y231428D01*
X650750Y231310D01*
X650674Y231196D01*
X650640Y231116D01*
X650597Y231040D01*
X650551Y230911D01*
X650497Y230785D01*
X650477Y230701D01*
X650449Y230619D01*
X650427Y230483D01*
X650396Y230350D01*
X650392Y230264D01*
X650378Y230178D01*
X650381Y230041D01*
X650374Y229904D01*
X650385Y229818D01*
X650387Y229731D01*
X650414Y229597D01*
X650431Y229461D01*
X650458Y229378D01*
X650475Y229293D01*
X650525Y229166D01*
X650567Y229036D01*
X650608Y228959D01*
X650640Y228878D01*
X650712Y228762D01*
X650776Y228641D01*
X650830Y228573D01*
X650876Y228499D01*
X650968Y228397D01*
X651052Y228290D01*
X651117Y228232D01*
X651176Y228168D01*
X651284Y228084D01*
X651387Y227993D01*
X651461Y227948D01*
X651530Y227895D01*
X651651Y227832D01*
X651768Y227761D01*
X651849Y227730D01*
X651927Y227690D01*
X652057Y227650D01*
X652185Y227601D01*
X652271Y227584D01*
X652354Y227559D01*
X652466Y227545D01*
X659305Y220707D01*
X659305Y211093D01*
X652507Y204295D01*
X642893Y204295D01*
G37*
%LPD*%
%LPC*%
G36*
X548639Y53339D02*
X548639Y53339D01*
X548639Y59220D01*
X548889Y60799D01*
X549384Y62320D01*
X550110Y63745D01*
X551050Y65039D01*
X552181Y66170D01*
X553475Y67110D01*
X554900Y67836D01*
X556261Y68279D01*
X556261Y53339D01*
X548639Y53339D01*
G37*
%LPD*%
%LPC*%
G36*
X554900Y33764D02*
X554900Y33764D01*
X553475Y34490D01*
X552181Y35430D01*
X551050Y36561D01*
X550110Y37855D01*
X549384Y39280D01*
X548889Y40801D01*
X548639Y42380D01*
X548639Y48261D01*
X556261Y48261D01*
X556261Y33321D01*
X554900Y33764D01*
G37*
%LPD*%
%LPC*%
G36*
X1031199Y332699D02*
X1031199Y332699D01*
X1031199Y345607D01*
X1032210Y345279D01*
X1033493Y344625D01*
X1034657Y343779D01*
X1035675Y342761D01*
X1036521Y341597D01*
X1037175Y340314D01*
X1037620Y338945D01*
X1037845Y337524D01*
X1037845Y332699D01*
X1031199Y332699D01*
G37*
%LPD*%
%LPC*%
G36*
X1031199Y408899D02*
X1031199Y408899D01*
X1031199Y421807D01*
X1032210Y421479D01*
X1033493Y420825D01*
X1034657Y419979D01*
X1035675Y418961D01*
X1036521Y417797D01*
X1037175Y416514D01*
X1037620Y415145D01*
X1037845Y413724D01*
X1037845Y408899D01*
X1031199Y408899D01*
G37*
%LPD*%
%LPC*%
G36*
X1031199Y403901D02*
X1031199Y403901D01*
X1037845Y403901D01*
X1037845Y399076D01*
X1037620Y397655D01*
X1037175Y396286D01*
X1036521Y395003D01*
X1035675Y393839D01*
X1034657Y392821D01*
X1033493Y391975D01*
X1032210Y391321D01*
X1031199Y390993D01*
X1031199Y403901D01*
G37*
%LPD*%
%LPC*%
G36*
X1031199Y327701D02*
X1031199Y327701D01*
X1037845Y327701D01*
X1037845Y322876D01*
X1037620Y321455D01*
X1037175Y320086D01*
X1036521Y318803D01*
X1035675Y317639D01*
X1034657Y316621D01*
X1033493Y315775D01*
X1032210Y315121D01*
X1031199Y314793D01*
X1031199Y327701D01*
G37*
%LPD*%
%LPC*%
G36*
X1044955Y408899D02*
X1044955Y408899D01*
X1044955Y413724D01*
X1045180Y415145D01*
X1045625Y416514D01*
X1046279Y417797D01*
X1047125Y418961D01*
X1048143Y419979D01*
X1049307Y420825D01*
X1050590Y421479D01*
X1051601Y421807D01*
X1051601Y408899D01*
X1044955Y408899D01*
G37*
%LPD*%
%LPC*%
G36*
X1044955Y332699D02*
X1044955Y332699D01*
X1044955Y337524D01*
X1045180Y338945D01*
X1045625Y340314D01*
X1046279Y341597D01*
X1047125Y342761D01*
X1048143Y343779D01*
X1049307Y344625D01*
X1050590Y345279D01*
X1051601Y345607D01*
X1051601Y332699D01*
X1044955Y332699D01*
G37*
%LPD*%
%LPC*%
G36*
X1050590Y315121D02*
X1050590Y315121D01*
X1049307Y315775D01*
X1048143Y316621D01*
X1047125Y317639D01*
X1046279Y318803D01*
X1045625Y320086D01*
X1045180Y321455D01*
X1044955Y322876D01*
X1044955Y327701D01*
X1051601Y327701D01*
X1051601Y314793D01*
X1050590Y315121D01*
G37*
%LPD*%
%LPC*%
G36*
X1050590Y391321D02*
X1050590Y391321D01*
X1049307Y391975D01*
X1048143Y392821D01*
X1047125Y393839D01*
X1046279Y395003D01*
X1045625Y396286D01*
X1045180Y397655D01*
X1044955Y399076D01*
X1044955Y403901D01*
X1051601Y403901D01*
X1051601Y390993D01*
X1050590Y391321D01*
G37*
%LPD*%
%LPC*%
G36*
X281899Y27558D02*
X281899Y27558D01*
X281899Y35601D01*
X289942Y35601D01*
X289942Y33734D01*
X283766Y27558D01*
X281899Y27558D01*
G37*
%LPD*%
%LPC*%
G36*
X275034Y27558D02*
X275034Y27558D01*
X268858Y33734D01*
X268858Y35601D01*
X276901Y35601D01*
X276901Y27558D01*
X275034Y27558D01*
G37*
%LPD*%
%LPC*%
G36*
X205739Y27939D02*
X205739Y27939D01*
X205739Y35561D01*
X213361Y35561D01*
X213361Y33891D01*
X207409Y27939D01*
X205739Y27939D01*
G37*
%LPD*%
%LPC*%
G36*
X1051964Y646210D02*
X1051964Y646210D01*
X1055598Y652504D01*
X1056239Y651863D01*
X1057172Y650579D01*
X1057892Y649165D01*
X1058383Y647656D01*
X1058631Y646089D01*
X1058631Y644502D01*
X1058383Y642935D01*
X1058265Y642573D01*
X1051964Y646210D01*
G37*
%LPD*%
%LPC*%
G36*
X1041342Y652343D02*
X1041342Y652343D01*
X1041983Y652985D01*
X1043266Y653917D01*
X1044680Y654638D01*
X1046190Y655128D01*
X1047757Y655376D01*
X1049343Y655376D01*
X1050910Y655128D01*
X1051273Y655010D01*
X1047635Y648710D01*
X1041342Y652343D01*
G37*
%LPD*%
%LPC*%
G36*
X174064Y578390D02*
X174064Y578390D01*
X180365Y582027D01*
X180483Y581665D01*
X180731Y580098D01*
X180731Y578511D01*
X180483Y576944D01*
X179992Y575435D01*
X179272Y574021D01*
X178339Y572737D01*
X177698Y572096D01*
X174064Y578390D01*
G37*
%LPD*%
%LPC*%
G36*
X169857Y569224D02*
X169857Y569224D01*
X168290Y569472D01*
X166780Y569962D01*
X165366Y570683D01*
X164083Y571615D01*
X163442Y572257D01*
X169735Y575890D01*
X173373Y569590D01*
X173010Y569472D01*
X171443Y569224D01*
X169857Y569224D01*
G37*
%LPD*%
%LPC*%
G36*
X624699Y612099D02*
X624699Y612099D01*
X624699Y619387D01*
X626070Y618942D01*
X627484Y618222D01*
X628767Y617289D01*
X629889Y616167D01*
X630822Y614884D01*
X631542Y613470D01*
X631987Y612099D01*
X624699Y612099D01*
G37*
%LPD*%
%LPC*%
G36*
X624699Y607101D02*
X624699Y607101D01*
X631987Y607101D01*
X631542Y605730D01*
X630822Y604316D01*
X629889Y603033D01*
X628767Y601911D01*
X627484Y600978D01*
X626070Y600258D01*
X624699Y599813D01*
X624699Y607101D01*
G37*
%LPD*%
%LPC*%
G36*
X650199Y243799D02*
X650199Y243799D01*
X650199Y250445D01*
X651488Y250445D01*
X656845Y245088D01*
X656845Y243799D01*
X650199Y243799D01*
G37*
%LPD*%
%LPC*%
G36*
X638555Y243799D02*
X638555Y243799D01*
X638555Y245088D01*
X643912Y250445D01*
X645201Y250445D01*
X645201Y243799D01*
X638555Y243799D01*
G37*
%LPD*%
D10*
X952500Y323596D02*
X952500Y336804D01*
X977900Y336804D02*
X977900Y323596D01*
X1104900Y323596D02*
X1104900Y336804D01*
X1130300Y336804D02*
X1130300Y323596D01*
X1003300Y323596D02*
X1003300Y336804D01*
X1028700Y336804D02*
X1028700Y323596D01*
X1079500Y323596D02*
X1079500Y336804D01*
X1054100Y336804D02*
X1054100Y323596D01*
X1130300Y399796D02*
X1130300Y413004D01*
X1104900Y413004D02*
X1104900Y399796D01*
X1079500Y399796D02*
X1079500Y413004D01*
X1054100Y413004D02*
X1054100Y399796D01*
X1028700Y399796D02*
X1028700Y413004D01*
X1003300Y413004D02*
X1003300Y399796D01*
X977900Y399796D02*
X977900Y413004D01*
X952500Y413004D02*
X952500Y399796D01*
D11*
G36*
X1000151Y576545D02*
X1007691Y589603D01*
X1020749Y582063D01*
X1013209Y569005D01*
X1000151Y576545D01*
G37*
D12*
X1023150Y601301D03*
X1035850Y623299D03*
X1048550Y645296D03*
D11*
G36*
X135309Y655595D02*
X142849Y642537D01*
X129791Y634997D01*
X122251Y648055D01*
X135309Y655595D01*
G37*
D12*
X145250Y623299D03*
X157950Y601301D03*
X170650Y579304D03*
D13*
X364490Y55880D03*
D14*
X341630Y55880D03*
D13*
X318770Y55880D03*
D15*
X699780Y144600D02*
X699780Y159840D01*
X725180Y159840D02*
X725180Y144600D01*
X469240Y151020D02*
X469240Y135780D01*
X494640Y135780D02*
X494640Y151020D01*
D16*
X647700Y241300D03*
X546100Y241300D03*
D17*
X546100Y215900D03*
X647700Y215900D03*
D18*
X279400Y63500D03*
X279400Y38100D03*
D14*
X275100Y203100D03*
X275100Y228500D03*
X275100Y253900D03*
X275100Y279300D03*
X275100Y304700D03*
X275100Y330100D03*
X275100Y355500D03*
X275100Y380900D03*
X275100Y406300D03*
X275100Y431700D03*
X275100Y457100D03*
X275100Y482500D03*
X275100Y507900D03*
X275100Y533300D03*
X275100Y558700D03*
X27400Y203100D03*
X27400Y228500D03*
X27400Y253900D03*
X27400Y279300D03*
X27400Y304700D03*
X27400Y330100D03*
X27400Y355500D03*
X27400Y380900D03*
X27400Y406300D03*
X27400Y431700D03*
X27400Y457100D03*
X27400Y482500D03*
X27400Y507900D03*
X27400Y533300D03*
X27400Y558700D03*
D19*
X546000Y609600D03*
D12*
X571400Y609600D03*
X596800Y609600D03*
X622200Y609600D03*
D15*
X584200Y58420D02*
X584200Y43180D01*
X609600Y43180D02*
X609600Y58420D01*
X635000Y58420D02*
X635000Y43180D01*
X558800Y43180D02*
X558800Y58420D01*
D20*
X101600Y38100D03*
X127000Y38100D03*
X152400Y38100D03*
X177800Y38100D03*
X203200Y38100D03*
X101600Y63500D03*
X127000Y63500D03*
X152400Y63500D03*
X177800Y63500D03*
X203200Y63500D03*
D21*
X621900Y132400D03*
X621900Y152400D03*
X621900Y172400D03*
X571900Y132400D03*
X571900Y152400D03*
X571900Y172400D03*
D22*
X762000Y387350D03*
X762000Y254000D03*
X241300Y660400D03*
X342900Y635000D03*
X812800Y469900D03*
X812800Y622300D03*
D23*
X204100Y645700D03*
X30000Y670000D03*
X1120000Y30000D03*
X1120000Y670000D03*
X584100Y645700D03*
X964100Y645700D03*
X30000Y30000D03*
D22*
X812800Y387350D03*
X812800Y279400D03*
X254000Y139700D03*
X38100Y139700D03*
D24*
X831850Y406400D02*
X952500Y406400D01*
X831850Y406400D02*
X812800Y387350D01*
X546100Y190500D02*
X356199Y190500D01*
X546100Y190500D02*
X635000Y279400D01*
X812800Y279400D01*
X305399Y139700D02*
X254000Y139700D01*
X305399Y139700D02*
X356199Y190500D01*
X27400Y203100D02*
X27400Y150400D01*
X38100Y139700D01*
X305399Y139700D02*
X305399Y69252D01*
X311150Y63500D02*
X203200Y63500D01*
X311150Y63500D02*
X318770Y55880D01*
D22*
X1003300Y278297D03*
D24*
X1003300Y330200D01*
D22*
X1054100Y278297D03*
D24*
X1079500Y303697D01*
X1079500Y330200D01*
D22*
X1003300Y457200D03*
D24*
X495300Y153400D02*
X494640Y143400D01*
X1003300Y406400D02*
X1003300Y457200D01*
D22*
X1066800Y457200D03*
D24*
X1079500Y444500D02*
X1079500Y406400D01*
X1079500Y444500D02*
X1066800Y457200D01*
X355700Y330100D02*
X275100Y330100D01*
X355700Y330100D02*
X381000Y304800D01*
X863600Y304800D01*
X914400Y254000D01*
X1066800Y254000D01*
X1104900Y292100D01*
X1104900Y330200D01*
X711100Y406300D02*
X275100Y406300D01*
X711100Y406300D02*
X800100Y495300D01*
X939800Y495300D01*
X977900Y457200D01*
X977900Y406400D01*
X685700Y431700D02*
X275100Y431700D01*
X685700Y431700D02*
X774700Y520700D01*
X1104900Y457200D02*
X1104900Y406400D01*
X1041400Y520700D02*
X774700Y520700D01*
X1041400Y520700D02*
X1104900Y457200D01*
X1130300Y469900D02*
X1054100Y546100D01*
X736600Y546100D01*
X647600Y457100D02*
X275100Y457100D01*
X1130300Y469900D02*
X1130300Y406400D01*
X736600Y546100D02*
X647600Y457100D01*
X381100Y355500D02*
X275100Y355500D01*
X381100Y355500D02*
X406400Y330200D01*
X876300Y330200D01*
X901700Y304800D01*
X965200Y304800D01*
X977900Y317500D02*
X977900Y330200D01*
X977900Y317500D02*
X965200Y304800D01*
X406500Y380900D02*
X275100Y380900D01*
X431800Y355600D02*
X889000Y355600D01*
X914400Y330200D01*
X952500Y330200D01*
X431800Y355600D02*
X406500Y380900D01*
D22*
X228600Y228600D03*
D24*
X132550Y645296D02*
X131304Y645296D01*
X254100Y203100D02*
X275100Y203100D01*
X254100Y203100D02*
X228600Y228600D01*
X275100Y304700D02*
X330300Y304700D01*
X368300Y266700D02*
X520700Y266700D01*
X546100Y241300D01*
X546100Y215900D01*
X368300Y266700D02*
X330300Y304700D01*
D22*
X152400Y520700D03*
D24*
X139600Y507900D01*
X27400Y507900D01*
D22*
X76200Y533400D03*
D24*
X76100Y533300D02*
X27400Y533300D01*
X76100Y533300D02*
X76200Y533400D01*
D22*
X901700Y596900D03*
D24*
X660300Y558700D02*
X275100Y558700D01*
X660300Y558700D02*
X698500Y596900D01*
X901700Y596900D01*
D22*
X927100Y571500D03*
D24*
X711200Y571500D02*
X673000Y533300D01*
X275100Y533300D01*
X711200Y571500D02*
X927100Y571500D01*
D22*
X482600Y622300D03*
D24*
X165000Y457100D02*
X27400Y457100D01*
X165000Y457100D02*
X228600Y520700D01*
X228600Y565150D01*
X260350Y596900D02*
X457200Y596900D01*
X482600Y622300D01*
X260350Y596900D02*
X228600Y565150D01*
D22*
X419100Y647700D03*
D24*
X387350Y615950D01*
X247650Y615950D01*
X203200Y571500D01*
X203200Y533400D01*
X152300Y482500D01*
X27400Y482500D01*
D22*
X876300Y101600D03*
D25*
X990600Y101600D01*
X1130300Y241300D01*
X1130300Y330200D01*
D26*
X114300Y215900D02*
X27400Y302800D01*
X27400Y304700D01*
X114300Y50800D02*
X127000Y38100D01*
X114300Y50800D02*
X114300Y215900D01*
X127000Y230500D02*
X27400Y330100D01*
X127000Y230500D02*
X127000Y63500D01*
X101600Y63500D02*
X101600Y203200D01*
X27400Y277400D02*
X27400Y279300D01*
X27400Y277400D02*
X101600Y203200D01*
X88900Y190500D02*
X88900Y50800D01*
X101600Y38100D01*
X88900Y190500D02*
X27400Y252000D01*
X27400Y253900D01*
X27400Y355500D02*
X139700Y243200D01*
X139700Y50800D01*
X152400Y38100D01*
X177800Y281300D02*
X27400Y431700D01*
X177800Y281300D02*
X177800Y63500D01*
X165100Y50800D02*
X177800Y38100D01*
X165100Y268600D02*
X27400Y406300D01*
X165100Y268600D02*
X165100Y50800D01*
X152400Y255900D02*
X27400Y380900D01*
X152400Y255900D02*
X152400Y63500D01*
M02*
