G04 EAGLE Gerber RS-274X export*
G75*
%MOMM*%
%FSLAX34Y34*%
%LPD*%
%INCopper Layer 2*%
%IPPOS*%
%AMOC8*
5,1,8,0,0,1.08239X$1,22.5*%
G01*
%ADD10C,1.320800*%
%ADD11C,1.508000*%
%ADD12C,1.650000*%
%ADD13C,1.524000*%
%ADD14C,1.108000*%
%ADD15C,0.906400*%
%ADD16C,4.016000*%
%ADD17C,0.806400*%
%ADD18C,0.756400*%


D10*
X952500Y330200D03*
X977900Y330200D03*
X1104900Y330200D03*
X1130300Y330200D03*
X1003300Y330200D03*
X1028700Y330200D03*
X1079500Y330200D03*
X1054100Y330200D03*
X1130300Y406400D03*
X1104900Y406400D03*
X1079500Y406400D03*
X1054100Y406400D03*
X1028700Y406400D03*
X1003300Y406400D03*
X977900Y406400D03*
X952500Y406400D03*
D11*
X1010450Y579304D03*
X1023150Y601301D03*
X1035850Y623299D03*
X1048550Y645296D03*
X132550Y645296D03*
X145250Y623299D03*
X157950Y601301D03*
X170650Y579304D03*
D12*
X364490Y55880D03*
X341630Y55880D03*
X318770Y55880D03*
D13*
X699780Y152220D03*
X725180Y152220D03*
X469240Y143400D03*
X494640Y143400D03*
D10*
X647700Y241300D03*
X546100Y241300D03*
X546100Y215900D03*
X647700Y215900D03*
X279400Y63500D03*
X279400Y38100D03*
D11*
X275100Y203100D03*
X275100Y228500D03*
X275100Y253900D03*
X275100Y279300D03*
X275100Y304700D03*
X275100Y330100D03*
X275100Y355500D03*
X275100Y380900D03*
X275100Y406300D03*
X275100Y431700D03*
X275100Y457100D03*
X275100Y482500D03*
X275100Y507900D03*
X275100Y533300D03*
X275100Y558700D03*
X27400Y203100D03*
X27400Y228500D03*
X27400Y253900D03*
X27400Y279300D03*
X27400Y304700D03*
X27400Y330100D03*
X27400Y355500D03*
X27400Y380900D03*
X27400Y406300D03*
X27400Y431700D03*
X27400Y457100D03*
X27400Y482500D03*
X27400Y507900D03*
X27400Y533300D03*
X27400Y558700D03*
X546000Y609600D03*
X571400Y609600D03*
X596800Y609600D03*
X622200Y609600D03*
D13*
X584200Y50800D03*
X609600Y50800D03*
X635000Y50800D03*
X558800Y50800D03*
X101600Y38100D03*
X127000Y38100D03*
X152400Y38100D03*
X177800Y38100D03*
X203200Y38100D03*
X101600Y63500D03*
X127000Y63500D03*
X152400Y63500D03*
X177800Y63500D03*
X203200Y63500D03*
D14*
X621900Y132400D03*
X621900Y152400D03*
X621900Y172400D03*
X571900Y132400D03*
X571900Y152400D03*
X571900Y172400D03*
D15*
X762000Y387350D03*
X762000Y254000D03*
X241300Y660400D03*
X342900Y635000D03*
X812800Y469900D03*
X812800Y622300D03*
D16*
X204100Y645700D03*
X30000Y670000D03*
X1120000Y30000D03*
X1120000Y670000D03*
X584100Y645700D03*
X964100Y645700D03*
X30000Y30000D03*
D17*
X812800Y387350D03*
X812800Y279400D03*
D18*
X254000Y139700D03*
X38100Y139700D03*
X1003300Y278297D03*
X1054100Y278297D03*
X1003300Y457200D03*
X1066800Y457200D03*
X228600Y228600D03*
X152400Y520700D03*
X76200Y533400D03*
X901700Y596900D03*
X927100Y571500D03*
X482600Y622300D03*
X419100Y647700D03*
X876300Y101600D03*
M02*
