M48
;GenerationSoftware,Autodesk,EAGLE,9.5.2*%
;CreationDate,2019-12-04T15:57:03Z*%
FMAT,2
ICI,OFF
METRIC,TZ,000.000
T8C0.350
T7C0.400
T6C0.500
T5C0.813
T4C1.000
T3C1.016
T2C1.100
T1C2.800
%
G90
M71
T1
X55626Y33020
T2
X53467Y17018
X83820Y27940
X58039Y17018
X55753Y17018
X83820Y25400
X83820Y22860
X78740Y27940
X78740Y25400
X78740Y22860
T3
X41910Y17780
X39370Y17780
X36830Y17780
X34290Y17780
X31750Y17780
X41910Y15240
X39370Y15240
X36830Y15240
X31750Y15240
X77470Y16510
X85090Y16510
X91568Y26652
X94108Y26652
X34290Y15240
X68514Y25770
X71054Y25770
X82550Y16510
X80010Y16510
T4
X49100Y64760
X49100Y67300
X24330Y31740
X24330Y34280
X24330Y36820
X24330Y39360
X24330Y41900
X24330Y44440
X24330Y46980
X24330Y49520
X24330Y52060
X24330Y54600
X24330Y59680
X24330Y62220
X24330Y64760
X24330Y67300
X76200Y72390
X78740Y72390
X81280Y72390
X83820Y72390
X24330Y57140
X127635Y70360
X128905Y72560
X130175Y74760
X131445Y76960
X29845Y76960
X31115Y74760
X32385Y72560
X33655Y70360
X49100Y59680
X49100Y31740
X49100Y34280
X49100Y36820
X49100Y39360
X49100Y41900
X49100Y44440
X49100Y46980
X49100Y49520
X49100Y52060
X49100Y54600
X49100Y57140
X49100Y62220
T5
X124460Y44450
X121920Y44450
X76200Y33020
X76200Y35560
X86360Y35560
X119380Y52070
X116840Y52070
X121920Y52070
X124460Y52070
X127000Y52070
X129540Y52070
X132080Y52070
X134620Y52070
X127000Y44450
X129540Y44450
X134620Y44450
X132080Y44450
X49530Y15240
X119380Y44450
X116840Y44450
X49530Y17780
X86360Y33020
T6
X97790Y36830
X44450Y77470
X55880Y71120
X102870Y58420
X102870Y73660
X97790Y50165
T7
X102870Y50165
X102870Y39370
T8
X46990Y25400
X25400Y25400
X121920Y39260
X127000Y39260
X121920Y57150
X128270Y57150
X36830Y63500
X39370Y69850
X111760Y71120
X69850Y73660
X63500Y76200
X109220Y21590
X114300Y68580
X44450Y34290
M30