G04 EAGLE Gerber RS-274X export*
G75*
%MOMM*%
%FSLAX34Y34*%
%LPD*%
%INBottom Copper*%
%IPPOS*%
%AMOC8*
5,1,8,0,0,1.08239X$1,22.5*%
G01*
%ADD10C,0.152400*%
%ADD11C,1.320800*%
%ADD12R,1.508000X1.508000*%
%ADD13C,1.508000*%
%ADD14R,1.930400X1.930400*%
%ADD15C,1.930400*%
%ADD16C,1.524000*%
%ADD17P,1.429621X8X202.500000*%
%ADD18P,1.429621X8X22.500000*%
%ADD19P,1.732040X8X292.500000*%
%ADD20R,1.508000X1.508000*%
%ADD21P,1.649562X8X22.500000*%
%ADD22C,1.676400*%
%ADD23C,2.000000*%
%ADD24C,1.000000*%
%ADD25C,1.500000*%
%ADD26C,0.500000*%

G36*
X406500Y183995D02*
X406500Y183995D01*
X406673Y183999D01*
X406722Y184008D01*
X406772Y184011D01*
X406941Y184053D01*
X407111Y184087D01*
X407157Y184105D01*
X407206Y184117D01*
X407365Y184188D01*
X407526Y184252D01*
X407569Y184278D01*
X407614Y184298D01*
X407758Y184396D01*
X407905Y184488D01*
X407942Y184521D01*
X407984Y184549D01*
X408167Y184716D01*
X413872Y190421D01*
X424328Y190421D01*
X426216Y188533D01*
X426359Y188413D01*
X426498Y188289D01*
X426530Y188270D01*
X426558Y188246D01*
X426721Y188154D01*
X426880Y188057D01*
X426914Y188044D01*
X426947Y188026D01*
X427123Y187964D01*
X427297Y187897D01*
X427333Y187890D01*
X427368Y187877D01*
X427552Y187848D01*
X427736Y187813D01*
X427786Y187810D01*
X427809Y187807D01*
X427846Y187808D01*
X427983Y187801D01*
X485878Y187801D01*
X486064Y187817D01*
X486250Y187829D01*
X486286Y187837D01*
X486323Y187841D01*
X486504Y187890D01*
X486684Y187934D01*
X486718Y187949D01*
X486754Y187959D01*
X486923Y188040D01*
X487093Y188116D01*
X487123Y188136D01*
X487157Y188152D01*
X487308Y188262D01*
X487462Y188367D01*
X487499Y188400D01*
X487519Y188414D01*
X487544Y188441D01*
X487646Y188533D01*
X489915Y190802D01*
X500685Y190802D01*
X502954Y188533D01*
X503097Y188413D01*
X503237Y188289D01*
X503269Y188270D01*
X503297Y188246D01*
X503459Y188154D01*
X503619Y188057D01*
X503653Y188044D01*
X503686Y188026D01*
X503862Y187964D01*
X504036Y187897D01*
X504072Y187890D01*
X504107Y187877D01*
X504291Y187848D01*
X504474Y187813D01*
X504525Y187810D01*
X504548Y187807D01*
X504585Y187808D01*
X504722Y187801D01*
X508799Y187801D01*
X508848Y187805D01*
X508898Y187803D01*
X509070Y187825D01*
X509243Y187841D01*
X509292Y187854D01*
X509341Y187860D01*
X509506Y187913D01*
X509674Y187959D01*
X509719Y187981D01*
X509767Y187996D01*
X509920Y188077D01*
X510077Y188152D01*
X510117Y188182D01*
X510162Y188205D01*
X510298Y188312D01*
X510439Y188414D01*
X510473Y188450D01*
X510513Y188481D01*
X510628Y188611D01*
X510748Y188736D01*
X510776Y188778D01*
X510809Y188816D01*
X510899Y188964D01*
X510995Y189108D01*
X511015Y189154D01*
X511041Y189197D01*
X511104Y189359D01*
X511172Y189519D01*
X511184Y189567D01*
X511202Y189614D01*
X511234Y189785D01*
X511274Y189954D01*
X511276Y190004D01*
X511286Y190053D01*
X511298Y190300D01*
X511298Y241500D01*
X511293Y241550D01*
X511296Y241600D01*
X511273Y241772D01*
X511258Y241945D01*
X511245Y241993D01*
X511238Y242043D01*
X511185Y242208D01*
X511139Y242376D01*
X511118Y242421D01*
X511103Y242468D01*
X511021Y242622D01*
X510946Y242778D01*
X510917Y242819D01*
X510893Y242863D01*
X510786Y243000D01*
X510684Y243140D01*
X510648Y243175D01*
X510617Y243214D01*
X510487Y243330D01*
X510362Y243450D01*
X510320Y243477D01*
X510283Y243511D01*
X510135Y243601D01*
X509990Y243697D01*
X509944Y243717D01*
X509901Y243743D01*
X509739Y243805D01*
X509580Y243874D01*
X509531Y243885D01*
X509484Y243903D01*
X509313Y243936D01*
X509145Y243975D01*
X509095Y243978D01*
X509046Y243987D01*
X508799Y243999D01*
X482149Y243999D01*
X481963Y243983D01*
X481777Y243971D01*
X481741Y243963D01*
X481704Y243959D01*
X481523Y243910D01*
X481343Y243866D01*
X481309Y243851D01*
X481273Y243841D01*
X481105Y243760D01*
X480934Y243684D01*
X480904Y243664D01*
X480870Y243648D01*
X480719Y243538D01*
X480565Y243433D01*
X480527Y243399D01*
X480509Y243386D01*
X480483Y243359D01*
X480381Y243267D01*
X478397Y241283D01*
X472884Y238999D01*
X466916Y238999D01*
X461403Y241283D01*
X457183Y245503D01*
X454899Y251016D01*
X454899Y256984D01*
X457183Y262497D01*
X461403Y266717D01*
X466916Y269001D01*
X472884Y269001D01*
X478397Y266717D01*
X480381Y264733D01*
X480525Y264613D01*
X480664Y264489D01*
X480696Y264470D01*
X480724Y264446D01*
X480886Y264354D01*
X481046Y264257D01*
X481080Y264244D01*
X481113Y264226D01*
X481289Y264164D01*
X481463Y264097D01*
X481499Y264090D01*
X481534Y264077D01*
X481718Y264048D01*
X481902Y264013D01*
X481952Y264010D01*
X481975Y264007D01*
X482012Y264008D01*
X482149Y264001D01*
X516121Y264001D01*
X516307Y264017D01*
X516493Y264029D01*
X516529Y264037D01*
X516566Y264041D01*
X516746Y264090D01*
X516927Y264134D01*
X516961Y264149D01*
X516996Y264159D01*
X517165Y264240D01*
X517335Y264316D01*
X517366Y264336D01*
X517399Y264352D01*
X517550Y264462D01*
X517705Y264567D01*
X517742Y264601D01*
X517761Y264614D01*
X517787Y264641D01*
X517888Y264733D01*
X554928Y301773D01*
X555016Y301878D01*
X555111Y301976D01*
X555159Y302049D01*
X555214Y302116D01*
X555282Y302234D01*
X555358Y302348D01*
X555392Y302428D01*
X555435Y302504D01*
X555481Y302633D01*
X555535Y302759D01*
X555554Y302843D01*
X555583Y302925D01*
X555605Y303061D01*
X555636Y303194D01*
X555640Y303280D01*
X555654Y303366D01*
X555651Y303503D01*
X555658Y303640D01*
X555647Y303726D01*
X555645Y303813D01*
X555618Y303947D01*
X555600Y304083D01*
X555574Y304166D01*
X555557Y304251D01*
X555506Y304378D01*
X555465Y304508D01*
X555424Y304585D01*
X555392Y304666D01*
X555320Y304782D01*
X555256Y304903D01*
X555202Y304971D01*
X555156Y305045D01*
X555064Y305147D01*
X554980Y305254D01*
X554914Y305312D01*
X554856Y305376D01*
X554748Y305460D01*
X554645Y305551D01*
X554571Y305596D01*
X554502Y305649D01*
X554380Y305712D01*
X554264Y305783D01*
X554183Y305814D01*
X554105Y305854D01*
X553975Y305894D01*
X553847Y305943D01*
X553761Y305960D01*
X553678Y305985D01*
X553543Y306001D01*
X553408Y306027D01*
X553271Y306034D01*
X553235Y306038D01*
X553211Y306037D01*
X553161Y306039D01*
X553079Y306039D01*
X546934Y307686D01*
X541425Y310867D01*
X536927Y315365D01*
X533746Y320874D01*
X532099Y327019D01*
X532099Y333381D01*
X533746Y339526D01*
X536927Y345035D01*
X541425Y349533D01*
X546934Y352714D01*
X553079Y354361D01*
X559441Y354361D01*
X565586Y352714D01*
X571095Y349533D01*
X575593Y345035D01*
X578774Y339526D01*
X580421Y333381D01*
X580421Y327019D01*
X578774Y320874D01*
X577432Y318550D01*
X577418Y318519D01*
X577400Y318492D01*
X577324Y318317D01*
X577244Y318144D01*
X577236Y318112D01*
X577223Y318081D01*
X577179Y317896D01*
X577131Y317712D01*
X577129Y317679D01*
X577121Y317646D01*
X577112Y317457D01*
X577097Y317267D01*
X577101Y317233D01*
X577099Y317200D01*
X577124Y317012D01*
X577143Y316822D01*
X577153Y316790D01*
X577157Y316757D01*
X577215Y316576D01*
X577267Y316393D01*
X577282Y316363D01*
X577292Y316332D01*
X577382Y316163D01*
X577466Y315993D01*
X577486Y315966D01*
X577502Y315937D01*
X577619Y315787D01*
X577733Y315635D01*
X577757Y315612D01*
X577778Y315586D01*
X577920Y315459D01*
X578059Y315330D01*
X578087Y315312D01*
X578112Y315289D01*
X578275Y315190D01*
X578434Y315087D01*
X578465Y315075D01*
X578494Y315057D01*
X578671Y314989D01*
X578847Y314916D01*
X578879Y314909D01*
X578910Y314897D01*
X579097Y314861D01*
X579283Y314820D01*
X579316Y314819D01*
X579349Y314813D01*
X579596Y314801D01*
X754954Y314801D01*
X755090Y314813D01*
X755227Y314816D01*
X755312Y314833D01*
X755399Y314841D01*
X755531Y314877D01*
X755665Y314904D01*
X755746Y314936D01*
X755830Y314959D01*
X755953Y315018D01*
X756080Y315069D01*
X756154Y315115D01*
X756232Y315152D01*
X756343Y315233D01*
X756459Y315305D01*
X756524Y315363D01*
X756594Y315414D01*
X756689Y315513D01*
X756790Y315605D01*
X756844Y315674D01*
X756904Y315736D01*
X756979Y315850D01*
X757063Y315959D01*
X757103Y316036D01*
X757151Y316108D01*
X757205Y316234D01*
X757268Y316356D01*
X757293Y316439D01*
X757328Y316519D01*
X757359Y316652D01*
X757399Y316783D01*
X757409Y316869D01*
X757429Y316954D01*
X757436Y317090D01*
X757452Y317226D01*
X757447Y317313D01*
X757451Y317400D01*
X757434Y317535D01*
X757425Y317672D01*
X757405Y317757D01*
X757394Y317843D01*
X757352Y317973D01*
X757320Y318106D01*
X757284Y318185D01*
X757258Y318268D01*
X757194Y318389D01*
X757138Y318514D01*
X757090Y318586D01*
X757049Y318663D01*
X756964Y318771D01*
X756887Y318884D01*
X756796Y318985D01*
X756773Y319014D01*
X756755Y319030D01*
X756721Y319067D01*
X750395Y325393D01*
X750395Y335007D01*
X751267Y335879D01*
X751387Y336022D01*
X751511Y336162D01*
X751530Y336193D01*
X751554Y336222D01*
X751646Y336384D01*
X751743Y336543D01*
X751756Y336578D01*
X751774Y336610D01*
X751836Y336786D01*
X751903Y336960D01*
X751910Y336996D01*
X751923Y337031D01*
X751952Y337216D01*
X751987Y337399D01*
X751990Y337449D01*
X751993Y337472D01*
X751992Y337509D01*
X751999Y337646D01*
X751999Y348154D01*
X751983Y348340D01*
X751971Y348526D01*
X751963Y348562D01*
X751959Y348599D01*
X751910Y348779D01*
X751866Y348960D01*
X751851Y348994D01*
X751841Y349030D01*
X751760Y349198D01*
X751684Y349368D01*
X751664Y349399D01*
X751648Y349432D01*
X751538Y349583D01*
X751433Y349738D01*
X751399Y349775D01*
X751386Y349794D01*
X751359Y349820D01*
X751267Y349921D01*
X750395Y350793D01*
X750395Y352026D01*
X750379Y352212D01*
X750367Y352398D01*
X750359Y352434D01*
X750355Y352471D01*
X750306Y352652D01*
X750262Y352832D01*
X750247Y352866D01*
X750237Y352902D01*
X750156Y353070D01*
X750080Y353241D01*
X750060Y353271D01*
X750044Y353305D01*
X749934Y353456D01*
X749829Y353610D01*
X749795Y353648D01*
X749782Y353667D01*
X749755Y353692D01*
X749663Y353794D01*
X733190Y370267D01*
X733046Y370387D01*
X732907Y370511D01*
X732875Y370530D01*
X732847Y370554D01*
X732685Y370646D01*
X732525Y370743D01*
X732491Y370756D01*
X732458Y370774D01*
X732282Y370836D01*
X732108Y370903D01*
X732072Y370910D01*
X732037Y370923D01*
X731853Y370952D01*
X731670Y370987D01*
X731619Y370990D01*
X731596Y370993D01*
X731559Y370992D01*
X731422Y370999D01*
X582211Y370999D01*
X578535Y372522D01*
X542790Y408267D01*
X542646Y408387D01*
X542507Y408511D01*
X542475Y408530D01*
X542447Y408554D01*
X542285Y408646D01*
X542125Y408743D01*
X542091Y408756D01*
X542058Y408774D01*
X541882Y408836D01*
X541708Y408903D01*
X541672Y408910D01*
X541637Y408923D01*
X541453Y408952D01*
X541270Y408987D01*
X541219Y408990D01*
X541196Y408993D01*
X541159Y408992D01*
X541022Y408999D01*
X502757Y408999D01*
X502571Y408983D01*
X502385Y408971D01*
X502349Y408963D01*
X502312Y408959D01*
X502131Y408910D01*
X501951Y408866D01*
X501917Y408851D01*
X501881Y408841D01*
X501713Y408760D01*
X501542Y408684D01*
X501512Y408664D01*
X501478Y408648D01*
X501327Y408538D01*
X501173Y408433D01*
X501135Y408399D01*
X501116Y408386D01*
X501091Y408359D01*
X500989Y408267D01*
X500789Y408067D01*
X500757Y408029D01*
X500720Y407995D01*
X500614Y407858D01*
X500503Y407724D01*
X500478Y407681D01*
X500448Y407641D01*
X500368Y407487D01*
X500282Y407336D01*
X500266Y407289D01*
X500243Y407244D01*
X500192Y407079D01*
X500134Y406915D01*
X500126Y406865D01*
X500111Y406817D01*
X500091Y406645D01*
X500063Y406474D01*
X500064Y406423D01*
X500058Y406374D01*
X500069Y406200D01*
X500072Y406027D01*
X500082Y405978D01*
X500085Y405928D01*
X500126Y405759D01*
X500161Y405589D01*
X500179Y405543D01*
X500191Y405494D01*
X500261Y405335D01*
X500325Y405174D01*
X500352Y405131D01*
X500372Y405086D01*
X500470Y404942D01*
X500562Y404795D01*
X500595Y404758D01*
X500623Y404716D01*
X500789Y404533D01*
X503422Y401900D01*
X505653Y396515D01*
X505653Y390685D01*
X503422Y385300D01*
X500789Y382667D01*
X500757Y382629D01*
X500720Y382595D01*
X500614Y382458D01*
X500503Y382324D01*
X500478Y382281D01*
X500448Y382241D01*
X500368Y382087D01*
X500282Y381936D01*
X500266Y381889D01*
X500243Y381844D01*
X500192Y381679D01*
X500134Y381515D01*
X500126Y381465D01*
X500111Y381417D01*
X500091Y381245D01*
X500063Y381074D01*
X500064Y381023D01*
X500058Y380974D01*
X500069Y380800D01*
X500072Y380627D01*
X500082Y380578D01*
X500085Y380528D01*
X500126Y380359D01*
X500161Y380189D01*
X500179Y380143D01*
X500191Y380094D01*
X500261Y379935D01*
X500325Y379774D01*
X500352Y379731D01*
X500372Y379686D01*
X500470Y379542D01*
X500562Y379395D01*
X500595Y379358D01*
X500623Y379316D01*
X500789Y379133D01*
X503422Y376500D01*
X505653Y371115D01*
X505653Y365285D01*
X503422Y359900D01*
X500789Y357267D01*
X500757Y357229D01*
X500720Y357195D01*
X500614Y357058D01*
X500503Y356924D01*
X500478Y356881D01*
X500448Y356841D01*
X500368Y356687D01*
X500282Y356536D01*
X500266Y356489D01*
X500243Y356444D01*
X500192Y356279D01*
X500134Y356115D01*
X500126Y356065D01*
X500111Y356017D01*
X500091Y355845D01*
X500063Y355674D01*
X500064Y355623D01*
X500058Y355574D01*
X500069Y355400D01*
X500072Y355227D01*
X500082Y355178D01*
X500085Y355128D01*
X500126Y354959D01*
X500161Y354789D01*
X500179Y354743D01*
X500191Y354694D01*
X500261Y354535D01*
X500325Y354374D01*
X500352Y354331D01*
X500372Y354286D01*
X500470Y354142D01*
X500562Y353995D01*
X500595Y353958D01*
X500623Y353916D01*
X500789Y353733D01*
X503422Y351100D01*
X505653Y345715D01*
X505653Y339885D01*
X503422Y334500D01*
X500789Y331867D01*
X500757Y331829D01*
X500720Y331795D01*
X500614Y331658D01*
X500503Y331524D01*
X500478Y331481D01*
X500448Y331441D01*
X500368Y331287D01*
X500282Y331136D01*
X500266Y331089D01*
X500243Y331044D01*
X500192Y330879D01*
X500134Y330715D01*
X500126Y330665D01*
X500111Y330617D01*
X500091Y330445D01*
X500063Y330274D01*
X500064Y330223D01*
X500058Y330174D01*
X500069Y330000D01*
X500072Y329827D01*
X500082Y329778D01*
X500085Y329728D01*
X500126Y329559D01*
X500161Y329389D01*
X500179Y329343D01*
X500191Y329294D01*
X500261Y329135D01*
X500325Y328974D01*
X500352Y328931D01*
X500372Y328886D01*
X500470Y328742D01*
X500562Y328595D01*
X500595Y328558D01*
X500623Y328516D01*
X500789Y328333D01*
X503422Y325700D01*
X505653Y320315D01*
X505653Y314485D01*
X503422Y309100D01*
X499300Y304978D01*
X493915Y302747D01*
X488085Y302747D01*
X482700Y304978D01*
X481011Y306667D01*
X480867Y306787D01*
X480728Y306911D01*
X480696Y306930D01*
X480668Y306954D01*
X480506Y307046D01*
X480346Y307143D01*
X480312Y307156D01*
X480279Y307174D01*
X480103Y307236D01*
X479929Y307303D01*
X479893Y307310D01*
X479858Y307323D01*
X479674Y307352D01*
X479491Y307387D01*
X479440Y307390D01*
X479417Y307393D01*
X479380Y307392D01*
X479243Y307399D01*
X468011Y307399D01*
X464335Y308922D01*
X446090Y327167D01*
X445946Y327287D01*
X445807Y327411D01*
X445775Y327430D01*
X445747Y327454D01*
X445585Y327546D01*
X445425Y327643D01*
X445391Y327656D01*
X445358Y327674D01*
X445182Y327736D01*
X445008Y327803D01*
X444972Y327810D01*
X444937Y327823D01*
X444753Y327852D01*
X444570Y327887D01*
X444519Y327890D01*
X444496Y327893D01*
X444459Y327892D01*
X444322Y327899D01*
X441516Y327899D01*
X436003Y330183D01*
X431783Y334403D01*
X429499Y339916D01*
X429499Y345884D01*
X431783Y351397D01*
X436003Y355617D01*
X441516Y357901D01*
X447484Y357901D01*
X452997Y355617D01*
X457217Y351397D01*
X459501Y345884D01*
X459501Y343078D01*
X459517Y342892D01*
X459529Y342706D01*
X459537Y342670D01*
X459541Y342633D01*
X459590Y342452D01*
X459634Y342272D01*
X459649Y342238D01*
X459659Y342202D01*
X459740Y342034D01*
X459816Y341863D01*
X459836Y341833D01*
X459852Y341799D01*
X459962Y341648D01*
X460067Y341494D01*
X460101Y341456D01*
X460114Y341437D01*
X460141Y341412D01*
X460233Y341310D01*
X473410Y328133D01*
X473554Y328013D01*
X473693Y327889D01*
X473725Y327870D01*
X473753Y327846D01*
X473915Y327754D01*
X474075Y327657D01*
X474109Y327644D01*
X474142Y327626D01*
X474318Y327564D01*
X474492Y327497D01*
X474528Y327490D01*
X474563Y327477D01*
X474747Y327448D01*
X474930Y327413D01*
X474981Y327410D01*
X475004Y327407D01*
X475041Y327408D01*
X475178Y327401D01*
X479243Y327401D01*
X479429Y327417D01*
X479615Y327429D01*
X479651Y327437D01*
X479688Y327441D01*
X479868Y327490D01*
X480049Y327534D01*
X480083Y327549D01*
X480119Y327559D01*
X480287Y327640D01*
X480458Y327715D01*
X480488Y327736D01*
X480522Y327752D01*
X480673Y327862D01*
X480827Y327966D01*
X480865Y328000D01*
X480884Y328014D01*
X480909Y328041D01*
X481010Y328133D01*
X481211Y328333D01*
X481243Y328371D01*
X481280Y328405D01*
X481386Y328542D01*
X481497Y328675D01*
X481522Y328719D01*
X481552Y328759D01*
X481632Y328913D01*
X481718Y329064D01*
X481734Y329111D01*
X481757Y329156D01*
X481808Y329321D01*
X481866Y329485D01*
X481874Y329535D01*
X481889Y329583D01*
X481909Y329755D01*
X481937Y329926D01*
X481936Y329976D01*
X481942Y330026D01*
X481931Y330199D01*
X481928Y330373D01*
X481918Y330422D01*
X481915Y330472D01*
X481874Y330640D01*
X481839Y330811D01*
X481821Y330857D01*
X481809Y330906D01*
X481739Y331064D01*
X481675Y331226D01*
X481648Y331268D01*
X481628Y331314D01*
X481530Y331458D01*
X481439Y331605D01*
X481405Y331642D01*
X481377Y331684D01*
X481211Y331867D01*
X478578Y334500D01*
X476347Y339885D01*
X476347Y345715D01*
X478578Y351100D01*
X481211Y353733D01*
X481243Y353771D01*
X481280Y353805D01*
X481386Y353943D01*
X481497Y354076D01*
X481522Y354119D01*
X481552Y354159D01*
X481632Y354313D01*
X481718Y354464D01*
X481734Y354511D01*
X481757Y354556D01*
X481808Y354721D01*
X481866Y354885D01*
X481874Y354935D01*
X481889Y354983D01*
X481909Y355155D01*
X481937Y355326D01*
X481936Y355376D01*
X481942Y355426D01*
X481931Y355600D01*
X481928Y355773D01*
X481918Y355822D01*
X481915Y355872D01*
X481874Y356041D01*
X481839Y356211D01*
X481821Y356257D01*
X481809Y356306D01*
X481739Y356465D01*
X481675Y356626D01*
X481648Y356669D01*
X481628Y356714D01*
X481530Y356858D01*
X481439Y357005D01*
X481405Y357042D01*
X481377Y357084D01*
X481211Y357267D01*
X478578Y359900D01*
X476347Y365285D01*
X476347Y371115D01*
X478578Y376500D01*
X481211Y379133D01*
X481243Y379171D01*
X481280Y379205D01*
X481386Y379343D01*
X481497Y379476D01*
X481522Y379519D01*
X481552Y379559D01*
X481632Y379713D01*
X481718Y379864D01*
X481734Y379911D01*
X481757Y379956D01*
X481808Y380121D01*
X481866Y380285D01*
X481874Y380335D01*
X481889Y380383D01*
X481909Y380555D01*
X481937Y380726D01*
X481936Y380776D01*
X481942Y380826D01*
X481931Y381000D01*
X481928Y381173D01*
X481918Y381222D01*
X481915Y381272D01*
X481874Y381441D01*
X481839Y381611D01*
X481821Y381657D01*
X481809Y381706D01*
X481739Y381865D01*
X481675Y382026D01*
X481648Y382069D01*
X481628Y382114D01*
X481530Y382258D01*
X481439Y382405D01*
X481405Y382442D01*
X481377Y382484D01*
X481211Y382667D01*
X478578Y385300D01*
X476347Y390685D01*
X476347Y396515D01*
X478578Y401900D01*
X481211Y404533D01*
X481243Y404571D01*
X481280Y404605D01*
X481386Y404743D01*
X481497Y404876D01*
X481522Y404919D01*
X481552Y404959D01*
X481632Y405113D01*
X481718Y405264D01*
X481734Y405311D01*
X481757Y405356D01*
X481808Y405521D01*
X481866Y405685D01*
X481874Y405735D01*
X481889Y405783D01*
X481909Y405955D01*
X481937Y406126D01*
X481936Y406176D01*
X481942Y406226D01*
X481931Y406400D01*
X481928Y406573D01*
X481918Y406622D01*
X481915Y406672D01*
X481874Y406841D01*
X481839Y407011D01*
X481821Y407057D01*
X481809Y407106D01*
X481739Y407265D01*
X481675Y407426D01*
X481648Y407468D01*
X481628Y407514D01*
X481530Y407658D01*
X481439Y407805D01*
X481405Y407842D01*
X481377Y407884D01*
X481211Y408067D01*
X478578Y410700D01*
X476347Y416085D01*
X476347Y421915D01*
X478578Y427300D01*
X481211Y429933D01*
X481243Y429971D01*
X481280Y430005D01*
X481386Y430143D01*
X481497Y430276D01*
X481522Y430319D01*
X481552Y430359D01*
X481632Y430513D01*
X481718Y430664D01*
X481734Y430711D01*
X481757Y430756D01*
X481808Y430921D01*
X481866Y431085D01*
X481874Y431135D01*
X481889Y431183D01*
X481909Y431354D01*
X481937Y431526D01*
X481936Y431576D01*
X481942Y431626D01*
X481931Y431800D01*
X481928Y431973D01*
X481918Y432022D01*
X481915Y432072D01*
X481874Y432241D01*
X481839Y432411D01*
X481821Y432457D01*
X481809Y432506D01*
X481739Y432665D01*
X481675Y432826D01*
X481648Y432869D01*
X481628Y432914D01*
X481530Y433058D01*
X481439Y433205D01*
X481405Y433242D01*
X481377Y433284D01*
X481211Y433467D01*
X478578Y436100D01*
X476347Y441485D01*
X476347Y447315D01*
X478578Y452700D01*
X481211Y455333D01*
X481243Y455371D01*
X481280Y455405D01*
X481386Y455543D01*
X481497Y455676D01*
X481522Y455719D01*
X481552Y455759D01*
X481632Y455913D01*
X481718Y456064D01*
X481734Y456111D01*
X481757Y456156D01*
X481808Y456321D01*
X481866Y456485D01*
X481874Y456535D01*
X481889Y456583D01*
X481909Y456755D01*
X481937Y456926D01*
X481936Y456976D01*
X481942Y457026D01*
X481931Y457200D01*
X481928Y457373D01*
X481918Y457422D01*
X481915Y457472D01*
X481874Y457641D01*
X481839Y457811D01*
X481821Y457857D01*
X481809Y457906D01*
X481739Y458065D01*
X481675Y458226D01*
X481648Y458269D01*
X481628Y458314D01*
X481530Y458458D01*
X481439Y458605D01*
X481405Y458642D01*
X481377Y458684D01*
X481211Y458867D01*
X478578Y461500D01*
X476347Y466885D01*
X476347Y472715D01*
X478578Y478100D01*
X481211Y480733D01*
X481243Y480771D01*
X481280Y480805D01*
X481386Y480943D01*
X481497Y481076D01*
X481522Y481119D01*
X481552Y481159D01*
X481632Y481313D01*
X481718Y481464D01*
X481734Y481511D01*
X481757Y481556D01*
X481808Y481721D01*
X481866Y481885D01*
X481874Y481935D01*
X481889Y481983D01*
X481909Y482155D01*
X481937Y482326D01*
X481936Y482376D01*
X481942Y482426D01*
X481931Y482600D01*
X481928Y482773D01*
X481918Y482822D01*
X481915Y482872D01*
X481874Y483041D01*
X481839Y483211D01*
X481821Y483257D01*
X481809Y483306D01*
X481739Y483465D01*
X481675Y483626D01*
X481648Y483669D01*
X481628Y483714D01*
X481530Y483858D01*
X481439Y484005D01*
X481405Y484042D01*
X481377Y484084D01*
X481211Y484267D01*
X478578Y486900D01*
X476347Y492285D01*
X476347Y498115D01*
X478578Y503500D01*
X481211Y506133D01*
X481243Y506171D01*
X481280Y506205D01*
X481386Y506343D01*
X481497Y506476D01*
X481522Y506519D01*
X481552Y506559D01*
X481632Y506713D01*
X481718Y506864D01*
X481734Y506911D01*
X481757Y506956D01*
X481808Y507121D01*
X481866Y507285D01*
X481874Y507335D01*
X481889Y507383D01*
X481909Y507555D01*
X481937Y507726D01*
X481936Y507776D01*
X481942Y507826D01*
X481931Y508000D01*
X481928Y508173D01*
X481918Y508222D01*
X481915Y508272D01*
X481874Y508441D01*
X481839Y508611D01*
X481821Y508657D01*
X481809Y508706D01*
X481739Y508865D01*
X481675Y509026D01*
X481648Y509068D01*
X481628Y509114D01*
X481530Y509258D01*
X481439Y509405D01*
X481405Y509442D01*
X481377Y509484D01*
X481211Y509667D01*
X478578Y512300D01*
X476347Y517685D01*
X476347Y523515D01*
X478578Y528900D01*
X481211Y531533D01*
X481243Y531571D01*
X481280Y531605D01*
X481336Y531678D01*
X481374Y531717D01*
X481410Y531771D01*
X481497Y531876D01*
X481522Y531919D01*
X481552Y531959D01*
X481615Y532080D01*
X481621Y532089D01*
X481628Y532106D01*
X481632Y532113D01*
X481718Y532264D01*
X481734Y532311D01*
X481757Y532356D01*
X481808Y532521D01*
X481866Y532685D01*
X481874Y532735D01*
X481889Y532783D01*
X481909Y532955D01*
X481937Y533126D01*
X481936Y533176D01*
X481942Y533226D01*
X481931Y533399D01*
X481928Y533573D01*
X481918Y533622D01*
X481915Y533672D01*
X481874Y533841D01*
X481839Y534011D01*
X481821Y534057D01*
X481809Y534106D01*
X481739Y534265D01*
X481675Y534426D01*
X481648Y534468D01*
X481628Y534514D01*
X481530Y534658D01*
X481439Y534805D01*
X481405Y534842D01*
X481377Y534884D01*
X481211Y535067D01*
X478578Y537700D01*
X476347Y543085D01*
X476347Y548915D01*
X478578Y554300D01*
X481211Y556933D01*
X481243Y556971D01*
X481280Y557005D01*
X481386Y557142D01*
X481497Y557276D01*
X481522Y557319D01*
X481552Y557359D01*
X481632Y557513D01*
X481718Y557664D01*
X481734Y557711D01*
X481757Y557756D01*
X481808Y557921D01*
X481866Y558085D01*
X481874Y558135D01*
X481889Y558183D01*
X481909Y558355D01*
X481937Y558526D01*
X481936Y558576D01*
X481942Y558626D01*
X481931Y558800D01*
X481928Y558973D01*
X481918Y559022D01*
X481915Y559072D01*
X481874Y559241D01*
X481839Y559411D01*
X481821Y559457D01*
X481809Y559506D01*
X481739Y559665D01*
X481675Y559826D01*
X481648Y559868D01*
X481628Y559914D01*
X481530Y560058D01*
X481439Y560205D01*
X481405Y560242D01*
X481377Y560284D01*
X481211Y560467D01*
X478578Y563100D01*
X476347Y568485D01*
X476347Y574315D01*
X478578Y579700D01*
X481211Y582333D01*
X481243Y582371D01*
X481280Y582405D01*
X481386Y582543D01*
X481497Y582676D01*
X481522Y582719D01*
X481552Y582759D01*
X481632Y582913D01*
X481718Y583064D01*
X481734Y583111D01*
X481757Y583156D01*
X481808Y583321D01*
X481866Y583485D01*
X481874Y583535D01*
X481889Y583583D01*
X481909Y583755D01*
X481937Y583926D01*
X481936Y583976D01*
X481942Y584026D01*
X481931Y584200D01*
X481928Y584373D01*
X481918Y584422D01*
X481915Y584472D01*
X481874Y584641D01*
X481839Y584811D01*
X481821Y584857D01*
X481809Y584906D01*
X481739Y585065D01*
X481675Y585226D01*
X481648Y585269D01*
X481628Y585314D01*
X481530Y585458D01*
X481439Y585605D01*
X481405Y585642D01*
X481377Y585684D01*
X481211Y585867D01*
X478578Y588500D01*
X476347Y593885D01*
X476347Y599715D01*
X478578Y605100D01*
X481211Y607733D01*
X481243Y607771D01*
X481280Y607805D01*
X481386Y607943D01*
X481497Y608076D01*
X481522Y608119D01*
X481552Y608159D01*
X481632Y608313D01*
X481718Y608464D01*
X481734Y608511D01*
X481757Y608556D01*
X481808Y608721D01*
X481866Y608885D01*
X481874Y608935D01*
X481889Y608983D01*
X481909Y609155D01*
X481937Y609326D01*
X481936Y609376D01*
X481942Y609426D01*
X481931Y609600D01*
X481928Y609773D01*
X481918Y609822D01*
X481915Y609872D01*
X481874Y610041D01*
X481839Y610211D01*
X481821Y610257D01*
X481809Y610306D01*
X481739Y610465D01*
X481675Y610626D01*
X481648Y610669D01*
X481628Y610714D01*
X481530Y610858D01*
X481439Y611005D01*
X481405Y611042D01*
X481377Y611084D01*
X481211Y611267D01*
X478578Y613900D01*
X476347Y619285D01*
X476347Y625115D01*
X478578Y630500D01*
X481211Y633133D01*
X481243Y633171D01*
X481280Y633205D01*
X481386Y633343D01*
X481497Y633476D01*
X481522Y633519D01*
X481552Y633559D01*
X481632Y633713D01*
X481718Y633864D01*
X481734Y633911D01*
X481757Y633956D01*
X481808Y634121D01*
X481866Y634285D01*
X481874Y634335D01*
X481889Y634383D01*
X481909Y634555D01*
X481937Y634726D01*
X481936Y634776D01*
X481942Y634826D01*
X481931Y635000D01*
X481928Y635173D01*
X481918Y635222D01*
X481915Y635272D01*
X481874Y635441D01*
X481839Y635611D01*
X481821Y635657D01*
X481809Y635706D01*
X481739Y635865D01*
X481675Y636026D01*
X481648Y636069D01*
X481628Y636114D01*
X481530Y636258D01*
X481439Y636405D01*
X481405Y636442D01*
X481377Y636484D01*
X481211Y636667D01*
X478578Y639300D01*
X476347Y644685D01*
X476347Y650515D01*
X478578Y655900D01*
X481211Y658533D01*
X481243Y658571D01*
X481280Y658605D01*
X481386Y658743D01*
X481497Y658876D01*
X481522Y658919D01*
X481552Y658959D01*
X481632Y659113D01*
X481718Y659264D01*
X481734Y659311D01*
X481757Y659356D01*
X481808Y659521D01*
X481866Y659685D01*
X481874Y659735D01*
X481889Y659783D01*
X481909Y659955D01*
X481937Y660126D01*
X481936Y660176D01*
X481942Y660226D01*
X481931Y660400D01*
X481928Y660573D01*
X481918Y660622D01*
X481915Y660672D01*
X481874Y660841D01*
X481839Y661011D01*
X481821Y661057D01*
X481809Y661106D01*
X481739Y661265D01*
X481675Y661426D01*
X481648Y661469D01*
X481628Y661514D01*
X481530Y661658D01*
X481439Y661805D01*
X481405Y661842D01*
X481377Y661884D01*
X481211Y662067D01*
X478578Y664700D01*
X476347Y670085D01*
X476347Y675915D01*
X478578Y681300D01*
X482700Y685422D01*
X488085Y687653D01*
X493915Y687653D01*
X499300Y685422D01*
X500989Y683733D01*
X501133Y683613D01*
X501272Y683489D01*
X501304Y683470D01*
X501332Y683446D01*
X501494Y683354D01*
X501654Y683257D01*
X501688Y683244D01*
X501721Y683226D01*
X501897Y683164D01*
X502071Y683097D01*
X502107Y683090D01*
X502142Y683077D01*
X502326Y683048D01*
X502509Y683013D01*
X502560Y683010D01*
X502583Y683007D01*
X502620Y683008D01*
X502757Y683001D01*
X871022Y683001D01*
X871208Y683017D01*
X871394Y683029D01*
X871430Y683037D01*
X871467Y683041D01*
X871648Y683090D01*
X871828Y683134D01*
X871862Y683149D01*
X871898Y683159D01*
X872066Y683240D01*
X872237Y683316D01*
X872267Y683336D01*
X872301Y683352D01*
X872452Y683462D01*
X872606Y683567D01*
X872644Y683601D01*
X872663Y683614D01*
X872688Y683641D01*
X872790Y683733D01*
X908735Y719678D01*
X912411Y721201D01*
X1105351Y721201D01*
X1105537Y721217D01*
X1105723Y721229D01*
X1105759Y721237D01*
X1105796Y721241D01*
X1105977Y721290D01*
X1106157Y721334D01*
X1106191Y721349D01*
X1106227Y721359D01*
X1106395Y721440D01*
X1106566Y721516D01*
X1106596Y721536D01*
X1106630Y721552D01*
X1106781Y721662D01*
X1106935Y721767D01*
X1106973Y721801D01*
X1106991Y721814D01*
X1107017Y721841D01*
X1107119Y721933D01*
X1109103Y723917D01*
X1114616Y726201D01*
X1120584Y726201D01*
X1126097Y723917D01*
X1130317Y719697D01*
X1132601Y714184D01*
X1132601Y708216D01*
X1130317Y702703D01*
X1127681Y700067D01*
X1127594Y699962D01*
X1127499Y699864D01*
X1127451Y699791D01*
X1127395Y699724D01*
X1127328Y699606D01*
X1127252Y699492D01*
X1127217Y699412D01*
X1127174Y699336D01*
X1127129Y699207D01*
X1127075Y699081D01*
X1127055Y698997D01*
X1127026Y698915D01*
X1127004Y698779D01*
X1126974Y698646D01*
X1126969Y698560D01*
X1126955Y698474D01*
X1126958Y698337D01*
X1126951Y698200D01*
X1126963Y698114D01*
X1126964Y698027D01*
X1126991Y697893D01*
X1127009Y697757D01*
X1127035Y697674D01*
X1127053Y697589D01*
X1127103Y697462D01*
X1127145Y697332D01*
X1127185Y697255D01*
X1127217Y697174D01*
X1127290Y697058D01*
X1127354Y696937D01*
X1127408Y696869D01*
X1127454Y696795D01*
X1127545Y696693D01*
X1127630Y696586D01*
X1127695Y696528D01*
X1127753Y696464D01*
X1127862Y696380D01*
X1127964Y696289D01*
X1128039Y696244D01*
X1128107Y696191D01*
X1128229Y696128D01*
X1128346Y696057D01*
X1128427Y696026D01*
X1128504Y695986D01*
X1128635Y695946D01*
X1128763Y695897D01*
X1128848Y695880D01*
X1128931Y695855D01*
X1129067Y695839D01*
X1129201Y695813D01*
X1129338Y695806D01*
X1129375Y695802D01*
X1129398Y695803D01*
X1129449Y695801D01*
X1130751Y695801D01*
X1130937Y695817D01*
X1131123Y695829D01*
X1131159Y695837D01*
X1131196Y695841D01*
X1131377Y695890D01*
X1131557Y695934D01*
X1131591Y695949D01*
X1131627Y695959D01*
X1131795Y696040D01*
X1131966Y696116D01*
X1131996Y696136D01*
X1132030Y696152D01*
X1132181Y696262D01*
X1132335Y696367D01*
X1132373Y696401D01*
X1132391Y696414D01*
X1132417Y696441D01*
X1132519Y696533D01*
X1134503Y698517D01*
X1140016Y700801D01*
X1145984Y700801D01*
X1151497Y698517D01*
X1155717Y694297D01*
X1158001Y688784D01*
X1158001Y682816D01*
X1155717Y677303D01*
X1153081Y674667D01*
X1152994Y674562D01*
X1152899Y674464D01*
X1152851Y674391D01*
X1152795Y674324D01*
X1152728Y674206D01*
X1152652Y674092D01*
X1152617Y674012D01*
X1152574Y673936D01*
X1152529Y673807D01*
X1152475Y673681D01*
X1152455Y673597D01*
X1152426Y673515D01*
X1152404Y673379D01*
X1152374Y673246D01*
X1152369Y673160D01*
X1152355Y673074D01*
X1152358Y672937D01*
X1152351Y672800D01*
X1152363Y672714D01*
X1152364Y672627D01*
X1152391Y672493D01*
X1152409Y672357D01*
X1152435Y672274D01*
X1152453Y672189D01*
X1152503Y672062D01*
X1152545Y671932D01*
X1152585Y671855D01*
X1152617Y671774D01*
X1152690Y671658D01*
X1152754Y671537D01*
X1152808Y671469D01*
X1152854Y671395D01*
X1152945Y671293D01*
X1153030Y671186D01*
X1153095Y671128D01*
X1153153Y671064D01*
X1153262Y670980D01*
X1153364Y670889D01*
X1153439Y670844D01*
X1153507Y670791D01*
X1153629Y670728D01*
X1153746Y670657D01*
X1153827Y670626D01*
X1153904Y670586D01*
X1154035Y670546D01*
X1154163Y670497D01*
X1154248Y670480D01*
X1154331Y670455D01*
X1154467Y670439D01*
X1154601Y670413D01*
X1154738Y670406D01*
X1154775Y670402D01*
X1154798Y670403D01*
X1154849Y670401D01*
X1271989Y670401D01*
X1275665Y668878D01*
X1354678Y589865D01*
X1356201Y586189D01*
X1356201Y533982D01*
X1356214Y533839D01*
X1356217Y533696D01*
X1356233Y533617D01*
X1356241Y533537D01*
X1356279Y533399D01*
X1356308Y533259D01*
X1356349Y533142D01*
X1356359Y533106D01*
X1356371Y533082D01*
X1356391Y533025D01*
X1357731Y529790D01*
X1357814Y529631D01*
X1357892Y529468D01*
X1357918Y529433D01*
X1357938Y529395D01*
X1358049Y529252D01*
X1358154Y529106D01*
X1358186Y529076D01*
X1358212Y529042D01*
X1358347Y528921D01*
X1358476Y528797D01*
X1358513Y528773D01*
X1358545Y528744D01*
X1358699Y528649D01*
X1358848Y528550D01*
X1358888Y528533D01*
X1358926Y528510D01*
X1359093Y528444D01*
X1359259Y528373D01*
X1359301Y528363D01*
X1359342Y528347D01*
X1359519Y528312D01*
X1359694Y528272D01*
X1359737Y528269D01*
X1359780Y528261D01*
X1359960Y528258D01*
X1360140Y528249D01*
X1360183Y528255D01*
X1360227Y528254D01*
X1360405Y528284D01*
X1360583Y528307D01*
X1360624Y528320D01*
X1360667Y528327D01*
X1360837Y528388D01*
X1361008Y528443D01*
X1361047Y528463D01*
X1361088Y528478D01*
X1361244Y528568D01*
X1361403Y528652D01*
X1361437Y528679D01*
X1361475Y528701D01*
X1361612Y528816D01*
X1361754Y528928D01*
X1361783Y528961D01*
X1361816Y528989D01*
X1361931Y529127D01*
X1362051Y529262D01*
X1362073Y529299D01*
X1362101Y529333D01*
X1362189Y529490D01*
X1362283Y529644D01*
X1362298Y529684D01*
X1362320Y529722D01*
X1362379Y529893D01*
X1362443Y530061D01*
X1362451Y530104D01*
X1362466Y530145D01*
X1362493Y530323D01*
X1362513Y530425D01*
X1362515Y530435D01*
X1362515Y530438D01*
X1362527Y530500D01*
X1362530Y530559D01*
X1362534Y530586D01*
X1362533Y530624D01*
X1362539Y530747D01*
X1362539Y808040D01*
X1362535Y808090D01*
X1362537Y808140D01*
X1362515Y808312D01*
X1362499Y808485D01*
X1362486Y808533D01*
X1362480Y808583D01*
X1362427Y808748D01*
X1362381Y808916D01*
X1362359Y808961D01*
X1362344Y809008D01*
X1362263Y809162D01*
X1362188Y809318D01*
X1362158Y809359D01*
X1362135Y809403D01*
X1362028Y809540D01*
X1361926Y809680D01*
X1361890Y809715D01*
X1361859Y809754D01*
X1361729Y809870D01*
X1361604Y809990D01*
X1361562Y810017D01*
X1361524Y810051D01*
X1361376Y810141D01*
X1361232Y810237D01*
X1361186Y810257D01*
X1361143Y810283D01*
X1360981Y810345D01*
X1360821Y810414D01*
X1360773Y810425D01*
X1360726Y810443D01*
X1360555Y810476D01*
X1360386Y810515D01*
X1360336Y810518D01*
X1360287Y810527D01*
X1360040Y810539D01*
X237900Y810539D01*
X237850Y810535D01*
X237800Y810537D01*
X237628Y810515D01*
X237455Y810499D01*
X237407Y810486D01*
X237357Y810480D01*
X237192Y810427D01*
X237024Y810381D01*
X236979Y810359D01*
X236932Y810344D01*
X236778Y810263D01*
X236622Y810188D01*
X236581Y810158D01*
X236537Y810135D01*
X236400Y810028D01*
X236260Y809926D01*
X236225Y809890D01*
X236186Y809859D01*
X236070Y809729D01*
X235950Y809604D01*
X235923Y809562D01*
X235889Y809524D01*
X235799Y809376D01*
X235703Y809232D01*
X235683Y809186D01*
X235657Y809143D01*
X235595Y808981D01*
X235526Y808821D01*
X235515Y808773D01*
X235497Y808726D01*
X235464Y808555D01*
X235425Y808386D01*
X235422Y808336D01*
X235413Y808287D01*
X235401Y808040D01*
X235401Y689328D01*
X235409Y689235D01*
X235408Y689142D01*
X235429Y689013D01*
X235441Y688883D01*
X235465Y688793D01*
X235481Y688701D01*
X235525Y688579D01*
X235559Y688453D01*
X235600Y688368D01*
X235631Y688280D01*
X235696Y688168D01*
X235752Y688050D01*
X235807Y687974D01*
X235854Y687893D01*
X235938Y687794D01*
X236014Y687688D01*
X236082Y687623D01*
X236142Y687552D01*
X236242Y687469D01*
X236336Y687379D01*
X236414Y687327D01*
X236486Y687267D01*
X236600Y687204D01*
X236708Y687131D01*
X236794Y687094D01*
X236876Y687049D01*
X236999Y687006D01*
X237119Y686954D01*
X237209Y686933D01*
X237298Y686903D01*
X237427Y686883D01*
X237554Y686853D01*
X237647Y686849D01*
X237739Y686834D01*
X237870Y686838D01*
X238000Y686831D01*
X238092Y686843D01*
X238186Y686846D01*
X238314Y686872D01*
X238443Y686889D01*
X238532Y686917D01*
X238623Y686936D01*
X238856Y687019D01*
X240385Y687653D01*
X246215Y687653D01*
X251600Y685422D01*
X255722Y681300D01*
X257953Y675915D01*
X257953Y670085D01*
X255722Y664700D01*
X253089Y662067D01*
X253057Y662029D01*
X253020Y661995D01*
X252914Y661858D01*
X252803Y661724D01*
X252778Y661681D01*
X252748Y661641D01*
X252668Y661487D01*
X252582Y661336D01*
X252566Y661289D01*
X252543Y661244D01*
X252492Y661078D01*
X252434Y660915D01*
X252426Y660865D01*
X252411Y660817D01*
X252391Y660645D01*
X252363Y660474D01*
X252364Y660423D01*
X252358Y660374D01*
X252369Y660200D01*
X252372Y660027D01*
X252382Y659978D01*
X252385Y659928D01*
X252426Y659759D01*
X252461Y659589D01*
X252479Y659542D01*
X252491Y659494D01*
X252561Y659335D01*
X252625Y659174D01*
X252652Y659131D01*
X252672Y659086D01*
X252770Y658942D01*
X252862Y658795D01*
X252895Y658758D01*
X252923Y658716D01*
X253089Y658533D01*
X253290Y658333D01*
X253432Y658213D01*
X253572Y658089D01*
X253604Y658070D01*
X253632Y658046D01*
X253795Y657954D01*
X253954Y657857D01*
X253988Y657844D01*
X254021Y657826D01*
X254197Y657764D01*
X254371Y657697D01*
X254407Y657690D01*
X254442Y657677D01*
X254626Y657648D01*
X254809Y657613D01*
X254860Y657610D01*
X254883Y657607D01*
X254920Y657608D01*
X255057Y657601D01*
X337622Y657601D01*
X337808Y657617D01*
X337994Y657629D01*
X338030Y657637D01*
X338067Y657641D01*
X338248Y657690D01*
X338428Y657734D01*
X338462Y657749D01*
X338498Y657759D01*
X338666Y657840D01*
X338837Y657916D01*
X338867Y657936D01*
X338901Y657952D01*
X339052Y658062D01*
X339206Y658167D01*
X339244Y658201D01*
X339263Y658214D01*
X339288Y658241D01*
X339390Y658333D01*
X377967Y696910D01*
X378087Y697054D01*
X378211Y697193D01*
X378230Y697225D01*
X378254Y697253D01*
X378346Y697415D01*
X378443Y697575D01*
X378456Y697609D01*
X378474Y697642D01*
X378536Y697818D01*
X378603Y697992D01*
X378610Y698028D01*
X378623Y698063D01*
X378652Y698247D01*
X378687Y698430D01*
X378690Y698481D01*
X378693Y698504D01*
X378692Y698541D01*
X378699Y698678D01*
X378699Y701484D01*
X380983Y706997D01*
X385203Y711217D01*
X390716Y713501D01*
X396684Y713501D01*
X402197Y711217D01*
X404833Y708581D01*
X404938Y708494D01*
X405036Y708399D01*
X405109Y708351D01*
X405176Y708295D01*
X405294Y708228D01*
X405408Y708152D01*
X405488Y708117D01*
X405564Y708074D01*
X405693Y708029D01*
X405819Y707975D01*
X405903Y707955D01*
X405985Y707926D01*
X406121Y707904D01*
X406254Y707874D01*
X406340Y707869D01*
X406426Y707855D01*
X406563Y707858D01*
X406700Y707851D01*
X406786Y707863D01*
X406873Y707864D01*
X407007Y707891D01*
X407143Y707909D01*
X407226Y707935D01*
X407311Y707953D01*
X407438Y708003D01*
X407568Y708045D01*
X407645Y708085D01*
X407726Y708117D01*
X407842Y708190D01*
X407963Y708254D01*
X408031Y708308D01*
X408105Y708354D01*
X408207Y708445D01*
X408314Y708530D01*
X408372Y708595D01*
X408436Y708653D01*
X408520Y708762D01*
X408611Y708864D01*
X408656Y708939D01*
X408709Y709007D01*
X408772Y709129D01*
X408843Y709246D01*
X408874Y709327D01*
X408914Y709404D01*
X408954Y709535D01*
X409003Y709663D01*
X409020Y709748D01*
X409045Y709831D01*
X409061Y709967D01*
X409087Y710101D01*
X409094Y710238D01*
X409098Y710275D01*
X409097Y710298D01*
X409099Y710349D01*
X409099Y713189D01*
X410622Y716865D01*
X413786Y720029D01*
X413787Y720030D01*
X464235Y770478D01*
X467911Y772001D01*
X622751Y772001D01*
X622937Y772017D01*
X623123Y772029D01*
X623159Y772037D01*
X623196Y772041D01*
X623376Y772090D01*
X623557Y772134D01*
X623591Y772149D01*
X623627Y772159D01*
X623796Y772240D01*
X623966Y772316D01*
X623996Y772336D01*
X624030Y772352D01*
X624181Y772462D01*
X624335Y772567D01*
X624372Y772600D01*
X624392Y772614D01*
X624417Y772641D01*
X624519Y772733D01*
X626503Y774717D01*
X632016Y777001D01*
X637984Y777001D01*
X643497Y774717D01*
X647717Y770497D01*
X650001Y764984D01*
X650001Y759016D01*
X647717Y753503D01*
X645081Y750867D01*
X644994Y750762D01*
X644899Y750664D01*
X644851Y750591D01*
X644795Y750524D01*
X644728Y750406D01*
X644652Y750292D01*
X644617Y750212D01*
X644574Y750136D01*
X644529Y750007D01*
X644475Y749881D01*
X644455Y749797D01*
X644426Y749715D01*
X644404Y749579D01*
X644374Y749446D01*
X644369Y749360D01*
X644355Y749274D01*
X644358Y749137D01*
X644351Y749000D01*
X644363Y748914D01*
X644364Y748827D01*
X644391Y748693D01*
X644409Y748557D01*
X644435Y748474D01*
X644453Y748389D01*
X644503Y748262D01*
X644545Y748132D01*
X644585Y748055D01*
X644617Y747974D01*
X644690Y747858D01*
X644754Y747737D01*
X644808Y747669D01*
X644854Y747595D01*
X644945Y747493D01*
X645030Y747386D01*
X645095Y747328D01*
X645153Y747264D01*
X645262Y747180D01*
X645364Y747089D01*
X645439Y747044D01*
X645507Y746991D01*
X645629Y746928D01*
X645746Y746857D01*
X645827Y746826D01*
X645904Y746786D01*
X646035Y746746D01*
X646163Y746697D01*
X646248Y746680D01*
X646331Y746655D01*
X646467Y746639D01*
X646601Y746613D01*
X646738Y746606D01*
X646775Y746602D01*
X646798Y746603D01*
X646849Y746601D01*
X686251Y746601D01*
X686437Y746617D01*
X686623Y746629D01*
X686659Y746637D01*
X686696Y746641D01*
X686877Y746690D01*
X687057Y746734D01*
X687091Y746749D01*
X687127Y746759D01*
X687295Y746840D01*
X687466Y746916D01*
X687496Y746936D01*
X687530Y746952D01*
X687681Y747062D01*
X687835Y747167D01*
X687873Y747201D01*
X687891Y747214D01*
X687917Y747241D01*
X688019Y747333D01*
X690003Y749317D01*
X695516Y751601D01*
X701484Y751601D01*
X706997Y749317D01*
X711217Y745097D01*
X713501Y739584D01*
X713501Y733616D01*
X711217Y728103D01*
X706997Y723883D01*
X701484Y721599D01*
X695516Y721599D01*
X690003Y723883D01*
X688019Y725867D01*
X687875Y725987D01*
X687736Y726111D01*
X687704Y726130D01*
X687676Y726154D01*
X687514Y726246D01*
X687354Y726343D01*
X687320Y726356D01*
X687287Y726374D01*
X687111Y726436D01*
X686937Y726503D01*
X686901Y726510D01*
X686866Y726523D01*
X686682Y726552D01*
X686498Y726587D01*
X686448Y726590D01*
X686425Y726593D01*
X686388Y726592D01*
X686251Y726599D01*
X487778Y726599D01*
X487592Y726583D01*
X487406Y726571D01*
X487370Y726563D01*
X487333Y726559D01*
X487152Y726510D01*
X486972Y726466D01*
X486938Y726451D01*
X486902Y726441D01*
X486734Y726360D01*
X486563Y726284D01*
X486533Y726264D01*
X486499Y726248D01*
X486348Y726138D01*
X486194Y726033D01*
X486156Y725999D01*
X486137Y725986D01*
X486112Y725959D01*
X486010Y725867D01*
X455233Y695090D01*
X455113Y694946D01*
X454989Y694807D01*
X454970Y694775D01*
X454946Y694747D01*
X454854Y694585D01*
X454757Y694425D01*
X454744Y694391D01*
X454726Y694358D01*
X454664Y694182D01*
X454597Y694008D01*
X454590Y693972D01*
X454577Y693937D01*
X454548Y693753D01*
X454513Y693570D01*
X454510Y693519D01*
X454507Y693496D01*
X454508Y693459D01*
X454501Y693322D01*
X454501Y633011D01*
X452978Y629335D01*
X386565Y562922D01*
X382889Y561399D01*
X255057Y561399D01*
X254870Y561383D01*
X254684Y561371D01*
X254649Y561363D01*
X254612Y561359D01*
X254431Y561310D01*
X254250Y561266D01*
X254217Y561251D01*
X254181Y561241D01*
X254012Y561160D01*
X253842Y561084D01*
X253812Y561064D01*
X253778Y561048D01*
X253627Y560938D01*
X253473Y560833D01*
X253435Y560799D01*
X253416Y560786D01*
X253391Y560759D01*
X253289Y560667D01*
X253089Y560467D01*
X253057Y560429D01*
X253020Y560395D01*
X252914Y560258D01*
X252803Y560124D01*
X252778Y560081D01*
X252748Y560041D01*
X252668Y559887D01*
X252582Y559736D01*
X252566Y559689D01*
X252543Y559644D01*
X252492Y559479D01*
X252434Y559314D01*
X252426Y559265D01*
X252411Y559217D01*
X252391Y559045D01*
X252363Y558873D01*
X252364Y558823D01*
X252358Y558774D01*
X252369Y558601D01*
X252372Y558427D01*
X252382Y558378D01*
X252385Y558328D01*
X252426Y558159D01*
X252461Y557989D01*
X252479Y557943D01*
X252491Y557894D01*
X252561Y557735D01*
X252625Y557574D01*
X252652Y557531D01*
X252672Y557486D01*
X252770Y557342D01*
X252862Y557195D01*
X252895Y557157D01*
X252923Y557116D01*
X253089Y556933D01*
X255722Y554300D01*
X257953Y548915D01*
X257953Y542990D01*
X257969Y542804D01*
X257981Y542618D01*
X257989Y542582D01*
X257993Y542545D01*
X258042Y542365D01*
X258086Y542184D01*
X258101Y542150D01*
X258111Y542115D01*
X258192Y541946D01*
X258268Y541776D01*
X258288Y541745D01*
X258304Y541712D01*
X258414Y541561D01*
X258519Y541406D01*
X258553Y541369D01*
X258566Y541350D01*
X258593Y541324D01*
X258685Y541223D01*
X400059Y399849D01*
X401201Y397092D01*
X401201Y189183D01*
X401217Y188997D01*
X401229Y188811D01*
X401237Y188775D01*
X401241Y188738D01*
X401290Y188558D01*
X401334Y188377D01*
X401349Y188343D01*
X401359Y188307D01*
X401440Y188138D01*
X401516Y187969D01*
X401536Y187938D01*
X401552Y187905D01*
X401662Y187753D01*
X401767Y187599D01*
X401801Y187562D01*
X401814Y187543D01*
X401841Y187517D01*
X401933Y187416D01*
X404633Y184716D01*
X404671Y184683D01*
X404705Y184646D01*
X404842Y184540D01*
X404976Y184429D01*
X405019Y184405D01*
X405059Y184374D01*
X405213Y184294D01*
X405364Y184208D01*
X405411Y184192D01*
X405456Y184169D01*
X405621Y184118D01*
X405785Y184060D01*
X405835Y184052D01*
X405883Y184038D01*
X406055Y184017D01*
X406226Y183990D01*
X406276Y183991D01*
X406326Y183985D01*
X406500Y183995D01*
G37*
G36*
X1360090Y133405D02*
X1360090Y133405D01*
X1360140Y133403D01*
X1360312Y133425D01*
X1360485Y133441D01*
X1360533Y133454D01*
X1360583Y133460D01*
X1360748Y133513D01*
X1360916Y133559D01*
X1360961Y133581D01*
X1361008Y133596D01*
X1361162Y133677D01*
X1361318Y133752D01*
X1361359Y133782D01*
X1361403Y133805D01*
X1361540Y133912D01*
X1361680Y134014D01*
X1361715Y134050D01*
X1361754Y134081D01*
X1361870Y134211D01*
X1361990Y134336D01*
X1362017Y134378D01*
X1362051Y134416D01*
X1362141Y134564D01*
X1362237Y134708D01*
X1362257Y134754D01*
X1362283Y134797D01*
X1362345Y134959D01*
X1362414Y135119D01*
X1362425Y135167D01*
X1362443Y135214D01*
X1362476Y135385D01*
X1362515Y135554D01*
X1362518Y135604D01*
X1362527Y135653D01*
X1362539Y135900D01*
X1362539Y349816D01*
X1362523Y349995D01*
X1362513Y350175D01*
X1362503Y350218D01*
X1362499Y350261D01*
X1362452Y350435D01*
X1362410Y350610D01*
X1362392Y350650D01*
X1362381Y350692D01*
X1362303Y350854D01*
X1362231Y351019D01*
X1362206Y351055D01*
X1362188Y351094D01*
X1362082Y351240D01*
X1361982Y351390D01*
X1361951Y351421D01*
X1361926Y351456D01*
X1361796Y351581D01*
X1361670Y351710D01*
X1361635Y351735D01*
X1361604Y351766D01*
X1361454Y351865D01*
X1361307Y351970D01*
X1361268Y351989D01*
X1361232Y352013D01*
X1361066Y352084D01*
X1360903Y352161D01*
X1360861Y352173D01*
X1360821Y352190D01*
X1360647Y352231D01*
X1360472Y352278D01*
X1360429Y352281D01*
X1360386Y352291D01*
X1360207Y352300D01*
X1360027Y352315D01*
X1359984Y352311D01*
X1359940Y352313D01*
X1359762Y352290D01*
X1359582Y352273D01*
X1359540Y352261D01*
X1359497Y352256D01*
X1359326Y352201D01*
X1359152Y352152D01*
X1359113Y352133D01*
X1359072Y352120D01*
X1358913Y352036D01*
X1358751Y351957D01*
X1358715Y351931D01*
X1358677Y351911D01*
X1358535Y351799D01*
X1358390Y351693D01*
X1358360Y351662D01*
X1358326Y351635D01*
X1358206Y351500D01*
X1358082Y351369D01*
X1358058Y351333D01*
X1358029Y351300D01*
X1357936Y351146D01*
X1357837Y350996D01*
X1357811Y350942D01*
X1357797Y350919D01*
X1357784Y350884D01*
X1357731Y350772D01*
X1356798Y348519D01*
X1213581Y205302D01*
X1208987Y203399D01*
X1101716Y203399D01*
X1101574Y203386D01*
X1101431Y203383D01*
X1101352Y203367D01*
X1101272Y203359D01*
X1101133Y203321D01*
X1100993Y203292D01*
X1100877Y203251D01*
X1100841Y203241D01*
X1100817Y203229D01*
X1100797Y203222D01*
X1100794Y203221D01*
X1100791Y203220D01*
X1100760Y203209D01*
X1095184Y200899D01*
X1089216Y200899D01*
X1083703Y203183D01*
X1079483Y207403D01*
X1077199Y212916D01*
X1077199Y218884D01*
X1079483Y224397D01*
X1083703Y228617D01*
X1089216Y230901D01*
X1095184Y230901D01*
X1100760Y228591D01*
X1100897Y228548D01*
X1101031Y228497D01*
X1101110Y228482D01*
X1101186Y228458D01*
X1101328Y228440D01*
X1101469Y228413D01*
X1101592Y228407D01*
X1101630Y228402D01*
X1101657Y228404D01*
X1101716Y228401D01*
X1200287Y228401D01*
X1200473Y228417D01*
X1200659Y228429D01*
X1200695Y228437D01*
X1200732Y228441D01*
X1200912Y228490D01*
X1201093Y228534D01*
X1201127Y228549D01*
X1201162Y228559D01*
X1201331Y228640D01*
X1201501Y228716D01*
X1201532Y228736D01*
X1201565Y228752D01*
X1201716Y228862D01*
X1201871Y228967D01*
X1201908Y229001D01*
X1201927Y229014D01*
X1201952Y229041D01*
X1202054Y229133D01*
X1332967Y360046D01*
X1333087Y360189D01*
X1333211Y360329D01*
X1333230Y360360D01*
X1333254Y360389D01*
X1333346Y360551D01*
X1333443Y360710D01*
X1333456Y360745D01*
X1333474Y360777D01*
X1333536Y360953D01*
X1333603Y361127D01*
X1333610Y361164D01*
X1333623Y361199D01*
X1333652Y361383D01*
X1333687Y361566D01*
X1333690Y361616D01*
X1333693Y361640D01*
X1333692Y361677D01*
X1333699Y361813D01*
X1333699Y399122D01*
X1333687Y399259D01*
X1333684Y399395D01*
X1333667Y399481D01*
X1333659Y399567D01*
X1333623Y399699D01*
X1333596Y399833D01*
X1333564Y399914D01*
X1333541Y399998D01*
X1333482Y400121D01*
X1333431Y400248D01*
X1333385Y400322D01*
X1333348Y400401D01*
X1333267Y400512D01*
X1333195Y400628D01*
X1333137Y400692D01*
X1333086Y400763D01*
X1332987Y400858D01*
X1332895Y400959D01*
X1332826Y401012D01*
X1332764Y401072D01*
X1332650Y401148D01*
X1332541Y401231D01*
X1332464Y401271D01*
X1332392Y401319D01*
X1332266Y401374D01*
X1332144Y401436D01*
X1332061Y401462D01*
X1331981Y401496D01*
X1331848Y401527D01*
X1331717Y401567D01*
X1331631Y401578D01*
X1331546Y401598D01*
X1331410Y401604D01*
X1331274Y401621D01*
X1331187Y401615D01*
X1331100Y401620D01*
X1330965Y401602D01*
X1330828Y401594D01*
X1330743Y401573D01*
X1330657Y401562D01*
X1330527Y401520D01*
X1330394Y401488D01*
X1330315Y401453D01*
X1330232Y401426D01*
X1330111Y401362D01*
X1329986Y401307D01*
X1329914Y401258D01*
X1329837Y401217D01*
X1329729Y401132D01*
X1329616Y401056D01*
X1329515Y400964D01*
X1329486Y400941D01*
X1329470Y400923D01*
X1329433Y400890D01*
X1326114Y397571D01*
X1326113Y397570D01*
X1288365Y359822D01*
X1284689Y358299D01*
X1128311Y358299D01*
X1124635Y359822D01*
X1076090Y408367D01*
X1075946Y408487D01*
X1075807Y408611D01*
X1075775Y408630D01*
X1075747Y408654D01*
X1075585Y408746D01*
X1075425Y408843D01*
X1075391Y408856D01*
X1075358Y408874D01*
X1075182Y408936D01*
X1075008Y409003D01*
X1074972Y409010D01*
X1074937Y409023D01*
X1074753Y409052D01*
X1074570Y409087D01*
X1074519Y409090D01*
X1074496Y409093D01*
X1074459Y409092D01*
X1074322Y409099D01*
X1040549Y409099D01*
X1040412Y409087D01*
X1040276Y409084D01*
X1040191Y409067D01*
X1040104Y409059D01*
X1039972Y409023D01*
X1039838Y408996D01*
X1039757Y408964D01*
X1039673Y408941D01*
X1039550Y408882D01*
X1039423Y408831D01*
X1039349Y408785D01*
X1039270Y408748D01*
X1039159Y408667D01*
X1039043Y408595D01*
X1038979Y408537D01*
X1038908Y408486D01*
X1038814Y408387D01*
X1038712Y408295D01*
X1038659Y408226D01*
X1038599Y408164D01*
X1038523Y408050D01*
X1038440Y407941D01*
X1038400Y407864D01*
X1038352Y407792D01*
X1038298Y407666D01*
X1038235Y407544D01*
X1038209Y407461D01*
X1038175Y407381D01*
X1038144Y407248D01*
X1038104Y407117D01*
X1038093Y407031D01*
X1038074Y406946D01*
X1038067Y406810D01*
X1038051Y406674D01*
X1038056Y406587D01*
X1038051Y406500D01*
X1038069Y406365D01*
X1038077Y406228D01*
X1038098Y406143D01*
X1038109Y406057D01*
X1038151Y405927D01*
X1038183Y405794D01*
X1038218Y405715D01*
X1038245Y405632D01*
X1038309Y405511D01*
X1038364Y405386D01*
X1038413Y405314D01*
X1038454Y405237D01*
X1038539Y405129D01*
X1038615Y405016D01*
X1038707Y404915D01*
X1038730Y404886D01*
X1038748Y404870D01*
X1038781Y404833D01*
X1041417Y402197D01*
X1043701Y396684D01*
X1043701Y390716D01*
X1041417Y385203D01*
X1037197Y380983D01*
X1031684Y378699D01*
X1025716Y378699D01*
X1020203Y380983D01*
X1018219Y382967D01*
X1018075Y383087D01*
X1017936Y383211D01*
X1017904Y383230D01*
X1017876Y383254D01*
X1017714Y383346D01*
X1017554Y383443D01*
X1017520Y383456D01*
X1017487Y383474D01*
X1017311Y383536D01*
X1017137Y383603D01*
X1017101Y383610D01*
X1017066Y383623D01*
X1016882Y383652D01*
X1016698Y383687D01*
X1016648Y383690D01*
X1016625Y383693D01*
X1016588Y383692D01*
X1016451Y383699D01*
X856078Y383699D01*
X855892Y383683D01*
X855706Y383671D01*
X855670Y383663D01*
X855633Y383659D01*
X855452Y383610D01*
X855272Y383566D01*
X855238Y383551D01*
X855202Y383541D01*
X855034Y383460D01*
X854863Y383384D01*
X854833Y383364D01*
X854799Y383348D01*
X854648Y383238D01*
X854494Y383133D01*
X854456Y383099D01*
X854437Y383086D01*
X854412Y383059D01*
X854310Y382967D01*
X767665Y296322D01*
X763989Y294799D01*
X577276Y294799D01*
X577090Y294783D01*
X576904Y294771D01*
X576868Y294763D01*
X576831Y294759D01*
X576651Y294710D01*
X576470Y294666D01*
X576436Y294651D01*
X576401Y294641D01*
X576232Y294560D01*
X576062Y294484D01*
X576031Y294464D01*
X575998Y294448D01*
X575847Y294338D01*
X575692Y294233D01*
X575655Y294199D01*
X575636Y294186D01*
X575610Y294159D01*
X575509Y294067D01*
X532031Y250590D01*
X531912Y250446D01*
X531788Y250307D01*
X531769Y250275D01*
X531745Y250247D01*
X531653Y250085D01*
X531556Y249925D01*
X531542Y249891D01*
X531524Y249858D01*
X531462Y249682D01*
X531395Y249508D01*
X531388Y249472D01*
X531376Y249437D01*
X531346Y249253D01*
X531311Y249070D01*
X531309Y249019D01*
X531305Y248996D01*
X531306Y248959D01*
X531299Y248822D01*
X531299Y188535D01*
X531300Y188528D01*
X531299Y188522D01*
X531320Y188307D01*
X531339Y188090D01*
X531341Y188083D01*
X531342Y188077D01*
X531400Y187867D01*
X531458Y187659D01*
X531460Y187653D01*
X531462Y187647D01*
X531556Y187453D01*
X531651Y187256D01*
X531655Y187251D01*
X531658Y187245D01*
X531786Y187069D01*
X531913Y186894D01*
X531917Y186890D01*
X531921Y186885D01*
X532081Y186733D01*
X532235Y186585D01*
X532240Y186581D01*
X532245Y186577D01*
X532427Y186457D01*
X532607Y186338D01*
X532613Y186335D01*
X532618Y186331D01*
X532701Y186293D01*
X533428Y185565D01*
X533572Y185445D01*
X533711Y185321D01*
X533743Y185302D01*
X533771Y185278D01*
X533933Y185186D01*
X534093Y185089D01*
X534127Y185076D01*
X534160Y185058D01*
X534336Y184996D01*
X534510Y184929D01*
X534546Y184922D01*
X534581Y184909D01*
X534765Y184880D01*
X534948Y184845D01*
X534999Y184842D01*
X535022Y184839D01*
X535059Y184840D01*
X535196Y184833D01*
X545317Y184833D01*
X547155Y184071D01*
X548561Y182665D01*
X548679Y182380D01*
X548748Y182248D01*
X548809Y182113D01*
X548851Y182051D01*
X548887Y181984D01*
X548978Y181867D01*
X549061Y181745D01*
X549114Y181691D01*
X549161Y181631D01*
X549271Y181532D01*
X549375Y181427D01*
X549437Y181384D01*
X549493Y181333D01*
X549620Y181256D01*
X549741Y181171D01*
X549810Y181139D01*
X549874Y181099D01*
X550012Y181045D01*
X550146Y180983D01*
X550220Y180964D01*
X550290Y180936D01*
X550435Y180908D01*
X550579Y180871D01*
X550654Y180865D01*
X550728Y180850D01*
X550876Y180848D01*
X551024Y180837D01*
X551099Y180845D01*
X551175Y180844D01*
X551321Y180868D01*
X551468Y180883D01*
X551541Y180904D01*
X551616Y180917D01*
X551755Y180967D01*
X551897Y181008D01*
X552001Y181055D01*
X552036Y181067D01*
X552061Y181082D01*
X552123Y181109D01*
X552850Y181479D01*
X554675Y182073D01*
X554781Y182089D01*
X554781Y170430D01*
X554785Y170380D01*
X554783Y170330D01*
X554799Y170207D01*
X554793Y170177D01*
X554781Y169930D01*
X554781Y158271D01*
X554675Y158287D01*
X552850Y158881D01*
X552123Y159251D01*
X551985Y159306D01*
X551852Y159369D01*
X551779Y159389D01*
X551709Y159417D01*
X551564Y159447D01*
X551421Y159486D01*
X551345Y159492D01*
X551271Y159507D01*
X551123Y159511D01*
X550975Y159523D01*
X550900Y159516D01*
X550824Y159518D01*
X550678Y159495D01*
X550531Y159481D01*
X550458Y159460D01*
X550383Y159449D01*
X550243Y159400D01*
X550101Y159360D01*
X550033Y159327D01*
X549961Y159302D01*
X549832Y159230D01*
X549699Y159165D01*
X549638Y159120D01*
X549572Y159083D01*
X549458Y158988D01*
X549338Y158901D01*
X549286Y158846D01*
X549228Y158798D01*
X549133Y158685D01*
X549031Y158577D01*
X548989Y158514D01*
X548940Y158456D01*
X548867Y158328D01*
X548785Y158204D01*
X548736Y158101D01*
X548718Y158069D01*
X548708Y158041D01*
X548679Y157980D01*
X548561Y157695D01*
X547155Y156289D01*
X545317Y155527D01*
X524023Y155527D01*
X522185Y156289D01*
X520779Y157695D01*
X520017Y159533D01*
X520017Y165300D01*
X520013Y165350D01*
X520015Y165400D01*
X519993Y165572D01*
X519977Y165745D01*
X519964Y165793D01*
X519958Y165843D01*
X519905Y166008D01*
X519859Y166176D01*
X519837Y166221D01*
X519822Y166268D01*
X519741Y166422D01*
X519666Y166578D01*
X519636Y166619D01*
X519613Y166663D01*
X519506Y166800D01*
X519404Y166940D01*
X519368Y166975D01*
X519337Y167014D01*
X519207Y167130D01*
X519082Y167250D01*
X519040Y167277D01*
X519002Y167311D01*
X518854Y167401D01*
X518710Y167497D01*
X518664Y167517D01*
X518621Y167543D01*
X518459Y167605D01*
X518299Y167674D01*
X518251Y167685D01*
X518204Y167703D01*
X518033Y167736D01*
X517864Y167775D01*
X517814Y167778D01*
X517765Y167787D01*
X517518Y167799D01*
X504722Y167799D01*
X504536Y167783D01*
X504350Y167771D01*
X504314Y167763D01*
X504277Y167759D01*
X504096Y167710D01*
X503916Y167666D01*
X503882Y167651D01*
X503846Y167641D01*
X503678Y167560D01*
X503507Y167484D01*
X503477Y167464D01*
X503443Y167448D01*
X503292Y167338D01*
X503138Y167233D01*
X503100Y167199D01*
X503081Y167186D01*
X503056Y167159D01*
X502954Y167067D01*
X501015Y165128D01*
X500983Y165089D01*
X500946Y165056D01*
X500888Y164980D01*
X500864Y164955D01*
X500836Y164913D01*
X500729Y164785D01*
X500704Y164742D01*
X500673Y164702D01*
X500593Y164547D01*
X500508Y164397D01*
X500491Y164349D01*
X500468Y164305D01*
X500417Y164139D01*
X500360Y163975D01*
X500352Y163926D01*
X500337Y163878D01*
X500317Y163706D01*
X500289Y163534D01*
X500290Y163484D01*
X500284Y163434D01*
X500294Y163261D01*
X500298Y163087D01*
X500308Y163039D01*
X500311Y162988D01*
X500352Y162820D01*
X500386Y162650D01*
X500405Y162603D01*
X500416Y162554D01*
X500487Y162396D01*
X500551Y162234D01*
X500578Y162192D01*
X500598Y162146D01*
X500695Y162003D01*
X500787Y161855D01*
X500821Y161818D01*
X500849Y161777D01*
X501015Y161593D01*
X505842Y156767D01*
X505842Y154899D01*
X495300Y154899D01*
X484758Y154899D01*
X484758Y156767D01*
X489585Y161593D01*
X489617Y161632D01*
X489654Y161665D01*
X489760Y161803D01*
X489871Y161936D01*
X489896Y161979D01*
X489927Y162019D01*
X490006Y162174D01*
X490092Y162324D01*
X490109Y162372D01*
X490132Y162416D01*
X490183Y162582D01*
X490240Y162746D01*
X490248Y162795D01*
X490263Y162843D01*
X490284Y163015D01*
X490311Y163187D01*
X490310Y163237D01*
X490316Y163287D01*
X490306Y163460D01*
X490302Y163634D01*
X490292Y163683D01*
X490289Y163733D01*
X490248Y163901D01*
X490214Y164071D01*
X490195Y164118D01*
X490184Y164167D01*
X490113Y164325D01*
X490049Y164487D01*
X490023Y164529D01*
X490002Y164575D01*
X489905Y164719D01*
X489813Y164866D01*
X489779Y164903D01*
X489751Y164944D01*
X489609Y165102D01*
X489605Y165106D01*
X489603Y165108D01*
X489585Y165128D01*
X487646Y167067D01*
X487502Y167187D01*
X487363Y167311D01*
X487331Y167330D01*
X487303Y167354D01*
X487141Y167446D01*
X486981Y167543D01*
X486947Y167556D01*
X486914Y167574D01*
X486738Y167636D01*
X486564Y167703D01*
X486528Y167710D01*
X486493Y167723D01*
X486309Y167752D01*
X486126Y167787D01*
X486075Y167790D01*
X486052Y167793D01*
X486015Y167792D01*
X485878Y167799D01*
X427983Y167799D01*
X427797Y167783D01*
X427611Y167771D01*
X427575Y167763D01*
X427538Y167759D01*
X427358Y167710D01*
X427177Y167666D01*
X427143Y167651D01*
X427107Y167641D01*
X426939Y167560D01*
X426769Y167484D01*
X426738Y167464D01*
X426705Y167448D01*
X426553Y167338D01*
X426399Y167233D01*
X426362Y167199D01*
X426343Y167186D01*
X426317Y167159D01*
X426216Y167067D01*
X424276Y165128D01*
X424244Y165089D01*
X424207Y165056D01*
X424149Y164980D01*
X424125Y164955D01*
X424097Y164913D01*
X423990Y164785D01*
X423965Y164742D01*
X423934Y164702D01*
X423855Y164547D01*
X423769Y164397D01*
X423752Y164349D01*
X423729Y164305D01*
X423679Y164139D01*
X423621Y163975D01*
X423613Y163926D01*
X423598Y163878D01*
X423578Y163706D01*
X423550Y163534D01*
X423551Y163484D01*
X423545Y163434D01*
X423556Y163261D01*
X423559Y163087D01*
X423569Y163039D01*
X423572Y162988D01*
X423613Y162820D01*
X423647Y162650D01*
X423666Y162603D01*
X423678Y162554D01*
X423748Y162396D01*
X423812Y162234D01*
X423839Y162192D01*
X423859Y162146D01*
X423956Y162003D01*
X424048Y161855D01*
X424082Y161818D01*
X424110Y161777D01*
X424276Y161593D01*
X429261Y156609D01*
X429261Y154939D01*
X419140Y154939D01*
X419090Y154935D01*
X419040Y154937D01*
X418869Y154915D01*
X418695Y154899D01*
X418647Y154886D01*
X418597Y154880D01*
X418432Y154827D01*
X418265Y154781D01*
X418219Y154759D01*
X418172Y154744D01*
X418019Y154663D01*
X417862Y154588D01*
X417821Y154558D01*
X417777Y154535D01*
X417641Y154428D01*
X417500Y154326D01*
X417465Y154290D01*
X417426Y154259D01*
X417376Y154202D01*
X417346Y154178D01*
X417230Y154048D01*
X417110Y153923D01*
X417083Y153882D01*
X417049Y153844D01*
X416959Y153696D01*
X416863Y153551D01*
X416843Y153505D01*
X416817Y153463D01*
X416755Y153301D01*
X416686Y153141D01*
X416675Y153093D01*
X416657Y153046D01*
X416624Y152875D01*
X416585Y152706D01*
X416582Y152656D01*
X416573Y152607D01*
X416561Y152360D01*
X416561Y142239D01*
X414891Y142239D01*
X409907Y147224D01*
X409868Y147256D01*
X409835Y147293D01*
X409697Y147399D01*
X409564Y147510D01*
X409521Y147535D01*
X409481Y147566D01*
X409326Y147645D01*
X409176Y147731D01*
X409128Y147748D01*
X409084Y147771D01*
X408918Y147821D01*
X408754Y147879D01*
X408705Y147887D01*
X408657Y147902D01*
X408485Y147922D01*
X408313Y147950D01*
X408263Y147949D01*
X408213Y147955D01*
X408040Y147944D01*
X407866Y147941D01*
X407817Y147931D01*
X407767Y147928D01*
X407599Y147887D01*
X407429Y147853D01*
X407382Y147834D01*
X407333Y147822D01*
X407175Y147752D01*
X407013Y147688D01*
X406971Y147661D01*
X406925Y147641D01*
X406782Y147544D01*
X406634Y147452D01*
X406597Y147418D01*
X406556Y147390D01*
X406372Y147224D01*
X398928Y139779D01*
X388472Y139779D01*
X382767Y145484D01*
X382729Y145517D01*
X382695Y145554D01*
X382558Y145660D01*
X382424Y145771D01*
X382381Y145795D01*
X382341Y145826D01*
X382187Y145906D01*
X382036Y145992D01*
X381989Y146008D01*
X381944Y146031D01*
X381779Y146082D01*
X381615Y146140D01*
X381565Y146148D01*
X381517Y146162D01*
X381345Y146183D01*
X381174Y146210D01*
X381123Y146209D01*
X381074Y146215D01*
X380900Y146205D01*
X380727Y146201D01*
X380678Y146192D01*
X380628Y146189D01*
X380459Y146147D01*
X380289Y146113D01*
X380243Y146095D01*
X380194Y146083D01*
X380035Y146012D01*
X379874Y145948D01*
X379831Y145922D01*
X379786Y145902D01*
X379642Y145804D01*
X379495Y145712D01*
X379458Y145679D01*
X379416Y145651D01*
X379233Y145484D01*
X373528Y139779D01*
X363072Y139779D01*
X357367Y145484D01*
X357329Y145516D01*
X357295Y145554D01*
X357157Y145660D01*
X357024Y145771D01*
X356981Y145795D01*
X356941Y145826D01*
X356787Y145906D01*
X356636Y145992D01*
X356589Y146008D01*
X356544Y146031D01*
X356379Y146082D01*
X356215Y146140D01*
X356165Y146148D01*
X356117Y146162D01*
X355945Y146183D01*
X355774Y146210D01*
X355724Y146209D01*
X355674Y146215D01*
X355500Y146205D01*
X355327Y146201D01*
X355278Y146192D01*
X355228Y146189D01*
X355059Y146147D01*
X354889Y146113D01*
X354843Y146095D01*
X354794Y146083D01*
X354635Y146012D01*
X354474Y145948D01*
X354431Y145922D01*
X354386Y145902D01*
X354242Y145804D01*
X354095Y145712D01*
X354058Y145679D01*
X354016Y145651D01*
X353833Y145484D01*
X348128Y139779D01*
X337672Y139779D01*
X331967Y145484D01*
X331929Y145517D01*
X331895Y145554D01*
X331758Y145660D01*
X331624Y145771D01*
X331581Y145795D01*
X331541Y145826D01*
X331387Y145906D01*
X331236Y145992D01*
X331189Y146008D01*
X331144Y146031D01*
X330979Y146082D01*
X330815Y146140D01*
X330765Y146148D01*
X330717Y146162D01*
X330545Y146183D01*
X330374Y146210D01*
X330323Y146209D01*
X330274Y146215D01*
X330100Y146205D01*
X329927Y146201D01*
X329878Y146192D01*
X329828Y146189D01*
X329659Y146147D01*
X329489Y146113D01*
X329443Y146095D01*
X329394Y146083D01*
X329235Y146012D01*
X329074Y145948D01*
X329031Y145922D01*
X328986Y145902D01*
X328842Y145804D01*
X328695Y145712D01*
X328658Y145679D01*
X328616Y145651D01*
X328433Y145484D01*
X322728Y139779D01*
X312272Y139779D01*
X304879Y147172D01*
X304879Y153378D01*
X304863Y153564D01*
X304851Y153750D01*
X304843Y153786D01*
X304839Y153823D01*
X304790Y154003D01*
X304746Y154184D01*
X304731Y154218D01*
X304721Y154254D01*
X304640Y154422D01*
X304564Y154592D01*
X304544Y154623D01*
X304528Y154656D01*
X304469Y154738D01*
X304458Y154758D01*
X304413Y154815D01*
X304313Y154962D01*
X304280Y154999D01*
X304266Y155018D01*
X304239Y155044D01*
X304194Y155093D01*
X304182Y155109D01*
X304172Y155117D01*
X304147Y155145D01*
X298441Y160851D01*
X297299Y163608D01*
X297299Y300658D01*
X297283Y300844D01*
X297271Y301030D01*
X297263Y301066D01*
X297259Y301103D01*
X297210Y301283D01*
X297166Y301464D01*
X297151Y301498D01*
X297141Y301533D01*
X297060Y301702D01*
X296984Y301872D01*
X296964Y301903D01*
X296948Y301936D01*
X296838Y302087D01*
X296733Y302242D01*
X296699Y302279D01*
X296686Y302298D01*
X296659Y302324D01*
X296567Y302425D01*
X259022Y339971D01*
X258874Y340094D01*
X258731Y340220D01*
X258704Y340236D01*
X258679Y340257D01*
X258513Y340351D01*
X258349Y340450D01*
X258319Y340462D01*
X258291Y340478D01*
X258110Y340541D01*
X257931Y340609D01*
X257900Y340615D01*
X257869Y340626D01*
X257680Y340656D01*
X257492Y340691D01*
X257460Y340691D01*
X257428Y340697D01*
X257237Y340693D01*
X257045Y340694D01*
X257014Y340688D01*
X256981Y340688D01*
X256795Y340650D01*
X256605Y340617D01*
X256575Y340606D01*
X256544Y340599D01*
X256366Y340529D01*
X256186Y340463D01*
X256158Y340446D01*
X256128Y340435D01*
X255966Y340333D01*
X255801Y340236D01*
X255776Y340215D01*
X255749Y340198D01*
X255608Y340070D01*
X255462Y339945D01*
X255442Y339920D01*
X255418Y339899D01*
X255301Y339747D01*
X255181Y339598D01*
X255165Y339570D01*
X255146Y339545D01*
X255058Y339374D01*
X254966Y339207D01*
X254950Y339166D01*
X254941Y339148D01*
X254930Y339113D01*
X254878Y338976D01*
X254599Y338120D01*
X253728Y336410D01*
X252600Y334857D01*
X251350Y333607D01*
X251318Y333568D01*
X251281Y333535D01*
X251175Y333397D01*
X251063Y333264D01*
X251039Y333220D01*
X251008Y333181D01*
X250929Y333026D01*
X250843Y332876D01*
X250826Y332828D01*
X250803Y332784D01*
X250752Y332618D01*
X250695Y332454D01*
X250687Y332405D01*
X250672Y332357D01*
X250651Y332185D01*
X250624Y332013D01*
X250625Y331963D01*
X250619Y331913D01*
X250629Y331740D01*
X250633Y331566D01*
X250643Y331518D01*
X250646Y331467D01*
X250687Y331298D01*
X250721Y331129D01*
X250740Y331082D01*
X250751Y331033D01*
X250822Y330875D01*
X250886Y330713D01*
X250912Y330671D01*
X250933Y330625D01*
X251030Y330482D01*
X251122Y330334D01*
X251156Y330297D01*
X251184Y330256D01*
X251350Y330072D01*
X255722Y325700D01*
X257953Y320315D01*
X257953Y314485D01*
X255722Y309100D01*
X254033Y307411D01*
X253913Y307267D01*
X253789Y307128D01*
X253770Y307096D01*
X253746Y307068D01*
X253654Y306906D01*
X253557Y306746D01*
X253544Y306712D01*
X253526Y306679D01*
X253464Y306503D01*
X253397Y306329D01*
X253390Y306293D01*
X253377Y306258D01*
X253348Y306074D01*
X253313Y305891D01*
X253310Y305840D01*
X253307Y305817D01*
X253308Y305780D01*
X253301Y305643D01*
X253301Y271500D01*
X253305Y271450D01*
X253303Y271400D01*
X253325Y271228D01*
X253341Y271055D01*
X253354Y271007D01*
X253360Y270957D01*
X253413Y270792D01*
X253459Y270624D01*
X253481Y270579D01*
X253496Y270532D01*
X253577Y270378D01*
X253652Y270222D01*
X253682Y270181D01*
X253705Y270137D01*
X253812Y270000D01*
X253914Y269860D01*
X253950Y269825D01*
X253981Y269786D01*
X254111Y269670D01*
X254236Y269550D01*
X254278Y269523D01*
X254316Y269489D01*
X254464Y269399D01*
X254608Y269303D01*
X254654Y269283D01*
X254697Y269257D01*
X254859Y269195D01*
X255019Y269126D01*
X255067Y269115D01*
X255114Y269097D01*
X255285Y269064D01*
X255454Y269025D01*
X255504Y269022D01*
X255553Y269013D01*
X255800Y269001D01*
X256984Y269001D01*
X262497Y266717D01*
X266717Y262497D01*
X269001Y256984D01*
X269001Y251016D01*
X266717Y245503D01*
X262497Y241283D01*
X256984Y238999D01*
X251016Y238999D01*
X245503Y241283D01*
X241283Y245503D01*
X240209Y248096D01*
X240126Y248255D01*
X240048Y248418D01*
X240022Y248453D01*
X240002Y248491D01*
X239891Y248633D01*
X239786Y248779D01*
X239754Y248810D01*
X239728Y248844D01*
X239593Y248964D01*
X239464Y249089D01*
X239427Y249113D01*
X239395Y249142D01*
X239241Y249237D01*
X239092Y249336D01*
X239052Y249353D01*
X239014Y249376D01*
X238847Y249442D01*
X238681Y249513D01*
X238639Y249523D01*
X238598Y249539D01*
X238421Y249574D01*
X238246Y249614D01*
X238203Y249617D01*
X238160Y249625D01*
X237980Y249628D01*
X237800Y249637D01*
X237757Y249631D01*
X237713Y249632D01*
X237535Y249602D01*
X237357Y249579D01*
X237316Y249566D01*
X237273Y249559D01*
X237103Y249498D01*
X236932Y249443D01*
X236893Y249423D01*
X236852Y249408D01*
X236696Y249318D01*
X236537Y249234D01*
X236503Y249207D01*
X236465Y249185D01*
X236327Y249069D01*
X236186Y248958D01*
X236157Y248925D01*
X236124Y248897D01*
X236009Y248759D01*
X235889Y248624D01*
X235867Y248586D01*
X235839Y248553D01*
X235751Y248396D01*
X235657Y248242D01*
X235642Y248201D01*
X235620Y248164D01*
X235561Y247993D01*
X235497Y247825D01*
X235489Y247782D01*
X235474Y247741D01*
X235447Y247563D01*
X235413Y247386D01*
X235410Y247326D01*
X235406Y247300D01*
X235407Y247262D01*
X235401Y247139D01*
X235401Y135900D01*
X235405Y135850D01*
X235403Y135800D01*
X235425Y135628D01*
X235441Y135455D01*
X235454Y135407D01*
X235460Y135357D01*
X235513Y135192D01*
X235559Y135024D01*
X235581Y134979D01*
X235596Y134932D01*
X235677Y134778D01*
X235752Y134622D01*
X235782Y134581D01*
X235805Y134537D01*
X235912Y134400D01*
X236014Y134260D01*
X236050Y134225D01*
X236081Y134186D01*
X236211Y134070D01*
X236336Y133950D01*
X236378Y133923D01*
X236416Y133889D01*
X236564Y133799D01*
X236708Y133703D01*
X236754Y133683D01*
X236797Y133657D01*
X236959Y133595D01*
X237119Y133526D01*
X237167Y133515D01*
X237214Y133497D01*
X237385Y133464D01*
X237554Y133425D01*
X237604Y133422D01*
X237653Y133413D01*
X237900Y133401D01*
X1360040Y133401D01*
X1360090Y133405D01*
G37*
G36*
X1257185Y378313D02*
X1257185Y378313D01*
X1257322Y378316D01*
X1257407Y378333D01*
X1257493Y378341D01*
X1257625Y378377D01*
X1257759Y378404D01*
X1257840Y378436D01*
X1257924Y378459D01*
X1258048Y378518D01*
X1258175Y378569D01*
X1258248Y378615D01*
X1258327Y378652D01*
X1258438Y378733D01*
X1258554Y378805D01*
X1258618Y378863D01*
X1258689Y378914D01*
X1258783Y379013D01*
X1258885Y379105D01*
X1258938Y379174D01*
X1258998Y379236D01*
X1259074Y379350D01*
X1259157Y379459D01*
X1259197Y379536D01*
X1259245Y379608D01*
X1259300Y379734D01*
X1259362Y379856D01*
X1259388Y379939D01*
X1259422Y380019D01*
X1259453Y380152D01*
X1259494Y380283D01*
X1259504Y380369D01*
X1259524Y380454D01*
X1259530Y380590D01*
X1259547Y380726D01*
X1259541Y380813D01*
X1259546Y380900D01*
X1259528Y381035D01*
X1259520Y381172D01*
X1259499Y381257D01*
X1259488Y381343D01*
X1259447Y381473D01*
X1259414Y381606D01*
X1259379Y381685D01*
X1259352Y381768D01*
X1259288Y381889D01*
X1259233Y382014D01*
X1259184Y382086D01*
X1259143Y382163D01*
X1259059Y382271D01*
X1258982Y382384D01*
X1258890Y382485D01*
X1258867Y382514D01*
X1258850Y382530D01*
X1258847Y382533D01*
X1258841Y382541D01*
X1258836Y382545D01*
X1258816Y382567D01*
X1257283Y384100D01*
X1254999Y389613D01*
X1254999Y395581D01*
X1257283Y401094D01*
X1261503Y405314D01*
X1267016Y407598D01*
X1269822Y407598D01*
X1270008Y407615D01*
X1270194Y407626D01*
X1270230Y407634D01*
X1270267Y407638D01*
X1270448Y407687D01*
X1270628Y407731D01*
X1270662Y407746D01*
X1270698Y407756D01*
X1270866Y407837D01*
X1271037Y407913D01*
X1271067Y407934D01*
X1271101Y407950D01*
X1271252Y408059D01*
X1271406Y408164D01*
X1271444Y408198D01*
X1271463Y408211D01*
X1271488Y408238D01*
X1271590Y408330D01*
X1284667Y421408D01*
X1284787Y421551D01*
X1284911Y421690D01*
X1284930Y421722D01*
X1284954Y421750D01*
X1285046Y421913D01*
X1285143Y422072D01*
X1285156Y422106D01*
X1285174Y422139D01*
X1285236Y422315D01*
X1285303Y422489D01*
X1285310Y422525D01*
X1285323Y422560D01*
X1285352Y422744D01*
X1285387Y422928D01*
X1285390Y422978D01*
X1285393Y423001D01*
X1285392Y423038D01*
X1285399Y423175D01*
X1285399Y431218D01*
X1285386Y431361D01*
X1285383Y431504D01*
X1285367Y431583D01*
X1285359Y431663D01*
X1285321Y431801D01*
X1285292Y431941D01*
X1285251Y432058D01*
X1285241Y432094D01*
X1285229Y432118D01*
X1285209Y432175D01*
X1283625Y435999D01*
X1283620Y436009D01*
X1283616Y436020D01*
X1283516Y436207D01*
X1283418Y436395D01*
X1283411Y436403D01*
X1283406Y436413D01*
X1283274Y436580D01*
X1283144Y436747D01*
X1283135Y436755D01*
X1283128Y436764D01*
X1282969Y436903D01*
X1282811Y437045D01*
X1282801Y437051D01*
X1282793Y437059D01*
X1282612Y437168D01*
X1282430Y437279D01*
X1282420Y437283D01*
X1282410Y437289D01*
X1282212Y437365D01*
X1282014Y437442D01*
X1282003Y437444D01*
X1281993Y437448D01*
X1281784Y437487D01*
X1281576Y437528D01*
X1281565Y437528D01*
X1281554Y437530D01*
X1281341Y437531D01*
X1281129Y437535D01*
X1281118Y437533D01*
X1281107Y437533D01*
X1280897Y437496D01*
X1280689Y437462D01*
X1280678Y437458D01*
X1280667Y437456D01*
X1280468Y437383D01*
X1280268Y437311D01*
X1280258Y437306D01*
X1280248Y437302D01*
X1280065Y437195D01*
X1279881Y437089D01*
X1279872Y437081D01*
X1279863Y437075D01*
X1279703Y436938D01*
X1279540Y436800D01*
X1279532Y436792D01*
X1279524Y436784D01*
X1279391Y436620D01*
X1279255Y436456D01*
X1279250Y436446D01*
X1279242Y436437D01*
X1279140Y436251D01*
X1279036Y436067D01*
X1279033Y436056D01*
X1279027Y436046D01*
X1278939Y435815D01*
X1278475Y434386D01*
X1277821Y433103D01*
X1276975Y431939D01*
X1275957Y430921D01*
X1274793Y430075D01*
X1273510Y429421D01*
X1272499Y429093D01*
X1272499Y444500D01*
X1272499Y459907D01*
X1273510Y459579D01*
X1274793Y458925D01*
X1275957Y458079D01*
X1276975Y457061D01*
X1277821Y455897D01*
X1278475Y454614D01*
X1278939Y453185D01*
X1278944Y453175D01*
X1278946Y453164D01*
X1279030Y452971D01*
X1279115Y452775D01*
X1279121Y452765D01*
X1279125Y452755D01*
X1279243Y452579D01*
X1279360Y452402D01*
X1279368Y452393D01*
X1279374Y452384D01*
X1279523Y452231D01*
X1279669Y452078D01*
X1279678Y452072D01*
X1279686Y452063D01*
X1279860Y451939D01*
X1280029Y451815D01*
X1280040Y451810D01*
X1280049Y451803D01*
X1280241Y451712D01*
X1280431Y451620D01*
X1280442Y451617D01*
X1280453Y451612D01*
X1280660Y451556D01*
X1280862Y451500D01*
X1280873Y451499D01*
X1280884Y451496D01*
X1281098Y451478D01*
X1281306Y451458D01*
X1281318Y451459D01*
X1281329Y451458D01*
X1281539Y451478D01*
X1281751Y451497D01*
X1281763Y451500D01*
X1281774Y451501D01*
X1281976Y451557D01*
X1282183Y451613D01*
X1282193Y451618D01*
X1282204Y451621D01*
X1282394Y451714D01*
X1282586Y451805D01*
X1282595Y451812D01*
X1282605Y451817D01*
X1282777Y451942D01*
X1282949Y452066D01*
X1282957Y452074D01*
X1282966Y452081D01*
X1283111Y452233D01*
X1283260Y452387D01*
X1283266Y452396D01*
X1283274Y452404D01*
X1283390Y452581D01*
X1283508Y452758D01*
X1283513Y452768D01*
X1283519Y452778D01*
X1283625Y453001D01*
X1285562Y457677D01*
X1288827Y460942D01*
X1293092Y462709D01*
X1297708Y462709D01*
X1301973Y460942D01*
X1305238Y457678D01*
X1305791Y456343D01*
X1305854Y456221D01*
X1305909Y456096D01*
X1305958Y456024D01*
X1305998Y455947D01*
X1306082Y455839D01*
X1306158Y455725D01*
X1306219Y455663D01*
X1306272Y455594D01*
X1306374Y455503D01*
X1306470Y455405D01*
X1306540Y455354D01*
X1306605Y455296D01*
X1306722Y455224D01*
X1306833Y455145D01*
X1306912Y455108D01*
X1306986Y455062D01*
X1307113Y455012D01*
X1307237Y454954D01*
X1307321Y454931D01*
X1307402Y454899D01*
X1307536Y454873D01*
X1307668Y454837D01*
X1307755Y454830D01*
X1307840Y454813D01*
X1307977Y454811D01*
X1308113Y454800D01*
X1308200Y454808D01*
X1308287Y454807D01*
X1308422Y454829D01*
X1308558Y454842D01*
X1308641Y454866D01*
X1308727Y454880D01*
X1308856Y454926D01*
X1308988Y454963D01*
X1309066Y455001D01*
X1309148Y455030D01*
X1309266Y455098D01*
X1309390Y455158D01*
X1309460Y455209D01*
X1309535Y455253D01*
X1309640Y455341D01*
X1309750Y455422D01*
X1309810Y455485D01*
X1309876Y455541D01*
X1309964Y455646D01*
X1310058Y455746D01*
X1310106Y455818D01*
X1310161Y455885D01*
X1310228Y456005D01*
X1310303Y456119D01*
X1310362Y456243D01*
X1310380Y456275D01*
X1310387Y456297D01*
X1310409Y456343D01*
X1310962Y457678D01*
X1314227Y460942D01*
X1318492Y462709D01*
X1323108Y462709D01*
X1327373Y460942D01*
X1330638Y457678D01*
X1331191Y456343D01*
X1331254Y456221D01*
X1331309Y456096D01*
X1331358Y456024D01*
X1331398Y455947D01*
X1331482Y455839D01*
X1331558Y455725D01*
X1331619Y455663D01*
X1331672Y455594D01*
X1331774Y455503D01*
X1331870Y455405D01*
X1331940Y455354D01*
X1332005Y455296D01*
X1332122Y455224D01*
X1332233Y455145D01*
X1332311Y455108D01*
X1332385Y455062D01*
X1332513Y455012D01*
X1332637Y454954D01*
X1332721Y454931D01*
X1332801Y454899D01*
X1332936Y454873D01*
X1333068Y454837D01*
X1333154Y454830D01*
X1333240Y454813D01*
X1333377Y454811D01*
X1333513Y454800D01*
X1333600Y454808D01*
X1333686Y454807D01*
X1333821Y454829D01*
X1333958Y454842D01*
X1334041Y454865D01*
X1334127Y454880D01*
X1334256Y454926D01*
X1334388Y454963D01*
X1334466Y455001D01*
X1334548Y455030D01*
X1334666Y455098D01*
X1334789Y455158D01*
X1334860Y455209D01*
X1334935Y455253D01*
X1335040Y455341D01*
X1335150Y455422D01*
X1335210Y455485D01*
X1335276Y455541D01*
X1335364Y455647D01*
X1335458Y455746D01*
X1335505Y455818D01*
X1335561Y455885D01*
X1335628Y456005D01*
X1335703Y456119D01*
X1335762Y456243D01*
X1335780Y456275D01*
X1335787Y456297D01*
X1335809Y456343D01*
X1336362Y457678D01*
X1339627Y460942D01*
X1343892Y462709D01*
X1348508Y462709D01*
X1352773Y460942D01*
X1356038Y457677D01*
X1357731Y453590D01*
X1357814Y453431D01*
X1357892Y453268D01*
X1357918Y453233D01*
X1357938Y453195D01*
X1358049Y453052D01*
X1358154Y452906D01*
X1358186Y452876D01*
X1358212Y452842D01*
X1358347Y452722D01*
X1358476Y452597D01*
X1358513Y452573D01*
X1358545Y452544D01*
X1358699Y452449D01*
X1358848Y452350D01*
X1358888Y452333D01*
X1358926Y452310D01*
X1359093Y452244D01*
X1359259Y452173D01*
X1359301Y452163D01*
X1359342Y452147D01*
X1359519Y452112D01*
X1359694Y452072D01*
X1359737Y452069D01*
X1359780Y452061D01*
X1359960Y452058D01*
X1360140Y452049D01*
X1360183Y452055D01*
X1360227Y452054D01*
X1360405Y452084D01*
X1360583Y452107D01*
X1360624Y452120D01*
X1360667Y452127D01*
X1360837Y452188D01*
X1361008Y452243D01*
X1361047Y452263D01*
X1361088Y452278D01*
X1361244Y452368D01*
X1361403Y452452D01*
X1361437Y452479D01*
X1361475Y452501D01*
X1361613Y452617D01*
X1361754Y452728D01*
X1361783Y452761D01*
X1361816Y452789D01*
X1361931Y452927D01*
X1362051Y453062D01*
X1362073Y453099D01*
X1362101Y453133D01*
X1362189Y453290D01*
X1362283Y453444D01*
X1362298Y453484D01*
X1362320Y453522D01*
X1362379Y453693D01*
X1362443Y453861D01*
X1362451Y453904D01*
X1362466Y453945D01*
X1362493Y454123D01*
X1362527Y454300D01*
X1362530Y454359D01*
X1362534Y454386D01*
X1362533Y454424D01*
X1362539Y454547D01*
X1362539Y510653D01*
X1362523Y510833D01*
X1362513Y511012D01*
X1362503Y511055D01*
X1362499Y511098D01*
X1362451Y511272D01*
X1362410Y511447D01*
X1362392Y511487D01*
X1362381Y511529D01*
X1362303Y511692D01*
X1362231Y511856D01*
X1362207Y511892D01*
X1362188Y511932D01*
X1362082Y512078D01*
X1361982Y512227D01*
X1361951Y512258D01*
X1361926Y512294D01*
X1361796Y512418D01*
X1361670Y512548D01*
X1361635Y512573D01*
X1361604Y512603D01*
X1361454Y512703D01*
X1361307Y512807D01*
X1361268Y512826D01*
X1361232Y512850D01*
X1361066Y512922D01*
X1360903Y512999D01*
X1360861Y513010D01*
X1360821Y513027D01*
X1360647Y513068D01*
X1360472Y513115D01*
X1360429Y513119D01*
X1360386Y513128D01*
X1360207Y513137D01*
X1360027Y513153D01*
X1359984Y513148D01*
X1359940Y513151D01*
X1359762Y513127D01*
X1359582Y513110D01*
X1359540Y513099D01*
X1359497Y513093D01*
X1359325Y513038D01*
X1359152Y512990D01*
X1359113Y512971D01*
X1359072Y512957D01*
X1358913Y512873D01*
X1358751Y512794D01*
X1358715Y512768D01*
X1358677Y512748D01*
X1358535Y512637D01*
X1358390Y512530D01*
X1358360Y512499D01*
X1358326Y512472D01*
X1358206Y512337D01*
X1358082Y512207D01*
X1358058Y512170D01*
X1358029Y512138D01*
X1357936Y511984D01*
X1357837Y511833D01*
X1357811Y511779D01*
X1357797Y511756D01*
X1357784Y511721D01*
X1357731Y511610D01*
X1356038Y507523D01*
X1352773Y504258D01*
X1348508Y502491D01*
X1343892Y502491D01*
X1339627Y504258D01*
X1336362Y507522D01*
X1335809Y508857D01*
X1335746Y508979D01*
X1335691Y509104D01*
X1335642Y509176D01*
X1335602Y509253D01*
X1335518Y509361D01*
X1335442Y509475D01*
X1335381Y509537D01*
X1335328Y509606D01*
X1335226Y509697D01*
X1335130Y509795D01*
X1335060Y509846D01*
X1334995Y509904D01*
X1334878Y509976D01*
X1334767Y510055D01*
X1334689Y510092D01*
X1334615Y510138D01*
X1334487Y510188D01*
X1334363Y510246D01*
X1334279Y510269D01*
X1334199Y510301D01*
X1334064Y510327D01*
X1333932Y510363D01*
X1333846Y510370D01*
X1333760Y510387D01*
X1333623Y510389D01*
X1333487Y510400D01*
X1333400Y510392D01*
X1333314Y510393D01*
X1333179Y510371D01*
X1333042Y510358D01*
X1332959Y510335D01*
X1332873Y510320D01*
X1332744Y510274D01*
X1332612Y510237D01*
X1332534Y510199D01*
X1332452Y510170D01*
X1332334Y510102D01*
X1332211Y510042D01*
X1332140Y509991D01*
X1332065Y509947D01*
X1331960Y509859D01*
X1331850Y509778D01*
X1331790Y509715D01*
X1331724Y509659D01*
X1331636Y509553D01*
X1331542Y509454D01*
X1331495Y509382D01*
X1331439Y509315D01*
X1331372Y509195D01*
X1331297Y509081D01*
X1331238Y508957D01*
X1331220Y508925D01*
X1331213Y508903D01*
X1331191Y508857D01*
X1330638Y507522D01*
X1327373Y504258D01*
X1323108Y502491D01*
X1318492Y502491D01*
X1314227Y504258D01*
X1310962Y507522D01*
X1310409Y508857D01*
X1310346Y508979D01*
X1310291Y509104D01*
X1310242Y509176D01*
X1310202Y509253D01*
X1310118Y509361D01*
X1310042Y509475D01*
X1309981Y509537D01*
X1309928Y509606D01*
X1309826Y509697D01*
X1309730Y509795D01*
X1309660Y509846D01*
X1309595Y509904D01*
X1309478Y509976D01*
X1309367Y510055D01*
X1309288Y510092D01*
X1309214Y510138D01*
X1309087Y510188D01*
X1308963Y510246D01*
X1308879Y510269D01*
X1308798Y510301D01*
X1308664Y510327D01*
X1308532Y510363D01*
X1308445Y510370D01*
X1308360Y510387D01*
X1308223Y510389D01*
X1308087Y510400D01*
X1308000Y510392D01*
X1307913Y510393D01*
X1307778Y510371D01*
X1307642Y510358D01*
X1307559Y510334D01*
X1307473Y510320D01*
X1307344Y510274D01*
X1307212Y510237D01*
X1307134Y510199D01*
X1307052Y510170D01*
X1306934Y510102D01*
X1306810Y510042D01*
X1306740Y509991D01*
X1306665Y509947D01*
X1306560Y509859D01*
X1306450Y509778D01*
X1306390Y509715D01*
X1306324Y509659D01*
X1306236Y509554D01*
X1306142Y509454D01*
X1306094Y509382D01*
X1306039Y509315D01*
X1305972Y509195D01*
X1305897Y509081D01*
X1305838Y508957D01*
X1305820Y508925D01*
X1305813Y508903D01*
X1305791Y508857D01*
X1305238Y507522D01*
X1301973Y504258D01*
X1297708Y502491D01*
X1293092Y502491D01*
X1288827Y504258D01*
X1285562Y507523D01*
X1283625Y512199D01*
X1283620Y512209D01*
X1283616Y512220D01*
X1283516Y512407D01*
X1283418Y512595D01*
X1283411Y512604D01*
X1283406Y512613D01*
X1283275Y512779D01*
X1283144Y512947D01*
X1283135Y512955D01*
X1283128Y512964D01*
X1282970Y513102D01*
X1282811Y513245D01*
X1282801Y513251D01*
X1282793Y513259D01*
X1282613Y513367D01*
X1282430Y513479D01*
X1282420Y513484D01*
X1282410Y513489D01*
X1282213Y513564D01*
X1282014Y513642D01*
X1282003Y513644D01*
X1281993Y513648D01*
X1281784Y513687D01*
X1281576Y513728D01*
X1281565Y513728D01*
X1281554Y513730D01*
X1281341Y513732D01*
X1281129Y513735D01*
X1281118Y513733D01*
X1281107Y513733D01*
X1280899Y513696D01*
X1280689Y513662D01*
X1280678Y513658D01*
X1280667Y513656D01*
X1280468Y513583D01*
X1280268Y513511D01*
X1280258Y513506D01*
X1280248Y513502D01*
X1280065Y513394D01*
X1279881Y513289D01*
X1279872Y513281D01*
X1279862Y513275D01*
X1279701Y513137D01*
X1279540Y513000D01*
X1279532Y512992D01*
X1279524Y512984D01*
X1279390Y512819D01*
X1279255Y512656D01*
X1279249Y512646D01*
X1279242Y512637D01*
X1279140Y512452D01*
X1279036Y512267D01*
X1279033Y512256D01*
X1279027Y512246D01*
X1278939Y512015D01*
X1278475Y510586D01*
X1277821Y509303D01*
X1276975Y508139D01*
X1275957Y507121D01*
X1274793Y506275D01*
X1273510Y505621D01*
X1272499Y505293D01*
X1272499Y520700D01*
X1272499Y536107D01*
X1273510Y535779D01*
X1274793Y535125D01*
X1275957Y534279D01*
X1276975Y533261D01*
X1277821Y532097D01*
X1278475Y530814D01*
X1278939Y529385D01*
X1278944Y529375D01*
X1278946Y529364D01*
X1279031Y529171D01*
X1279115Y528975D01*
X1279121Y528965D01*
X1279125Y528955D01*
X1279243Y528779D01*
X1279360Y528602D01*
X1279368Y528593D01*
X1279374Y528584D01*
X1279523Y528431D01*
X1279669Y528278D01*
X1279678Y528272D01*
X1279686Y528263D01*
X1279859Y528140D01*
X1280029Y528015D01*
X1280040Y528010D01*
X1280049Y528003D01*
X1280241Y527913D01*
X1280431Y527820D01*
X1280442Y527817D01*
X1280453Y527812D01*
X1280659Y527757D01*
X1280862Y527700D01*
X1280873Y527699D01*
X1280884Y527696D01*
X1281098Y527678D01*
X1281306Y527658D01*
X1281318Y527659D01*
X1281329Y527658D01*
X1281540Y527678D01*
X1281751Y527697D01*
X1281763Y527700D01*
X1281774Y527701D01*
X1281976Y527757D01*
X1282183Y527813D01*
X1282193Y527818D01*
X1282204Y527821D01*
X1282394Y527914D01*
X1282586Y528005D01*
X1282595Y528012D01*
X1282605Y528017D01*
X1282777Y528142D01*
X1282949Y528266D01*
X1282957Y528274D01*
X1282966Y528280D01*
X1283111Y528433D01*
X1283260Y528587D01*
X1283266Y528596D01*
X1283274Y528604D01*
X1283389Y528780D01*
X1283508Y528958D01*
X1283513Y528968D01*
X1283519Y528978D01*
X1283625Y529201D01*
X1285209Y533025D01*
X1285252Y533162D01*
X1285303Y533296D01*
X1285318Y533375D01*
X1285342Y533452D01*
X1285360Y533594D01*
X1285387Y533735D01*
X1285393Y533858D01*
X1285398Y533895D01*
X1285396Y533922D01*
X1285399Y533982D01*
X1285399Y553622D01*
X1285383Y553808D01*
X1285371Y553994D01*
X1285363Y554030D01*
X1285359Y554067D01*
X1285310Y554248D01*
X1285266Y554428D01*
X1285251Y554462D01*
X1285241Y554498D01*
X1285160Y554666D01*
X1285084Y554837D01*
X1285064Y554867D01*
X1285048Y554901D01*
X1284938Y555052D01*
X1284833Y555206D01*
X1284799Y555244D01*
X1284786Y555263D01*
X1284759Y555288D01*
X1284667Y555390D01*
X1284290Y555767D01*
X1284146Y555887D01*
X1284007Y556011D01*
X1283975Y556030D01*
X1283947Y556054D01*
X1283785Y556146D01*
X1283625Y556243D01*
X1283591Y556256D01*
X1283558Y556274D01*
X1283382Y556336D01*
X1283208Y556403D01*
X1283172Y556410D01*
X1283137Y556423D01*
X1282953Y556452D01*
X1282770Y556487D01*
X1282719Y556490D01*
X1282696Y556493D01*
X1282659Y556492D01*
X1282522Y556499D01*
X1279716Y556499D01*
X1274203Y558783D01*
X1269983Y563003D01*
X1267699Y568516D01*
X1267699Y574484D01*
X1269983Y579997D01*
X1274203Y584217D01*
X1279716Y586501D01*
X1285622Y586501D01*
X1285759Y586513D01*
X1285895Y586516D01*
X1285980Y586533D01*
X1286067Y586541D01*
X1286199Y586577D01*
X1286333Y586604D01*
X1286414Y586636D01*
X1286498Y586659D01*
X1286621Y586718D01*
X1286748Y586769D01*
X1286822Y586815D01*
X1286901Y586852D01*
X1287012Y586933D01*
X1287128Y587005D01*
X1287192Y587063D01*
X1287263Y587114D01*
X1287357Y587213D01*
X1287459Y587305D01*
X1287512Y587374D01*
X1287572Y587436D01*
X1287648Y587550D01*
X1287731Y587659D01*
X1287771Y587736D01*
X1287819Y587808D01*
X1287874Y587934D01*
X1287936Y588056D01*
X1287962Y588139D01*
X1287996Y588219D01*
X1288027Y588352D01*
X1288067Y588483D01*
X1288078Y588569D01*
X1288098Y588654D01*
X1288104Y588790D01*
X1288121Y588926D01*
X1288115Y589013D01*
X1288120Y589100D01*
X1288102Y589235D01*
X1288094Y589372D01*
X1288073Y589457D01*
X1288062Y589543D01*
X1288020Y589673D01*
X1287988Y589806D01*
X1287953Y589885D01*
X1287926Y589968D01*
X1287862Y590089D01*
X1287807Y590214D01*
X1287758Y590286D01*
X1287717Y590363D01*
X1287633Y590471D01*
X1287556Y590584D01*
X1287464Y590685D01*
X1287441Y590714D01*
X1287424Y590730D01*
X1287390Y590767D01*
X1253890Y624267D01*
X1253746Y624387D01*
X1253607Y624511D01*
X1253575Y624530D01*
X1253547Y624554D01*
X1253384Y624646D01*
X1253225Y624743D01*
X1253191Y624756D01*
X1253158Y624774D01*
X1252982Y624836D01*
X1252808Y624903D01*
X1252772Y624910D01*
X1252737Y624923D01*
X1252553Y624952D01*
X1252370Y624987D01*
X1252319Y624990D01*
X1252296Y624993D01*
X1252259Y624992D01*
X1252122Y624999D01*
X995778Y624999D01*
X995592Y624983D01*
X995406Y624971D01*
X995370Y624963D01*
X995333Y624959D01*
X995152Y624910D01*
X994972Y624866D01*
X994938Y624851D01*
X994902Y624841D01*
X994734Y624760D01*
X994563Y624684D01*
X994533Y624664D01*
X994499Y624648D01*
X994348Y624538D01*
X994194Y624433D01*
X994156Y624399D01*
X994137Y624386D01*
X994112Y624359D01*
X994010Y624267D01*
X907265Y537522D01*
X903589Y535999D01*
X502757Y535999D01*
X502571Y535983D01*
X502385Y535971D01*
X502349Y535963D01*
X502312Y535959D01*
X502131Y535910D01*
X501951Y535866D01*
X501917Y535851D01*
X501881Y535841D01*
X501713Y535760D01*
X501542Y535684D01*
X501512Y535664D01*
X501478Y535648D01*
X501327Y535538D01*
X501173Y535433D01*
X501135Y535399D01*
X501116Y535386D01*
X501091Y535359D01*
X500989Y535267D01*
X500789Y535067D01*
X500757Y535029D01*
X500720Y534995D01*
X500614Y534858D01*
X500503Y534724D01*
X500478Y534681D01*
X500448Y534641D01*
X500368Y534487D01*
X500282Y534336D01*
X500266Y534289D01*
X500243Y534244D01*
X500192Y534078D01*
X500134Y533915D01*
X500126Y533865D01*
X500111Y533817D01*
X500091Y533645D01*
X500063Y533474D01*
X500064Y533423D01*
X500058Y533374D01*
X500069Y533200D01*
X500072Y533027D01*
X500082Y532978D01*
X500085Y532928D01*
X500126Y532759D01*
X500161Y532589D01*
X500179Y532542D01*
X500191Y532494D01*
X500261Y532335D01*
X500325Y532174D01*
X500352Y532131D01*
X500372Y532086D01*
X500462Y531953D01*
X500481Y531918D01*
X500500Y531894D01*
X500562Y531795D01*
X500595Y531758D01*
X500623Y531716D01*
X500746Y531580D01*
X500757Y531566D01*
X500765Y531559D01*
X500789Y531533D01*
X500990Y531333D01*
X501132Y531213D01*
X501272Y531089D01*
X501304Y531070D01*
X501332Y531046D01*
X501495Y530954D01*
X501654Y530857D01*
X501688Y530844D01*
X501721Y530826D01*
X501897Y530764D01*
X502071Y530697D01*
X502107Y530690D01*
X502142Y530677D01*
X502326Y530648D01*
X502509Y530613D01*
X502560Y530610D01*
X502583Y530607D01*
X502620Y530608D01*
X502757Y530601D01*
X921822Y530601D01*
X922008Y530617D01*
X922194Y530629D01*
X922230Y530637D01*
X922267Y530641D01*
X922448Y530690D01*
X922628Y530734D01*
X922662Y530749D01*
X922698Y530759D01*
X922866Y530840D01*
X923037Y530916D01*
X923067Y530936D01*
X923101Y530952D01*
X923252Y531062D01*
X923406Y531167D01*
X923444Y531201D01*
X923463Y531214D01*
X923488Y531241D01*
X923590Y531333D01*
X1010335Y618078D01*
X1014011Y619601D01*
X1157689Y619601D01*
X1161365Y618078D01*
X1199113Y580330D01*
X1199114Y580330D01*
X1201777Y577666D01*
X1201849Y577606D01*
X1201914Y577539D01*
X1202020Y577463D01*
X1202120Y577380D01*
X1202201Y577334D01*
X1202277Y577279D01*
X1202395Y577223D01*
X1202508Y577159D01*
X1202596Y577128D01*
X1202681Y577088D01*
X1202807Y577054D01*
X1202930Y577011D01*
X1203022Y576996D01*
X1203112Y576972D01*
X1203242Y576961D01*
X1203371Y576940D01*
X1203464Y576942D01*
X1203557Y576934D01*
X1203687Y576946D01*
X1203817Y576949D01*
X1203909Y576968D01*
X1204002Y576976D01*
X1204127Y577012D01*
X1204255Y577037D01*
X1204342Y577072D01*
X1204432Y577097D01*
X1204549Y577154D01*
X1204670Y577202D01*
X1204750Y577252D01*
X1204834Y577292D01*
X1204939Y577369D01*
X1205050Y577438D01*
X1205119Y577501D01*
X1205194Y577556D01*
X1205284Y577651D01*
X1205381Y577738D01*
X1205438Y577812D01*
X1205502Y577880D01*
X1205574Y577989D01*
X1205653Y578092D01*
X1205696Y578175D01*
X1205747Y578253D01*
X1205853Y578477D01*
X1206483Y579997D01*
X1210703Y584217D01*
X1216216Y586501D01*
X1222184Y586501D01*
X1227697Y584217D01*
X1231917Y579997D01*
X1234201Y574484D01*
X1234201Y568516D01*
X1231917Y563003D01*
X1229933Y561019D01*
X1229813Y560875D01*
X1229689Y560736D01*
X1229670Y560704D01*
X1229646Y560676D01*
X1229554Y560513D01*
X1229457Y560354D01*
X1229444Y560320D01*
X1229426Y560287D01*
X1229364Y560111D01*
X1229297Y559937D01*
X1229290Y559901D01*
X1229277Y559866D01*
X1229248Y559681D01*
X1229213Y559498D01*
X1229210Y559448D01*
X1229207Y559425D01*
X1229208Y559388D01*
X1229201Y559251D01*
X1229201Y533982D01*
X1229214Y533839D01*
X1229217Y533696D01*
X1229233Y533617D01*
X1229241Y533537D01*
X1229279Y533399D01*
X1229308Y533259D01*
X1229349Y533142D01*
X1229359Y533106D01*
X1229371Y533082D01*
X1229391Y533025D01*
X1230975Y529201D01*
X1230980Y529191D01*
X1230984Y529180D01*
X1231084Y528993D01*
X1231182Y528805D01*
X1231189Y528796D01*
X1231194Y528787D01*
X1231325Y528621D01*
X1231456Y528453D01*
X1231465Y528445D01*
X1231472Y528436D01*
X1231630Y528298D01*
X1231789Y528155D01*
X1231799Y528149D01*
X1231807Y528141D01*
X1231987Y528033D01*
X1232170Y527921D01*
X1232180Y527916D01*
X1232190Y527911D01*
X1232387Y527836D01*
X1232586Y527758D01*
X1232597Y527756D01*
X1232607Y527752D01*
X1232816Y527713D01*
X1233024Y527672D01*
X1233035Y527672D01*
X1233046Y527670D01*
X1233259Y527668D01*
X1233471Y527665D01*
X1233482Y527667D01*
X1233493Y527667D01*
X1233701Y527704D01*
X1233911Y527738D01*
X1233922Y527742D01*
X1233933Y527744D01*
X1234132Y527817D01*
X1234332Y527889D01*
X1234342Y527894D01*
X1234352Y527898D01*
X1234535Y528006D01*
X1234719Y528111D01*
X1234728Y528119D01*
X1234738Y528125D01*
X1234899Y528263D01*
X1235060Y528400D01*
X1235068Y528408D01*
X1235076Y528416D01*
X1235210Y528581D01*
X1235345Y528744D01*
X1235351Y528754D01*
X1235358Y528763D01*
X1235460Y528948D01*
X1235564Y529133D01*
X1235567Y529144D01*
X1235573Y529154D01*
X1235661Y529385D01*
X1236125Y530814D01*
X1236779Y532097D01*
X1237625Y533261D01*
X1238643Y534279D01*
X1239807Y535125D01*
X1241090Y535779D01*
X1242101Y536107D01*
X1242101Y520700D01*
X1242101Y505293D01*
X1241090Y505621D01*
X1239807Y506275D01*
X1238643Y507121D01*
X1237625Y508139D01*
X1236779Y509303D01*
X1236125Y510586D01*
X1235661Y512015D01*
X1235656Y512025D01*
X1235654Y512036D01*
X1235569Y512229D01*
X1235485Y512425D01*
X1235479Y512435D01*
X1235475Y512445D01*
X1235357Y512621D01*
X1235240Y512798D01*
X1235232Y512807D01*
X1235226Y512816D01*
X1235077Y512969D01*
X1234931Y513122D01*
X1234922Y513128D01*
X1234914Y513137D01*
X1234741Y513260D01*
X1234571Y513385D01*
X1234560Y513390D01*
X1234551Y513397D01*
X1234359Y513487D01*
X1234169Y513580D01*
X1234158Y513583D01*
X1234147Y513588D01*
X1233941Y513643D01*
X1233738Y513700D01*
X1233727Y513701D01*
X1233716Y513704D01*
X1233502Y513722D01*
X1233294Y513742D01*
X1233282Y513741D01*
X1233271Y513742D01*
X1233060Y513722D01*
X1232849Y513703D01*
X1232837Y513700D01*
X1232826Y513699D01*
X1232624Y513643D01*
X1232417Y513587D01*
X1232407Y513582D01*
X1232396Y513579D01*
X1232206Y513486D01*
X1232014Y513395D01*
X1232005Y513388D01*
X1231995Y513383D01*
X1231823Y513258D01*
X1231651Y513134D01*
X1231643Y513126D01*
X1231634Y513120D01*
X1231489Y512967D01*
X1231340Y512813D01*
X1231334Y512804D01*
X1231326Y512796D01*
X1231211Y512620D01*
X1231092Y512442D01*
X1231087Y512432D01*
X1231081Y512422D01*
X1230975Y512199D01*
X1229038Y507523D01*
X1225773Y504258D01*
X1221508Y502491D01*
X1216892Y502491D01*
X1212627Y504258D01*
X1209362Y507522D01*
X1208809Y508857D01*
X1208745Y508979D01*
X1208691Y509104D01*
X1208642Y509176D01*
X1208602Y509253D01*
X1208518Y509361D01*
X1208442Y509475D01*
X1208381Y509537D01*
X1208328Y509606D01*
X1208226Y509697D01*
X1208130Y509795D01*
X1208060Y509846D01*
X1207995Y509904D01*
X1207878Y509976D01*
X1207767Y510055D01*
X1207689Y510092D01*
X1207615Y510138D01*
X1207487Y510188D01*
X1207363Y510246D01*
X1207279Y510269D01*
X1207199Y510301D01*
X1207064Y510327D01*
X1206932Y510363D01*
X1206845Y510370D01*
X1206760Y510387D01*
X1206623Y510389D01*
X1206487Y510400D01*
X1206400Y510392D01*
X1206314Y510393D01*
X1206178Y510371D01*
X1206042Y510358D01*
X1205959Y510335D01*
X1205873Y510320D01*
X1205744Y510274D01*
X1205612Y510237D01*
X1205534Y510199D01*
X1205452Y510170D01*
X1205334Y510102D01*
X1205211Y510042D01*
X1205140Y509991D01*
X1205065Y509947D01*
X1204960Y509859D01*
X1204850Y509778D01*
X1204790Y509715D01*
X1204724Y509659D01*
X1204636Y509553D01*
X1204542Y509454D01*
X1204495Y509382D01*
X1204439Y509315D01*
X1204372Y509195D01*
X1204297Y509081D01*
X1204238Y508958D01*
X1204220Y508925D01*
X1204213Y508903D01*
X1204191Y508857D01*
X1203638Y507523D01*
X1200373Y504258D01*
X1196108Y502491D01*
X1191492Y502491D01*
X1187227Y504258D01*
X1183962Y507522D01*
X1183409Y508857D01*
X1183346Y508979D01*
X1183291Y509104D01*
X1183242Y509176D01*
X1183202Y509253D01*
X1183118Y509361D01*
X1183042Y509475D01*
X1182981Y509537D01*
X1182928Y509606D01*
X1182826Y509697D01*
X1182730Y509795D01*
X1182660Y509846D01*
X1182595Y509904D01*
X1182478Y509976D01*
X1182367Y510055D01*
X1182289Y510092D01*
X1182215Y510138D01*
X1182087Y510188D01*
X1181963Y510246D01*
X1181879Y510269D01*
X1181799Y510301D01*
X1181664Y510327D01*
X1181532Y510363D01*
X1181446Y510370D01*
X1181360Y510387D01*
X1181223Y510389D01*
X1181087Y510400D01*
X1181000Y510392D01*
X1180914Y510393D01*
X1180779Y510371D01*
X1180642Y510358D01*
X1180559Y510335D01*
X1180473Y510320D01*
X1180344Y510274D01*
X1180212Y510237D01*
X1180134Y510199D01*
X1180052Y510170D01*
X1179934Y510102D01*
X1179811Y510042D01*
X1179740Y509991D01*
X1179665Y509947D01*
X1179560Y509859D01*
X1179450Y509778D01*
X1179390Y509715D01*
X1179324Y509659D01*
X1179236Y509553D01*
X1179142Y509454D01*
X1179095Y509382D01*
X1179039Y509315D01*
X1178972Y509195D01*
X1178897Y509081D01*
X1178838Y508957D01*
X1178820Y508925D01*
X1178813Y508903D01*
X1178791Y508857D01*
X1178238Y507522D01*
X1174973Y504258D01*
X1170708Y502491D01*
X1166092Y502491D01*
X1161827Y504258D01*
X1158562Y507523D01*
X1157885Y509156D01*
X1157882Y509162D01*
X1157880Y509168D01*
X1157779Y509360D01*
X1157678Y509552D01*
X1157674Y509557D01*
X1157671Y509563D01*
X1157537Y509733D01*
X1157404Y509905D01*
X1157399Y509909D01*
X1157395Y509914D01*
X1157233Y510058D01*
X1157071Y510203D01*
X1157065Y510206D01*
X1157061Y510211D01*
X1156877Y510323D01*
X1156691Y510437D01*
X1156684Y510439D01*
X1156679Y510443D01*
X1156476Y510521D01*
X1156275Y510600D01*
X1156268Y510601D01*
X1156262Y510603D01*
X1156048Y510644D01*
X1155836Y510686D01*
X1155830Y510686D01*
X1155823Y510687D01*
X1155576Y510699D01*
X1052928Y510699D01*
X1052742Y510683D01*
X1052556Y510671D01*
X1052520Y510663D01*
X1052483Y510659D01*
X1052302Y510610D01*
X1052122Y510566D01*
X1052088Y510551D01*
X1052052Y510541D01*
X1051884Y510460D01*
X1051713Y510384D01*
X1051683Y510364D01*
X1051649Y510348D01*
X1051498Y510238D01*
X1051344Y510133D01*
X1051306Y510099D01*
X1051287Y510086D01*
X1051262Y510059D01*
X1051160Y509967D01*
X1044433Y503240D01*
X1044313Y503096D01*
X1044189Y502957D01*
X1044170Y502925D01*
X1044146Y502897D01*
X1044054Y502735D01*
X1043957Y502575D01*
X1043944Y502541D01*
X1043926Y502508D01*
X1043864Y502332D01*
X1043797Y502158D01*
X1043790Y502122D01*
X1043777Y502087D01*
X1043748Y501903D01*
X1043713Y501720D01*
X1043710Y501669D01*
X1043707Y501646D01*
X1043708Y501609D01*
X1043701Y501472D01*
X1043701Y498666D01*
X1041417Y493153D01*
X1037197Y488933D01*
X1031684Y486649D01*
X1025716Y486649D01*
X1020203Y488933D01*
X1015983Y493153D01*
X1013699Y498666D01*
X1013699Y504634D01*
X1015983Y510147D01*
X1020203Y514367D01*
X1025716Y516651D01*
X1028522Y516651D01*
X1028708Y516667D01*
X1028894Y516679D01*
X1028930Y516687D01*
X1028967Y516691D01*
X1029148Y516740D01*
X1029328Y516784D01*
X1029362Y516799D01*
X1029398Y516809D01*
X1029566Y516890D01*
X1029737Y516966D01*
X1029767Y516986D01*
X1029801Y517002D01*
X1029952Y517112D01*
X1030106Y517217D01*
X1030144Y517251D01*
X1030163Y517264D01*
X1030188Y517291D01*
X1030290Y517383D01*
X1042085Y529178D01*
X1045761Y530701D01*
X1155576Y530701D01*
X1155583Y530701D01*
X1155589Y530701D01*
X1155803Y530721D01*
X1156021Y530741D01*
X1156027Y530742D01*
X1156034Y530743D01*
X1156238Y530800D01*
X1156452Y530859D01*
X1156458Y530862D01*
X1156464Y530864D01*
X1156655Y530957D01*
X1156854Y531052D01*
X1156860Y531056D01*
X1156866Y531059D01*
X1157038Y531185D01*
X1157216Y531314D01*
X1157221Y531319D01*
X1157226Y531323D01*
X1157375Y531479D01*
X1157526Y531636D01*
X1157529Y531642D01*
X1157534Y531647D01*
X1157652Y531827D01*
X1157773Y532008D01*
X1157776Y532014D01*
X1157779Y532020D01*
X1157885Y532244D01*
X1158562Y533877D01*
X1161827Y537142D01*
X1166092Y538909D01*
X1170708Y538909D01*
X1174973Y537142D01*
X1178238Y533878D01*
X1178791Y532543D01*
X1178854Y532421D01*
X1178909Y532296D01*
X1178958Y532224D01*
X1178998Y532147D01*
X1179082Y532039D01*
X1179158Y531925D01*
X1179219Y531863D01*
X1179272Y531794D01*
X1179374Y531703D01*
X1179470Y531605D01*
X1179540Y531554D01*
X1179605Y531496D01*
X1179722Y531424D01*
X1179833Y531345D01*
X1179911Y531308D01*
X1179986Y531262D01*
X1180113Y531212D01*
X1180237Y531154D01*
X1180321Y531131D01*
X1180402Y531099D01*
X1180536Y531073D01*
X1180668Y531037D01*
X1180755Y531030D01*
X1180840Y531013D01*
X1180977Y531011D01*
X1181113Y531000D01*
X1181200Y531008D01*
X1181287Y531007D01*
X1181422Y531029D01*
X1181558Y531042D01*
X1181642Y531066D01*
X1181727Y531080D01*
X1181856Y531126D01*
X1181988Y531163D01*
X1182066Y531201D01*
X1182148Y531230D01*
X1182267Y531298D01*
X1182390Y531358D01*
X1182460Y531409D01*
X1182535Y531453D01*
X1182640Y531541D01*
X1182750Y531622D01*
X1182810Y531685D01*
X1182876Y531741D01*
X1182964Y531847D01*
X1183058Y531946D01*
X1183106Y532018D01*
X1183161Y532085D01*
X1183228Y532205D01*
X1183303Y532319D01*
X1183362Y532443D01*
X1183380Y532475D01*
X1183387Y532497D01*
X1183409Y532543D01*
X1183609Y533025D01*
X1183652Y533162D01*
X1183703Y533296D01*
X1183718Y533375D01*
X1183742Y533452D01*
X1183760Y533594D01*
X1183787Y533735D01*
X1183793Y533858D01*
X1183798Y533895D01*
X1183796Y533922D01*
X1183799Y533982D01*
X1183799Y566322D01*
X1183783Y566508D01*
X1183771Y566694D01*
X1183763Y566730D01*
X1183759Y566767D01*
X1183710Y566948D01*
X1183666Y567128D01*
X1183651Y567162D01*
X1183641Y567198D01*
X1183560Y567366D01*
X1183484Y567537D01*
X1183464Y567567D01*
X1183448Y567601D01*
X1183338Y567752D01*
X1183233Y567906D01*
X1183199Y567944D01*
X1183186Y567963D01*
X1183159Y567988D01*
X1183067Y568090D01*
X1152290Y598867D01*
X1152146Y598987D01*
X1152007Y599111D01*
X1151975Y599130D01*
X1151947Y599154D01*
X1151785Y599246D01*
X1151625Y599343D01*
X1151591Y599356D01*
X1151558Y599374D01*
X1151382Y599436D01*
X1151208Y599503D01*
X1151172Y599510D01*
X1151137Y599523D01*
X1150953Y599552D01*
X1150770Y599587D01*
X1150719Y599590D01*
X1150696Y599593D01*
X1150659Y599592D01*
X1150522Y599599D01*
X1021178Y599599D01*
X1020992Y599583D01*
X1020806Y599571D01*
X1020770Y599563D01*
X1020733Y599559D01*
X1020552Y599510D01*
X1020372Y599466D01*
X1020338Y599451D01*
X1020302Y599441D01*
X1020134Y599360D01*
X1019963Y599284D01*
X1019933Y599264D01*
X1019899Y599248D01*
X1019748Y599138D01*
X1019594Y599033D01*
X1019556Y598999D01*
X1019537Y598986D01*
X1019512Y598959D01*
X1019410Y598867D01*
X932665Y512122D01*
X928989Y510599D01*
X502757Y510599D01*
X502571Y510583D01*
X502385Y510571D01*
X502349Y510563D01*
X502312Y510559D01*
X502131Y510510D01*
X501951Y510466D01*
X501917Y510451D01*
X501881Y510441D01*
X501713Y510360D01*
X501542Y510284D01*
X501512Y510264D01*
X501478Y510248D01*
X501327Y510138D01*
X501173Y510033D01*
X501135Y509999D01*
X501116Y509986D01*
X501091Y509959D01*
X500989Y509867D01*
X500789Y509667D01*
X500757Y509629D01*
X500720Y509595D01*
X500614Y509458D01*
X500503Y509324D01*
X500478Y509281D01*
X500448Y509241D01*
X500368Y509087D01*
X500282Y508936D01*
X500266Y508889D01*
X500243Y508844D01*
X500192Y508678D01*
X500134Y508515D01*
X500126Y508465D01*
X500111Y508417D01*
X500091Y508245D01*
X500063Y508074D01*
X500064Y508023D01*
X500058Y507974D01*
X500069Y507800D01*
X500072Y507627D01*
X500082Y507578D01*
X500085Y507528D01*
X500126Y507359D01*
X500161Y507189D01*
X500179Y507142D01*
X500191Y507094D01*
X500261Y506935D01*
X500325Y506774D01*
X500352Y506731D01*
X500372Y506686D01*
X500470Y506542D01*
X500562Y506395D01*
X500595Y506358D01*
X500623Y506316D01*
X500789Y506133D01*
X500990Y505933D01*
X501132Y505813D01*
X501272Y505689D01*
X501304Y505670D01*
X501332Y505646D01*
X501495Y505554D01*
X501654Y505457D01*
X501688Y505444D01*
X501721Y505426D01*
X501897Y505364D01*
X502071Y505297D01*
X502107Y505290D01*
X502142Y505277D01*
X502326Y505248D01*
X502509Y505213D01*
X502560Y505210D01*
X502583Y505207D01*
X502620Y505208D01*
X502757Y505201D01*
X624389Y505201D01*
X628065Y503678D01*
X651110Y480633D01*
X651254Y480513D01*
X651393Y480389D01*
X651425Y480370D01*
X651453Y480346D01*
X651615Y480254D01*
X651775Y480157D01*
X651809Y480144D01*
X651842Y480126D01*
X652018Y480064D01*
X652192Y479997D01*
X652228Y479990D01*
X652263Y479977D01*
X652447Y479948D01*
X652630Y479913D01*
X652681Y479910D01*
X652704Y479907D01*
X652741Y479908D01*
X652878Y479901D01*
X1106889Y479901D01*
X1110565Y478378D01*
X1133710Y455233D01*
X1133854Y455113D01*
X1133993Y454989D01*
X1134025Y454970D01*
X1134053Y454946D01*
X1134215Y454854D01*
X1134375Y454757D01*
X1134409Y454744D01*
X1134442Y454726D01*
X1134618Y454664D01*
X1134792Y454597D01*
X1134828Y454590D01*
X1134863Y454577D01*
X1135047Y454548D01*
X1135230Y454513D01*
X1135281Y454510D01*
X1135304Y454507D01*
X1135341Y454508D01*
X1135478Y454501D01*
X1155576Y454501D01*
X1155583Y454501D01*
X1155589Y454501D01*
X1155803Y454521D01*
X1156021Y454541D01*
X1156027Y454542D01*
X1156034Y454543D01*
X1156238Y454600D01*
X1156452Y454659D01*
X1156458Y454662D01*
X1156464Y454664D01*
X1156655Y454757D01*
X1156854Y454852D01*
X1156860Y454856D01*
X1156866Y454859D01*
X1157038Y454985D01*
X1157216Y455114D01*
X1157221Y455119D01*
X1157226Y455123D01*
X1157375Y455279D01*
X1157526Y455436D01*
X1157529Y455442D01*
X1157534Y455447D01*
X1157652Y455627D01*
X1157773Y455808D01*
X1157776Y455814D01*
X1157779Y455820D01*
X1157885Y456044D01*
X1158562Y457677D01*
X1161827Y460942D01*
X1166092Y462709D01*
X1170708Y462709D01*
X1174973Y460942D01*
X1178238Y457678D01*
X1178791Y456343D01*
X1178854Y456221D01*
X1178909Y456096D01*
X1178958Y456024D01*
X1178998Y455947D01*
X1179082Y455839D01*
X1179158Y455725D01*
X1179219Y455663D01*
X1179272Y455594D01*
X1179374Y455503D01*
X1179470Y455405D01*
X1179540Y455354D01*
X1179605Y455296D01*
X1179722Y455224D01*
X1179833Y455145D01*
X1179911Y455108D01*
X1179985Y455062D01*
X1180113Y455012D01*
X1180237Y454954D01*
X1180321Y454931D01*
X1180401Y454899D01*
X1180536Y454873D01*
X1180668Y454837D01*
X1180754Y454830D01*
X1180840Y454813D01*
X1180977Y454811D01*
X1181113Y454800D01*
X1181200Y454808D01*
X1181286Y454807D01*
X1181421Y454829D01*
X1181558Y454842D01*
X1181641Y454865D01*
X1181727Y454880D01*
X1181856Y454926D01*
X1181988Y454963D01*
X1182066Y455001D01*
X1182148Y455030D01*
X1182266Y455098D01*
X1182389Y455158D01*
X1182460Y455209D01*
X1182535Y455253D01*
X1182640Y455341D01*
X1182750Y455422D01*
X1182810Y455485D01*
X1182876Y455541D01*
X1182964Y455647D01*
X1183058Y455746D01*
X1183105Y455818D01*
X1183161Y455885D01*
X1183228Y456005D01*
X1183303Y456119D01*
X1183362Y456243D01*
X1183380Y456275D01*
X1183387Y456297D01*
X1183409Y456343D01*
X1183962Y457678D01*
X1187227Y460942D01*
X1191492Y462709D01*
X1196108Y462709D01*
X1200373Y460942D01*
X1203638Y457678D01*
X1204191Y456343D01*
X1204254Y456221D01*
X1204309Y456096D01*
X1204358Y456024D01*
X1204398Y455947D01*
X1204482Y455839D01*
X1204558Y455725D01*
X1204619Y455663D01*
X1204672Y455594D01*
X1204774Y455503D01*
X1204870Y455405D01*
X1204940Y455354D01*
X1205005Y455296D01*
X1205122Y455224D01*
X1205233Y455145D01*
X1205311Y455108D01*
X1205385Y455062D01*
X1205513Y455012D01*
X1205637Y454954D01*
X1205721Y454931D01*
X1205801Y454899D01*
X1205936Y454873D01*
X1206068Y454837D01*
X1206154Y454830D01*
X1206240Y454813D01*
X1206377Y454811D01*
X1206513Y454800D01*
X1206600Y454808D01*
X1206686Y454807D01*
X1206821Y454829D01*
X1206958Y454842D01*
X1207041Y454865D01*
X1207127Y454880D01*
X1207256Y454926D01*
X1207388Y454963D01*
X1207466Y455001D01*
X1207548Y455030D01*
X1207666Y455098D01*
X1207789Y455158D01*
X1207860Y455209D01*
X1207935Y455253D01*
X1208040Y455341D01*
X1208150Y455422D01*
X1208210Y455485D01*
X1208276Y455541D01*
X1208364Y455647D01*
X1208458Y455746D01*
X1208505Y455818D01*
X1208561Y455885D01*
X1208628Y456005D01*
X1208703Y456119D01*
X1208762Y456243D01*
X1208780Y456275D01*
X1208787Y456297D01*
X1208809Y456343D01*
X1209362Y457678D01*
X1212627Y460942D01*
X1216892Y462709D01*
X1221508Y462709D01*
X1225773Y460942D01*
X1229038Y457677D01*
X1230975Y453001D01*
X1230980Y452991D01*
X1230984Y452980D01*
X1231084Y452793D01*
X1231182Y452605D01*
X1231189Y452597D01*
X1231194Y452587D01*
X1231326Y452420D01*
X1231456Y452253D01*
X1231465Y452245D01*
X1231472Y452236D01*
X1231631Y452097D01*
X1231789Y451955D01*
X1231799Y451949D01*
X1231807Y451941D01*
X1231988Y451832D01*
X1232170Y451721D01*
X1232180Y451717D01*
X1232190Y451711D01*
X1232388Y451635D01*
X1232586Y451558D01*
X1232597Y451556D01*
X1232607Y451552D01*
X1232816Y451513D01*
X1233024Y451472D01*
X1233035Y451472D01*
X1233046Y451470D01*
X1233259Y451469D01*
X1233471Y451465D01*
X1233482Y451467D01*
X1233493Y451467D01*
X1233703Y451504D01*
X1233911Y451538D01*
X1233922Y451542D01*
X1233933Y451544D01*
X1234132Y451617D01*
X1234332Y451689D01*
X1234342Y451694D01*
X1234352Y451698D01*
X1234534Y451805D01*
X1234719Y451911D01*
X1234728Y451919D01*
X1234737Y451925D01*
X1234897Y452062D01*
X1235060Y452200D01*
X1235068Y452208D01*
X1235076Y452216D01*
X1235209Y452380D01*
X1235345Y452544D01*
X1235350Y452554D01*
X1235358Y452563D01*
X1235460Y452749D01*
X1235564Y452933D01*
X1235567Y452944D01*
X1235573Y452954D01*
X1235661Y453185D01*
X1236125Y454614D01*
X1236779Y455897D01*
X1237625Y457061D01*
X1238643Y458079D01*
X1239807Y458925D01*
X1241090Y459579D01*
X1242101Y459907D01*
X1242101Y444500D01*
X1242101Y429093D01*
X1241090Y429421D01*
X1239807Y430075D01*
X1238643Y430921D01*
X1237625Y431939D01*
X1236779Y433103D01*
X1236125Y434386D01*
X1235661Y435815D01*
X1235656Y435825D01*
X1235654Y435836D01*
X1235569Y436030D01*
X1235485Y436225D01*
X1235479Y436235D01*
X1235475Y436245D01*
X1235356Y436422D01*
X1235240Y436598D01*
X1235232Y436607D01*
X1235226Y436616D01*
X1235077Y436769D01*
X1234931Y436922D01*
X1234922Y436928D01*
X1234914Y436937D01*
X1234741Y437060D01*
X1234571Y437185D01*
X1234560Y437190D01*
X1234551Y437197D01*
X1234359Y437288D01*
X1234169Y437380D01*
X1234158Y437383D01*
X1234147Y437388D01*
X1233942Y437443D01*
X1233738Y437500D01*
X1233727Y437501D01*
X1233716Y437504D01*
X1233504Y437522D01*
X1233294Y437542D01*
X1233282Y437541D01*
X1233271Y437542D01*
X1233059Y437521D01*
X1232849Y437503D01*
X1232838Y437500D01*
X1232826Y437499D01*
X1232623Y437442D01*
X1232417Y437387D01*
X1232407Y437382D01*
X1232396Y437379D01*
X1232207Y437287D01*
X1232014Y437195D01*
X1232005Y437188D01*
X1231995Y437183D01*
X1231824Y437058D01*
X1231651Y436934D01*
X1231643Y436926D01*
X1231634Y436919D01*
X1231489Y436767D01*
X1231340Y436613D01*
X1231334Y436604D01*
X1231326Y436596D01*
X1231210Y436419D01*
X1231092Y436242D01*
X1231087Y436232D01*
X1231081Y436222D01*
X1230975Y435999D01*
X1229391Y432175D01*
X1229348Y432038D01*
X1229297Y431904D01*
X1229282Y431825D01*
X1229258Y431748D01*
X1229240Y431606D01*
X1229213Y431465D01*
X1229207Y431342D01*
X1229202Y431305D01*
X1229204Y431278D01*
X1229201Y431218D01*
X1229201Y404846D01*
X1229217Y404660D01*
X1229229Y404474D01*
X1229237Y404438D01*
X1229241Y404401D01*
X1229290Y404221D01*
X1229334Y404040D01*
X1229349Y404006D01*
X1229359Y403970D01*
X1229440Y403802D01*
X1229516Y403632D01*
X1229536Y403601D01*
X1229552Y403568D01*
X1229662Y403417D01*
X1229767Y403262D01*
X1229801Y403225D01*
X1229814Y403206D01*
X1229841Y403180D01*
X1229933Y403079D01*
X1231917Y401094D01*
X1234201Y395581D01*
X1234201Y389613D01*
X1231917Y384100D01*
X1230384Y382567D01*
X1230297Y382462D01*
X1230202Y382364D01*
X1230154Y382291D01*
X1230098Y382224D01*
X1230030Y382105D01*
X1229955Y381992D01*
X1229920Y381912D01*
X1229877Y381836D01*
X1229832Y381707D01*
X1229778Y381581D01*
X1229758Y381497D01*
X1229729Y381415D01*
X1229707Y381279D01*
X1229676Y381146D01*
X1229672Y381060D01*
X1229658Y380974D01*
X1229661Y380837D01*
X1229654Y380700D01*
X1229665Y380614D01*
X1229667Y380527D01*
X1229694Y380393D01*
X1229712Y380257D01*
X1229738Y380174D01*
X1229756Y380089D01*
X1229806Y379962D01*
X1229848Y379832D01*
X1229888Y379755D01*
X1229920Y379674D01*
X1229993Y379558D01*
X1230057Y379437D01*
X1230110Y379369D01*
X1230156Y379295D01*
X1230248Y379193D01*
X1230333Y379086D01*
X1230398Y379028D01*
X1230456Y378964D01*
X1230565Y378880D01*
X1230667Y378789D01*
X1230741Y378744D01*
X1230810Y378691D01*
X1230932Y378628D01*
X1231049Y378557D01*
X1231130Y378526D01*
X1231207Y378486D01*
X1231338Y378446D01*
X1231466Y378397D01*
X1231551Y378380D01*
X1231634Y378355D01*
X1231770Y378339D01*
X1231904Y378313D01*
X1232041Y378306D01*
X1232078Y378302D01*
X1232101Y378303D01*
X1232152Y378301D01*
X1257048Y378301D01*
X1257185Y378313D01*
G37*
%LPC*%
G36*
X797590Y144859D02*
X797590Y144859D01*
X792951Y146781D01*
X789401Y150331D01*
X788363Y152835D01*
X788345Y152869D01*
X788333Y152906D01*
X788242Y153067D01*
X788156Y153231D01*
X788133Y153261D01*
X788114Y153295D01*
X787995Y153437D01*
X787882Y153583D01*
X787853Y153609D01*
X787828Y153639D01*
X787687Y153758D01*
X787549Y153881D01*
X787516Y153902D01*
X787487Y153927D01*
X787326Y154019D01*
X787169Y154115D01*
X787133Y154130D01*
X787099Y154149D01*
X786925Y154211D01*
X786753Y154278D01*
X786715Y154286D01*
X786678Y154299D01*
X786496Y154328D01*
X786315Y154364D01*
X786276Y154365D01*
X786238Y154371D01*
X786053Y154368D01*
X785868Y154371D01*
X785830Y154364D01*
X785791Y154364D01*
X785609Y154328D01*
X785427Y154298D01*
X785391Y154285D01*
X785353Y154277D01*
X785180Y154209D01*
X785007Y154147D01*
X784973Y154128D01*
X784937Y154114D01*
X784780Y154017D01*
X784619Y153925D01*
X784590Y153900D01*
X784557Y153879D01*
X784419Y153756D01*
X784278Y153636D01*
X784253Y153607D01*
X784225Y153581D01*
X784111Y153434D01*
X783994Y153292D01*
X783975Y153258D01*
X783951Y153228D01*
X783828Y153013D01*
X783390Y152155D01*
X782450Y150861D01*
X781319Y149730D01*
X780025Y148790D01*
X778600Y148064D01*
X777239Y147621D01*
X777239Y165060D01*
X777237Y165088D01*
X777239Y165140D01*
X777239Y182579D01*
X778600Y182136D01*
X780025Y181410D01*
X781319Y180470D01*
X782450Y179339D01*
X783390Y178045D01*
X783828Y177187D01*
X783848Y177154D01*
X783864Y177119D01*
X783922Y177031D01*
X783926Y177024D01*
X783933Y177015D01*
X783967Y176965D01*
X784065Y176809D01*
X784091Y176780D01*
X784113Y176748D01*
X784242Y176615D01*
X784366Y176479D01*
X784397Y176455D01*
X784424Y176427D01*
X784574Y176320D01*
X784721Y176208D01*
X784756Y176190D01*
X784787Y176167D01*
X784954Y176088D01*
X785119Y176004D01*
X785156Y175993D01*
X785191Y175976D01*
X785370Y175928D01*
X785546Y175875D01*
X785585Y175870D01*
X785622Y175860D01*
X785806Y175844D01*
X785990Y175823D01*
X786029Y175826D01*
X786067Y175822D01*
X786251Y175840D01*
X786436Y175852D01*
X786473Y175861D01*
X786512Y175865D01*
X786690Y175915D01*
X786870Y175959D01*
X786905Y175975D01*
X786942Y175985D01*
X787108Y176066D01*
X787277Y176142D01*
X787309Y176164D01*
X787344Y176181D01*
X787493Y176289D01*
X787646Y176394D01*
X787673Y176422D01*
X787704Y176444D01*
X787832Y176578D01*
X787963Y176708D01*
X787986Y176740D01*
X788012Y176768D01*
X788113Y176922D01*
X788220Y177074D01*
X788236Y177109D01*
X788258Y177141D01*
X788363Y177365D01*
X789401Y179869D01*
X792951Y183419D01*
X797590Y185341D01*
X802610Y185341D01*
X807249Y183419D01*
X811033Y179636D01*
X811071Y179604D01*
X811105Y179566D01*
X811243Y179460D01*
X811376Y179349D01*
X811419Y179325D01*
X811459Y179294D01*
X811613Y179214D01*
X811764Y179129D01*
X811811Y179112D01*
X811856Y179089D01*
X812021Y179038D01*
X812185Y178980D01*
X812235Y178972D01*
X812283Y178958D01*
X812455Y178937D01*
X812626Y178910D01*
X812676Y178911D01*
X812726Y178905D01*
X812900Y178915D01*
X813073Y178919D01*
X813122Y178928D01*
X813172Y178931D01*
X813341Y178973D01*
X813511Y179007D01*
X813557Y179025D01*
X813606Y179037D01*
X813765Y179108D01*
X813926Y179172D01*
X813969Y179198D01*
X814014Y179218D01*
X814158Y179316D01*
X814305Y179408D01*
X814342Y179441D01*
X814384Y179470D01*
X814567Y179636D01*
X818351Y183419D01*
X822990Y185341D01*
X828010Y185341D01*
X832649Y183419D01*
X836433Y179636D01*
X836471Y179604D01*
X836505Y179566D01*
X836643Y179460D01*
X836776Y179349D01*
X836819Y179325D01*
X836859Y179294D01*
X837013Y179214D01*
X837164Y179129D01*
X837211Y179112D01*
X837256Y179089D01*
X837421Y179038D01*
X837585Y178980D01*
X837635Y178972D01*
X837683Y178958D01*
X837855Y178937D01*
X838026Y178910D01*
X838076Y178911D01*
X838126Y178905D01*
X838300Y178915D01*
X838473Y178919D01*
X838522Y178928D01*
X838572Y178931D01*
X838741Y178973D01*
X838911Y179007D01*
X838957Y179025D01*
X839006Y179037D01*
X839165Y179108D01*
X839326Y179172D01*
X839369Y179198D01*
X839414Y179218D01*
X839558Y179316D01*
X839705Y179408D01*
X839742Y179441D01*
X839784Y179470D01*
X839967Y179636D01*
X843751Y183419D01*
X848390Y185341D01*
X853410Y185341D01*
X858049Y183419D01*
X861599Y179869D01*
X863521Y175230D01*
X863521Y154970D01*
X861599Y150331D01*
X858049Y146781D01*
X853410Y144859D01*
X848390Y144859D01*
X843751Y146781D01*
X839967Y150564D01*
X839929Y150596D01*
X839895Y150634D01*
X839758Y150740D01*
X839624Y150851D01*
X839581Y150875D01*
X839541Y150906D01*
X839387Y150986D01*
X839236Y151071D01*
X839189Y151088D01*
X839144Y151111D01*
X838979Y151162D01*
X838815Y151220D01*
X838765Y151228D01*
X838717Y151242D01*
X838545Y151263D01*
X838374Y151290D01*
X838323Y151289D01*
X838274Y151295D01*
X838100Y151285D01*
X837927Y151281D01*
X837878Y151272D01*
X837828Y151269D01*
X837659Y151227D01*
X837489Y151193D01*
X837443Y151175D01*
X837394Y151163D01*
X837235Y151092D01*
X837074Y151028D01*
X837031Y151002D01*
X836986Y150982D01*
X836842Y150884D01*
X836695Y150792D01*
X836658Y150759D01*
X836616Y150730D01*
X836433Y150564D01*
X832649Y146781D01*
X828010Y144859D01*
X822990Y144859D01*
X818351Y146781D01*
X814567Y150564D01*
X814529Y150596D01*
X814495Y150634D01*
X814358Y150740D01*
X814224Y150851D01*
X814181Y150875D01*
X814141Y150906D01*
X813987Y150986D01*
X813836Y151071D01*
X813789Y151088D01*
X813744Y151111D01*
X813579Y151162D01*
X813415Y151220D01*
X813365Y151228D01*
X813317Y151242D01*
X813145Y151263D01*
X812974Y151290D01*
X812923Y151289D01*
X812874Y151295D01*
X812700Y151285D01*
X812527Y151281D01*
X812478Y151272D01*
X812428Y151269D01*
X812259Y151227D01*
X812089Y151193D01*
X812043Y151175D01*
X811994Y151163D01*
X811835Y151092D01*
X811674Y151028D01*
X811631Y151002D01*
X811586Y150982D01*
X811442Y150884D01*
X811295Y150792D01*
X811258Y150759D01*
X811216Y150730D01*
X811033Y150564D01*
X807249Y146781D01*
X802610Y144859D01*
X797590Y144859D01*
G37*
%LPD*%
%LPC*%
G36*
X682630Y237459D02*
X682630Y237459D01*
X677991Y239381D01*
X674441Y242931D01*
X672519Y247570D01*
X672519Y267830D01*
X674441Y272469D01*
X677991Y276019D01*
X682630Y277941D01*
X687650Y277941D01*
X692289Y276019D01*
X696073Y272236D01*
X696111Y272204D01*
X696145Y272166D01*
X696283Y272060D01*
X696416Y271949D01*
X696459Y271925D01*
X696499Y271894D01*
X696653Y271814D01*
X696804Y271729D01*
X696851Y271712D01*
X696896Y271689D01*
X697061Y271638D01*
X697225Y271580D01*
X697275Y271572D01*
X697323Y271558D01*
X697495Y271537D01*
X697666Y271510D01*
X697716Y271511D01*
X697766Y271505D01*
X697940Y271515D01*
X698113Y271519D01*
X698162Y271528D01*
X698212Y271531D01*
X698381Y271573D01*
X698551Y271607D01*
X698597Y271625D01*
X698646Y271637D01*
X698805Y271708D01*
X698966Y271772D01*
X699009Y271798D01*
X699054Y271818D01*
X699198Y271916D01*
X699345Y272008D01*
X699382Y272041D01*
X699424Y272070D01*
X699607Y272236D01*
X703391Y276019D01*
X708030Y277941D01*
X713050Y277941D01*
X717689Y276019D01*
X721239Y272469D01*
X723161Y267830D01*
X723161Y247570D01*
X721239Y242931D01*
X717689Y239381D01*
X713050Y237459D01*
X708030Y237459D01*
X703391Y239381D01*
X699607Y243164D01*
X699569Y243196D01*
X699535Y243234D01*
X699398Y243340D01*
X699264Y243451D01*
X699221Y243475D01*
X699181Y243506D01*
X699027Y243586D01*
X698876Y243671D01*
X698829Y243688D01*
X698784Y243711D01*
X698619Y243762D01*
X698455Y243820D01*
X698405Y243828D01*
X698357Y243842D01*
X698185Y243863D01*
X698014Y243890D01*
X697963Y243889D01*
X697914Y243895D01*
X697740Y243885D01*
X697567Y243881D01*
X697518Y243872D01*
X697468Y243869D01*
X697299Y243827D01*
X697129Y243793D01*
X697083Y243775D01*
X697034Y243763D01*
X696875Y243692D01*
X696714Y243628D01*
X696671Y243602D01*
X696626Y243582D01*
X696482Y243484D01*
X696335Y243392D01*
X696298Y243359D01*
X696256Y243330D01*
X696073Y243164D01*
X692289Y239381D01*
X687650Y237459D01*
X682630Y237459D01*
G37*
%LPD*%
%LPC*%
G36*
X913170Y246279D02*
X913170Y246279D01*
X908531Y248201D01*
X904981Y251751D01*
X903059Y256390D01*
X903059Y276650D01*
X904981Y281289D01*
X908531Y284839D01*
X913170Y286761D01*
X918190Y286761D01*
X922829Y284839D01*
X926613Y281056D01*
X926651Y281024D01*
X926685Y280986D01*
X926823Y280880D01*
X926956Y280769D01*
X926999Y280745D01*
X927039Y280714D01*
X927193Y280634D01*
X927344Y280549D01*
X927391Y280532D01*
X927436Y280509D01*
X927601Y280458D01*
X927765Y280400D01*
X927815Y280392D01*
X927863Y280378D01*
X928035Y280357D01*
X928206Y280330D01*
X928256Y280331D01*
X928306Y280325D01*
X928480Y280335D01*
X928653Y280339D01*
X928702Y280348D01*
X928752Y280351D01*
X928921Y280393D01*
X929091Y280427D01*
X929137Y280445D01*
X929186Y280457D01*
X929345Y280528D01*
X929506Y280592D01*
X929549Y280618D01*
X929594Y280638D01*
X929738Y280736D01*
X929885Y280828D01*
X929922Y280861D01*
X929964Y280890D01*
X930147Y281056D01*
X933931Y284839D01*
X938570Y286761D01*
X943590Y286761D01*
X948229Y284839D01*
X951779Y281289D01*
X953701Y276650D01*
X953701Y256390D01*
X951779Y251751D01*
X948229Y248201D01*
X943590Y246279D01*
X938570Y246279D01*
X933931Y248201D01*
X930147Y251984D01*
X930109Y252016D01*
X930075Y252054D01*
X929938Y252160D01*
X929804Y252271D01*
X929761Y252295D01*
X929721Y252326D01*
X929567Y252406D01*
X929416Y252491D01*
X929369Y252508D01*
X929324Y252531D01*
X929159Y252582D01*
X928995Y252640D01*
X928945Y252648D01*
X928897Y252662D01*
X928725Y252683D01*
X928554Y252710D01*
X928503Y252709D01*
X928454Y252715D01*
X928280Y252705D01*
X928107Y252701D01*
X928058Y252692D01*
X928008Y252689D01*
X927839Y252647D01*
X927669Y252613D01*
X927623Y252595D01*
X927574Y252583D01*
X927415Y252512D01*
X927254Y252448D01*
X927211Y252422D01*
X927166Y252402D01*
X927022Y252304D01*
X926875Y252212D01*
X926838Y252179D01*
X926796Y252150D01*
X926613Y251984D01*
X922829Y248201D01*
X918190Y246279D01*
X913170Y246279D01*
G37*
%LPD*%
%LPC*%
G36*
X753465Y711359D02*
X753465Y711359D01*
X751627Y712121D01*
X750221Y713527D01*
X749459Y715365D01*
X749459Y732435D01*
X750221Y734273D01*
X751627Y735679D01*
X753465Y736441D01*
X770535Y736441D01*
X772373Y735679D01*
X773779Y734273D01*
X774181Y733303D01*
X774224Y733221D01*
X774259Y733134D01*
X774328Y733023D01*
X774388Y732908D01*
X774446Y732834D01*
X774495Y732754D01*
X774582Y732658D01*
X774662Y732555D01*
X774732Y732493D01*
X774795Y732423D01*
X774898Y732344D01*
X774995Y732257D01*
X775075Y732208D01*
X775149Y732151D01*
X775264Y732091D01*
X775375Y732023D01*
X775463Y731989D01*
X775546Y731946D01*
X775670Y731907D01*
X775791Y731860D01*
X775883Y731842D01*
X775973Y731815D01*
X776102Y731799D01*
X776230Y731774D01*
X776323Y731773D01*
X776416Y731762D01*
X776546Y731769D01*
X776676Y731767D01*
X776769Y731783D01*
X776862Y731788D01*
X776988Y731819D01*
X777117Y731840D01*
X777205Y731872D01*
X777296Y731894D01*
X777415Y731947D01*
X777538Y731991D01*
X777619Y732037D01*
X777704Y732075D01*
X777812Y732148D01*
X777925Y732214D01*
X777996Y732274D01*
X778074Y732326D01*
X778257Y732492D01*
X780296Y734532D01*
X784905Y736441D01*
X789895Y736441D01*
X794504Y734532D01*
X798333Y730703D01*
X798371Y730670D01*
X798405Y730633D01*
X798543Y730527D01*
X798676Y730416D01*
X798719Y730392D01*
X798759Y730361D01*
X798913Y730281D01*
X799064Y730195D01*
X799111Y730179D01*
X799156Y730156D01*
X799321Y730105D01*
X799485Y730047D01*
X799535Y730039D01*
X799583Y730025D01*
X799755Y730004D01*
X799926Y729977D01*
X799976Y729978D01*
X800026Y729972D01*
X800200Y729982D01*
X800373Y729985D01*
X800422Y729995D01*
X800472Y729998D01*
X800641Y730039D01*
X800811Y730074D01*
X800857Y730092D01*
X800906Y730104D01*
X801065Y730174D01*
X801226Y730239D01*
X801269Y730265D01*
X801314Y730285D01*
X801458Y730383D01*
X801605Y730475D01*
X801642Y730508D01*
X801684Y730536D01*
X801867Y730703D01*
X805696Y734532D01*
X810305Y736441D01*
X815295Y736441D01*
X819904Y734532D01*
X823432Y731004D01*
X824529Y728354D01*
X824547Y728320D01*
X824560Y728283D01*
X824650Y728122D01*
X824736Y727958D01*
X824760Y727928D01*
X824779Y727894D01*
X824897Y727752D01*
X825010Y727606D01*
X825039Y727580D01*
X825064Y727550D01*
X825205Y727431D01*
X825343Y727308D01*
X825376Y727287D01*
X825406Y727262D01*
X825566Y727171D01*
X825724Y727074D01*
X825760Y727059D01*
X825793Y727040D01*
X825968Y726978D01*
X826140Y726911D01*
X826178Y726903D01*
X826214Y726890D01*
X826396Y726861D01*
X826578Y726825D01*
X826617Y726824D01*
X826655Y726818D01*
X826839Y726821D01*
X827025Y726818D01*
X827063Y726825D01*
X827102Y726825D01*
X827283Y726861D01*
X827465Y726891D01*
X827502Y726904D01*
X827540Y726912D01*
X827712Y726979D01*
X827886Y727042D01*
X827919Y727061D01*
X827956Y727075D01*
X828113Y727172D01*
X828273Y727264D01*
X828303Y727289D01*
X828336Y727310D01*
X828473Y727433D01*
X828614Y727553D01*
X828639Y727582D01*
X828668Y727608D01*
X828781Y727755D01*
X828899Y727897D01*
X828918Y727931D01*
X828942Y727961D01*
X829065Y728176D01*
X829578Y729184D01*
X830511Y730467D01*
X831633Y731589D01*
X832916Y732522D01*
X834330Y733242D01*
X835701Y733687D01*
X835701Y723900D01*
X835701Y714113D01*
X834330Y714558D01*
X832916Y715278D01*
X831633Y716211D01*
X830511Y717333D01*
X829578Y718616D01*
X829065Y719624D01*
X829044Y719657D01*
X829029Y719692D01*
X828926Y719845D01*
X828827Y720002D01*
X828801Y720031D01*
X828780Y720063D01*
X828651Y720196D01*
X828526Y720332D01*
X828495Y720356D01*
X828468Y720384D01*
X828318Y720491D01*
X828171Y720603D01*
X828137Y720621D01*
X828105Y720644D01*
X827938Y720723D01*
X827774Y720807D01*
X827737Y720818D01*
X827701Y720835D01*
X827522Y720883D01*
X827346Y720936D01*
X827308Y720941D01*
X827270Y720951D01*
X827086Y720967D01*
X826902Y720988D01*
X826864Y720985D01*
X826825Y720989D01*
X826641Y720971D01*
X826457Y720959D01*
X826419Y720950D01*
X826380Y720946D01*
X826203Y720896D01*
X826023Y720852D01*
X825988Y720836D01*
X825950Y720826D01*
X825784Y720745D01*
X825615Y720669D01*
X825583Y720647D01*
X825549Y720630D01*
X825399Y720521D01*
X825247Y720417D01*
X825219Y720389D01*
X825188Y720367D01*
X825061Y720233D01*
X824929Y720103D01*
X824907Y720071D01*
X824880Y720043D01*
X824779Y719889D01*
X824672Y719737D01*
X824656Y719702D01*
X824635Y719669D01*
X824529Y719446D01*
X823432Y716796D01*
X819904Y713268D01*
X815295Y711359D01*
X810305Y711359D01*
X805696Y713268D01*
X801867Y717097D01*
X801829Y717130D01*
X801795Y717167D01*
X801658Y717273D01*
X801524Y717384D01*
X801481Y717408D01*
X801441Y717439D01*
X801287Y717519D01*
X801136Y717605D01*
X801089Y717621D01*
X801044Y717644D01*
X800879Y717695D01*
X800715Y717753D01*
X800665Y717761D01*
X800617Y717775D01*
X800445Y717796D01*
X800274Y717823D01*
X800223Y717822D01*
X800174Y717828D01*
X800000Y717818D01*
X799827Y717815D01*
X799778Y717805D01*
X799728Y717802D01*
X799559Y717761D01*
X799389Y717726D01*
X799343Y717708D01*
X799294Y717696D01*
X799135Y717626D01*
X798974Y717561D01*
X798931Y717535D01*
X798886Y717515D01*
X798742Y717417D01*
X798595Y717325D01*
X798558Y717292D01*
X798516Y717264D01*
X798333Y717097D01*
X794504Y713268D01*
X789895Y711359D01*
X784905Y711359D01*
X780296Y713268D01*
X778257Y715308D01*
X778185Y715367D01*
X778120Y715435D01*
X778014Y715510D01*
X777914Y715594D01*
X777833Y715640D01*
X777757Y715695D01*
X777639Y715750D01*
X777526Y715815D01*
X777438Y715846D01*
X777353Y715886D01*
X777228Y715920D01*
X777105Y715963D01*
X777012Y715978D01*
X776922Y716002D01*
X776792Y716013D01*
X776664Y716034D01*
X776570Y716032D01*
X776477Y716040D01*
X776347Y716027D01*
X776217Y716025D01*
X776125Y716006D01*
X776032Y715997D01*
X775907Y715962D01*
X775779Y715936D01*
X775692Y715902D01*
X775602Y715877D01*
X775485Y715820D01*
X775364Y715771D01*
X775285Y715722D01*
X775200Y715681D01*
X775095Y715604D01*
X774985Y715535D01*
X774915Y715473D01*
X774840Y715417D01*
X774750Y715323D01*
X774654Y715236D01*
X774597Y715162D01*
X774532Y715094D01*
X774460Y714985D01*
X774381Y714882D01*
X774338Y714799D01*
X774287Y714720D01*
X774181Y714497D01*
X773779Y713527D01*
X772373Y712121D01*
X770535Y711359D01*
X753465Y711359D01*
G37*
%LPD*%
%LPC*%
G36*
X326717Y701244D02*
X326717Y701244D01*
X326469Y702811D01*
X326469Y704398D01*
X326717Y705965D01*
X327208Y707474D01*
X327928Y708888D01*
X328077Y709092D01*
X328161Y709233D01*
X328252Y709370D01*
X328275Y709425D01*
X328306Y709476D01*
X328364Y709629D01*
X328429Y709780D01*
X328442Y709838D01*
X328463Y709894D01*
X328493Y710056D01*
X328530Y710215D01*
X328533Y710275D01*
X328544Y710333D01*
X328544Y710498D01*
X328552Y710661D01*
X328544Y710720D01*
X328545Y710780D01*
X328516Y710942D01*
X328495Y711104D01*
X328476Y711161D01*
X328466Y711220D01*
X328409Y711374D01*
X328359Y711530D01*
X328331Y711583D01*
X328310Y711638D01*
X328227Y711780D01*
X328150Y711925D01*
X328113Y711971D01*
X328083Y712023D01*
X327975Y712147D01*
X327874Y712276D01*
X327829Y712315D01*
X327790Y712360D01*
X327662Y712463D01*
X327539Y712572D01*
X327489Y712603D01*
X327442Y712640D01*
X327298Y712719D01*
X327158Y712804D01*
X327102Y712826D01*
X327050Y712854D01*
X326894Y712906D01*
X326741Y712965D01*
X326682Y712976D01*
X326626Y712995D01*
X326464Y713018D01*
X326302Y713048D01*
X326217Y713053D01*
X326184Y713057D01*
X326149Y713056D01*
X326055Y713061D01*
X321355Y713061D01*
X316746Y714970D01*
X313218Y718498D01*
X311309Y723107D01*
X311309Y728096D01*
X312762Y731602D01*
X312789Y731691D01*
X312826Y731777D01*
X312856Y731904D01*
X312895Y732028D01*
X312907Y732121D01*
X312928Y732212D01*
X312934Y732342D01*
X312950Y732472D01*
X312945Y732565D01*
X312950Y732658D01*
X312933Y732787D01*
X312926Y732918D01*
X312904Y733009D01*
X312892Y733101D01*
X312853Y733225D01*
X312822Y733352D01*
X312785Y733438D01*
X312757Y733527D01*
X312696Y733642D01*
X312643Y733761D01*
X312591Y733839D01*
X312547Y733922D01*
X312467Y734024D01*
X312394Y734132D01*
X312329Y734199D01*
X312271Y734273D01*
X312174Y734359D01*
X312083Y734453D01*
X312007Y734507D01*
X311937Y734569D01*
X311826Y734637D01*
X311720Y734713D01*
X311635Y734753D01*
X311555Y734801D01*
X311434Y734848D01*
X311316Y734904D01*
X311226Y734928D01*
X311139Y734962D01*
X311010Y734986D01*
X310885Y735020D01*
X310792Y735028D01*
X310700Y735046D01*
X310453Y735058D01*
X308655Y735058D01*
X304046Y736967D01*
X300518Y740495D01*
X298609Y745104D01*
X298609Y750093D01*
X298943Y750899D01*
X298953Y750931D01*
X298968Y750961D01*
X299020Y751144D01*
X299076Y751325D01*
X299081Y751358D01*
X299090Y751390D01*
X299108Y751579D01*
X299132Y751768D01*
X299130Y751802D01*
X299133Y751835D01*
X299118Y752024D01*
X299107Y752215D01*
X299100Y752247D01*
X299097Y752280D01*
X299048Y752463D01*
X299004Y752649D01*
X298991Y752680D01*
X298982Y752712D01*
X298901Y752884D01*
X298825Y753058D01*
X298806Y753086D01*
X298792Y753116D01*
X298682Y753271D01*
X298576Y753429D01*
X298552Y753453D01*
X298533Y753480D01*
X298397Y753613D01*
X298264Y753750D01*
X298237Y753769D01*
X298213Y753792D01*
X298056Y753899D01*
X297901Y754010D01*
X297871Y754024D01*
X297843Y754043D01*
X297670Y754119D01*
X297498Y754201D01*
X297465Y754209D01*
X297435Y754223D01*
X297250Y754267D01*
X297066Y754317D01*
X297033Y754320D01*
X297000Y754328D01*
X296811Y754339D01*
X296621Y754355D01*
X296588Y754351D01*
X296555Y754353D01*
X296308Y754333D01*
X295357Y754208D01*
X293435Y754723D01*
X291857Y755934D01*
X283322Y770716D01*
X283062Y772689D01*
X283577Y774610D01*
X284788Y776189D01*
X299571Y784723D01*
X301543Y784983D01*
X303465Y784468D01*
X305043Y783257D01*
X313578Y768475D01*
X313838Y766502D01*
X313323Y764581D01*
X312797Y763896D01*
X312715Y763766D01*
X312626Y763641D01*
X312596Y763578D01*
X312558Y763518D01*
X312500Y763376D01*
X312434Y763238D01*
X312416Y763170D01*
X312390Y763105D01*
X312358Y762955D01*
X312318Y762806D01*
X312312Y762736D01*
X312298Y762667D01*
X312293Y762514D01*
X312281Y762361D01*
X312287Y762291D01*
X312285Y762221D01*
X312308Y762069D01*
X312323Y761916D01*
X312342Y761849D01*
X312352Y761779D01*
X312402Y761634D01*
X312444Y761486D01*
X312474Y761423D01*
X312497Y761357D01*
X312572Y761223D01*
X312639Y761085D01*
X312681Y761028D01*
X312715Y760967D01*
X312812Y760848D01*
X312903Y760724D01*
X312954Y760676D01*
X312998Y760621D01*
X313115Y760522D01*
X313226Y760416D01*
X313285Y760378D01*
X313339Y760332D01*
X313472Y760255D01*
X313600Y760171D01*
X313694Y760127D01*
X313725Y760108D01*
X313755Y760098D01*
X313823Y760065D01*
X318254Y758230D01*
X321782Y754702D01*
X323691Y750093D01*
X323691Y745104D01*
X322238Y741598D01*
X322214Y741520D01*
X322205Y741500D01*
X322204Y741493D01*
X322174Y741423D01*
X322144Y741296D01*
X322105Y741172D01*
X322093Y741079D01*
X322072Y740988D01*
X322066Y740858D01*
X322050Y740728D01*
X322055Y740635D01*
X322050Y740542D01*
X322067Y740413D01*
X322074Y740282D01*
X322096Y740191D01*
X322108Y740099D01*
X322147Y739974D01*
X322178Y739848D01*
X322215Y739762D01*
X322243Y739673D01*
X322304Y739558D01*
X322357Y739439D01*
X322409Y739361D01*
X322453Y739278D01*
X322533Y739176D01*
X322606Y739068D01*
X322671Y739001D01*
X322729Y738927D01*
X322826Y738841D01*
X322917Y738747D01*
X322993Y738693D01*
X323063Y738631D01*
X323174Y738563D01*
X323280Y738487D01*
X323365Y738447D01*
X323445Y738399D01*
X323566Y738352D01*
X323684Y738296D01*
X323774Y738272D01*
X323861Y738238D01*
X323990Y738214D01*
X324115Y738180D01*
X324208Y738172D01*
X324300Y738154D01*
X324547Y738142D01*
X326345Y738142D01*
X330954Y736233D01*
X334482Y732705D01*
X336391Y728096D01*
X336391Y723107D01*
X334482Y718498D01*
X333935Y717952D01*
X333848Y717846D01*
X333753Y717748D01*
X333705Y717676D01*
X333649Y717609D01*
X333581Y717490D01*
X333506Y717376D01*
X333471Y717296D01*
X333428Y717221D01*
X333383Y717091D01*
X333329Y716966D01*
X333309Y716881D01*
X333280Y716799D01*
X333259Y716664D01*
X333228Y716531D01*
X333223Y716444D01*
X333209Y716358D01*
X333212Y716221D01*
X333205Y716085D01*
X333217Y715998D01*
X333218Y715911D01*
X333245Y715777D01*
X333263Y715642D01*
X333289Y715559D01*
X333307Y715474D01*
X333357Y715346D01*
X333399Y715216D01*
X333439Y715139D01*
X333471Y715058D01*
X333544Y714942D01*
X333608Y714821D01*
X333662Y714753D01*
X333708Y714679D01*
X333799Y714578D01*
X333884Y714470D01*
X333949Y714412D01*
X334007Y714348D01*
X334116Y714265D01*
X334218Y714174D01*
X334292Y714129D01*
X334361Y714076D01*
X334483Y714013D01*
X334600Y713942D01*
X334681Y713910D01*
X334758Y713870D01*
X334889Y713830D01*
X335017Y713781D01*
X335102Y713765D01*
X335185Y713739D01*
X335321Y713723D01*
X335455Y713697D01*
X335592Y713691D01*
X335629Y713686D01*
X335652Y713688D01*
X335703Y713685D01*
X337343Y713685D01*
X338910Y713437D01*
X340420Y712947D01*
X341834Y712226D01*
X343117Y711294D01*
X343758Y710652D01*
X335301Y705769D01*
X335300Y705769D01*
X326835Y700882D01*
X326717Y701244D01*
G37*
%LPD*%
%LPC*%
G36*
X1277471Y688476D02*
X1277471Y688476D01*
X1262688Y697011D01*
X1261477Y698590D01*
X1260962Y700511D01*
X1261222Y702484D01*
X1269757Y717266D01*
X1271335Y718477D01*
X1273257Y718992D01*
X1274208Y718867D01*
X1274241Y718865D01*
X1274274Y718859D01*
X1274464Y718856D01*
X1274654Y718848D01*
X1274687Y718853D01*
X1274721Y718852D01*
X1274908Y718883D01*
X1275097Y718910D01*
X1275128Y718920D01*
X1275161Y718925D01*
X1275340Y718989D01*
X1275521Y719049D01*
X1275550Y719064D01*
X1275582Y719076D01*
X1275747Y719171D01*
X1275914Y719261D01*
X1275940Y719282D01*
X1275969Y719298D01*
X1276115Y719421D01*
X1276263Y719540D01*
X1276285Y719565D01*
X1276310Y719587D01*
X1276432Y719733D01*
X1276557Y719877D01*
X1276574Y719905D01*
X1276595Y719931D01*
X1276688Y720097D01*
X1276786Y720260D01*
X1276797Y720291D01*
X1276814Y720320D01*
X1276876Y720500D01*
X1276943Y720678D01*
X1276949Y720711D01*
X1276960Y720743D01*
X1276989Y720931D01*
X1277023Y721118D01*
X1277023Y721151D01*
X1277028Y721184D01*
X1277023Y721375D01*
X1277024Y721564D01*
X1277018Y721597D01*
X1277017Y721631D01*
X1276978Y721817D01*
X1276945Y722004D01*
X1276933Y722035D01*
X1276926Y722068D01*
X1276843Y722301D01*
X1276509Y723107D01*
X1276509Y728096D01*
X1278418Y732705D01*
X1281946Y736233D01*
X1286555Y738142D01*
X1288353Y738142D01*
X1288446Y738151D01*
X1288539Y738149D01*
X1288667Y738170D01*
X1288797Y738182D01*
X1288888Y738207D01*
X1288980Y738222D01*
X1289102Y738266D01*
X1289228Y738301D01*
X1289312Y738341D01*
X1289400Y738372D01*
X1289513Y738437D01*
X1289631Y738494D01*
X1289707Y738549D01*
X1289788Y738595D01*
X1289887Y738679D01*
X1289993Y738756D01*
X1290057Y738823D01*
X1290129Y738883D01*
X1290212Y738984D01*
X1290302Y739078D01*
X1290354Y739156D01*
X1290414Y739228D01*
X1290477Y739341D01*
X1290549Y739450D01*
X1290587Y739536D01*
X1290632Y739617D01*
X1290675Y739740D01*
X1290726Y739860D01*
X1290748Y739951D01*
X1290778Y740039D01*
X1290798Y740168D01*
X1290828Y740295D01*
X1290832Y740388D01*
X1290847Y740481D01*
X1290843Y740611D01*
X1290850Y740741D01*
X1290838Y740834D01*
X1290835Y740927D01*
X1290809Y741055D01*
X1290792Y741184D01*
X1290764Y741273D01*
X1290745Y741365D01*
X1290662Y741598D01*
X1289209Y745104D01*
X1289209Y750093D01*
X1291118Y754702D01*
X1294646Y758230D01*
X1299255Y760139D01*
X1303955Y760139D01*
X1304118Y760154D01*
X1304282Y760161D01*
X1304340Y760174D01*
X1304400Y760179D01*
X1304558Y760223D01*
X1304718Y760259D01*
X1304773Y760282D01*
X1304831Y760298D01*
X1304979Y760369D01*
X1305130Y760433D01*
X1305179Y760465D01*
X1305233Y760491D01*
X1305366Y760587D01*
X1305504Y760677D01*
X1305547Y760718D01*
X1305595Y760753D01*
X1305709Y760871D01*
X1305828Y760984D01*
X1305863Y761032D01*
X1305905Y761075D01*
X1305995Y761212D01*
X1306093Y761344D01*
X1306119Y761397D01*
X1306152Y761447D01*
X1306217Y761597D01*
X1306289Y761745D01*
X1306305Y761802D01*
X1306329Y761857D01*
X1306366Y762017D01*
X1306411Y762175D01*
X1306417Y762234D01*
X1306430Y762292D01*
X1306438Y762456D01*
X1306454Y762619D01*
X1306449Y762679D01*
X1306452Y762738D01*
X1306431Y762901D01*
X1306418Y763065D01*
X1306402Y763122D01*
X1306395Y763181D01*
X1306345Y763338D01*
X1306302Y763496D01*
X1306277Y763550D01*
X1306259Y763607D01*
X1306182Y763752D01*
X1306112Y763900D01*
X1306065Y763972D01*
X1306050Y764002D01*
X1306028Y764029D01*
X1305977Y764108D01*
X1305828Y764312D01*
X1305108Y765726D01*
X1304617Y767235D01*
X1304369Y768802D01*
X1304369Y770389D01*
X1304617Y771956D01*
X1304735Y772318D01*
X1313200Y767431D01*
X1313201Y767431D01*
X1321658Y762548D01*
X1321017Y761906D01*
X1319734Y760974D01*
X1318320Y760253D01*
X1316810Y759763D01*
X1315243Y759515D01*
X1313603Y759515D01*
X1313466Y759503D01*
X1313330Y759500D01*
X1313245Y759483D01*
X1313158Y759475D01*
X1313026Y759439D01*
X1312892Y759412D01*
X1312811Y759379D01*
X1312727Y759356D01*
X1312604Y759297D01*
X1312477Y759247D01*
X1312403Y759201D01*
X1312324Y759163D01*
X1312213Y759083D01*
X1312097Y759011D01*
X1312033Y758952D01*
X1311962Y758901D01*
X1311868Y758803D01*
X1311766Y758711D01*
X1311713Y758642D01*
X1311653Y758579D01*
X1311577Y758465D01*
X1311494Y758357D01*
X1311454Y758280D01*
X1311406Y758207D01*
X1311352Y758082D01*
X1311289Y757960D01*
X1311263Y757877D01*
X1311229Y757797D01*
X1311198Y757664D01*
X1311158Y757533D01*
X1311147Y757446D01*
X1311128Y757362D01*
X1311121Y757225D01*
X1311105Y757089D01*
X1311110Y757003D01*
X1311105Y756916D01*
X1311123Y756780D01*
X1311131Y756644D01*
X1311152Y756559D01*
X1311163Y756473D01*
X1311205Y756343D01*
X1311237Y756209D01*
X1311272Y756130D01*
X1311299Y756047D01*
X1311363Y755926D01*
X1311418Y755801D01*
X1311467Y755729D01*
X1311508Y755652D01*
X1311592Y755545D01*
X1311669Y755432D01*
X1311761Y755330D01*
X1311784Y755301D01*
X1311801Y755286D01*
X1311835Y755248D01*
X1312382Y754702D01*
X1314291Y750093D01*
X1314291Y745104D01*
X1312382Y740495D01*
X1308854Y736967D01*
X1304245Y735058D01*
X1302447Y735058D01*
X1302354Y735049D01*
X1302261Y735051D01*
X1302133Y735030D01*
X1302003Y735018D01*
X1301912Y734993D01*
X1301820Y734978D01*
X1301698Y734934D01*
X1301572Y734899D01*
X1301488Y734859D01*
X1301400Y734827D01*
X1301287Y734763D01*
X1301169Y734706D01*
X1301093Y734651D01*
X1301012Y734605D01*
X1300913Y734521D01*
X1300807Y734444D01*
X1300743Y734377D01*
X1300671Y734317D01*
X1300588Y734216D01*
X1300498Y734122D01*
X1300446Y734044D01*
X1300386Y733972D01*
X1300323Y733859D01*
X1300251Y733750D01*
X1300213Y733664D01*
X1300168Y733583D01*
X1300125Y733460D01*
X1300074Y733340D01*
X1300052Y733249D01*
X1300022Y733161D01*
X1300002Y733032D01*
X1299972Y732905D01*
X1299968Y732812D01*
X1299953Y732719D01*
X1299957Y732589D01*
X1299950Y732459D01*
X1299962Y732366D01*
X1299965Y732273D01*
X1299991Y732145D01*
X1300008Y732016D01*
X1300036Y731927D01*
X1300055Y731835D01*
X1300138Y731602D01*
X1301591Y728096D01*
X1301591Y723107D01*
X1299682Y718498D01*
X1296154Y714970D01*
X1291723Y713135D01*
X1291588Y713064D01*
X1291448Y713000D01*
X1291390Y712960D01*
X1291328Y712928D01*
X1291206Y712833D01*
X1291080Y712746D01*
X1291031Y712697D01*
X1290975Y712653D01*
X1290873Y712539D01*
X1290764Y712431D01*
X1290724Y712373D01*
X1290677Y712321D01*
X1290596Y712190D01*
X1290509Y712064D01*
X1290480Y712000D01*
X1290443Y711940D01*
X1290387Y711798D01*
X1290323Y711658D01*
X1290306Y711590D01*
X1290280Y711524D01*
X1290251Y711374D01*
X1290213Y711225D01*
X1290208Y711155D01*
X1290194Y711086D01*
X1290192Y710932D01*
X1290181Y710780D01*
X1290189Y710710D01*
X1290188Y710639D01*
X1290213Y710488D01*
X1290229Y710335D01*
X1290249Y710268D01*
X1290261Y710199D01*
X1290312Y710054D01*
X1290356Y709907D01*
X1290387Y709844D01*
X1290411Y709778D01*
X1290487Y709645D01*
X1290556Y709508D01*
X1290615Y709422D01*
X1290634Y709391D01*
X1290654Y709367D01*
X1290697Y709304D01*
X1291223Y708619D01*
X1291738Y706698D01*
X1291478Y704725D01*
X1282943Y689943D01*
X1281365Y688732D01*
X1279443Y688217D01*
X1277471Y688476D01*
G37*
%LPD*%
%LPC*%
G36*
X835538Y215217D02*
X835538Y215217D01*
X830619Y217255D01*
X826855Y221019D01*
X824817Y225938D01*
X824817Y231262D01*
X826855Y236181D01*
X830207Y239533D01*
X830239Y239571D01*
X830276Y239605D01*
X830382Y239743D01*
X830493Y239876D01*
X830518Y239919D01*
X830548Y239959D01*
X830628Y240113D01*
X830714Y240264D01*
X830730Y240311D01*
X830753Y240356D01*
X830804Y240521D01*
X830862Y240685D01*
X830870Y240735D01*
X830885Y240783D01*
X830905Y240955D01*
X830933Y241126D01*
X830932Y241176D01*
X830938Y241226D01*
X830927Y241400D01*
X830924Y241573D01*
X830914Y241622D01*
X830911Y241672D01*
X830870Y241841D01*
X830835Y242011D01*
X830817Y242057D01*
X830805Y242106D01*
X830735Y242265D01*
X830671Y242426D01*
X830644Y242468D01*
X830624Y242514D01*
X830526Y242658D01*
X830435Y242805D01*
X830401Y242842D01*
X830373Y242884D01*
X830207Y243067D01*
X826855Y246419D01*
X824817Y251338D01*
X824817Y256662D01*
X826855Y261581D01*
X830207Y264933D01*
X830239Y264971D01*
X830276Y265005D01*
X830382Y265143D01*
X830493Y265276D01*
X830518Y265319D01*
X830548Y265359D01*
X830628Y265513D01*
X830714Y265664D01*
X830730Y265711D01*
X830753Y265756D01*
X830804Y265921D01*
X830862Y266085D01*
X830870Y266135D01*
X830885Y266183D01*
X830905Y266355D01*
X830933Y266526D01*
X830932Y266576D01*
X830938Y266626D01*
X830927Y266800D01*
X830924Y266973D01*
X830914Y267022D01*
X830911Y267072D01*
X830870Y267241D01*
X830835Y267411D01*
X830817Y267457D01*
X830805Y267506D01*
X830735Y267665D01*
X830671Y267826D01*
X830644Y267869D01*
X830624Y267914D01*
X830526Y268058D01*
X830435Y268205D01*
X830401Y268242D01*
X830373Y268284D01*
X830207Y268467D01*
X826855Y271819D01*
X824817Y276738D01*
X824817Y282062D01*
X826855Y286981D01*
X830619Y290745D01*
X835538Y292783D01*
X840862Y292783D01*
X845781Y290745D01*
X849545Y286981D01*
X851583Y282062D01*
X851583Y276738D01*
X849545Y271819D01*
X846193Y268467D01*
X846161Y268429D01*
X846124Y268395D01*
X846018Y268258D01*
X845907Y268124D01*
X845882Y268081D01*
X845852Y268041D01*
X845772Y267887D01*
X845686Y267736D01*
X845670Y267689D01*
X845647Y267644D01*
X845596Y267479D01*
X845538Y267315D01*
X845530Y267265D01*
X845515Y267217D01*
X845495Y267045D01*
X845467Y266874D01*
X845468Y266823D01*
X845462Y266774D01*
X845473Y266600D01*
X845476Y266427D01*
X845486Y266378D01*
X845489Y266328D01*
X845530Y266159D01*
X845565Y265989D01*
X845583Y265943D01*
X845595Y265894D01*
X845665Y265735D01*
X845729Y265574D01*
X845756Y265531D01*
X845776Y265486D01*
X845874Y265342D01*
X845965Y265195D01*
X845999Y265158D01*
X846027Y265116D01*
X846193Y264933D01*
X849545Y261581D01*
X851583Y256662D01*
X851583Y251338D01*
X849545Y246419D01*
X846193Y243067D01*
X846161Y243029D01*
X846124Y242995D01*
X846018Y242858D01*
X845907Y242724D01*
X845882Y242681D01*
X845852Y242641D01*
X845772Y242487D01*
X845686Y242336D01*
X845670Y242289D01*
X845647Y242244D01*
X845596Y242079D01*
X845538Y241915D01*
X845530Y241865D01*
X845515Y241817D01*
X845495Y241645D01*
X845467Y241474D01*
X845468Y241423D01*
X845462Y241374D01*
X845473Y241200D01*
X845476Y241027D01*
X845486Y240978D01*
X845489Y240928D01*
X845530Y240759D01*
X845565Y240589D01*
X845583Y240543D01*
X845595Y240494D01*
X845665Y240335D01*
X845729Y240174D01*
X845756Y240131D01*
X845776Y240086D01*
X845874Y239942D01*
X845965Y239795D01*
X845999Y239758D01*
X846027Y239716D01*
X846193Y239533D01*
X849545Y236181D01*
X851583Y231262D01*
X851583Y225938D01*
X849545Y221019D01*
X845781Y217255D01*
X840862Y215217D01*
X835538Y215217D01*
G37*
%LPD*%
%LPC*%
G36*
X784738Y215217D02*
X784738Y215217D01*
X779819Y217255D01*
X776055Y221019D01*
X774017Y225938D01*
X774017Y231262D01*
X776055Y236181D01*
X779407Y239533D01*
X779439Y239571D01*
X779476Y239605D01*
X779582Y239743D01*
X779693Y239876D01*
X779718Y239919D01*
X779748Y239959D01*
X779828Y240113D01*
X779914Y240264D01*
X779930Y240311D01*
X779953Y240356D01*
X780004Y240521D01*
X780062Y240685D01*
X780070Y240735D01*
X780085Y240783D01*
X780105Y240955D01*
X780133Y241126D01*
X780132Y241176D01*
X780138Y241226D01*
X780127Y241400D01*
X780124Y241573D01*
X780114Y241622D01*
X780111Y241672D01*
X780070Y241841D01*
X780035Y242011D01*
X780017Y242057D01*
X780005Y242106D01*
X779935Y242265D01*
X779871Y242426D01*
X779844Y242468D01*
X779824Y242514D01*
X779726Y242658D01*
X779635Y242805D01*
X779601Y242842D01*
X779573Y242884D01*
X779407Y243067D01*
X776055Y246419D01*
X774017Y251338D01*
X774017Y256662D01*
X776055Y261581D01*
X779407Y264933D01*
X779439Y264971D01*
X779476Y265005D01*
X779582Y265143D01*
X779693Y265276D01*
X779718Y265319D01*
X779748Y265359D01*
X779828Y265513D01*
X779914Y265664D01*
X779930Y265711D01*
X779953Y265756D01*
X780004Y265921D01*
X780062Y266085D01*
X780070Y266135D01*
X780085Y266183D01*
X780105Y266355D01*
X780133Y266526D01*
X780132Y266576D01*
X780138Y266626D01*
X780127Y266800D01*
X780124Y266973D01*
X780114Y267022D01*
X780111Y267072D01*
X780070Y267241D01*
X780035Y267411D01*
X780017Y267457D01*
X780005Y267506D01*
X779935Y267665D01*
X779871Y267826D01*
X779844Y267869D01*
X779824Y267914D01*
X779726Y268058D01*
X779635Y268205D01*
X779601Y268242D01*
X779573Y268284D01*
X779407Y268467D01*
X776055Y271819D01*
X774017Y276738D01*
X774017Y282062D01*
X776055Y286981D01*
X779819Y290745D01*
X784738Y292783D01*
X790062Y292783D01*
X794981Y290745D01*
X798745Y286981D01*
X800783Y282062D01*
X800783Y276738D01*
X798745Y271819D01*
X795393Y268467D01*
X795361Y268429D01*
X795324Y268395D01*
X795218Y268258D01*
X795107Y268124D01*
X795082Y268081D01*
X795052Y268041D01*
X794972Y267887D01*
X794886Y267736D01*
X794870Y267689D01*
X794847Y267644D01*
X794796Y267479D01*
X794738Y267315D01*
X794730Y267265D01*
X794715Y267217D01*
X794695Y267045D01*
X794667Y266874D01*
X794668Y266823D01*
X794662Y266774D01*
X794673Y266600D01*
X794676Y266427D01*
X794686Y266378D01*
X794689Y266328D01*
X794730Y266159D01*
X794765Y265989D01*
X794783Y265943D01*
X794795Y265894D01*
X794865Y265735D01*
X794929Y265574D01*
X794956Y265531D01*
X794976Y265486D01*
X795074Y265342D01*
X795165Y265195D01*
X795199Y265158D01*
X795227Y265116D01*
X795393Y264933D01*
X798745Y261581D01*
X800783Y256662D01*
X800783Y251338D01*
X798745Y246419D01*
X795393Y243067D01*
X795361Y243029D01*
X795324Y242995D01*
X795218Y242858D01*
X795107Y242724D01*
X795082Y242681D01*
X795052Y242641D01*
X794972Y242487D01*
X794886Y242336D01*
X794870Y242289D01*
X794847Y242244D01*
X794796Y242079D01*
X794738Y241915D01*
X794730Y241865D01*
X794715Y241817D01*
X794695Y241645D01*
X794667Y241474D01*
X794668Y241423D01*
X794662Y241374D01*
X794673Y241200D01*
X794676Y241027D01*
X794686Y240978D01*
X794689Y240928D01*
X794730Y240759D01*
X794765Y240589D01*
X794783Y240543D01*
X794795Y240494D01*
X794865Y240335D01*
X794929Y240174D01*
X794956Y240131D01*
X794976Y240086D01*
X795074Y239942D01*
X795165Y239795D01*
X795199Y239758D01*
X795227Y239716D01*
X795393Y239533D01*
X798745Y236181D01*
X800783Y231262D01*
X800783Y225938D01*
X798745Y221019D01*
X794981Y217255D01*
X790062Y215217D01*
X784738Y215217D01*
G37*
%LPD*%
%LPC*%
G36*
X778197Y758759D02*
X778197Y758759D01*
X772509Y763881D01*
X769395Y770873D01*
X769395Y778527D01*
X772509Y785519D01*
X778197Y790641D01*
X785476Y793006D01*
X793088Y792206D01*
X799717Y788379D01*
X804216Y782187D01*
X805807Y774700D01*
X804216Y767213D01*
X799717Y761021D01*
X793088Y757194D01*
X785476Y756394D01*
X778197Y758759D01*
G37*
%LPD*%
%LPC*%
G36*
X569743Y155527D02*
X569743Y155527D01*
X567905Y156289D01*
X566499Y157695D01*
X566381Y157980D01*
X566312Y158112D01*
X566251Y158247D01*
X566209Y158309D01*
X566173Y158376D01*
X566082Y158493D01*
X565999Y158615D01*
X565946Y158669D01*
X565899Y158729D01*
X565789Y158828D01*
X565685Y158933D01*
X565623Y158976D01*
X565567Y159027D01*
X565440Y159104D01*
X565319Y159189D01*
X565250Y159221D01*
X565186Y159261D01*
X565048Y159315D01*
X564914Y159377D01*
X564840Y159396D01*
X564770Y159424D01*
X564625Y159452D01*
X564481Y159489D01*
X564406Y159495D01*
X564332Y159510D01*
X564184Y159512D01*
X564036Y159523D01*
X563961Y159515D01*
X563885Y159516D01*
X563739Y159492D01*
X563592Y159477D01*
X563519Y159456D01*
X563444Y159443D01*
X563305Y159393D01*
X563163Y159352D01*
X563059Y159305D01*
X563024Y159293D01*
X562999Y159278D01*
X562937Y159251D01*
X562210Y158881D01*
X560385Y158287D01*
X560279Y158271D01*
X560279Y169930D01*
X560275Y169980D01*
X560277Y170030D01*
X560261Y170153D01*
X560267Y170183D01*
X560279Y170430D01*
X560279Y182089D01*
X560385Y182073D01*
X562210Y181479D01*
X562937Y181109D01*
X563075Y181054D01*
X563208Y180991D01*
X563281Y180971D01*
X563351Y180943D01*
X563496Y180913D01*
X563639Y180874D01*
X563715Y180868D01*
X563789Y180853D01*
X563937Y180849D01*
X564085Y180837D01*
X564160Y180844D01*
X564236Y180842D01*
X564382Y180865D01*
X564529Y180879D01*
X564602Y180900D01*
X564677Y180911D01*
X564817Y180960D01*
X564959Y181000D01*
X565027Y181033D01*
X565099Y181058D01*
X565228Y181130D01*
X565361Y181195D01*
X565422Y181240D01*
X565488Y181277D01*
X565602Y181372D01*
X565722Y181459D01*
X565774Y181514D01*
X565832Y181562D01*
X565927Y181675D01*
X566029Y181783D01*
X566071Y181846D01*
X566120Y181904D01*
X566193Y182032D01*
X566275Y182156D01*
X566324Y182259D01*
X566342Y182291D01*
X566352Y182319D01*
X566381Y182380D01*
X566499Y182665D01*
X567905Y184071D01*
X569743Y184833D01*
X591037Y184833D01*
X592875Y184071D01*
X594281Y182665D01*
X595043Y180827D01*
X595043Y159533D01*
X594281Y157695D01*
X592875Y156289D01*
X591037Y155527D01*
X569743Y155527D01*
G37*
%LPD*%
%LPC*%
G36*
X858793Y318595D02*
X858793Y318595D01*
X851995Y325393D01*
X851995Y335007D01*
X858829Y341841D01*
X858874Y341845D01*
X859006Y341881D01*
X859140Y341908D01*
X859221Y341940D01*
X859305Y341963D01*
X859428Y342022D01*
X859555Y342073D01*
X859629Y342119D01*
X859707Y342156D01*
X859818Y342237D01*
X859934Y342309D01*
X859999Y342367D01*
X860069Y342418D01*
X860164Y342517D01*
X860265Y342609D01*
X860318Y342678D01*
X860379Y342740D01*
X860454Y342854D01*
X860538Y342963D01*
X860578Y343040D01*
X860626Y343112D01*
X860680Y343238D01*
X860743Y343360D01*
X860768Y343443D01*
X860803Y343523D01*
X860834Y343656D01*
X860874Y343787D01*
X860884Y343873D01*
X860904Y343958D01*
X860911Y344094D01*
X860927Y344230D01*
X860922Y344317D01*
X860926Y344404D01*
X860909Y344539D01*
X860900Y344676D01*
X860880Y344761D01*
X860869Y344847D01*
X860827Y344977D01*
X860795Y345110D01*
X860759Y345189D01*
X860733Y345272D01*
X860669Y345393D01*
X860613Y345518D01*
X860565Y345590D01*
X860524Y345667D01*
X860439Y345775D01*
X860362Y345888D01*
X860271Y345989D01*
X860248Y346018D01*
X860230Y346034D01*
X860196Y346071D01*
X854455Y351812D01*
X854455Y353101D01*
X863600Y353101D01*
X872745Y353101D01*
X872745Y351812D01*
X867004Y346071D01*
X866916Y345966D01*
X866821Y345868D01*
X866773Y345795D01*
X866717Y345728D01*
X866650Y345610D01*
X866574Y345496D01*
X866540Y345416D01*
X866497Y345340D01*
X866451Y345211D01*
X866397Y345085D01*
X866377Y345001D01*
X866349Y344919D01*
X866327Y344783D01*
X866296Y344650D01*
X866292Y344564D01*
X866278Y344478D01*
X866281Y344341D01*
X866274Y344204D01*
X866285Y344118D01*
X866287Y344031D01*
X866314Y343897D01*
X866331Y343761D01*
X866358Y343678D01*
X866375Y343593D01*
X866425Y343466D01*
X866467Y343336D01*
X866508Y343259D01*
X866540Y343178D01*
X866612Y343062D01*
X866676Y342941D01*
X866730Y342873D01*
X866776Y342799D01*
X866868Y342697D01*
X866952Y342590D01*
X867017Y342532D01*
X867076Y342468D01*
X867184Y342384D01*
X867287Y342293D01*
X867361Y342248D01*
X867430Y342195D01*
X867551Y342132D01*
X867668Y342061D01*
X867749Y342030D01*
X867827Y341990D01*
X867957Y341950D01*
X868085Y341901D01*
X868171Y341884D01*
X868254Y341859D01*
X868366Y341845D01*
X875205Y335007D01*
X875205Y325393D01*
X868407Y318595D01*
X858793Y318595D01*
G37*
%LPD*%
%LPC*%
G36*
X764539Y167639D02*
X764539Y167639D01*
X764539Y173520D01*
X764789Y175099D01*
X765284Y176620D01*
X766010Y178045D01*
X766950Y179339D01*
X768081Y180470D01*
X769375Y181410D01*
X770800Y182136D01*
X772161Y182579D01*
X772161Y167639D01*
X764539Y167639D01*
G37*
%LPD*%
%LPC*%
G36*
X770800Y148064D02*
X770800Y148064D01*
X769375Y148790D01*
X768081Y149730D01*
X766950Y150861D01*
X766010Y152155D01*
X765284Y153580D01*
X764789Y155101D01*
X764539Y156680D01*
X764539Y162561D01*
X772161Y162561D01*
X772161Y147621D01*
X770800Y148064D01*
G37*
%LPD*%
%LPC*%
G36*
X1247099Y523199D02*
X1247099Y523199D01*
X1247099Y536107D01*
X1248110Y535779D01*
X1249393Y535125D01*
X1250557Y534279D01*
X1251575Y533261D01*
X1252421Y532097D01*
X1253075Y530814D01*
X1253520Y529445D01*
X1253745Y528024D01*
X1253745Y523199D01*
X1247099Y523199D01*
G37*
%LPD*%
%LPC*%
G36*
X1247099Y446999D02*
X1247099Y446999D01*
X1247099Y459907D01*
X1248110Y459579D01*
X1249393Y458925D01*
X1250557Y458079D01*
X1251575Y457061D01*
X1252421Y455897D01*
X1253075Y454614D01*
X1253520Y453245D01*
X1253745Y451824D01*
X1253745Y446999D01*
X1247099Y446999D01*
G37*
%LPD*%
%LPC*%
G36*
X1247099Y442001D02*
X1247099Y442001D01*
X1253745Y442001D01*
X1253745Y437176D01*
X1253520Y435755D01*
X1253075Y434386D01*
X1252421Y433103D01*
X1251575Y431939D01*
X1250557Y430921D01*
X1249393Y430075D01*
X1248110Y429421D01*
X1247099Y429093D01*
X1247099Y442001D01*
G37*
%LPD*%
%LPC*%
G36*
X1247099Y518201D02*
X1247099Y518201D01*
X1253745Y518201D01*
X1253745Y513376D01*
X1253520Y511955D01*
X1253075Y510586D01*
X1252421Y509303D01*
X1251575Y508139D01*
X1250557Y507121D01*
X1249393Y506275D01*
X1248110Y505621D01*
X1247099Y505293D01*
X1247099Y518201D01*
G37*
%LPD*%
%LPC*%
G36*
X1260855Y523199D02*
X1260855Y523199D01*
X1260855Y528024D01*
X1261080Y529445D01*
X1261525Y530814D01*
X1262179Y532097D01*
X1263025Y533261D01*
X1264043Y534279D01*
X1265207Y535125D01*
X1266490Y535779D01*
X1267501Y536107D01*
X1267501Y523199D01*
X1260855Y523199D01*
G37*
%LPD*%
%LPC*%
G36*
X1260855Y446999D02*
X1260855Y446999D01*
X1260855Y451824D01*
X1261080Y453245D01*
X1261525Y454614D01*
X1262179Y455897D01*
X1263025Y457061D01*
X1264043Y458079D01*
X1265207Y458925D01*
X1266490Y459579D01*
X1267501Y459907D01*
X1267501Y446999D01*
X1260855Y446999D01*
G37*
%LPD*%
%LPC*%
G36*
X1266490Y429421D02*
X1266490Y429421D01*
X1265207Y430075D01*
X1264043Y430921D01*
X1263025Y431939D01*
X1262179Y433103D01*
X1261525Y434386D01*
X1261080Y435755D01*
X1260855Y437176D01*
X1260855Y442001D01*
X1267501Y442001D01*
X1267501Y429093D01*
X1266490Y429421D01*
G37*
%LPD*%
%LPC*%
G36*
X1266490Y505621D02*
X1266490Y505621D01*
X1265207Y506275D01*
X1264043Y507121D01*
X1263025Y508139D01*
X1262179Y509303D01*
X1261525Y510586D01*
X1261080Y511955D01*
X1260855Y513376D01*
X1260855Y518201D01*
X1267501Y518201D01*
X1267501Y505293D01*
X1266490Y505621D01*
G37*
%LPD*%
%LPC*%
G36*
X497799Y141858D02*
X497799Y141858D01*
X497799Y149901D01*
X505842Y149901D01*
X505842Y148034D01*
X499666Y141858D01*
X497799Y141858D01*
G37*
%LPD*%
%LPC*%
G36*
X490934Y141858D02*
X490934Y141858D01*
X484758Y148034D01*
X484758Y149901D01*
X492801Y149901D01*
X492801Y141858D01*
X490934Y141858D01*
G37*
%LPD*%
%LPC*%
G36*
X421639Y142239D02*
X421639Y142239D01*
X421639Y149861D01*
X429261Y149861D01*
X429261Y148191D01*
X423309Y142239D01*
X421639Y142239D01*
G37*
%LPD*%
%LPC*%
G36*
X1317864Y770510D02*
X1317864Y770510D01*
X1321498Y776804D01*
X1322139Y776163D01*
X1323072Y774879D01*
X1323792Y773465D01*
X1324283Y771956D01*
X1324531Y770389D01*
X1324531Y768802D01*
X1324283Y767235D01*
X1324165Y766873D01*
X1317864Y770510D01*
G37*
%LPD*%
%LPC*%
G36*
X339964Y702690D02*
X339964Y702690D01*
X346265Y706327D01*
X346383Y705965D01*
X346631Y704398D01*
X346631Y702811D01*
X346383Y701244D01*
X345892Y699735D01*
X345172Y698321D01*
X344239Y697037D01*
X343598Y696396D01*
X339964Y702690D01*
G37*
%LPD*%
%LPC*%
G36*
X1307242Y776643D02*
X1307242Y776643D01*
X1307883Y777285D01*
X1309166Y778217D01*
X1310580Y778938D01*
X1312090Y779428D01*
X1313657Y779676D01*
X1315243Y779676D01*
X1316810Y779428D01*
X1317173Y779310D01*
X1313535Y773010D01*
X1307242Y776643D01*
G37*
%LPD*%
%LPC*%
G36*
X335757Y693524D02*
X335757Y693524D01*
X334190Y693772D01*
X332680Y694262D01*
X331266Y694983D01*
X329983Y695915D01*
X329342Y696557D01*
X335635Y700190D01*
X339273Y693890D01*
X338910Y693772D01*
X337343Y693524D01*
X335757Y693524D01*
G37*
%LPD*%
%LPC*%
G36*
X840699Y726399D02*
X840699Y726399D01*
X840699Y733687D01*
X842070Y733242D01*
X843484Y732522D01*
X844767Y731589D01*
X845889Y730467D01*
X846822Y729184D01*
X847542Y727770D01*
X847987Y726399D01*
X840699Y726399D01*
G37*
%LPD*%
%LPC*%
G36*
X840699Y721401D02*
X840699Y721401D01*
X847987Y721401D01*
X847542Y720030D01*
X846822Y718616D01*
X845889Y717333D01*
X844767Y716211D01*
X843484Y715278D01*
X842070Y714558D01*
X840699Y714113D01*
X840699Y721401D01*
G37*
%LPD*%
%LPC*%
G36*
X866099Y358099D02*
X866099Y358099D01*
X866099Y364745D01*
X867388Y364745D01*
X872745Y359388D01*
X872745Y358099D01*
X866099Y358099D01*
G37*
%LPD*%
%LPC*%
G36*
X854455Y358099D02*
X854455Y358099D01*
X854455Y359388D01*
X859812Y364745D01*
X861101Y364745D01*
X861101Y358099D01*
X854455Y358099D01*
G37*
%LPD*%
D10*
X774700Y774700D02*
X774704Y775012D01*
X774715Y775323D01*
X774734Y775634D01*
X774761Y775945D01*
X774796Y776255D01*
X774837Y776563D01*
X774887Y776871D01*
X774944Y777178D01*
X775009Y777483D01*
X775081Y777786D01*
X775160Y778087D01*
X775247Y778387D01*
X775341Y778684D01*
X775442Y778979D01*
X775551Y779271D01*
X775667Y779560D01*
X775790Y779847D01*
X775919Y780130D01*
X776056Y780410D01*
X776200Y780687D01*
X776350Y780960D01*
X776507Y781229D01*
X776670Y781494D01*
X776840Y781756D01*
X777017Y782013D01*
X777199Y782265D01*
X777388Y782513D01*
X777583Y782757D01*
X777783Y782995D01*
X777990Y783229D01*
X778202Y783457D01*
X778420Y783680D01*
X778643Y783898D01*
X778871Y784110D01*
X779105Y784317D01*
X779343Y784517D01*
X779587Y784712D01*
X779835Y784901D01*
X780087Y785083D01*
X780344Y785260D01*
X780606Y785430D01*
X780871Y785593D01*
X781140Y785750D01*
X781413Y785900D01*
X781690Y786044D01*
X781970Y786181D01*
X782253Y786310D01*
X782540Y786433D01*
X782829Y786549D01*
X783121Y786658D01*
X783416Y786759D01*
X783713Y786853D01*
X784013Y786940D01*
X784314Y787019D01*
X784617Y787091D01*
X784922Y787156D01*
X785229Y787213D01*
X785537Y787263D01*
X785845Y787304D01*
X786155Y787339D01*
X786466Y787366D01*
X786777Y787385D01*
X787088Y787396D01*
X787400Y787400D01*
X787712Y787396D01*
X788023Y787385D01*
X788334Y787366D01*
X788645Y787339D01*
X788955Y787304D01*
X789263Y787263D01*
X789571Y787213D01*
X789878Y787156D01*
X790183Y787091D01*
X790486Y787019D01*
X790787Y786940D01*
X791087Y786853D01*
X791384Y786759D01*
X791679Y786658D01*
X791971Y786549D01*
X792260Y786433D01*
X792547Y786310D01*
X792830Y786181D01*
X793110Y786044D01*
X793387Y785900D01*
X793660Y785750D01*
X793929Y785593D01*
X794194Y785430D01*
X794456Y785260D01*
X794713Y785083D01*
X794965Y784901D01*
X795213Y784712D01*
X795457Y784517D01*
X795695Y784317D01*
X795929Y784110D01*
X796157Y783898D01*
X796380Y783680D01*
X796598Y783457D01*
X796810Y783229D01*
X797017Y782995D01*
X797217Y782757D01*
X797412Y782513D01*
X797601Y782265D01*
X797783Y782013D01*
X797960Y781756D01*
X798130Y781494D01*
X798293Y781229D01*
X798450Y780960D01*
X798600Y780687D01*
X798744Y780410D01*
X798881Y780130D01*
X799010Y779847D01*
X799133Y779560D01*
X799249Y779271D01*
X799358Y778979D01*
X799459Y778684D01*
X799553Y778387D01*
X799640Y778087D01*
X799719Y777786D01*
X799791Y777483D01*
X799856Y777178D01*
X799913Y776871D01*
X799963Y776563D01*
X800004Y776255D01*
X800039Y775945D01*
X800066Y775634D01*
X800085Y775323D01*
X800096Y775012D01*
X800100Y774700D01*
X800096Y774388D01*
X800085Y774077D01*
X800066Y773766D01*
X800039Y773455D01*
X800004Y773145D01*
X799963Y772837D01*
X799913Y772529D01*
X799856Y772222D01*
X799791Y771917D01*
X799719Y771614D01*
X799640Y771313D01*
X799553Y771013D01*
X799459Y770716D01*
X799358Y770421D01*
X799249Y770129D01*
X799133Y769840D01*
X799010Y769553D01*
X798881Y769270D01*
X798744Y768990D01*
X798600Y768713D01*
X798450Y768440D01*
X798293Y768171D01*
X798130Y767906D01*
X797960Y767644D01*
X797783Y767387D01*
X797601Y767135D01*
X797412Y766887D01*
X797217Y766643D01*
X797017Y766405D01*
X796810Y766171D01*
X796598Y765943D01*
X796380Y765720D01*
X796157Y765502D01*
X795929Y765290D01*
X795695Y765083D01*
X795457Y764883D01*
X795213Y764688D01*
X794965Y764499D01*
X794713Y764317D01*
X794456Y764140D01*
X794194Y763970D01*
X793929Y763807D01*
X793660Y763650D01*
X793387Y763500D01*
X793110Y763356D01*
X792830Y763219D01*
X792547Y763090D01*
X792260Y762967D01*
X791971Y762851D01*
X791679Y762742D01*
X791384Y762641D01*
X791087Y762547D01*
X790787Y762460D01*
X790486Y762381D01*
X790183Y762309D01*
X789878Y762244D01*
X789571Y762187D01*
X789263Y762137D01*
X788955Y762096D01*
X788645Y762061D01*
X788334Y762034D01*
X788023Y762015D01*
X787712Y762004D01*
X787400Y762000D01*
X787088Y762004D01*
X786777Y762015D01*
X786466Y762034D01*
X786155Y762061D01*
X785845Y762096D01*
X785537Y762137D01*
X785229Y762187D01*
X784922Y762244D01*
X784617Y762309D01*
X784314Y762381D01*
X784013Y762460D01*
X783713Y762547D01*
X783416Y762641D01*
X783121Y762742D01*
X782829Y762851D01*
X782540Y762967D01*
X782253Y763090D01*
X781970Y763219D01*
X781690Y763356D01*
X781413Y763500D01*
X781140Y763650D01*
X780871Y763807D01*
X780606Y763970D01*
X780344Y764140D01*
X780087Y764317D01*
X779835Y764499D01*
X779587Y764688D01*
X779343Y764883D01*
X779105Y765083D01*
X778871Y765290D01*
X778643Y765502D01*
X778420Y765720D01*
X778202Y765943D01*
X777990Y766171D01*
X777783Y766405D01*
X777583Y766643D01*
X777388Y766887D01*
X777199Y767135D01*
X777017Y767387D01*
X776840Y767644D01*
X776670Y767906D01*
X776507Y768171D01*
X776350Y768440D01*
X776200Y768713D01*
X776056Y768990D01*
X775919Y769270D01*
X775790Y769553D01*
X775667Y769840D01*
X775551Y770129D01*
X775442Y770421D01*
X775341Y770716D01*
X775247Y771013D01*
X775160Y771313D01*
X775081Y771614D01*
X775009Y771917D01*
X774944Y772222D01*
X774887Y772529D01*
X774837Y772837D01*
X774796Y773145D01*
X774761Y773455D01*
X774734Y773766D01*
X774715Y774077D01*
X774704Y774388D01*
X774700Y774700D01*
D11*
X1168400Y451104D02*
X1168400Y437896D01*
X1193800Y437896D02*
X1193800Y451104D01*
X1320800Y451104D02*
X1320800Y437896D01*
X1346200Y437896D02*
X1346200Y451104D01*
X1219200Y451104D02*
X1219200Y437896D01*
X1244600Y437896D02*
X1244600Y451104D01*
X1295400Y451104D02*
X1295400Y437896D01*
X1270000Y437896D02*
X1270000Y451104D01*
X1346200Y514096D02*
X1346200Y527304D01*
X1320800Y527304D02*
X1320800Y514096D01*
X1295400Y514096D02*
X1295400Y527304D01*
X1270000Y527304D02*
X1270000Y514096D01*
X1244600Y514096D02*
X1244600Y527304D01*
X1219200Y527304D02*
X1219200Y514096D01*
X1193800Y514096D02*
X1193800Y527304D01*
X1168400Y527304D02*
X1168400Y514096D01*
D12*
G36*
X1266051Y700845D02*
X1273591Y713903D01*
X1286649Y706363D01*
X1279109Y693305D01*
X1266051Y700845D01*
G37*
D13*
X1289050Y725601D03*
X1301750Y747599D03*
X1314450Y769596D03*
D12*
G36*
X301209Y779895D02*
X308749Y766837D01*
X295691Y759297D01*
X288151Y772355D01*
X301209Y779895D01*
G37*
D13*
X311150Y747599D03*
X323850Y725601D03*
X336550Y703604D03*
D14*
X580390Y170180D03*
D15*
X557530Y170180D03*
D14*
X534670Y170180D03*
D16*
X915680Y258900D02*
X915680Y274140D01*
X941080Y274140D02*
X941080Y258900D01*
X685140Y265320D02*
X685140Y250080D01*
X710540Y250080D02*
X710540Y265320D01*
D17*
X863600Y355600D03*
X762000Y355600D03*
D18*
X762000Y330200D03*
X863600Y330200D03*
D19*
X495300Y177800D03*
X495300Y152400D03*
D15*
X491000Y317400D03*
X491000Y342800D03*
X491000Y368200D03*
X491000Y393600D03*
X491000Y419000D03*
X491000Y444400D03*
X491000Y469800D03*
X491000Y495200D03*
X491000Y520600D03*
X491000Y546000D03*
X491000Y571400D03*
X491000Y596800D03*
X491000Y622200D03*
X491000Y647600D03*
X491000Y673000D03*
X243300Y317400D03*
X243300Y342800D03*
X243300Y368200D03*
X243300Y393600D03*
X243300Y419000D03*
X243300Y444400D03*
X243300Y469800D03*
X243300Y495200D03*
X243300Y520600D03*
X243300Y546000D03*
X243300Y571400D03*
X243300Y596800D03*
X243300Y622200D03*
X243300Y647600D03*
X243300Y673000D03*
D20*
X762000Y723900D03*
D13*
X787400Y723900D03*
X812800Y723900D03*
X838200Y723900D03*
D16*
X800100Y172720D02*
X800100Y157480D01*
X825500Y157480D02*
X825500Y172720D01*
X850900Y172720D02*
X850900Y157480D01*
X774700Y157480D02*
X774700Y172720D01*
D21*
X317500Y152400D03*
X342900Y152400D03*
X368300Y152400D03*
X393700Y152400D03*
X419100Y152400D03*
X317500Y177800D03*
X342900Y177800D03*
X368300Y177800D03*
X393700Y177800D03*
X419100Y177800D03*
D22*
X787400Y228600D03*
X787400Y254000D03*
X787400Y279400D03*
X838200Y228600D03*
X838200Y254000D03*
X838200Y279400D03*
D23*
X977900Y501650D03*
X977900Y368300D03*
X444500Y774700D03*
X558800Y711200D03*
X1028700Y584200D03*
X1028700Y736600D03*
X1028700Y501650D03*
X1028700Y393700D03*
X469900Y254000D03*
X254000Y254000D03*
D24*
X1047750Y520700D02*
X1168400Y520700D01*
X1047750Y520700D02*
X1028700Y501650D01*
X762000Y304800D02*
X572099Y304800D01*
X762000Y304800D02*
X850900Y393700D01*
X1028700Y393700D01*
X521299Y254000D02*
X469900Y254000D01*
X521299Y254000D02*
X572099Y304800D01*
X243300Y317400D02*
X243300Y264700D01*
X254000Y254000D01*
X521299Y254000D02*
X521299Y183552D01*
X527050Y177800D02*
X419100Y177800D01*
X527050Y177800D02*
X534670Y170180D01*
D23*
X1219200Y392597D03*
D24*
X1219200Y444500D01*
D23*
X1270000Y392597D03*
D24*
X1295400Y417997D01*
X1295400Y444500D01*
D23*
X1219200Y571500D03*
D24*
X711200Y267700D02*
X710540Y257700D01*
X1219200Y520700D02*
X1219200Y571500D01*
D23*
X1282700Y571500D03*
D24*
X1295400Y558800D02*
X1295400Y520700D01*
X1295400Y558800D02*
X1282700Y571500D01*
X571600Y444400D02*
X491000Y444400D01*
X571600Y444400D02*
X596900Y419100D01*
X1079500Y419100D01*
X1130300Y368300D01*
X1282700Y368300D01*
X1320800Y406400D01*
X1320800Y444500D01*
X927000Y520600D02*
X491000Y520600D01*
X927000Y520600D02*
X1016000Y609600D01*
X1155700Y609600D01*
X1193800Y571500D01*
X1193800Y520700D01*
X901600Y546000D02*
X491000Y546000D01*
X901600Y546000D02*
X990600Y635000D01*
X1320800Y571500D02*
X1320800Y520700D01*
X1257300Y635000D02*
X990600Y635000D01*
X1257300Y635000D02*
X1320800Y571500D01*
X1346200Y584200D02*
X1270000Y660400D01*
X952500Y660400D01*
X863500Y571400D02*
X491000Y571400D01*
X1346200Y584200D02*
X1346200Y520700D01*
X952500Y660400D02*
X863500Y571400D01*
X597000Y469800D02*
X491000Y469800D01*
X597000Y469800D02*
X622300Y444500D01*
X1092200Y444500D01*
X1117600Y419100D01*
X1181100Y419100D01*
X1193800Y431800D02*
X1193800Y444500D01*
X1193800Y431800D02*
X1181100Y419100D01*
X622400Y495200D02*
X491000Y495200D01*
X647700Y469900D02*
X1104900Y469900D01*
X1130300Y444500D01*
X1168400Y444500D01*
X647700Y469900D02*
X622400Y495200D01*
D23*
X444500Y342900D03*
D24*
X298450Y769596D02*
X297204Y769596D01*
X470000Y317400D02*
X491000Y317400D01*
X470000Y317400D02*
X444500Y342900D01*
X491000Y419000D02*
X546200Y419000D01*
X584200Y381000D02*
X736600Y381000D01*
X762000Y355600D01*
X762000Y330200D01*
X584200Y381000D02*
X546200Y419000D01*
D23*
X368300Y635000D03*
D24*
X355500Y622200D01*
X243300Y622200D01*
D23*
X393700Y698500D03*
D24*
X342800Y647600D02*
X243300Y647600D01*
X342800Y647600D02*
X393700Y698500D01*
D23*
X1117600Y711200D03*
D24*
X876200Y673000D02*
X491000Y673000D01*
X876200Y673000D02*
X914400Y711200D01*
X1117600Y711200D01*
D23*
X1143000Y685800D03*
D24*
X927100Y685800D02*
X888900Y647600D01*
X491000Y647600D01*
X927100Y685800D02*
X1143000Y685800D01*
D23*
X698500Y736600D03*
D24*
X380900Y571400D02*
X243300Y571400D01*
X380900Y571400D02*
X444500Y635000D01*
X444500Y698500D01*
X482600Y736600D01*
X698500Y736600D01*
D23*
X635000Y762000D03*
D24*
X469900Y762000D01*
X419100Y711200D01*
X419100Y647700D01*
X368200Y596800D01*
X243300Y596800D01*
D23*
X1092200Y215900D03*
D25*
X1206500Y215900D01*
X1346200Y355600D01*
X1346200Y444500D01*
D26*
X330200Y330200D02*
X243300Y417100D01*
X243300Y419000D01*
X330200Y165100D02*
X342900Y152400D01*
X330200Y165100D02*
X330200Y330200D01*
X342900Y344800D02*
X243300Y444400D01*
X342900Y344800D02*
X342900Y177800D01*
X317500Y177800D02*
X317500Y317500D01*
X243300Y391700D02*
X243300Y393600D01*
X243300Y391700D02*
X317500Y317500D01*
X304800Y304800D02*
X304800Y165100D01*
X317500Y152400D01*
X304800Y304800D02*
X243300Y366300D01*
X243300Y368200D01*
X243300Y469800D02*
X355600Y357500D01*
X355600Y165100D01*
X368300Y152400D01*
X393700Y395600D02*
X243300Y546000D01*
X393700Y395600D02*
X393700Y177800D01*
X381000Y165100D02*
X393700Y152400D01*
X381000Y382900D02*
X243300Y520600D01*
X381000Y382900D02*
X381000Y165100D01*
X368300Y370200D02*
X243300Y495200D01*
X368300Y370200D02*
X368300Y177800D01*
M02*
