G04 EAGLE Gerber RS-274X export*
G75*
%MOMM*%
%FSLAX34Y34*%
%LPD*%
%INCopper Layer 2*%
%IPPOS*%
%AMOC8*
5,1,8,0,0,1.08239X$1,22.5*%
G01*
%ADD10C,1.320800*%
%ADD11C,1.508000*%
%ADD12C,1.650000*%
%ADD13C,1.524000*%
%ADD14C,0.906400*%
%ADD15C,0.806400*%
%ADD16C,0.756400*%


D10*
X1168400Y444500D03*
X1193800Y444500D03*
X1320800Y444500D03*
X1346200Y444500D03*
X1219200Y444500D03*
X1244600Y444500D03*
X1295400Y444500D03*
X1270000Y444500D03*
X1346200Y520700D03*
X1320800Y520700D03*
X1295400Y520700D03*
X1270000Y520700D03*
X1244600Y520700D03*
X1219200Y520700D03*
X1193800Y520700D03*
X1168400Y520700D03*
D11*
X1276350Y703604D03*
X1289050Y725601D03*
X1301750Y747599D03*
X1314450Y769596D03*
X298450Y769596D03*
X311150Y747599D03*
X323850Y725601D03*
X336550Y703604D03*
D12*
X580390Y170180D03*
X557530Y170180D03*
X534670Y170180D03*
D13*
X915680Y266520D03*
X941080Y266520D03*
X685140Y257700D03*
X710540Y257700D03*
D10*
X863600Y355600D03*
X762000Y355600D03*
X762000Y330200D03*
X863600Y330200D03*
X495300Y177800D03*
X495300Y152400D03*
D11*
X491000Y317400D03*
X491000Y342800D03*
X491000Y368200D03*
X491000Y393600D03*
X491000Y419000D03*
X491000Y444400D03*
X491000Y469800D03*
X491000Y495200D03*
X491000Y520600D03*
X491000Y546000D03*
X491000Y571400D03*
X491000Y596800D03*
X491000Y622200D03*
X491000Y647600D03*
X491000Y673000D03*
X243300Y317400D03*
X243300Y342800D03*
X243300Y368200D03*
X243300Y393600D03*
X243300Y419000D03*
X243300Y444400D03*
X243300Y469800D03*
X243300Y495200D03*
X243300Y520600D03*
X243300Y546000D03*
X243300Y571400D03*
X243300Y596800D03*
X243300Y622200D03*
X243300Y647600D03*
X243300Y673000D03*
X762000Y723900D03*
X787400Y723900D03*
X812800Y723900D03*
X838200Y723900D03*
D13*
X800100Y165100D03*
X825500Y165100D03*
X850900Y165100D03*
X774700Y165100D03*
X317500Y152400D03*
X342900Y152400D03*
X368300Y152400D03*
X393700Y152400D03*
X419100Y152400D03*
X317500Y177800D03*
X342900Y177800D03*
X368300Y177800D03*
X393700Y177800D03*
X419100Y177800D03*
D12*
X787400Y228600D03*
X787400Y254000D03*
X787400Y279400D03*
X838200Y228600D03*
X838200Y254000D03*
X838200Y279400D03*
D14*
X977900Y501650D03*
X977900Y368300D03*
X444500Y774700D03*
X558800Y711200D03*
X1028700Y584200D03*
X1028700Y736600D03*
D15*
X1028700Y501650D03*
X1028700Y393700D03*
D16*
X469900Y254000D03*
X254000Y254000D03*
X1219200Y392597D03*
X1270000Y392597D03*
X1219200Y571500D03*
X1282700Y571500D03*
X444500Y342900D03*
X368300Y635000D03*
X393700Y698500D03*
X1117600Y711200D03*
X1143000Y685800D03*
X698500Y736600D03*
X635000Y762000D03*
X1092200Y215900D03*
M02*
