G04 EAGLE Gerber RS-274X export*
G75*
%MOMM*%
%FSLAX34Y34*%
%LPD*%
%IN*%
%IPPOS*%
%AMOC8*
5,1,8,0,0,1.08239X$1,22.5*%
G01*
%ADD10C,0.254000*%


D10*
X223970Y121970D02*
X1373970Y121970D01*
X1373970Y821970D01*
X223970Y821970D01*
X223970Y121970D01*
X542260Y329700D02*
X542331Y328703D01*
X542474Y327713D01*
X542686Y326736D01*
X542968Y325776D01*
X543317Y324839D01*
X543733Y323929D01*
X544212Y323052D01*
X544753Y322210D01*
X545352Y321410D01*
X546007Y320654D01*
X546714Y319947D01*
X547470Y319292D01*
X548270Y318693D01*
X549112Y318152D01*
X549989Y317673D01*
X550899Y317257D01*
X551836Y316908D01*
X552796Y316626D01*
X553773Y316414D01*
X554763Y316271D01*
X555760Y316200D01*
X556760Y316200D01*
X557758Y316271D01*
X558747Y316414D01*
X559725Y316626D01*
X560684Y316908D01*
X561621Y317257D01*
X562531Y317673D01*
X563408Y318152D01*
X564250Y318693D01*
X565050Y319292D01*
X565806Y319947D01*
X566513Y320654D01*
X567168Y321410D01*
X567767Y322210D01*
X568308Y323052D01*
X568787Y323929D01*
X569203Y324839D01*
X569552Y325776D01*
X569834Y326736D01*
X570046Y327713D01*
X570189Y328703D01*
X570260Y329700D01*
X570260Y330700D01*
X570189Y331698D01*
X570046Y332687D01*
X569834Y333665D01*
X569552Y334624D01*
X569203Y335561D01*
X568787Y336471D01*
X568308Y337348D01*
X567767Y338190D01*
X567168Y338990D01*
X566513Y339746D01*
X565806Y340453D01*
X565050Y341108D01*
X564250Y341707D01*
X563408Y342248D01*
X562531Y342727D01*
X561621Y343143D01*
X560684Y343492D01*
X559725Y343774D01*
X558747Y343986D01*
X557758Y344129D01*
X556760Y344200D01*
X555760Y344200D01*
X554763Y344129D01*
X553773Y343986D01*
X552796Y343774D01*
X551836Y343492D01*
X550899Y343143D01*
X549989Y342727D01*
X549112Y342248D01*
X548270Y341707D01*
X547470Y341108D01*
X546714Y340453D01*
X546007Y339746D01*
X545352Y338990D01*
X544753Y338190D01*
X544212Y337348D01*
X543733Y336471D01*
X543317Y335561D01*
X542968Y334624D01*
X542686Y333665D01*
X542474Y332687D01*
X542331Y331698D01*
X542260Y330700D01*
X542260Y329700D01*
M02*
