G04 EAGLE Gerber RS-274X export*
G75*
%MOMM*%
%FSLAX34Y34*%
%LPD*%
%INSoldermask Top*%
%IPPOS*%
%AMOC8*
5,1,8,0,0,1.08239X$1,22.5*%
G01*
%ADD10C,1.524000*%
%ADD11R,1.711200X1.711200*%
%ADD12C,1.711200*%
%ADD13R,2.133600X2.133600*%
%ADD14C,2.133600*%
%ADD15C,3.003200*%
%ADD16C,1.727200*%
%ADD17P,1.649562X8X202.500000*%
%ADD18P,1.649562X8X22.500000*%
%ADD19P,1.951982X8X292.500000*%
%ADD20R,1.711200X1.711200*%
%ADD21P,1.869504X8X22.500000*%
%ADD22C,1.879600*%
%ADD23C,2.203200*%


D10*
X1168400Y437896D02*
X1168400Y451104D01*
X1193800Y451104D02*
X1193800Y437896D01*
X1320800Y437896D02*
X1320800Y451104D01*
X1346200Y451104D02*
X1346200Y437896D01*
X1219200Y437896D02*
X1219200Y451104D01*
X1244600Y451104D02*
X1244600Y437896D01*
X1295400Y437896D02*
X1295400Y451104D01*
X1270000Y451104D02*
X1270000Y437896D01*
X1346200Y514096D02*
X1346200Y527304D01*
X1320800Y527304D02*
X1320800Y514096D01*
X1295400Y514096D02*
X1295400Y527304D01*
X1270000Y527304D02*
X1270000Y514096D01*
X1244600Y514096D02*
X1244600Y527304D01*
X1219200Y527304D02*
X1219200Y514096D01*
X1193800Y514096D02*
X1193800Y527304D01*
X1168400Y527304D02*
X1168400Y514096D01*
D11*
G36*
X1264663Y700473D02*
X1273219Y715291D01*
X1288037Y706735D01*
X1279481Y691917D01*
X1264663Y700473D01*
G37*
D12*
X1289050Y725601D03*
X1301750Y747599D03*
X1314450Y769596D03*
D11*
G36*
X301581Y781283D02*
X310137Y766465D01*
X295319Y757909D01*
X286763Y772727D01*
X301581Y781283D01*
G37*
D12*
X311150Y747599D03*
X323850Y725601D03*
X336550Y703604D03*
D13*
X580390Y170180D03*
D14*
X557530Y170180D03*
D13*
X534670Y170180D03*
D15*
X556260Y330200D03*
D16*
X915680Y274140D02*
X915680Y258900D01*
X941080Y258900D02*
X941080Y274140D01*
X685140Y265320D02*
X685140Y250080D01*
X710540Y250080D02*
X710540Y265320D01*
D17*
X863600Y355600D03*
X762000Y355600D03*
D18*
X762000Y330200D03*
X863600Y330200D03*
D19*
X495300Y177800D03*
X495300Y152400D03*
D14*
X491000Y317400D03*
X491000Y342800D03*
X491000Y368200D03*
X491000Y393600D03*
X491000Y419000D03*
X491000Y444400D03*
X491000Y469800D03*
X491000Y495200D03*
X491000Y520600D03*
X491000Y546000D03*
X491000Y571400D03*
X491000Y596800D03*
X491000Y622200D03*
X491000Y647600D03*
X491000Y673000D03*
X243300Y317400D03*
X243300Y342800D03*
X243300Y368200D03*
X243300Y393600D03*
X243300Y419000D03*
X243300Y444400D03*
X243300Y469800D03*
X243300Y495200D03*
X243300Y520600D03*
X243300Y546000D03*
X243300Y571400D03*
X243300Y596800D03*
X243300Y622200D03*
X243300Y647600D03*
X243300Y673000D03*
D20*
X762000Y723900D03*
D12*
X787400Y723900D03*
X812800Y723900D03*
X838200Y723900D03*
D16*
X800100Y172720D02*
X800100Y157480D01*
X825500Y157480D02*
X825500Y172720D01*
X850900Y172720D02*
X850900Y157480D01*
X774700Y157480D02*
X774700Y172720D01*
D21*
X317500Y152400D03*
X342900Y152400D03*
X368300Y152400D03*
X393700Y152400D03*
X419100Y152400D03*
X317500Y177800D03*
X342900Y177800D03*
X368300Y177800D03*
X393700Y177800D03*
X419100Y177800D03*
D22*
X787400Y228600D03*
X787400Y254000D03*
X787400Y279400D03*
X838200Y228600D03*
X838200Y254000D03*
X838200Y279400D03*
D23*
X977900Y501650D03*
X977900Y368300D03*
X444500Y774700D03*
X558800Y711200D03*
X1028700Y584200D03*
X1028700Y736600D03*
X1028700Y501650D03*
X1028700Y393700D03*
X469900Y254000D03*
X254000Y254000D03*
X1219200Y392597D03*
X1270000Y392597D03*
X1219200Y571500D03*
X1282700Y571500D03*
X444500Y342900D03*
X368300Y635000D03*
X393700Y698500D03*
X1117600Y711200D03*
X1143000Y685800D03*
X698500Y736600D03*
X635000Y762000D03*
X1092200Y215900D03*
M02*
